G04 #@! TF.GenerationSoftware,KiCad,Pcbnew,5.0.0-fee4fd1~66~ubuntu16.04.1*
G04 #@! TF.CreationDate,2019-07-26T21:19:50+02:00*
G04 #@! TF.ProjectId,master_module,6D61737465725F6D6F64756C652E6B69,rev?*
G04 #@! TF.SameCoordinates,Original*
G04 #@! TF.FileFunction,Legend,Top*
G04 #@! TF.FilePolarity,Positive*
%FSLAX46Y46*%
G04 Gerber Fmt 4.6, Leading zero omitted, Abs format (unit mm)*
G04 Created by KiCad (PCBNEW 5.0.0-fee4fd1~66~ubuntu16.04.1) date Fri Jul 26 21:19:50 2019*
%MOMM*%
%LPD*%
G01*
G04 APERTURE LIST*
%ADD10C,0.300000*%
%ADD11C,0.150000*%
%ADD12C,0.120000*%
G04 APERTURE END LIST*
D10*
X145527628Y-95517171D02*
X145527628Y-94017171D01*
X146099057Y-94017171D01*
X146241914Y-94088600D01*
X146313342Y-94160028D01*
X146384771Y-94302885D01*
X146384771Y-94517171D01*
X146313342Y-94660028D01*
X146241914Y-94731457D01*
X146099057Y-94802885D01*
X145527628Y-94802885D01*
X147241914Y-95517171D02*
X147099057Y-95445742D01*
X147027628Y-95302885D01*
X147027628Y-94017171D01*
X148456200Y-95517171D02*
X148456200Y-94731457D01*
X148384771Y-94588600D01*
X148241914Y-94517171D01*
X147956200Y-94517171D01*
X147813342Y-94588600D01*
X148456200Y-95445742D02*
X148313342Y-95517171D01*
X147956200Y-95517171D01*
X147813342Y-95445742D01*
X147741914Y-95302885D01*
X147741914Y-95160028D01*
X147813342Y-95017171D01*
X147956200Y-94945742D01*
X148313342Y-94945742D01*
X148456200Y-94874314D01*
X149170485Y-94517171D02*
X149170485Y-95517171D01*
X149170485Y-94660028D02*
X149241914Y-94588600D01*
X149384771Y-94517171D01*
X149599057Y-94517171D01*
X149741914Y-94588600D01*
X149813342Y-94731457D01*
X149813342Y-95517171D01*
X150313342Y-94517171D02*
X150884771Y-94517171D01*
X150527628Y-94017171D02*
X150527628Y-95302885D01*
X150599057Y-95445742D01*
X150741914Y-95517171D01*
X150884771Y-95517171D01*
X151384771Y-95517171D02*
X151384771Y-94517171D01*
X151384771Y-94017171D02*
X151313342Y-94088600D01*
X151384771Y-94160028D01*
X151456200Y-94088600D01*
X151384771Y-94017171D01*
X151384771Y-94160028D01*
X152099057Y-94517171D02*
X152099057Y-95517171D01*
X152099057Y-94660028D02*
X152170485Y-94588600D01*
X152313342Y-94517171D01*
X152527628Y-94517171D01*
X152670485Y-94588600D01*
X152741914Y-94731457D01*
X152741914Y-95517171D01*
X153456200Y-95517171D02*
X153456200Y-94517171D01*
X153456200Y-94017171D02*
X153384771Y-94088600D01*
X153456200Y-94160028D01*
X153527628Y-94088600D01*
X153456200Y-94017171D01*
X153456200Y-94160028D01*
X154099057Y-95445742D02*
X154241914Y-95517171D01*
X154527628Y-95517171D01*
X154670485Y-95445742D01*
X154741914Y-95302885D01*
X154741914Y-95231457D01*
X154670485Y-95088600D01*
X154527628Y-95017171D01*
X154313342Y-95017171D01*
X154170485Y-94945742D01*
X154099057Y-94802885D01*
X154099057Y-94731457D01*
X154170485Y-94588600D01*
X154313342Y-94517171D01*
X154527628Y-94517171D01*
X154670485Y-94588600D01*
X155956200Y-95445742D02*
X155813342Y-95517171D01*
X155527628Y-95517171D01*
X155384771Y-95445742D01*
X155313342Y-95302885D01*
X155313342Y-94731457D01*
X155384771Y-94588600D01*
X155527628Y-94517171D01*
X155813342Y-94517171D01*
X155956200Y-94588600D01*
X156027628Y-94731457D01*
X156027628Y-94874314D01*
X155313342Y-95017171D01*
X156670485Y-95517171D02*
X156670485Y-94517171D01*
X156670485Y-94802885D02*
X156741914Y-94660028D01*
X156813342Y-94588600D01*
X156956200Y-94517171D01*
X157099057Y-94517171D01*
X141456200Y-98067171D02*
X141456200Y-97067171D01*
X141456200Y-97210028D02*
X141527628Y-97138600D01*
X141670485Y-97067171D01*
X141884771Y-97067171D01*
X142027628Y-97138600D01*
X142099057Y-97281457D01*
X142099057Y-98067171D01*
X142099057Y-97281457D02*
X142170485Y-97138600D01*
X142313342Y-97067171D01*
X142527628Y-97067171D01*
X142670485Y-97138600D01*
X142741914Y-97281457D01*
X142741914Y-98067171D01*
X144099057Y-98067171D02*
X144099057Y-97281457D01*
X144027628Y-97138600D01*
X143884771Y-97067171D01*
X143599057Y-97067171D01*
X143456200Y-97138600D01*
X144099057Y-97995742D02*
X143956200Y-98067171D01*
X143599057Y-98067171D01*
X143456200Y-97995742D01*
X143384771Y-97852885D01*
X143384771Y-97710028D01*
X143456200Y-97567171D01*
X143599057Y-97495742D01*
X143956200Y-97495742D01*
X144099057Y-97424314D01*
X145456200Y-98067171D02*
X145456200Y-96567171D01*
X145456200Y-97995742D02*
X145313342Y-98067171D01*
X145027628Y-98067171D01*
X144884771Y-97995742D01*
X144813342Y-97924314D01*
X144741914Y-97781457D01*
X144741914Y-97352885D01*
X144813342Y-97210028D01*
X144884771Y-97138600D01*
X145027628Y-97067171D01*
X145313342Y-97067171D01*
X145456200Y-97138600D01*
X146741914Y-97995742D02*
X146599057Y-98067171D01*
X146313342Y-98067171D01*
X146170485Y-97995742D01*
X146099057Y-97852885D01*
X146099057Y-97281457D01*
X146170485Y-97138600D01*
X146313342Y-97067171D01*
X146599057Y-97067171D01*
X146741914Y-97138600D01*
X146813342Y-97281457D01*
X146813342Y-97424314D01*
X146099057Y-97567171D01*
X148599057Y-98067171D02*
X148599057Y-96567171D01*
X148599057Y-97138600D02*
X148741914Y-97067171D01*
X149027628Y-97067171D01*
X149170485Y-97138600D01*
X149241914Y-97210028D01*
X149313342Y-97352885D01*
X149313342Y-97781457D01*
X149241914Y-97924314D01*
X149170485Y-97995742D01*
X149027628Y-98067171D01*
X148741914Y-98067171D01*
X148599057Y-97995742D01*
X149813342Y-97067171D02*
X150170485Y-98067171D01*
X150527628Y-97067171D02*
X150170485Y-98067171D01*
X150027628Y-98424314D01*
X149956200Y-98495742D01*
X149813342Y-98567171D01*
X152170485Y-97638600D02*
X152884771Y-97638600D01*
X152027628Y-98067171D02*
X152527628Y-96567171D01*
X153027628Y-98067171D01*
X153741914Y-98067171D02*
X153599057Y-97995742D01*
X153527628Y-97852885D01*
X153527628Y-96567171D01*
X154884771Y-97995742D02*
X154741914Y-98067171D01*
X154456200Y-98067171D01*
X154313342Y-97995742D01*
X154241914Y-97852885D01*
X154241914Y-97281457D01*
X154313342Y-97138600D01*
X154456200Y-97067171D01*
X154741914Y-97067171D01*
X154884771Y-97138600D01*
X154956200Y-97281457D01*
X154956200Y-97424314D01*
X154241914Y-97567171D01*
X155456200Y-98067171D02*
X156241914Y-97067171D01*
X155456200Y-97067171D02*
X156241914Y-98067171D01*
X157741914Y-96567171D02*
X158599057Y-96567171D01*
X158170485Y-98067171D02*
X158170485Y-96567171D01*
X159670485Y-97995742D02*
X159527628Y-98067171D01*
X159241914Y-98067171D01*
X159099057Y-97995742D01*
X159027628Y-97852885D01*
X159027628Y-97281457D01*
X159099057Y-97138600D01*
X159241914Y-97067171D01*
X159527628Y-97067171D01*
X159670485Y-97138600D01*
X159741914Y-97281457D01*
X159741914Y-97424314D01*
X159027628Y-97567171D01*
X160956200Y-97995742D02*
X160813342Y-98067171D01*
X160527628Y-98067171D01*
X160384771Y-97995742D01*
X160313342Y-97852885D01*
X160313342Y-97281457D01*
X160384771Y-97138600D01*
X160527628Y-97067171D01*
X160813342Y-97067171D01*
X160956200Y-97138600D01*
X161027628Y-97281457D01*
X161027628Y-97424314D01*
X160313342Y-97567171D01*
D11*
G04 #@! TO.C,J10*
X133350000Y-45720000D02*
G75*
G03X133350000Y-45720000I-2540000J0D01*
G01*
X125730000Y-45720000D02*
G75*
G03X125730000Y-45720000I-2540000J0D01*
G01*
X119340000Y-53150000D02*
X119340000Y-41050000D01*
X119390000Y-53150000D02*
X119340000Y-53150000D01*
X127190000Y-53150000D02*
X119390000Y-53150000D01*
X134640000Y-41050000D02*
X119340000Y-41050000D01*
X127190000Y-41050000D02*
X134640000Y-41050000D01*
X134640000Y-53150000D02*
X134640000Y-41050000D01*
X127190000Y-53150000D02*
X134640000Y-53150000D01*
X127190000Y-41050000D02*
X128740000Y-41050000D01*
D12*
G04 #@! TO.C,K1*
X123095000Y-54245000D02*
X123095000Y-76945000D01*
X123095000Y-76945000D02*
X139795000Y-76945000D01*
X139795000Y-76945000D02*
X139795000Y-54245000D01*
X139795000Y-54245000D02*
X123095000Y-54245000D01*
X131795000Y-71895000D02*
X131095000Y-72295000D01*
X131095000Y-71495000D02*
X131095000Y-72695000D01*
X131095000Y-72695000D02*
X131795000Y-72695000D01*
X131795000Y-72695000D02*
X131795000Y-71495000D01*
X131795000Y-71495000D02*
X131095000Y-71495000D01*
X132445000Y-77205000D02*
X130445000Y-77205000D01*
X135945000Y-72095000D02*
X132795000Y-72095000D01*
X130095000Y-72095000D02*
X126945000Y-72095000D01*
D11*
G04 #@! TO.C,J1*
X133985000Y-134624000D02*
X116235000Y-134624000D01*
X116235000Y-100874000D02*
X116235000Y-134624000D01*
X151735000Y-100874000D02*
X116235000Y-100874000D01*
X133985000Y-134624000D02*
X151735000Y-134624000D01*
X151735000Y-100874000D02*
X151735000Y-134624000D01*
X151412051Y-102874000D02*
G75*
G03X151412051Y-102874000I-1677051J0D01*
G01*
X151412051Y-132624000D02*
G75*
G03X151412051Y-132624000I-1677051J0D01*
G01*
X119912051Y-132624000D02*
G75*
G03X119912051Y-132624000I-1677051J0D01*
G01*
X119912051Y-102874000D02*
G75*
G03X119912051Y-102874000I-1677051J0D01*
G01*
G04 #@! TO.C,J12*
X165100000Y-45720000D02*
G75*
G03X165100000Y-45720000I-2540000J0D01*
G01*
X157480000Y-45720000D02*
G75*
G03X157480000Y-45720000I-2540000J0D01*
G01*
X151090000Y-53150000D02*
X151090000Y-41050000D01*
X151140000Y-53150000D02*
X151090000Y-53150000D01*
X158940000Y-53150000D02*
X151140000Y-53150000D01*
X166390000Y-41050000D02*
X151090000Y-41050000D01*
X158940000Y-41050000D02*
X166390000Y-41050000D01*
X166390000Y-53150000D02*
X166390000Y-41050000D01*
X158940000Y-53150000D02*
X166390000Y-53150000D01*
X158940000Y-41050000D02*
X160490000Y-41050000D01*
G04 #@! TO.C,J3*
X178914000Y-56070000D02*
X178914000Y-57620000D01*
X166814000Y-56070000D02*
X166814000Y-63520000D01*
X166814000Y-63520000D02*
X178914000Y-63520000D01*
X178914000Y-56070000D02*
X178914000Y-63520000D01*
X178914000Y-63520000D02*
X178914000Y-48220000D01*
X166814000Y-56070000D02*
X166814000Y-48270000D01*
X166814000Y-48270000D02*
X166814000Y-48220000D01*
X166814000Y-48220000D02*
X178914000Y-48220000D01*
X176784000Y-52070000D02*
G75*
G03X176784000Y-52070000I-2540000J0D01*
G01*
X176784000Y-59690000D02*
G75*
G03X176784000Y-59690000I-2540000J0D01*
G01*
G04 #@! TO.C,J4*
X176784000Y-75565000D02*
G75*
G03X176784000Y-75565000I-2540000J0D01*
G01*
X176784000Y-67945000D02*
G75*
G03X176784000Y-67945000I-2540000J0D01*
G01*
X166814000Y-64095000D02*
X178914000Y-64095000D01*
X166814000Y-64145000D02*
X166814000Y-64095000D01*
X166814000Y-71945000D02*
X166814000Y-64145000D01*
X178914000Y-79395000D02*
X178914000Y-64095000D01*
X178914000Y-71945000D02*
X178914000Y-79395000D01*
X166814000Y-79395000D02*
X178914000Y-79395000D01*
X166814000Y-71945000D02*
X166814000Y-79395000D01*
X178914000Y-71945000D02*
X178914000Y-73495000D01*
G04 #@! TO.C,J5*
X178914000Y-87820000D02*
X178914000Y-89370000D01*
X166814000Y-87820000D02*
X166814000Y-95270000D01*
X166814000Y-95270000D02*
X178914000Y-95270000D01*
X178914000Y-87820000D02*
X178914000Y-95270000D01*
X178914000Y-95270000D02*
X178914000Y-79970000D01*
X166814000Y-87820000D02*
X166814000Y-80020000D01*
X166814000Y-80020000D02*
X166814000Y-79970000D01*
X166814000Y-79970000D02*
X178914000Y-79970000D01*
X176784000Y-83820000D02*
G75*
G03X176784000Y-83820000I-2540000J0D01*
G01*
X176784000Y-91440000D02*
G75*
G03X176784000Y-91440000I-2540000J0D01*
G01*
G04 #@! TO.C,J6*
X176784000Y-123190000D02*
G75*
G03X176784000Y-123190000I-2540000J0D01*
G01*
X176784000Y-115570000D02*
G75*
G03X176784000Y-115570000I-2540000J0D01*
G01*
X166814000Y-111720000D02*
X178914000Y-111720000D01*
X166814000Y-111770000D02*
X166814000Y-111720000D01*
X166814000Y-119570000D02*
X166814000Y-111770000D01*
X178914000Y-127020000D02*
X178914000Y-111720000D01*
X178914000Y-119570000D02*
X178914000Y-127020000D01*
X166814000Y-127020000D02*
X178914000Y-127020000D01*
X166814000Y-119570000D02*
X166814000Y-127020000D01*
X178914000Y-119570000D02*
X178914000Y-121120000D01*
G04 #@! TO.C,J7*
X178914000Y-103695000D02*
X178914000Y-105245000D01*
X166814000Y-103695000D02*
X166814000Y-111145000D01*
X166814000Y-111145000D02*
X178914000Y-111145000D01*
X178914000Y-103695000D02*
X178914000Y-111145000D01*
X178914000Y-111145000D02*
X178914000Y-95845000D01*
X166814000Y-103695000D02*
X166814000Y-95895000D01*
X166814000Y-95895000D02*
X166814000Y-95845000D01*
X166814000Y-95845000D02*
X178914000Y-95845000D01*
X176784000Y-99695000D02*
G75*
G03X176784000Y-99695000I-2540000J0D01*
G01*
X176784000Y-107315000D02*
G75*
G03X176784000Y-107315000I-2540000J0D01*
G01*
G04 #@! TO.C,J9*
X111315000Y-41050000D02*
X112865000Y-41050000D01*
X111315000Y-53150000D02*
X118765000Y-53150000D01*
X118765000Y-53150000D02*
X118765000Y-41050000D01*
X111315000Y-41050000D02*
X118765000Y-41050000D01*
X118765000Y-41050000D02*
X103465000Y-41050000D01*
X111315000Y-53150000D02*
X103515000Y-53150000D01*
X103515000Y-53150000D02*
X103465000Y-53150000D01*
X103465000Y-53150000D02*
X103465000Y-41050000D01*
X109855000Y-45720000D02*
G75*
G03X109855000Y-45720000I-2540000J0D01*
G01*
X117475000Y-45720000D02*
G75*
G03X117475000Y-45720000I-2540000J0D01*
G01*
G04 #@! TO.C,J11*
X143065000Y-41050000D02*
X144615000Y-41050000D01*
X143065000Y-53150000D02*
X150515000Y-53150000D01*
X150515000Y-53150000D02*
X150515000Y-41050000D01*
X143065000Y-41050000D02*
X150515000Y-41050000D01*
X150515000Y-41050000D02*
X135215000Y-41050000D01*
X143065000Y-53150000D02*
X135265000Y-53150000D01*
X135265000Y-53150000D02*
X135215000Y-53150000D01*
X135215000Y-53150000D02*
X135215000Y-41050000D01*
X141605000Y-45720000D02*
G75*
G03X141605000Y-45720000I-2540000J0D01*
G01*
X149225000Y-45720000D02*
G75*
G03X149225000Y-45720000I-2540000J0D01*
G01*
D12*
G04 #@! TO.C,K2*
X147875000Y-72095000D02*
X144725000Y-72095000D01*
X153725000Y-72095000D02*
X150575000Y-72095000D01*
X150225000Y-77205000D02*
X148225000Y-77205000D01*
X149575000Y-71495000D02*
X148875000Y-71495000D01*
X149575000Y-72695000D02*
X149575000Y-71495000D01*
X148875000Y-72695000D02*
X149575000Y-72695000D01*
X148875000Y-71495000D02*
X148875000Y-72695000D01*
X149575000Y-71895000D02*
X148875000Y-72295000D01*
X157575000Y-54245000D02*
X140875000Y-54245000D01*
X157575000Y-76945000D02*
X157575000Y-54245000D01*
X140875000Y-76945000D02*
X157575000Y-76945000D01*
X140875000Y-54245000D02*
X140875000Y-76945000D01*
D11*
G04 #@! TO.C,U2*
X158173000Y-90134000D02*
X158173000Y-85634000D01*
X152623000Y-91259000D02*
X152623000Y-85634000D01*
D12*
G04 #@! TO.C,U4*
X133269000Y-88752000D02*
X131769000Y-88752000D01*
X131769000Y-88752000D02*
X131769000Y-89022000D01*
X131769000Y-89022000D02*
X128939000Y-89022000D01*
X133269000Y-95652000D02*
X131769000Y-95652000D01*
X131769000Y-95652000D02*
X131769000Y-95382000D01*
X131769000Y-95382000D02*
X130669000Y-95382000D01*
G04 #@! TO.C,U1*
X95830000Y-123690000D02*
X95830000Y-107450000D01*
X95830000Y-107450000D02*
X103450000Y-107450000D01*
X119450000Y-107450000D02*
X120070000Y-107450000D01*
X120070000Y-107450000D02*
X120070000Y-109570000D01*
X120070000Y-121570000D02*
X120070000Y-123690000D01*
X120070000Y-123690000D02*
X119450000Y-123690000D01*
X103450000Y-123690000D02*
X95830000Y-123690000D01*
X103450000Y-123690000D02*
X103450000Y-124300000D01*
G04 #@! TO.C,C4*
X132489000Y-87972000D02*
X133489000Y-87972000D01*
X133489000Y-86272000D02*
X132489000Y-86272000D01*
G04 #@! TO.C,C1*
X133489000Y-96432000D02*
X132489000Y-96432000D01*
X132489000Y-98132000D02*
X133489000Y-98132000D01*
G04 #@! TO.C,C3*
X126187000Y-93614000D02*
X126187000Y-92314000D01*
X126787000Y-92964000D02*
X125587000Y-92964000D01*
X119256000Y-93210000D02*
X119256000Y-92718000D01*
X119296000Y-93562000D02*
X119296000Y-92366000D01*
X119336000Y-93778000D02*
X119336000Y-92150000D01*
X119376000Y-93947000D02*
X119376000Y-91981000D01*
X119416000Y-94091000D02*
X119416000Y-91837000D01*
X119456000Y-94218000D02*
X119456000Y-91710000D01*
X119496000Y-94333000D02*
X119496000Y-91595000D01*
X119536000Y-94437000D02*
X119536000Y-91491000D01*
X119576000Y-94534000D02*
X119576000Y-91394000D01*
X119616000Y-94624000D02*
X119616000Y-91304000D01*
X119656000Y-94709000D02*
X119656000Y-91219000D01*
X119696000Y-94790000D02*
X119696000Y-91138000D01*
X119736000Y-94866000D02*
X119736000Y-91062000D01*
X119776000Y-94938000D02*
X119776000Y-90990000D01*
X119816000Y-95007000D02*
X119816000Y-90921000D01*
X119856000Y-95073000D02*
X119856000Y-90855000D01*
X119896000Y-95137000D02*
X119896000Y-90791000D01*
X119936000Y-95198000D02*
X119936000Y-90730000D01*
X119976000Y-95257000D02*
X119976000Y-90671000D01*
X120016000Y-95313000D02*
X120016000Y-90615000D01*
X120056000Y-95368000D02*
X120056000Y-90560000D01*
X120096000Y-95421000D02*
X120096000Y-90507000D01*
X120136000Y-95472000D02*
X120136000Y-90456000D01*
X120176000Y-95521000D02*
X120176000Y-90407000D01*
X120216000Y-95569000D02*
X120216000Y-90359000D01*
X120256000Y-95616000D02*
X120256000Y-90312000D01*
X120296000Y-95661000D02*
X120296000Y-90267000D01*
X120336000Y-95704000D02*
X120336000Y-90224000D01*
X120376000Y-95747000D02*
X120376000Y-90181000D01*
X120416000Y-95788000D02*
X120416000Y-90140000D01*
X120456000Y-95829000D02*
X120456000Y-90099000D01*
X120496000Y-95868000D02*
X120496000Y-90060000D01*
X120536000Y-95906000D02*
X120536000Y-90022000D01*
X120576000Y-95943000D02*
X120576000Y-89985000D01*
X120616000Y-95979000D02*
X120616000Y-89949000D01*
X120656000Y-96014000D02*
X120656000Y-89914000D01*
X120696000Y-96048000D02*
X120696000Y-89880000D01*
X120736000Y-96082000D02*
X120736000Y-89846000D01*
X120776000Y-96114000D02*
X120776000Y-89814000D01*
X120816000Y-96146000D02*
X120816000Y-89782000D01*
X120856000Y-96177000D02*
X120856000Y-89751000D01*
X120896000Y-96207000D02*
X120896000Y-89721000D01*
X120936000Y-96236000D02*
X120936000Y-89692000D01*
X120976000Y-96265000D02*
X120976000Y-89663000D01*
X121016000Y-96293000D02*
X121016000Y-89635000D01*
X121056000Y-96320000D02*
X121056000Y-89608000D01*
X121096000Y-96347000D02*
X121096000Y-89581000D01*
X121136000Y-91984000D02*
X121136000Y-89556000D01*
X121136000Y-96372000D02*
X121136000Y-93944000D01*
X121176000Y-91984000D02*
X121176000Y-89530000D01*
X121176000Y-96398000D02*
X121176000Y-93944000D01*
X121216000Y-91984000D02*
X121216000Y-89506000D01*
X121216000Y-96422000D02*
X121216000Y-93944000D01*
X121256000Y-91984000D02*
X121256000Y-89482000D01*
X121256000Y-96446000D02*
X121256000Y-93944000D01*
X121296000Y-91984000D02*
X121296000Y-89459000D01*
X121296000Y-96469000D02*
X121296000Y-93944000D01*
X121336000Y-91984000D02*
X121336000Y-89436000D01*
X121336000Y-96492000D02*
X121336000Y-93944000D01*
X121376000Y-91984000D02*
X121376000Y-89414000D01*
X121376000Y-96514000D02*
X121376000Y-93944000D01*
X121416000Y-91984000D02*
X121416000Y-89392000D01*
X121416000Y-96536000D02*
X121416000Y-93944000D01*
X121456000Y-91984000D02*
X121456000Y-89371000D01*
X121456000Y-96557000D02*
X121456000Y-93944000D01*
X121496000Y-91984000D02*
X121496000Y-89351000D01*
X121496000Y-96577000D02*
X121496000Y-93944000D01*
X121536000Y-91984000D02*
X121536000Y-89331000D01*
X121536000Y-96597000D02*
X121536000Y-93944000D01*
X121576000Y-91984000D02*
X121576000Y-89312000D01*
X121576000Y-96616000D02*
X121576000Y-93944000D01*
X121616000Y-91984000D02*
X121616000Y-89293000D01*
X121616000Y-96635000D02*
X121616000Y-93944000D01*
X121656000Y-91984000D02*
X121656000Y-89274000D01*
X121656000Y-96654000D02*
X121656000Y-93944000D01*
X121696000Y-91984000D02*
X121696000Y-89257000D01*
X121696000Y-96671000D02*
X121696000Y-93944000D01*
X121736000Y-91984000D02*
X121736000Y-89239000D01*
X121736000Y-96689000D02*
X121736000Y-93944000D01*
X121776000Y-91984000D02*
X121776000Y-89223000D01*
X121776000Y-96705000D02*
X121776000Y-93944000D01*
X121816000Y-91984000D02*
X121816000Y-89206000D01*
X121816000Y-96722000D02*
X121816000Y-93944000D01*
X121856000Y-91984000D02*
X121856000Y-89191000D01*
X121856000Y-96737000D02*
X121856000Y-93944000D01*
X121896000Y-91984000D02*
X121896000Y-89175000D01*
X121896000Y-96753000D02*
X121896000Y-93944000D01*
X121936000Y-91984000D02*
X121936000Y-89161000D01*
X121936000Y-96767000D02*
X121936000Y-93944000D01*
X121976000Y-91984000D02*
X121976000Y-89146000D01*
X121976000Y-96782000D02*
X121976000Y-93944000D01*
X122016000Y-91984000D02*
X122016000Y-89132000D01*
X122016000Y-96796000D02*
X122016000Y-93944000D01*
X122056000Y-91984000D02*
X122056000Y-89119000D01*
X122056000Y-96809000D02*
X122056000Y-93944000D01*
X122096000Y-91984000D02*
X122096000Y-89106000D01*
X122096000Y-96822000D02*
X122096000Y-93944000D01*
X122136000Y-91984000D02*
X122136000Y-89094000D01*
X122136000Y-96834000D02*
X122136000Y-93944000D01*
X122176000Y-91984000D02*
X122176000Y-89081000D01*
X122176000Y-96847000D02*
X122176000Y-93944000D01*
X122216000Y-91984000D02*
X122216000Y-89070000D01*
X122216000Y-96858000D02*
X122216000Y-93944000D01*
X122256000Y-91984000D02*
X122256000Y-89059000D01*
X122256000Y-96869000D02*
X122256000Y-93944000D01*
X122296000Y-91984000D02*
X122296000Y-89048000D01*
X122296000Y-96880000D02*
X122296000Y-93944000D01*
X122336000Y-91984000D02*
X122336000Y-89038000D01*
X122336000Y-96890000D02*
X122336000Y-93944000D01*
X122376000Y-91984000D02*
X122376000Y-89028000D01*
X122376000Y-96900000D02*
X122376000Y-93944000D01*
X122416000Y-91984000D02*
X122416000Y-89018000D01*
X122416000Y-96910000D02*
X122416000Y-93944000D01*
X122456000Y-91984000D02*
X122456000Y-89009000D01*
X122456000Y-96919000D02*
X122456000Y-93944000D01*
X122496000Y-91984000D02*
X122496000Y-89001000D01*
X122496000Y-96927000D02*
X122496000Y-93944000D01*
X122536000Y-91984000D02*
X122536000Y-88993000D01*
X122536000Y-96935000D02*
X122536000Y-93944000D01*
X122576000Y-91984000D02*
X122576000Y-88985000D01*
X122576000Y-96943000D02*
X122576000Y-93944000D01*
X122616000Y-91984000D02*
X122616000Y-88977000D01*
X122616000Y-96951000D02*
X122616000Y-93944000D01*
X122657000Y-91984000D02*
X122657000Y-88970000D01*
X122657000Y-96958000D02*
X122657000Y-93944000D01*
X122697000Y-91984000D02*
X122697000Y-88964000D01*
X122697000Y-96964000D02*
X122697000Y-93944000D01*
X122737000Y-91984000D02*
X122737000Y-88958000D01*
X122737000Y-96970000D02*
X122737000Y-93944000D01*
X122777000Y-91984000D02*
X122777000Y-88952000D01*
X122777000Y-96976000D02*
X122777000Y-93944000D01*
X122817000Y-91984000D02*
X122817000Y-88947000D01*
X122817000Y-96981000D02*
X122817000Y-93944000D01*
X122857000Y-91984000D02*
X122857000Y-88942000D01*
X122857000Y-96986000D02*
X122857000Y-93944000D01*
X122897000Y-91984000D02*
X122897000Y-88937000D01*
X122897000Y-96991000D02*
X122897000Y-93944000D01*
X122937000Y-91984000D02*
X122937000Y-88933000D01*
X122937000Y-96995000D02*
X122937000Y-93944000D01*
X122977000Y-91984000D02*
X122977000Y-88929000D01*
X122977000Y-96999000D02*
X122977000Y-93944000D01*
X123017000Y-91984000D02*
X123017000Y-88926000D01*
X123017000Y-97002000D02*
X123017000Y-93944000D01*
X123057000Y-91984000D02*
X123057000Y-88923000D01*
X123057000Y-97005000D02*
X123057000Y-93944000D01*
X123097000Y-97007000D02*
X123097000Y-88921000D01*
X123137000Y-97010000D02*
X123137000Y-88918000D01*
X123177000Y-97011000D02*
X123177000Y-88917000D01*
X123217000Y-97013000D02*
X123217000Y-88915000D01*
X123257000Y-97014000D02*
X123257000Y-88914000D01*
X123297000Y-97014000D02*
X123297000Y-88914000D01*
X123337000Y-97014000D02*
X123337000Y-88914000D01*
X127427000Y-92964000D02*
G75*
G03X127427000Y-92964000I-4090000J0D01*
G01*
G04 #@! TO.C,C2*
X127260000Y-83820000D02*
G75*
G03X127260000Y-83820000I-4090000J0D01*
G01*
X123170000Y-79770000D02*
X123170000Y-87870000D01*
X123210000Y-79770000D02*
X123210000Y-87870000D01*
X123250000Y-79770000D02*
X123250000Y-87870000D01*
X123290000Y-79771000D02*
X123290000Y-87869000D01*
X123330000Y-79773000D02*
X123330000Y-87867000D01*
X123370000Y-79774000D02*
X123370000Y-87866000D01*
X123410000Y-79777000D02*
X123410000Y-87863000D01*
X123450000Y-79779000D02*
X123450000Y-82840000D01*
X123450000Y-84800000D02*
X123450000Y-87861000D01*
X123490000Y-79782000D02*
X123490000Y-82840000D01*
X123490000Y-84800000D02*
X123490000Y-87858000D01*
X123530000Y-79785000D02*
X123530000Y-82840000D01*
X123530000Y-84800000D02*
X123530000Y-87855000D01*
X123570000Y-79789000D02*
X123570000Y-82840000D01*
X123570000Y-84800000D02*
X123570000Y-87851000D01*
X123610000Y-79793000D02*
X123610000Y-82840000D01*
X123610000Y-84800000D02*
X123610000Y-87847000D01*
X123650000Y-79798000D02*
X123650000Y-82840000D01*
X123650000Y-84800000D02*
X123650000Y-87842000D01*
X123690000Y-79803000D02*
X123690000Y-82840000D01*
X123690000Y-84800000D02*
X123690000Y-87837000D01*
X123730000Y-79808000D02*
X123730000Y-82840000D01*
X123730000Y-84800000D02*
X123730000Y-87832000D01*
X123770000Y-79814000D02*
X123770000Y-82840000D01*
X123770000Y-84800000D02*
X123770000Y-87826000D01*
X123810000Y-79820000D02*
X123810000Y-82840000D01*
X123810000Y-84800000D02*
X123810000Y-87820000D01*
X123850000Y-79826000D02*
X123850000Y-82840000D01*
X123850000Y-84800000D02*
X123850000Y-87814000D01*
X123891000Y-79833000D02*
X123891000Y-82840000D01*
X123891000Y-84800000D02*
X123891000Y-87807000D01*
X123931000Y-79841000D02*
X123931000Y-82840000D01*
X123931000Y-84800000D02*
X123931000Y-87799000D01*
X123971000Y-79849000D02*
X123971000Y-82840000D01*
X123971000Y-84800000D02*
X123971000Y-87791000D01*
X124011000Y-79857000D02*
X124011000Y-82840000D01*
X124011000Y-84800000D02*
X124011000Y-87783000D01*
X124051000Y-79865000D02*
X124051000Y-82840000D01*
X124051000Y-84800000D02*
X124051000Y-87775000D01*
X124091000Y-79874000D02*
X124091000Y-82840000D01*
X124091000Y-84800000D02*
X124091000Y-87766000D01*
X124131000Y-79884000D02*
X124131000Y-82840000D01*
X124131000Y-84800000D02*
X124131000Y-87756000D01*
X124171000Y-79894000D02*
X124171000Y-82840000D01*
X124171000Y-84800000D02*
X124171000Y-87746000D01*
X124211000Y-79904000D02*
X124211000Y-82840000D01*
X124211000Y-84800000D02*
X124211000Y-87736000D01*
X124251000Y-79915000D02*
X124251000Y-82840000D01*
X124251000Y-84800000D02*
X124251000Y-87725000D01*
X124291000Y-79926000D02*
X124291000Y-82840000D01*
X124291000Y-84800000D02*
X124291000Y-87714000D01*
X124331000Y-79937000D02*
X124331000Y-82840000D01*
X124331000Y-84800000D02*
X124331000Y-87703000D01*
X124371000Y-79950000D02*
X124371000Y-82840000D01*
X124371000Y-84800000D02*
X124371000Y-87690000D01*
X124411000Y-79962000D02*
X124411000Y-82840000D01*
X124411000Y-84800000D02*
X124411000Y-87678000D01*
X124451000Y-79975000D02*
X124451000Y-82840000D01*
X124451000Y-84800000D02*
X124451000Y-87665000D01*
X124491000Y-79988000D02*
X124491000Y-82840000D01*
X124491000Y-84800000D02*
X124491000Y-87652000D01*
X124531000Y-80002000D02*
X124531000Y-82840000D01*
X124531000Y-84800000D02*
X124531000Y-87638000D01*
X124571000Y-80017000D02*
X124571000Y-82840000D01*
X124571000Y-84800000D02*
X124571000Y-87623000D01*
X124611000Y-80031000D02*
X124611000Y-82840000D01*
X124611000Y-84800000D02*
X124611000Y-87609000D01*
X124651000Y-80047000D02*
X124651000Y-82840000D01*
X124651000Y-84800000D02*
X124651000Y-87593000D01*
X124691000Y-80062000D02*
X124691000Y-82840000D01*
X124691000Y-84800000D02*
X124691000Y-87578000D01*
X124731000Y-80079000D02*
X124731000Y-82840000D01*
X124731000Y-84800000D02*
X124731000Y-87561000D01*
X124771000Y-80095000D02*
X124771000Y-82840000D01*
X124771000Y-84800000D02*
X124771000Y-87545000D01*
X124811000Y-80113000D02*
X124811000Y-82840000D01*
X124811000Y-84800000D02*
X124811000Y-87527000D01*
X124851000Y-80130000D02*
X124851000Y-82840000D01*
X124851000Y-84800000D02*
X124851000Y-87510000D01*
X124891000Y-80149000D02*
X124891000Y-82840000D01*
X124891000Y-84800000D02*
X124891000Y-87491000D01*
X124931000Y-80168000D02*
X124931000Y-82840000D01*
X124931000Y-84800000D02*
X124931000Y-87472000D01*
X124971000Y-80187000D02*
X124971000Y-82840000D01*
X124971000Y-84800000D02*
X124971000Y-87453000D01*
X125011000Y-80207000D02*
X125011000Y-82840000D01*
X125011000Y-84800000D02*
X125011000Y-87433000D01*
X125051000Y-80227000D02*
X125051000Y-82840000D01*
X125051000Y-84800000D02*
X125051000Y-87413000D01*
X125091000Y-80248000D02*
X125091000Y-82840000D01*
X125091000Y-84800000D02*
X125091000Y-87392000D01*
X125131000Y-80270000D02*
X125131000Y-82840000D01*
X125131000Y-84800000D02*
X125131000Y-87370000D01*
X125171000Y-80292000D02*
X125171000Y-82840000D01*
X125171000Y-84800000D02*
X125171000Y-87348000D01*
X125211000Y-80315000D02*
X125211000Y-82840000D01*
X125211000Y-84800000D02*
X125211000Y-87325000D01*
X125251000Y-80338000D02*
X125251000Y-82840000D01*
X125251000Y-84800000D02*
X125251000Y-87302000D01*
X125291000Y-80362000D02*
X125291000Y-82840000D01*
X125291000Y-84800000D02*
X125291000Y-87278000D01*
X125331000Y-80386000D02*
X125331000Y-82840000D01*
X125331000Y-84800000D02*
X125331000Y-87254000D01*
X125371000Y-80412000D02*
X125371000Y-82840000D01*
X125371000Y-84800000D02*
X125371000Y-87228000D01*
X125411000Y-80437000D02*
X125411000Y-87203000D01*
X125451000Y-80464000D02*
X125451000Y-87176000D01*
X125491000Y-80491000D02*
X125491000Y-87149000D01*
X125531000Y-80519000D02*
X125531000Y-87121000D01*
X125571000Y-80548000D02*
X125571000Y-87092000D01*
X125611000Y-80577000D02*
X125611000Y-87063000D01*
X125651000Y-80607000D02*
X125651000Y-87033000D01*
X125691000Y-80638000D02*
X125691000Y-87002000D01*
X125731000Y-80670000D02*
X125731000Y-86970000D01*
X125771000Y-80702000D02*
X125771000Y-86938000D01*
X125811000Y-80736000D02*
X125811000Y-86904000D01*
X125851000Y-80770000D02*
X125851000Y-86870000D01*
X125891000Y-80805000D02*
X125891000Y-86835000D01*
X125931000Y-80841000D02*
X125931000Y-86799000D01*
X125971000Y-80878000D02*
X125971000Y-86762000D01*
X126011000Y-80916000D02*
X126011000Y-86724000D01*
X126051000Y-80955000D02*
X126051000Y-86685000D01*
X126091000Y-80996000D02*
X126091000Y-86644000D01*
X126131000Y-81037000D02*
X126131000Y-86603000D01*
X126171000Y-81080000D02*
X126171000Y-86560000D01*
X126211000Y-81123000D02*
X126211000Y-86517000D01*
X126251000Y-81168000D02*
X126251000Y-86472000D01*
X126291000Y-81215000D02*
X126291000Y-86425000D01*
X126331000Y-81263000D02*
X126331000Y-86377000D01*
X126371000Y-81312000D02*
X126371000Y-86328000D01*
X126411000Y-81363000D02*
X126411000Y-86277000D01*
X126451000Y-81416000D02*
X126451000Y-86224000D01*
X126491000Y-81471000D02*
X126491000Y-86169000D01*
X126531000Y-81527000D02*
X126531000Y-86113000D01*
X126571000Y-81586000D02*
X126571000Y-86054000D01*
X126611000Y-81647000D02*
X126611000Y-85993000D01*
X126651000Y-81711000D02*
X126651000Y-85929000D01*
X126691000Y-81777000D02*
X126691000Y-85863000D01*
X126731000Y-81846000D02*
X126731000Y-85794000D01*
X126771000Y-81918000D02*
X126771000Y-85722000D01*
X126811000Y-81994000D02*
X126811000Y-85646000D01*
X126851000Y-82075000D02*
X126851000Y-85565000D01*
X126891000Y-82160000D02*
X126891000Y-85480000D01*
X126931000Y-82250000D02*
X126931000Y-85390000D01*
X126971000Y-82347000D02*
X126971000Y-85293000D01*
X127011000Y-82451000D02*
X127011000Y-85189000D01*
X127051000Y-82566000D02*
X127051000Y-85074000D01*
X127091000Y-82693000D02*
X127091000Y-84947000D01*
X127131000Y-82837000D02*
X127131000Y-84803000D01*
X127171000Y-83006000D02*
X127171000Y-84634000D01*
X127211000Y-83222000D02*
X127211000Y-84418000D01*
X127251000Y-83574000D02*
X127251000Y-84066000D01*
X119720000Y-83820000D02*
X120920000Y-83820000D01*
X120320000Y-83170000D02*
X120320000Y-84470000D01*
G04 #@! TO.C,D3*
X165430000Y-69223000D02*
X161370000Y-69223000D01*
X161370000Y-69223000D02*
X161370000Y-71493000D01*
X161370000Y-71493000D02*
X165430000Y-71493000D01*
G04 #@! TO.C,D1*
X158615000Y-105547500D02*
X158615000Y-101487500D01*
X156345000Y-105547500D02*
X158615000Y-105547500D01*
X156345000Y-101487500D02*
X156345000Y-105547500D01*
G04 #@! TO.C,D9*
X154000000Y-80145000D02*
X149940000Y-80145000D01*
X149940000Y-80145000D02*
X149940000Y-82415000D01*
X149940000Y-82415000D02*
X154000000Y-82415000D01*
G04 #@! TO.C,D2*
X161152500Y-57650000D02*
X165212500Y-57650000D01*
X161152500Y-55380000D02*
X161152500Y-57650000D01*
X165212500Y-55380000D02*
X161152500Y-55380000D01*
G04 #@! TO.C,D8*
X138760000Y-80145000D02*
X134700000Y-80145000D01*
X134700000Y-80145000D02*
X134700000Y-82415000D01*
X134700000Y-82415000D02*
X138760000Y-82415000D01*
G04 #@! TO.C,D6*
X165212500Y-101100000D02*
X161152500Y-101100000D01*
X161152500Y-101100000D02*
X161152500Y-103370000D01*
X161152500Y-103370000D02*
X165212500Y-103370000D01*
G04 #@! TO.C,D5*
X161370000Y-113530000D02*
X165430000Y-113530000D01*
X161370000Y-111260000D02*
X161370000Y-113530000D01*
X165430000Y-111260000D02*
X161370000Y-111260000D01*
G04 #@! TO.C,D4*
X165212500Y-85225000D02*
X161152500Y-85225000D01*
X161152500Y-85225000D02*
X161152500Y-87495000D01*
X161152500Y-87495000D02*
X165212500Y-87495000D01*
G04 #@! TO.C,F1*
X106130000Y-58902600D02*
X112630000Y-58902600D01*
X106130000Y-62402600D02*
X106130000Y-55402600D01*
X97380000Y-55402600D02*
X106130000Y-55402600D01*
X97380000Y-62402600D02*
X106130000Y-62402600D01*
X120130000Y-56402600D02*
X121380000Y-56402600D01*
X119880000Y-61402600D02*
X121380000Y-61402600D01*
X107880000Y-56402600D02*
X120130000Y-56402600D01*
X108130000Y-61402600D02*
X119880000Y-61402600D01*
X97380000Y-56402600D02*
X107880000Y-56402600D01*
X97380000Y-61402600D02*
X108130000Y-61402600D01*
X97380000Y-61402600D02*
X97380000Y-56402600D01*
X96380000Y-62402600D02*
X97380000Y-62402600D01*
X96380000Y-62402600D02*
X96380000Y-55402600D01*
X96380000Y-55402600D02*
X97380000Y-55402600D01*
X121380000Y-61402600D02*
X121380000Y-56402600D01*
X112630000Y-62402600D02*
X122380000Y-62402600D01*
X122380000Y-62402600D02*
X122380000Y-55402600D01*
X112630000Y-55402600D02*
X122380000Y-55402600D01*
X112630000Y-62402600D02*
X112630000Y-55402600D01*
G04 #@! TO.C,R14*
X130925000Y-80400000D02*
X132125000Y-80400000D01*
X132125000Y-82160000D02*
X130925000Y-82160000D01*
G04 #@! TO.C,R15*
X147285000Y-82160000D02*
X146085000Y-82160000D01*
X146085000Y-80400000D02*
X147285000Y-80400000D01*
G04 #@! TO.C,R12*
X163150000Y-103895000D02*
X164350000Y-103895000D01*
X164350000Y-105655000D02*
X163150000Y-105655000D01*
G04 #@! TO.C,R11*
X164430000Y-116450000D02*
X163230000Y-116450000D01*
X163230000Y-114690000D02*
X164430000Y-114690000D01*
G04 #@! TO.C,R10*
X163150000Y-88274000D02*
X164350000Y-88274000D01*
X164350000Y-90034000D02*
X163150000Y-90034000D01*
G04 #@! TO.C,R1*
X109084000Y-128305000D02*
X109084000Y-129505000D01*
X107324000Y-129505000D02*
X107324000Y-128305000D01*
G04 #@! TO.C,R2*
X104784000Y-129425000D02*
X104784000Y-128225000D01*
X106544000Y-128225000D02*
X106544000Y-129425000D01*
G04 #@! TO.C,R3*
X148094000Y-124324000D02*
X146894000Y-124324000D01*
X146894000Y-122564000D02*
X148094000Y-122564000D01*
G04 #@! TO.C,R5*
X146894000Y-118500000D02*
X148094000Y-118500000D01*
X148094000Y-120260000D02*
X146894000Y-120260000D01*
G04 #@! TO.C,R6*
X111678000Y-106036000D02*
X110478000Y-106036000D01*
X110478000Y-104276000D02*
X111678000Y-104276000D01*
G04 #@! TO.C,R7*
X158360000Y-107938000D02*
X158360000Y-109138000D01*
X156600000Y-109138000D02*
X156600000Y-107938000D01*
G04 #@! TO.C,R8*
X164350000Y-59935000D02*
X163150000Y-59935000D01*
X163150000Y-58175000D02*
X164350000Y-58175000D01*
G04 #@! TO.C,R9*
X163150000Y-72145000D02*
X164350000Y-72145000D01*
X164350000Y-73905000D02*
X163150000Y-73905000D01*
G04 #@! TO.C,R4*
X148094000Y-122292000D02*
X146894000Y-122292000D01*
X146894000Y-120532000D02*
X148094000Y-120532000D01*
G04 #@! TO.C,SW1*
X159345000Y-126096000D02*
X159345000Y-125096000D01*
X158845000Y-125596000D02*
X159845000Y-125596000D01*
X162845000Y-119496000D02*
X165245000Y-119496000D01*
X158045000Y-119496000D02*
X160645000Y-119496000D01*
X153445000Y-119496000D02*
X155845000Y-119496000D01*
X155245000Y-132796000D02*
X155545000Y-133096000D01*
X155245000Y-133396000D02*
X155245000Y-132796000D01*
X155545000Y-133096000D02*
X155245000Y-133396000D01*
X153445000Y-131696000D02*
X165245000Y-131696000D01*
X153445000Y-127596000D02*
X153445000Y-131696000D01*
X165245000Y-127596000D02*
X165245000Y-131696000D01*
X165245000Y-119496000D02*
X165245000Y-123596000D01*
X153445000Y-123596000D02*
X153445000Y-119496000D01*
X162345000Y-125596000D02*
G75*
G03X162345000Y-125596000I-3000000J0D01*
G01*
D11*
G04 #@! TO.C,T1*
X96520000Y-62865000D02*
X96520000Y-96865000D01*
X96520000Y-96865000D02*
X116720000Y-96865000D01*
X116720000Y-96865000D02*
X116720000Y-62865000D01*
X116720000Y-62865000D02*
X96520000Y-62865000D01*
G04 #@! TO.C,J10*
X120018276Y-41717980D02*
X120018276Y-42432266D01*
X119970657Y-42575123D01*
X119875419Y-42670361D01*
X119732561Y-42717980D01*
X119637323Y-42717980D01*
X121018276Y-42717980D02*
X120446847Y-42717980D01*
X120732561Y-42717980D02*
X120732561Y-41717980D01*
X120637323Y-41860838D01*
X120542085Y-41956076D01*
X120446847Y-42003695D01*
X121637323Y-41717980D02*
X121732561Y-41717980D01*
X121827800Y-41765600D01*
X121875419Y-41813219D01*
X121923038Y-41908457D01*
X121970657Y-42098933D01*
X121970657Y-42337028D01*
X121923038Y-42527504D01*
X121875419Y-42622742D01*
X121827800Y-42670361D01*
X121732561Y-42717980D01*
X121637323Y-42717980D01*
X121542085Y-42670361D01*
X121494466Y-42622742D01*
X121446847Y-42527504D01*
X121399228Y-42337028D01*
X121399228Y-42098933D01*
X121446847Y-41908457D01*
X121494466Y-41813219D01*
X121542085Y-41765600D01*
X121637323Y-41717980D01*
G04 #@! TO.C,K1*
X130706904Y-78547380D02*
X130706904Y-77547380D01*
X131278333Y-78547380D02*
X130849761Y-77975952D01*
X131278333Y-77547380D02*
X130706904Y-78118809D01*
X132230714Y-78547380D02*
X131659285Y-78547380D01*
X131945000Y-78547380D02*
X131945000Y-77547380D01*
X131849761Y-77690238D01*
X131754523Y-77785476D01*
X131659285Y-77833095D01*
G04 #@! TO.C,J1*
X137461666Y-100036380D02*
X137461666Y-100750666D01*
X137414047Y-100893523D01*
X137318809Y-100988761D01*
X137175952Y-101036380D01*
X137080714Y-101036380D01*
X138461666Y-101036380D02*
X137890238Y-101036380D01*
X138175952Y-101036380D02*
X138175952Y-100036380D01*
X138080714Y-100179238D01*
X137985476Y-100274476D01*
X137890238Y-100322095D01*
G04 #@! TO.C,H1*
X178104895Y-134132580D02*
X178104895Y-133132580D01*
X178104895Y-133608771D02*
X178676323Y-133608771D01*
X178676323Y-134132580D02*
X178676323Y-133132580D01*
X179676323Y-134132580D02*
X179104895Y-134132580D01*
X179390609Y-134132580D02*
X179390609Y-133132580D01*
X179295371Y-133275438D01*
X179200133Y-133370676D01*
X179104895Y-133418295D01*
G04 #@! TO.C,H2*
X95859695Y-41905180D02*
X95859695Y-40905180D01*
X95859695Y-41381371D02*
X96431123Y-41381371D01*
X96431123Y-41905180D02*
X96431123Y-40905180D01*
X96859695Y-41000419D02*
X96907314Y-40952800D01*
X97002552Y-40905180D01*
X97240647Y-40905180D01*
X97335885Y-40952800D01*
X97383504Y-41000419D01*
X97431123Y-41095657D01*
X97431123Y-41190895D01*
X97383504Y-41333752D01*
X96812076Y-41905180D01*
X97431123Y-41905180D01*
G04 #@! TO.C,H3*
X95580295Y-133802380D02*
X95580295Y-132802380D01*
X95580295Y-133278571D02*
X96151723Y-133278571D01*
X96151723Y-133802380D02*
X96151723Y-132802380D01*
X96532676Y-132802380D02*
X97151723Y-132802380D01*
X96818390Y-133183333D01*
X96961247Y-133183333D01*
X97056485Y-133230952D01*
X97104104Y-133278571D01*
X97151723Y-133373809D01*
X97151723Y-133611904D01*
X97104104Y-133707142D01*
X97056485Y-133754761D01*
X96961247Y-133802380D01*
X96675533Y-133802380D01*
X96580295Y-133754761D01*
X96532676Y-133707142D01*
G04 #@! TO.C,H4*
X177546095Y-42108380D02*
X177546095Y-41108380D01*
X177546095Y-41584571D02*
X178117523Y-41584571D01*
X178117523Y-42108380D02*
X178117523Y-41108380D01*
X179022285Y-41441714D02*
X179022285Y-42108380D01*
X178784190Y-41060761D02*
X178546095Y-41775047D01*
X179165142Y-41775047D01*
G04 #@! TO.C,J12*
X151996876Y-41717980D02*
X151996876Y-42432266D01*
X151949257Y-42575123D01*
X151854019Y-42670361D01*
X151711161Y-42717980D01*
X151615923Y-42717980D01*
X152996876Y-42717980D02*
X152425447Y-42717980D01*
X152711161Y-42717980D02*
X152711161Y-41717980D01*
X152615923Y-41860838D01*
X152520685Y-41956076D01*
X152425447Y-42003695D01*
X153377828Y-41813219D02*
X153425447Y-41765600D01*
X153520685Y-41717980D01*
X153758780Y-41717980D01*
X153854019Y-41765600D01*
X153901638Y-41813219D01*
X153949257Y-41908457D01*
X153949257Y-42003695D01*
X153901638Y-42146552D01*
X153330209Y-42717980D01*
X153949257Y-42717980D01*
G04 #@! TO.C,J3*
X165060380Y-62969733D02*
X165774666Y-62969733D01*
X165917523Y-63017352D01*
X166012761Y-63112590D01*
X166060380Y-63255447D01*
X166060380Y-63350685D01*
X165060380Y-62588780D02*
X165060380Y-61969733D01*
X165441333Y-62303066D01*
X165441333Y-62160209D01*
X165488952Y-62064971D01*
X165536571Y-62017352D01*
X165631809Y-61969733D01*
X165869904Y-61969733D01*
X165965142Y-62017352D01*
X166012761Y-62064971D01*
X166060380Y-62160209D01*
X166060380Y-62445923D01*
X166012761Y-62541161D01*
X165965142Y-62588780D01*
G04 #@! TO.C,J4*
X165339780Y-65966933D02*
X166054066Y-65966933D01*
X166196923Y-66014552D01*
X166292161Y-66109790D01*
X166339780Y-66252647D01*
X166339780Y-66347885D01*
X165673114Y-65062171D02*
X166339780Y-65062171D01*
X165292161Y-65300266D02*
X166006447Y-65538361D01*
X166006447Y-64919314D01*
G04 #@! TO.C,J5*
X165314380Y-81486333D02*
X166028666Y-81486333D01*
X166171523Y-81533952D01*
X166266761Y-81629190D01*
X166314380Y-81772047D01*
X166314380Y-81867285D01*
X165314380Y-80533952D02*
X165314380Y-81010142D01*
X165790571Y-81057761D01*
X165742952Y-81010142D01*
X165695333Y-80914904D01*
X165695333Y-80676809D01*
X165742952Y-80581571D01*
X165790571Y-80533952D01*
X165885809Y-80486333D01*
X166123904Y-80486333D01*
X166219142Y-80533952D01*
X166266761Y-80581571D01*
X166314380Y-80676809D01*
X166314380Y-80914904D01*
X166266761Y-81010142D01*
X166219142Y-81057761D01*
G04 #@! TO.C,J6*
X168692580Y-128628733D02*
X169406866Y-128628733D01*
X169549723Y-128676352D01*
X169644961Y-128771590D01*
X169692580Y-128914447D01*
X169692580Y-129009685D01*
X168692580Y-127723971D02*
X168692580Y-127914447D01*
X168740200Y-128009685D01*
X168787819Y-128057304D01*
X168930676Y-128152542D01*
X169121152Y-128200161D01*
X169502104Y-128200161D01*
X169597342Y-128152542D01*
X169644961Y-128104923D01*
X169692580Y-128009685D01*
X169692580Y-127819209D01*
X169644961Y-127723971D01*
X169597342Y-127676352D01*
X169502104Y-127628733D01*
X169264009Y-127628733D01*
X169168771Y-127676352D01*
X169121152Y-127723971D01*
X169073533Y-127819209D01*
X169073533Y-128009685D01*
X169121152Y-128104923D01*
X169168771Y-128152542D01*
X169264009Y-128200161D01*
G04 #@! TO.C,J7*
X165212780Y-97158133D02*
X165927066Y-97158133D01*
X166069923Y-97205752D01*
X166165161Y-97300990D01*
X166212780Y-97443847D01*
X166212780Y-97539085D01*
X165212780Y-96777180D02*
X165212780Y-96110514D01*
X166212780Y-96539085D01*
G04 #@! TO.C,J9*
X104517866Y-41794180D02*
X104517866Y-42508466D01*
X104470247Y-42651323D01*
X104375009Y-42746561D01*
X104232152Y-42794180D01*
X104136914Y-42794180D01*
X105041676Y-42794180D02*
X105232152Y-42794180D01*
X105327390Y-42746561D01*
X105375009Y-42698942D01*
X105470247Y-42556085D01*
X105517866Y-42365609D01*
X105517866Y-41984657D01*
X105470247Y-41889419D01*
X105422628Y-41841800D01*
X105327390Y-41794180D01*
X105136914Y-41794180D01*
X105041676Y-41841800D01*
X104994057Y-41889419D01*
X104946438Y-41984657D01*
X104946438Y-42222752D01*
X104994057Y-42317990D01*
X105041676Y-42365609D01*
X105136914Y-42413228D01*
X105327390Y-42413228D01*
X105422628Y-42365609D01*
X105470247Y-42317990D01*
X105517866Y-42222752D01*
G04 #@! TO.C,J11*
X135690076Y-41667180D02*
X135690076Y-42381466D01*
X135642457Y-42524323D01*
X135547219Y-42619561D01*
X135404361Y-42667180D01*
X135309123Y-42667180D01*
X136690076Y-42667180D02*
X136118647Y-42667180D01*
X136404361Y-42667180D02*
X136404361Y-41667180D01*
X136309123Y-41810038D01*
X136213885Y-41905276D01*
X136118647Y-41952895D01*
X137642457Y-42667180D02*
X137071028Y-42667180D01*
X137356742Y-42667180D02*
X137356742Y-41667180D01*
X137261504Y-41810038D01*
X137166266Y-41905276D01*
X137071028Y-41952895D01*
G04 #@! TO.C,K2*
X148486904Y-78547380D02*
X148486904Y-77547380D01*
X149058333Y-78547380D02*
X148629761Y-77975952D01*
X149058333Y-77547380D02*
X148486904Y-78118809D01*
X149439285Y-77642619D02*
X149486904Y-77595000D01*
X149582142Y-77547380D01*
X149820238Y-77547380D01*
X149915476Y-77595000D01*
X149963095Y-77642619D01*
X150010714Y-77737857D01*
X150010714Y-77833095D01*
X149963095Y-77975952D01*
X149391666Y-78547380D01*
X150010714Y-78547380D01*
G04 #@! TO.C,U2*
X151350380Y-88645904D02*
X152159904Y-88645904D01*
X152255142Y-88598285D01*
X152302761Y-88550666D01*
X152350380Y-88455428D01*
X152350380Y-88264952D01*
X152302761Y-88169714D01*
X152255142Y-88122095D01*
X152159904Y-88074476D01*
X151350380Y-88074476D01*
X151445619Y-87645904D02*
X151398000Y-87598285D01*
X151350380Y-87503047D01*
X151350380Y-87264952D01*
X151398000Y-87169714D01*
X151445619Y-87122095D01*
X151540857Y-87074476D01*
X151636095Y-87074476D01*
X151778952Y-87122095D01*
X152350380Y-87693523D01*
X152350380Y-87074476D01*
G04 #@! TO.C,U4*
X138252295Y-87285580D02*
X138252295Y-88095104D01*
X138299914Y-88190342D01*
X138347533Y-88237961D01*
X138442771Y-88285580D01*
X138633247Y-88285580D01*
X138728485Y-88237961D01*
X138776104Y-88190342D01*
X138823723Y-88095104D01*
X138823723Y-87285580D01*
X139728485Y-87618914D02*
X139728485Y-88285580D01*
X139490390Y-87237961D02*
X139252295Y-87952247D01*
X139871342Y-87952247D01*
G04 #@! TO.C,U1*
X96353380Y-126364904D02*
X97162904Y-126364904D01*
X97258142Y-126317285D01*
X97305761Y-126269666D01*
X97353380Y-126174428D01*
X97353380Y-125983952D01*
X97305761Y-125888714D01*
X97258142Y-125841095D01*
X97162904Y-125793476D01*
X96353380Y-125793476D01*
X97353380Y-124793476D02*
X97353380Y-125364904D01*
X97353380Y-125079190D02*
X96353380Y-125079190D01*
X96496238Y-125174428D01*
X96591476Y-125269666D01*
X96639095Y-125364904D01*
G04 #@! TO.C,JP1*
X97540866Y-104278180D02*
X97540866Y-104992466D01*
X97493247Y-105135323D01*
X97398009Y-105230561D01*
X97255152Y-105278180D01*
X97159914Y-105278180D01*
X98017057Y-105278180D02*
X98017057Y-104278180D01*
X98398009Y-104278180D01*
X98493247Y-104325800D01*
X98540866Y-104373419D01*
X98588485Y-104468657D01*
X98588485Y-104611514D01*
X98540866Y-104706752D01*
X98493247Y-104754371D01*
X98398009Y-104801990D01*
X98017057Y-104801990D01*
X99540866Y-105278180D02*
X98969438Y-105278180D01*
X99255152Y-105278180D02*
X99255152Y-104278180D01*
X99159914Y-104421038D01*
X99064676Y-104516276D01*
X98969438Y-104563895D01*
G04 #@! TO.C,J2*
X119148266Y-98867980D02*
X119148266Y-99582266D01*
X119100647Y-99725123D01*
X119005409Y-99820361D01*
X118862552Y-99867980D01*
X118767314Y-99867980D01*
X119576838Y-98963219D02*
X119624457Y-98915600D01*
X119719695Y-98867980D01*
X119957790Y-98867980D01*
X120053028Y-98915600D01*
X120100647Y-98963219D01*
X120148266Y-99058457D01*
X120148266Y-99153695D01*
X120100647Y-99296552D01*
X119529219Y-99867980D01*
X120148266Y-99867980D01*
G04 #@! TO.C,C4*
X132822333Y-85729142D02*
X132774714Y-85776761D01*
X132631857Y-85824380D01*
X132536619Y-85824380D01*
X132393761Y-85776761D01*
X132298523Y-85681523D01*
X132250904Y-85586285D01*
X132203285Y-85395809D01*
X132203285Y-85252952D01*
X132250904Y-85062476D01*
X132298523Y-84967238D01*
X132393761Y-84872000D01*
X132536619Y-84824380D01*
X132631857Y-84824380D01*
X132774714Y-84872000D01*
X132822333Y-84919619D01*
X133679476Y-85157714D02*
X133679476Y-85824380D01*
X133441380Y-84776761D02*
X133203285Y-85491047D01*
X133822333Y-85491047D01*
G04 #@! TO.C,C1*
X132802333Y-99645742D02*
X132754714Y-99693361D01*
X132611857Y-99740980D01*
X132516619Y-99740980D01*
X132373761Y-99693361D01*
X132278523Y-99598123D01*
X132230904Y-99502885D01*
X132183285Y-99312409D01*
X132183285Y-99169552D01*
X132230904Y-98979076D01*
X132278523Y-98883838D01*
X132373761Y-98788600D01*
X132516619Y-98740980D01*
X132611857Y-98740980D01*
X132754714Y-98788600D01*
X132802333Y-98836219D01*
X133754714Y-99740980D02*
X133183285Y-99740980D01*
X133469000Y-99740980D02*
X133469000Y-98740980D01*
X133373761Y-98883838D01*
X133278523Y-98979076D01*
X133183285Y-99026695D01*
G04 #@! TO.C,C3*
X123170333Y-98631142D02*
X123122714Y-98678761D01*
X122979857Y-98726380D01*
X122884619Y-98726380D01*
X122741761Y-98678761D01*
X122646523Y-98583523D01*
X122598904Y-98488285D01*
X122551285Y-98297809D01*
X122551285Y-98154952D01*
X122598904Y-97964476D01*
X122646523Y-97869238D01*
X122741761Y-97774000D01*
X122884619Y-97726380D01*
X122979857Y-97726380D01*
X123122714Y-97774000D01*
X123170333Y-97821619D01*
X123503666Y-97726380D02*
X124122714Y-97726380D01*
X123789380Y-98107333D01*
X123932238Y-98107333D01*
X124027476Y-98154952D01*
X124075095Y-98202571D01*
X124122714Y-98297809D01*
X124122714Y-98535904D01*
X124075095Y-98631142D01*
X124027476Y-98678761D01*
X123932238Y-98726380D01*
X123646523Y-98726380D01*
X123551285Y-98678761D01*
X123503666Y-98631142D01*
G04 #@! TO.C,C2*
X123003333Y-78867142D02*
X122955714Y-78914761D01*
X122812857Y-78962380D01*
X122717619Y-78962380D01*
X122574761Y-78914761D01*
X122479523Y-78819523D01*
X122431904Y-78724285D01*
X122384285Y-78533809D01*
X122384285Y-78390952D01*
X122431904Y-78200476D01*
X122479523Y-78105238D01*
X122574761Y-78010000D01*
X122717619Y-77962380D01*
X122812857Y-77962380D01*
X122955714Y-78010000D01*
X123003333Y-78057619D01*
X123384285Y-78057619D02*
X123431904Y-78010000D01*
X123527142Y-77962380D01*
X123765238Y-77962380D01*
X123860476Y-78010000D01*
X123908095Y-78057619D01*
X123955714Y-78152857D01*
X123955714Y-78248095D01*
X123908095Y-78390952D01*
X123336666Y-78962380D01*
X123955714Y-78962380D01*
G04 #@! TO.C,D3*
X163091904Y-68990380D02*
X163091904Y-67990380D01*
X163330000Y-67990380D01*
X163472857Y-68038000D01*
X163568095Y-68133238D01*
X163615714Y-68228476D01*
X163663333Y-68418952D01*
X163663333Y-68561809D01*
X163615714Y-68752285D01*
X163568095Y-68847523D01*
X163472857Y-68942761D01*
X163330000Y-68990380D01*
X163091904Y-68990380D01*
X163996666Y-67990380D02*
X164615714Y-67990380D01*
X164282380Y-68371333D01*
X164425238Y-68371333D01*
X164520476Y-68418952D01*
X164568095Y-68466571D01*
X164615714Y-68561809D01*
X164615714Y-68799904D01*
X164568095Y-68895142D01*
X164520476Y-68942761D01*
X164425238Y-68990380D01*
X164139523Y-68990380D01*
X164044285Y-68942761D01*
X163996666Y-68895142D01*
G04 #@! TO.C,D1*
X156112380Y-103825595D02*
X155112380Y-103825595D01*
X155112380Y-103587500D01*
X155160000Y-103444642D01*
X155255238Y-103349404D01*
X155350476Y-103301785D01*
X155540952Y-103254166D01*
X155683809Y-103254166D01*
X155874285Y-103301785D01*
X155969523Y-103349404D01*
X156064761Y-103444642D01*
X156112380Y-103587500D01*
X156112380Y-103825595D01*
X156112380Y-102301785D02*
X156112380Y-102873214D01*
X156112380Y-102587500D02*
X155112380Y-102587500D01*
X155255238Y-102682738D01*
X155350476Y-102777976D01*
X155398095Y-102873214D01*
G04 #@! TO.C,D9*
X151661904Y-83738980D02*
X151661904Y-82738980D01*
X151900000Y-82738980D01*
X152042857Y-82786600D01*
X152138095Y-82881838D01*
X152185714Y-82977076D01*
X152233333Y-83167552D01*
X152233333Y-83310409D01*
X152185714Y-83500885D01*
X152138095Y-83596123D01*
X152042857Y-83691361D01*
X151900000Y-83738980D01*
X151661904Y-83738980D01*
X152709523Y-83738980D02*
X152900000Y-83738980D01*
X152995238Y-83691361D01*
X153042857Y-83643742D01*
X153138095Y-83500885D01*
X153185714Y-83310409D01*
X153185714Y-82929457D01*
X153138095Y-82834219D01*
X153090476Y-82786600D01*
X152995238Y-82738980D01*
X152804761Y-82738980D01*
X152709523Y-82786600D01*
X152661904Y-82834219D01*
X152614285Y-82929457D01*
X152614285Y-83167552D01*
X152661904Y-83262790D01*
X152709523Y-83310409D01*
X152804761Y-83358028D01*
X152995238Y-83358028D01*
X153090476Y-83310409D01*
X153138095Y-83262790D01*
X153185714Y-83167552D01*
G04 #@! TO.C,D2*
X162874404Y-55147380D02*
X162874404Y-54147380D01*
X163112500Y-54147380D01*
X163255357Y-54195000D01*
X163350595Y-54290238D01*
X163398214Y-54385476D01*
X163445833Y-54575952D01*
X163445833Y-54718809D01*
X163398214Y-54909285D01*
X163350595Y-55004523D01*
X163255357Y-55099761D01*
X163112500Y-55147380D01*
X162874404Y-55147380D01*
X163826785Y-54242619D02*
X163874404Y-54195000D01*
X163969642Y-54147380D01*
X164207738Y-54147380D01*
X164302976Y-54195000D01*
X164350595Y-54242619D01*
X164398214Y-54337857D01*
X164398214Y-54433095D01*
X164350595Y-54575952D01*
X163779166Y-55147380D01*
X164398214Y-55147380D01*
G04 #@! TO.C,D8*
X136472704Y-83688180D02*
X136472704Y-82688180D01*
X136710800Y-82688180D01*
X136853657Y-82735800D01*
X136948895Y-82831038D01*
X136996514Y-82926276D01*
X137044133Y-83116752D01*
X137044133Y-83259609D01*
X136996514Y-83450085D01*
X136948895Y-83545323D01*
X136853657Y-83640561D01*
X136710800Y-83688180D01*
X136472704Y-83688180D01*
X137615561Y-83116752D02*
X137520323Y-83069133D01*
X137472704Y-83021514D01*
X137425085Y-82926276D01*
X137425085Y-82878657D01*
X137472704Y-82783419D01*
X137520323Y-82735800D01*
X137615561Y-82688180D01*
X137806038Y-82688180D01*
X137901276Y-82735800D01*
X137948895Y-82783419D01*
X137996514Y-82878657D01*
X137996514Y-82926276D01*
X137948895Y-83021514D01*
X137901276Y-83069133D01*
X137806038Y-83116752D01*
X137615561Y-83116752D01*
X137520323Y-83164371D01*
X137472704Y-83211990D01*
X137425085Y-83307228D01*
X137425085Y-83497704D01*
X137472704Y-83592942D01*
X137520323Y-83640561D01*
X137615561Y-83688180D01*
X137806038Y-83688180D01*
X137901276Y-83640561D01*
X137948895Y-83592942D01*
X137996514Y-83497704D01*
X137996514Y-83307228D01*
X137948895Y-83211990D01*
X137901276Y-83164371D01*
X137806038Y-83116752D01*
G04 #@! TO.C,D6*
X162874404Y-100867380D02*
X162874404Y-99867380D01*
X163112500Y-99867380D01*
X163255357Y-99915000D01*
X163350595Y-100010238D01*
X163398214Y-100105476D01*
X163445833Y-100295952D01*
X163445833Y-100438809D01*
X163398214Y-100629285D01*
X163350595Y-100724523D01*
X163255357Y-100819761D01*
X163112500Y-100867380D01*
X162874404Y-100867380D01*
X164302976Y-99867380D02*
X164112500Y-99867380D01*
X164017261Y-99915000D01*
X163969642Y-99962619D01*
X163874404Y-100105476D01*
X163826785Y-100295952D01*
X163826785Y-100676904D01*
X163874404Y-100772142D01*
X163922023Y-100819761D01*
X164017261Y-100867380D01*
X164207738Y-100867380D01*
X164302976Y-100819761D01*
X164350595Y-100772142D01*
X164398214Y-100676904D01*
X164398214Y-100438809D01*
X164350595Y-100343571D01*
X164302976Y-100295952D01*
X164207738Y-100248333D01*
X164017261Y-100248333D01*
X163922023Y-100295952D01*
X163874404Y-100343571D01*
X163826785Y-100438809D01*
G04 #@! TO.C,D5*
X163091904Y-111027380D02*
X163091904Y-110027380D01*
X163330000Y-110027380D01*
X163472857Y-110075000D01*
X163568095Y-110170238D01*
X163615714Y-110265476D01*
X163663333Y-110455952D01*
X163663333Y-110598809D01*
X163615714Y-110789285D01*
X163568095Y-110884523D01*
X163472857Y-110979761D01*
X163330000Y-111027380D01*
X163091904Y-111027380D01*
X164568095Y-110027380D02*
X164091904Y-110027380D01*
X164044285Y-110503571D01*
X164091904Y-110455952D01*
X164187142Y-110408333D01*
X164425238Y-110408333D01*
X164520476Y-110455952D01*
X164568095Y-110503571D01*
X164615714Y-110598809D01*
X164615714Y-110836904D01*
X164568095Y-110932142D01*
X164520476Y-110979761D01*
X164425238Y-111027380D01*
X164187142Y-111027380D01*
X164091904Y-110979761D01*
X164044285Y-110932142D01*
G04 #@! TO.C,D4*
X162874404Y-84992380D02*
X162874404Y-83992380D01*
X163112500Y-83992380D01*
X163255357Y-84040000D01*
X163350595Y-84135238D01*
X163398214Y-84230476D01*
X163445833Y-84420952D01*
X163445833Y-84563809D01*
X163398214Y-84754285D01*
X163350595Y-84849523D01*
X163255357Y-84944761D01*
X163112500Y-84992380D01*
X162874404Y-84992380D01*
X164302976Y-84325714D02*
X164302976Y-84992380D01*
X164064880Y-83944761D02*
X163826785Y-84659047D01*
X164445833Y-84659047D01*
G04 #@! TO.C,F1*
X98548866Y-53395571D02*
X98215533Y-53395571D01*
X98215533Y-53919380D02*
X98215533Y-52919380D01*
X98691723Y-52919380D01*
X99596485Y-53919380D02*
X99025057Y-53919380D01*
X99310771Y-53919380D02*
X99310771Y-52919380D01*
X99215533Y-53062238D01*
X99120295Y-53157476D01*
X99025057Y-53205095D01*
G04 #@! TO.C,R14*
X130882142Y-83432380D02*
X130548809Y-82956190D01*
X130310714Y-83432380D02*
X130310714Y-82432380D01*
X130691666Y-82432380D01*
X130786904Y-82480000D01*
X130834523Y-82527619D01*
X130882142Y-82622857D01*
X130882142Y-82765714D01*
X130834523Y-82860952D01*
X130786904Y-82908571D01*
X130691666Y-82956190D01*
X130310714Y-82956190D01*
X131834523Y-83432380D02*
X131263095Y-83432380D01*
X131548809Y-83432380D02*
X131548809Y-82432380D01*
X131453571Y-82575238D01*
X131358333Y-82670476D01*
X131263095Y-82718095D01*
X132691666Y-82765714D02*
X132691666Y-83432380D01*
X132453571Y-82384761D02*
X132215476Y-83099047D01*
X132834523Y-83099047D01*
G04 #@! TO.C,R15*
X146042142Y-83432380D02*
X145708809Y-82956190D01*
X145470714Y-83432380D02*
X145470714Y-82432380D01*
X145851666Y-82432380D01*
X145946904Y-82480000D01*
X145994523Y-82527619D01*
X146042142Y-82622857D01*
X146042142Y-82765714D01*
X145994523Y-82860952D01*
X145946904Y-82908571D01*
X145851666Y-82956190D01*
X145470714Y-82956190D01*
X146994523Y-83432380D02*
X146423095Y-83432380D01*
X146708809Y-83432380D02*
X146708809Y-82432380D01*
X146613571Y-82575238D01*
X146518333Y-82670476D01*
X146423095Y-82718095D01*
X147899285Y-82432380D02*
X147423095Y-82432380D01*
X147375476Y-82908571D01*
X147423095Y-82860952D01*
X147518333Y-82813333D01*
X147756428Y-82813333D01*
X147851666Y-82860952D01*
X147899285Y-82908571D01*
X147946904Y-83003809D01*
X147946904Y-83241904D01*
X147899285Y-83337142D01*
X147851666Y-83384761D01*
X147756428Y-83432380D01*
X147518333Y-83432380D01*
X147423095Y-83384761D01*
X147375476Y-83337142D01*
G04 #@! TO.C,R12*
X162882342Y-107310180D02*
X162549009Y-106833990D01*
X162310914Y-107310180D02*
X162310914Y-106310180D01*
X162691866Y-106310180D01*
X162787104Y-106357800D01*
X162834723Y-106405419D01*
X162882342Y-106500657D01*
X162882342Y-106643514D01*
X162834723Y-106738752D01*
X162787104Y-106786371D01*
X162691866Y-106833990D01*
X162310914Y-106833990D01*
X163834723Y-107310180D02*
X163263295Y-107310180D01*
X163549009Y-107310180D02*
X163549009Y-106310180D01*
X163453771Y-106453038D01*
X163358533Y-106548276D01*
X163263295Y-106595895D01*
X164215676Y-106405419D02*
X164263295Y-106357800D01*
X164358533Y-106310180D01*
X164596628Y-106310180D01*
X164691866Y-106357800D01*
X164739485Y-106405419D01*
X164787104Y-106500657D01*
X164787104Y-106595895D01*
X164739485Y-106738752D01*
X164168057Y-107310180D01*
X164787104Y-107310180D01*
G04 #@! TO.C,R11*
X158792942Y-116073180D02*
X158459609Y-115596990D01*
X158221514Y-116073180D02*
X158221514Y-115073180D01*
X158602466Y-115073180D01*
X158697704Y-115120800D01*
X158745323Y-115168419D01*
X158792942Y-115263657D01*
X158792942Y-115406514D01*
X158745323Y-115501752D01*
X158697704Y-115549371D01*
X158602466Y-115596990D01*
X158221514Y-115596990D01*
X159745323Y-116073180D02*
X159173895Y-116073180D01*
X159459609Y-116073180D02*
X159459609Y-115073180D01*
X159364371Y-115216038D01*
X159269133Y-115311276D01*
X159173895Y-115358895D01*
X160697704Y-116073180D02*
X160126276Y-116073180D01*
X160411990Y-116073180D02*
X160411990Y-115073180D01*
X160316752Y-115216038D01*
X160221514Y-115311276D01*
X160126276Y-115358895D01*
G04 #@! TO.C,R10*
X163136342Y-91333580D02*
X162803009Y-90857390D01*
X162564914Y-91333580D02*
X162564914Y-90333580D01*
X162945866Y-90333580D01*
X163041104Y-90381200D01*
X163088723Y-90428819D01*
X163136342Y-90524057D01*
X163136342Y-90666914D01*
X163088723Y-90762152D01*
X163041104Y-90809771D01*
X162945866Y-90857390D01*
X162564914Y-90857390D01*
X164088723Y-91333580D02*
X163517295Y-91333580D01*
X163803009Y-91333580D02*
X163803009Y-90333580D01*
X163707771Y-90476438D01*
X163612533Y-90571676D01*
X163517295Y-90619295D01*
X164707771Y-90333580D02*
X164803009Y-90333580D01*
X164898247Y-90381200D01*
X164945866Y-90428819D01*
X164993485Y-90524057D01*
X165041104Y-90714533D01*
X165041104Y-90952628D01*
X164993485Y-91143104D01*
X164945866Y-91238342D01*
X164898247Y-91285961D01*
X164803009Y-91333580D01*
X164707771Y-91333580D01*
X164612533Y-91285961D01*
X164564914Y-91238342D01*
X164517295Y-91143104D01*
X164469676Y-90952628D01*
X164469676Y-90714533D01*
X164517295Y-90524057D01*
X164564914Y-90428819D01*
X164612533Y-90381200D01*
X164707771Y-90333580D01*
G04 #@! TO.C,R1*
X110739180Y-128792266D02*
X110262990Y-129125600D01*
X110739180Y-129363695D02*
X109739180Y-129363695D01*
X109739180Y-128982742D01*
X109786800Y-128887504D01*
X109834419Y-128839885D01*
X109929657Y-128792266D01*
X110072514Y-128792266D01*
X110167752Y-128839885D01*
X110215371Y-128887504D01*
X110262990Y-128982742D01*
X110262990Y-129363695D01*
X110739180Y-127839885D02*
X110739180Y-128411314D01*
X110739180Y-128125600D02*
X109739180Y-128125600D01*
X109882038Y-128220838D01*
X109977276Y-128316076D01*
X110024895Y-128411314D01*
G04 #@! TO.C,R2*
X104416380Y-128991666D02*
X103940190Y-129325000D01*
X104416380Y-129563095D02*
X103416380Y-129563095D01*
X103416380Y-129182142D01*
X103464000Y-129086904D01*
X103511619Y-129039285D01*
X103606857Y-128991666D01*
X103749714Y-128991666D01*
X103844952Y-129039285D01*
X103892571Y-129086904D01*
X103940190Y-129182142D01*
X103940190Y-129563095D01*
X103511619Y-128610714D02*
X103464000Y-128563095D01*
X103416380Y-128467857D01*
X103416380Y-128229761D01*
X103464000Y-128134523D01*
X103511619Y-128086904D01*
X103606857Y-128039285D01*
X103702095Y-128039285D01*
X103844952Y-128086904D01*
X104416380Y-128658333D01*
X104416380Y-128039285D01*
G04 #@! TO.C,R3*
X143013133Y-123997980D02*
X142679800Y-123521790D01*
X142441704Y-123997980D02*
X142441704Y-122997980D01*
X142822657Y-122997980D01*
X142917895Y-123045600D01*
X142965514Y-123093219D01*
X143013133Y-123188457D01*
X143013133Y-123331314D01*
X142965514Y-123426552D01*
X142917895Y-123474171D01*
X142822657Y-123521790D01*
X142441704Y-123521790D01*
X143346466Y-122997980D02*
X143965514Y-122997980D01*
X143632180Y-123378933D01*
X143775038Y-123378933D01*
X143870276Y-123426552D01*
X143917895Y-123474171D01*
X143965514Y-123569409D01*
X143965514Y-123807504D01*
X143917895Y-123902742D01*
X143870276Y-123950361D01*
X143775038Y-123997980D01*
X143489323Y-123997980D01*
X143394085Y-123950361D01*
X143346466Y-123902742D01*
G04 #@! TO.C,R5*
X143114733Y-119679980D02*
X142781400Y-119203790D01*
X142543304Y-119679980D02*
X142543304Y-118679980D01*
X142924257Y-118679980D01*
X143019495Y-118727600D01*
X143067114Y-118775219D01*
X143114733Y-118870457D01*
X143114733Y-119013314D01*
X143067114Y-119108552D01*
X143019495Y-119156171D01*
X142924257Y-119203790D01*
X142543304Y-119203790D01*
X144019495Y-118679980D02*
X143543304Y-118679980D01*
X143495685Y-119156171D01*
X143543304Y-119108552D01*
X143638542Y-119060933D01*
X143876638Y-119060933D01*
X143971876Y-119108552D01*
X144019495Y-119156171D01*
X144067114Y-119251409D01*
X144067114Y-119489504D01*
X144019495Y-119584742D01*
X143971876Y-119632361D01*
X143876638Y-119679980D01*
X143638542Y-119679980D01*
X143543304Y-119632361D01*
X143495685Y-119584742D01*
G04 #@! TO.C,R6*
X110911333Y-103908380D02*
X110578000Y-103432190D01*
X110339904Y-103908380D02*
X110339904Y-102908380D01*
X110720857Y-102908380D01*
X110816095Y-102956000D01*
X110863714Y-103003619D01*
X110911333Y-103098857D01*
X110911333Y-103241714D01*
X110863714Y-103336952D01*
X110816095Y-103384571D01*
X110720857Y-103432190D01*
X110339904Y-103432190D01*
X111768476Y-102908380D02*
X111578000Y-102908380D01*
X111482761Y-102956000D01*
X111435142Y-103003619D01*
X111339904Y-103146476D01*
X111292285Y-103336952D01*
X111292285Y-103717904D01*
X111339904Y-103813142D01*
X111387523Y-103860761D01*
X111482761Y-103908380D01*
X111673238Y-103908380D01*
X111768476Y-103860761D01*
X111816095Y-103813142D01*
X111863714Y-103717904D01*
X111863714Y-103479809D01*
X111816095Y-103384571D01*
X111768476Y-103336952D01*
X111673238Y-103289333D01*
X111482761Y-103289333D01*
X111387523Y-103336952D01*
X111339904Y-103384571D01*
X111292285Y-103479809D01*
G04 #@! TO.C,R7*
X156128980Y-108548466D02*
X155652790Y-108881800D01*
X156128980Y-109119895D02*
X155128980Y-109119895D01*
X155128980Y-108738942D01*
X155176600Y-108643704D01*
X155224219Y-108596085D01*
X155319457Y-108548466D01*
X155462314Y-108548466D01*
X155557552Y-108596085D01*
X155605171Y-108643704D01*
X155652790Y-108738942D01*
X155652790Y-109119895D01*
X155128980Y-108215133D02*
X155128980Y-107548466D01*
X156128980Y-107977038D01*
G04 #@! TO.C,R8*
X163409333Y-61539380D02*
X163076000Y-61063190D01*
X162837904Y-61539380D02*
X162837904Y-60539380D01*
X163218857Y-60539380D01*
X163314095Y-60587000D01*
X163361714Y-60634619D01*
X163409333Y-60729857D01*
X163409333Y-60872714D01*
X163361714Y-60967952D01*
X163314095Y-61015571D01*
X163218857Y-61063190D01*
X162837904Y-61063190D01*
X163980761Y-60967952D02*
X163885523Y-60920333D01*
X163837904Y-60872714D01*
X163790285Y-60777476D01*
X163790285Y-60729857D01*
X163837904Y-60634619D01*
X163885523Y-60587000D01*
X163980761Y-60539380D01*
X164171238Y-60539380D01*
X164266476Y-60587000D01*
X164314095Y-60634619D01*
X164361714Y-60729857D01*
X164361714Y-60777476D01*
X164314095Y-60872714D01*
X164266476Y-60920333D01*
X164171238Y-60967952D01*
X163980761Y-60967952D01*
X163885523Y-61015571D01*
X163837904Y-61063190D01*
X163790285Y-61158428D01*
X163790285Y-61348904D01*
X163837904Y-61444142D01*
X163885523Y-61491761D01*
X163980761Y-61539380D01*
X164171238Y-61539380D01*
X164266476Y-61491761D01*
X164314095Y-61444142D01*
X164361714Y-61348904D01*
X164361714Y-61158428D01*
X164314095Y-61063190D01*
X164266476Y-61015571D01*
X164171238Y-60967952D01*
G04 #@! TO.C,R9*
X163583333Y-71777380D02*
X163250000Y-71301190D01*
X163011904Y-71777380D02*
X163011904Y-70777380D01*
X163392857Y-70777380D01*
X163488095Y-70825000D01*
X163535714Y-70872619D01*
X163583333Y-70967857D01*
X163583333Y-71110714D01*
X163535714Y-71205952D01*
X163488095Y-71253571D01*
X163392857Y-71301190D01*
X163011904Y-71301190D01*
X164059523Y-71777380D02*
X164250000Y-71777380D01*
X164345238Y-71729761D01*
X164392857Y-71682142D01*
X164488095Y-71539285D01*
X164535714Y-71348809D01*
X164535714Y-70967857D01*
X164488095Y-70872619D01*
X164440476Y-70825000D01*
X164345238Y-70777380D01*
X164154761Y-70777380D01*
X164059523Y-70825000D01*
X164011904Y-70872619D01*
X163964285Y-70967857D01*
X163964285Y-71205952D01*
X164011904Y-71301190D01*
X164059523Y-71348809D01*
X164154761Y-71396428D01*
X164345238Y-71396428D01*
X164440476Y-71348809D01*
X164488095Y-71301190D01*
X164535714Y-71205952D01*
G04 #@! TO.C,R4*
X143063933Y-121711980D02*
X142730600Y-121235790D01*
X142492504Y-121711980D02*
X142492504Y-120711980D01*
X142873457Y-120711980D01*
X142968695Y-120759600D01*
X143016314Y-120807219D01*
X143063933Y-120902457D01*
X143063933Y-121045314D01*
X143016314Y-121140552D01*
X142968695Y-121188171D01*
X142873457Y-121235790D01*
X142492504Y-121235790D01*
X143921076Y-121045314D02*
X143921076Y-121711980D01*
X143682980Y-120664361D02*
X143444885Y-121378647D01*
X144063933Y-121378647D01*
G04 #@! TO.C,SW1*
X152336666Y-116584361D02*
X152479523Y-116631980D01*
X152717619Y-116631980D01*
X152812857Y-116584361D01*
X152860476Y-116536742D01*
X152908095Y-116441504D01*
X152908095Y-116346266D01*
X152860476Y-116251028D01*
X152812857Y-116203409D01*
X152717619Y-116155790D01*
X152527142Y-116108171D01*
X152431904Y-116060552D01*
X152384285Y-116012933D01*
X152336666Y-115917695D01*
X152336666Y-115822457D01*
X152384285Y-115727219D01*
X152431904Y-115679600D01*
X152527142Y-115631980D01*
X152765238Y-115631980D01*
X152908095Y-115679600D01*
X153241428Y-115631980D02*
X153479523Y-116631980D01*
X153670000Y-115917695D01*
X153860476Y-116631980D01*
X154098571Y-115631980D01*
X155003333Y-116631980D02*
X154431904Y-116631980D01*
X154717619Y-116631980D02*
X154717619Y-115631980D01*
X154622380Y-115774838D01*
X154527142Y-115870076D01*
X154431904Y-115917695D01*
G04 #@! TO.C,T1*
X117072380Y-80726904D02*
X117072380Y-80155476D01*
X118072380Y-80441190D02*
X117072380Y-80441190D01*
X118072380Y-79298333D02*
X118072380Y-79869761D01*
X118072380Y-79584047D02*
X117072380Y-79584047D01*
X117215238Y-79679285D01*
X117310476Y-79774523D01*
X117358095Y-79869761D01*
G04 #@! TO.C,U3*
X125552295Y-116038380D02*
X125552295Y-116847904D01*
X125599914Y-116943142D01*
X125647533Y-116990761D01*
X125742771Y-117038380D01*
X125933247Y-117038380D01*
X126028485Y-116990761D01*
X126076104Y-116943142D01*
X126123723Y-116847904D01*
X126123723Y-116038380D01*
X126504676Y-116038380D02*
X127123723Y-116038380D01*
X126790390Y-116419333D01*
X126933247Y-116419333D01*
X127028485Y-116466952D01*
X127076104Y-116514571D01*
X127123723Y-116609809D01*
X127123723Y-116847904D01*
X127076104Y-116943142D01*
X127028485Y-116990761D01*
X126933247Y-117038380D01*
X126647533Y-117038380D01*
X126552295Y-116990761D01*
X126504676Y-116943142D01*
G04 #@! TO.C,REF\002A\002A*
X117843466Y-142031980D02*
X117510133Y-141555790D01*
X117272038Y-142031980D02*
X117272038Y-141031980D01*
X117652990Y-141031980D01*
X117748228Y-141079600D01*
X117795847Y-141127219D01*
X117843466Y-141222457D01*
X117843466Y-141365314D01*
X117795847Y-141460552D01*
X117748228Y-141508171D01*
X117652990Y-141555790D01*
X117272038Y-141555790D01*
X118272038Y-141508171D02*
X118605371Y-141508171D01*
X118748228Y-142031980D02*
X118272038Y-142031980D01*
X118272038Y-141031980D01*
X118748228Y-141031980D01*
X119510133Y-141508171D02*
X119176800Y-141508171D01*
X119176800Y-142031980D02*
X119176800Y-141031980D01*
X119652990Y-141031980D01*
X120176800Y-141031980D02*
X120176800Y-141270076D01*
X119938704Y-141174838D02*
X120176800Y-141270076D01*
X120414895Y-141174838D01*
X120033942Y-141460552D02*
X120176800Y-141270076D01*
X120319657Y-141460552D01*
X120938704Y-141031980D02*
X120938704Y-141270076D01*
X120700609Y-141174838D02*
X120938704Y-141270076D01*
X121176800Y-141174838D01*
X120795847Y-141460552D02*
X120938704Y-141270076D01*
X121081561Y-141460552D01*
X148171066Y-141752580D02*
X147837733Y-141276390D01*
X147599638Y-141752580D02*
X147599638Y-140752580D01*
X147980590Y-140752580D01*
X148075828Y-140800200D01*
X148123447Y-140847819D01*
X148171066Y-140943057D01*
X148171066Y-141085914D01*
X148123447Y-141181152D01*
X148075828Y-141228771D01*
X147980590Y-141276390D01*
X147599638Y-141276390D01*
X148599638Y-141228771D02*
X148932971Y-141228771D01*
X149075828Y-141752580D02*
X148599638Y-141752580D01*
X148599638Y-140752580D01*
X149075828Y-140752580D01*
X149837733Y-141228771D02*
X149504400Y-141228771D01*
X149504400Y-141752580D02*
X149504400Y-140752580D01*
X149980590Y-140752580D01*
X150504400Y-140752580D02*
X150504400Y-140990676D01*
X150266304Y-140895438D02*
X150504400Y-140990676D01*
X150742495Y-140895438D01*
X150361542Y-141181152D02*
X150504400Y-140990676D01*
X150647257Y-141181152D01*
X151266304Y-140752580D02*
X151266304Y-140990676D01*
X151028209Y-140895438D02*
X151266304Y-140990676D01*
X151504400Y-140895438D01*
X151123447Y-141181152D02*
X151266304Y-140990676D01*
X151409161Y-141181152D01*
G04 #@! TD*
M02*
