G04 #@! TF.GenerationSoftware,KiCad,Pcbnew,5.0.0-fee4fd1~66~ubuntu16.04.1*
G04 #@! TF.CreationDate,2019-07-26T21:19:50+02:00*
G04 #@! TF.ProjectId,master_module,6D61737465725F6D6F64756C652E6B69,rev?*
G04 #@! TF.SameCoordinates,Original*
G04 #@! TF.FileFunction,Soldermask,Bot*
G04 #@! TF.FilePolarity,Negative*
%FSLAX46Y46*%
G04 Gerber Fmt 4.6, Leading zero omitted, Abs format (unit mm)*
G04 Created by KiCad (PCBNEW 5.0.0-fee4fd1~66~ubuntu16.04.1) date Fri Jul 26 21:19:50 2019*
%MOMM*%
%LPD*%
G01*
G04 APERTURE LIST*
%ADD10C,0.100000*%
G04 APERTURE END LIST*
D10*
G36*
X150133656Y-131030098D02*
X150239979Y-131051247D01*
X150540442Y-131175703D01*
X150700144Y-131282413D01*
X150810854Y-131356387D01*
X151040813Y-131586346D01*
X151040815Y-131586349D01*
X151221497Y-131856758D01*
X151316200Y-132085390D01*
X151345953Y-132157222D01*
X151409400Y-132476189D01*
X151409400Y-132801411D01*
X151367102Y-133014056D01*
X151351006Y-133094978D01*
X151345953Y-133120378D01*
X151221498Y-133420840D01*
X151040813Y-133691254D01*
X150810854Y-133921213D01*
X150810851Y-133921215D01*
X150540442Y-134101897D01*
X150540441Y-134101898D01*
X150540440Y-134101898D01*
X150452437Y-134138350D01*
X150239979Y-134226353D01*
X150133656Y-134247502D01*
X149921011Y-134289800D01*
X149595789Y-134289800D01*
X149383144Y-134247502D01*
X149276821Y-134226353D01*
X149064363Y-134138350D01*
X148976360Y-134101898D01*
X148976359Y-134101898D01*
X148976358Y-134101897D01*
X148705949Y-133921215D01*
X148705946Y-133921213D01*
X148475987Y-133691254D01*
X148295302Y-133420840D01*
X148170847Y-133120378D01*
X148165795Y-133094978D01*
X148149698Y-133014056D01*
X148107400Y-132801411D01*
X148107400Y-132476189D01*
X148170847Y-132157222D01*
X148200601Y-132085390D01*
X148295303Y-131856758D01*
X148475985Y-131586349D01*
X148475987Y-131586346D01*
X148705946Y-131356387D01*
X148816656Y-131282413D01*
X148976358Y-131175703D01*
X149276821Y-131051247D01*
X149383144Y-131030098D01*
X149595789Y-130987800D01*
X149921011Y-130987800D01*
X150133656Y-131030098D01*
X150133656Y-131030098D01*
G37*
G36*
X118603504Y-130987800D02*
X118794779Y-131025847D01*
X119095242Y-131150303D01*
X119292958Y-131282413D01*
X119365654Y-131330987D01*
X119595613Y-131560946D01*
X119595615Y-131560949D01*
X119776297Y-131831358D01*
X119900753Y-132131821D01*
X119907276Y-132164615D01*
X119964200Y-132450789D01*
X119964200Y-132776011D01*
X119921902Y-132988656D01*
X119900753Y-133094979D01*
X119776297Y-133395442D01*
X119759325Y-133420842D01*
X119595613Y-133665854D01*
X119365654Y-133895813D01*
X119365651Y-133895815D01*
X119095242Y-134076497D01*
X119095241Y-134076498D01*
X119095240Y-134076498D01*
X119007237Y-134112950D01*
X118794779Y-134200953D01*
X118688456Y-134222102D01*
X118475811Y-134264400D01*
X118150589Y-134264400D01*
X117937944Y-134222102D01*
X117831621Y-134200953D01*
X117619163Y-134112950D01*
X117531160Y-134076498D01*
X117531159Y-134076498D01*
X117531158Y-134076497D01*
X117260749Y-133895815D01*
X117260746Y-133895813D01*
X117030787Y-133665854D01*
X116867075Y-133420842D01*
X116850103Y-133395442D01*
X116725647Y-133094979D01*
X116704498Y-132988656D01*
X116662200Y-132776011D01*
X116662200Y-132450789D01*
X116719124Y-132164615D01*
X116725647Y-132131821D01*
X116850103Y-131831358D01*
X117030785Y-131560949D01*
X117030787Y-131560946D01*
X117260746Y-131330987D01*
X117333442Y-131282413D01*
X117531158Y-131150303D01*
X117831621Y-131025847D01*
X118022896Y-130987800D01*
X118150589Y-130962400D01*
X118475811Y-130962400D01*
X118603504Y-130987800D01*
X118603504Y-130987800D01*
G37*
G36*
X162151565Y-132085389D02*
X162342834Y-132164615D01*
X162514976Y-132279637D01*
X162661363Y-132426024D01*
X162776385Y-132598166D01*
X162855611Y-132789435D01*
X162896000Y-132992484D01*
X162896000Y-133199516D01*
X162855611Y-133402565D01*
X162776385Y-133593834D01*
X162661363Y-133765976D01*
X162514976Y-133912363D01*
X162342834Y-134027385D01*
X162151565Y-134106611D01*
X161948516Y-134147000D01*
X161741484Y-134147000D01*
X161538435Y-134106611D01*
X161347166Y-134027385D01*
X161175024Y-133912363D01*
X161028637Y-133765976D01*
X160913615Y-133593834D01*
X160834389Y-133402565D01*
X160794000Y-133199516D01*
X160794000Y-132992484D01*
X160834389Y-132789435D01*
X160913615Y-132598166D01*
X161028637Y-132426024D01*
X161175024Y-132279637D01*
X161347166Y-132164615D01*
X161538435Y-132085389D01*
X161741484Y-132045000D01*
X161948516Y-132045000D01*
X162151565Y-132085389D01*
X162151565Y-132085389D01*
G37*
G36*
X157896000Y-134147000D02*
X155794000Y-134147000D01*
X155794000Y-132045000D01*
X157896000Y-132045000D01*
X157896000Y-134147000D01*
X157896000Y-134147000D01*
G37*
G36*
X159651565Y-132085389D02*
X159842834Y-132164615D01*
X160014976Y-132279637D01*
X160161363Y-132426024D01*
X160276385Y-132598166D01*
X160355611Y-132789435D01*
X160396000Y-132992484D01*
X160396000Y-133199516D01*
X160355611Y-133402565D01*
X160276385Y-133593834D01*
X160161363Y-133765976D01*
X160014976Y-133912363D01*
X159842834Y-134027385D01*
X159651565Y-134106611D01*
X159448516Y-134147000D01*
X159241484Y-134147000D01*
X159038435Y-134106611D01*
X158847166Y-134027385D01*
X158675024Y-133912363D01*
X158528637Y-133765976D01*
X158413615Y-133593834D01*
X158334389Y-133402565D01*
X158294000Y-133199516D01*
X158294000Y-132992484D01*
X158334389Y-132789435D01*
X158413615Y-132598166D01*
X158528637Y-132426024D01*
X158675024Y-132279637D01*
X158847166Y-132164615D01*
X159038435Y-132085389D01*
X159241484Y-132045000D01*
X159448516Y-132045000D01*
X159651565Y-132085389D01*
X159651565Y-132085389D01*
G37*
G36*
X175889256Y-128693298D02*
X175995579Y-128714447D01*
X176296042Y-128838903D01*
X176458637Y-128947546D01*
X176566454Y-129019587D01*
X176796413Y-129249546D01*
X176796415Y-129249549D01*
X176977097Y-129519958D01*
X177101553Y-129820421D01*
X177122702Y-129926744D01*
X177165000Y-130139389D01*
X177165000Y-130464611D01*
X177101553Y-130783578D01*
X176990183Y-131052451D01*
X176977097Y-131084042D01*
X176812093Y-131330987D01*
X176796413Y-131354454D01*
X176566454Y-131584413D01*
X176566451Y-131584415D01*
X176296042Y-131765097D01*
X175995579Y-131889553D01*
X175889256Y-131910702D01*
X175676611Y-131953000D01*
X175351389Y-131953000D01*
X175138744Y-131910702D01*
X175032421Y-131889553D01*
X174731958Y-131765097D01*
X174461549Y-131584415D01*
X174461546Y-131584413D01*
X174231587Y-131354454D01*
X174215907Y-131330987D01*
X174050903Y-131084042D01*
X174037818Y-131052451D01*
X173926447Y-130783578D01*
X173863000Y-130464611D01*
X173863000Y-130139389D01*
X173905298Y-129926744D01*
X173926447Y-129820421D01*
X174050903Y-129519958D01*
X174231585Y-129249549D01*
X174231587Y-129249546D01*
X174461546Y-129019587D01*
X174569363Y-128947546D01*
X174731958Y-128838903D01*
X175032421Y-128714447D01*
X175138744Y-128693298D01*
X175351389Y-128651000D01*
X175676611Y-128651000D01*
X175889256Y-128693298D01*
X175889256Y-128693298D01*
G37*
G36*
X100375256Y-128391298D02*
X100481579Y-128412447D01*
X100782042Y-128536903D01*
X100952800Y-128651000D01*
X101052454Y-128717587D01*
X101282413Y-128947546D01*
X101463098Y-129217960D01*
X101587553Y-129518422D01*
X101647625Y-129820421D01*
X101651000Y-129837391D01*
X101651000Y-130162609D01*
X101587553Y-130481579D01*
X101463097Y-130782042D01*
X101300191Y-131025847D01*
X101282413Y-131052454D01*
X101052454Y-131282413D01*
X101052451Y-131282415D01*
X100782042Y-131463097D01*
X100481579Y-131587553D01*
X100375256Y-131608702D01*
X100162611Y-131651000D01*
X99837389Y-131651000D01*
X99624744Y-131608702D01*
X99518421Y-131587553D01*
X99217958Y-131463097D01*
X98947549Y-131282415D01*
X98947546Y-131282413D01*
X98717587Y-131052454D01*
X98699809Y-131025847D01*
X98536903Y-130782042D01*
X98412447Y-130481579D01*
X98349000Y-130162609D01*
X98349000Y-129837391D01*
X98352376Y-129820421D01*
X98412447Y-129518422D01*
X98536902Y-129217960D01*
X98717587Y-128947546D01*
X98947546Y-128717587D01*
X99047200Y-128651000D01*
X99217958Y-128536903D01*
X99518421Y-128412447D01*
X99624744Y-128391298D01*
X99837389Y-128349000D01*
X100162611Y-128349000D01*
X100375256Y-128391298D01*
X100375256Y-128391298D01*
G37*
G36*
X165996000Y-127247000D02*
X163894000Y-127247000D01*
X163894000Y-123945000D01*
X165996000Y-123945000D01*
X165996000Y-127247000D01*
X165996000Y-127247000D01*
G37*
G36*
X154796000Y-127247000D02*
X152694000Y-127247000D01*
X152694000Y-123945000D01*
X154796000Y-123945000D01*
X154796000Y-127247000D01*
X154796000Y-127247000D01*
G37*
G36*
X169516527Y-121678736D02*
X169616410Y-121698604D01*
X169898674Y-121815521D01*
X170152705Y-121985259D01*
X170368741Y-122201295D01*
X170538479Y-122455326D01*
X170655396Y-122737590D01*
X170715000Y-123037240D01*
X170715000Y-123342760D01*
X170655396Y-123642410D01*
X170538479Y-123924674D01*
X170368741Y-124178705D01*
X170152705Y-124394741D01*
X169898674Y-124564479D01*
X169616410Y-124681396D01*
X169516527Y-124701264D01*
X169316762Y-124741000D01*
X169011238Y-124741000D01*
X168811473Y-124701264D01*
X168711590Y-124681396D01*
X168429326Y-124564479D01*
X168175295Y-124394741D01*
X167959259Y-124178705D01*
X167789521Y-123924674D01*
X167672604Y-123642410D01*
X167613000Y-123342760D01*
X167613000Y-123037240D01*
X167672604Y-122737590D01*
X167789521Y-122455326D01*
X167959259Y-122201295D01*
X168175295Y-121985259D01*
X168429326Y-121815521D01*
X168711590Y-121698604D01*
X168811473Y-121678736D01*
X169011238Y-121639000D01*
X169316762Y-121639000D01*
X169516527Y-121678736D01*
X169516527Y-121678736D01*
G37*
G36*
X162151565Y-117585389D02*
X162342834Y-117664615D01*
X162514976Y-117779637D01*
X162661363Y-117926024D01*
X162776385Y-118098166D01*
X162855611Y-118289435D01*
X162896000Y-118492484D01*
X162896000Y-118699516D01*
X162855611Y-118902565D01*
X162776385Y-119093834D01*
X162661363Y-119265976D01*
X162514976Y-119412363D01*
X162342834Y-119527385D01*
X162151565Y-119606611D01*
X161948516Y-119647000D01*
X161741484Y-119647000D01*
X161538435Y-119606611D01*
X161347166Y-119527385D01*
X161175024Y-119412363D01*
X161028637Y-119265976D01*
X160913615Y-119093834D01*
X160834389Y-118902565D01*
X160794000Y-118699516D01*
X160794000Y-118492484D01*
X160834389Y-118289435D01*
X160913615Y-118098166D01*
X161028637Y-117926024D01*
X161175024Y-117779637D01*
X161347166Y-117664615D01*
X161538435Y-117585389D01*
X161741484Y-117545000D01*
X161948516Y-117545000D01*
X162151565Y-117585389D01*
X162151565Y-117585389D01*
G37*
G36*
X157151565Y-117585389D02*
X157342834Y-117664615D01*
X157514976Y-117779637D01*
X157661363Y-117926024D01*
X157776385Y-118098166D01*
X157855611Y-118289435D01*
X157896000Y-118492484D01*
X157896000Y-118699516D01*
X157855611Y-118902565D01*
X157776385Y-119093834D01*
X157661363Y-119265976D01*
X157514976Y-119412363D01*
X157342834Y-119527385D01*
X157151565Y-119606611D01*
X156948516Y-119647000D01*
X156741484Y-119647000D01*
X156538435Y-119606611D01*
X156347166Y-119527385D01*
X156175024Y-119412363D01*
X156028637Y-119265976D01*
X155913615Y-119093834D01*
X155834389Y-118902565D01*
X155794000Y-118699516D01*
X155794000Y-118492484D01*
X155834389Y-118289435D01*
X155913615Y-118098166D01*
X156028637Y-117926024D01*
X156175024Y-117779637D01*
X156347166Y-117664615D01*
X156538435Y-117585389D01*
X156741484Y-117545000D01*
X156948516Y-117545000D01*
X157151565Y-117585389D01*
X157151565Y-117585389D01*
G37*
G36*
X169516527Y-114058736D02*
X169616410Y-114078604D01*
X169898674Y-114195521D01*
X170152705Y-114365259D01*
X170368741Y-114581295D01*
X170538479Y-114835326D01*
X170655396Y-115117590D01*
X170715000Y-115417240D01*
X170715000Y-115722760D01*
X170655396Y-116022410D01*
X170538479Y-116304674D01*
X170368741Y-116558705D01*
X170152705Y-116774741D01*
X169898674Y-116944479D01*
X169616410Y-117061396D01*
X169516527Y-117081264D01*
X169316762Y-117121000D01*
X169011238Y-117121000D01*
X168811473Y-117081264D01*
X168711590Y-117061396D01*
X168429326Y-116944479D01*
X168175295Y-116774741D01*
X167959259Y-116558705D01*
X167789521Y-116304674D01*
X167672604Y-116022410D01*
X167613000Y-115722760D01*
X167613000Y-115417240D01*
X167672604Y-115117590D01*
X167789521Y-114835326D01*
X167959259Y-114581295D01*
X168175295Y-114365259D01*
X168429326Y-114195521D01*
X168711590Y-114078604D01*
X168811473Y-114058736D01*
X169011238Y-114019000D01*
X169316762Y-114019000D01*
X169516527Y-114058736D01*
X169516527Y-114058736D01*
G37*
G36*
X169516527Y-105803736D02*
X169616410Y-105823604D01*
X169898674Y-105940521D01*
X170152705Y-106110259D01*
X170368741Y-106326295D01*
X170538479Y-106580326D01*
X170655396Y-106862590D01*
X170715000Y-107162240D01*
X170715000Y-107467760D01*
X170655396Y-107767410D01*
X170538479Y-108049674D01*
X170368741Y-108303705D01*
X170152705Y-108519741D01*
X169898674Y-108689479D01*
X169616410Y-108806396D01*
X169516527Y-108826264D01*
X169316762Y-108866000D01*
X169011238Y-108866000D01*
X168811473Y-108826264D01*
X168711590Y-108806396D01*
X168429326Y-108689479D01*
X168175295Y-108519741D01*
X167959259Y-108303705D01*
X167789521Y-108049674D01*
X167672604Y-107767410D01*
X167613000Y-107467760D01*
X167613000Y-107162240D01*
X167672604Y-106862590D01*
X167789521Y-106580326D01*
X167959259Y-106326295D01*
X168175295Y-106110259D01*
X168429326Y-105940521D01*
X168711590Y-105823604D01*
X168811473Y-105803736D01*
X169011238Y-105764000D01*
X169316762Y-105764000D01*
X169516527Y-105803736D01*
X169516527Y-105803736D01*
G37*
G36*
X106986565Y-103637389D02*
X107177834Y-103716615D01*
X107349976Y-103831637D01*
X107496363Y-103978024D01*
X107611385Y-104150166D01*
X107690611Y-104341435D01*
X107731000Y-104544484D01*
X107731000Y-104751516D01*
X107690611Y-104954565D01*
X107611385Y-105145834D01*
X107496363Y-105317976D01*
X107349976Y-105464363D01*
X107177834Y-105579385D01*
X106986565Y-105658611D01*
X106783516Y-105699000D01*
X106576484Y-105699000D01*
X106373435Y-105658611D01*
X106182166Y-105579385D01*
X106010024Y-105464363D01*
X105863637Y-105317976D01*
X105748615Y-105145834D01*
X105669389Y-104954565D01*
X105629000Y-104751516D01*
X105629000Y-104544484D01*
X105669389Y-104341435D01*
X105748615Y-104150166D01*
X105863637Y-103978024D01*
X106010024Y-103831637D01*
X106182166Y-103716615D01*
X106373435Y-103637389D01*
X106576484Y-103597000D01*
X106783516Y-103597000D01*
X106986565Y-103637389D01*
X106986565Y-103637389D01*
G37*
G36*
X104446565Y-103637389D02*
X104637834Y-103716615D01*
X104809976Y-103831637D01*
X104956363Y-103978024D01*
X105071385Y-104150166D01*
X105150611Y-104341435D01*
X105191000Y-104544484D01*
X105191000Y-104751516D01*
X105150611Y-104954565D01*
X105071385Y-105145834D01*
X104956363Y-105317976D01*
X104809976Y-105464363D01*
X104637834Y-105579385D01*
X104446565Y-105658611D01*
X104243516Y-105699000D01*
X104036484Y-105699000D01*
X103833435Y-105658611D01*
X103642166Y-105579385D01*
X103470024Y-105464363D01*
X103323637Y-105317976D01*
X103208615Y-105145834D01*
X103129389Y-104954565D01*
X103089000Y-104751516D01*
X103089000Y-104544484D01*
X103129389Y-104341435D01*
X103208615Y-104150166D01*
X103323637Y-103978024D01*
X103470024Y-103831637D01*
X103642166Y-103716615D01*
X103833435Y-103637389D01*
X104036484Y-103597000D01*
X104243516Y-103597000D01*
X104446565Y-103637389D01*
X104446565Y-103637389D01*
G37*
G36*
X101906565Y-103637389D02*
X102097834Y-103716615D01*
X102269976Y-103831637D01*
X102416363Y-103978024D01*
X102531385Y-104150166D01*
X102610611Y-104341435D01*
X102651000Y-104544484D01*
X102651000Y-104751516D01*
X102610611Y-104954565D01*
X102531385Y-105145834D01*
X102416363Y-105317976D01*
X102269976Y-105464363D01*
X102097834Y-105579385D01*
X101906565Y-105658611D01*
X101703516Y-105699000D01*
X101496484Y-105699000D01*
X101293435Y-105658611D01*
X101102166Y-105579385D01*
X100930024Y-105464363D01*
X100783637Y-105317976D01*
X100668615Y-105145834D01*
X100589389Y-104954565D01*
X100549000Y-104751516D01*
X100549000Y-104544484D01*
X100589389Y-104341435D01*
X100668615Y-104150166D01*
X100783637Y-103978024D01*
X100930024Y-103831637D01*
X101102166Y-103716615D01*
X101293435Y-103637389D01*
X101496484Y-103597000D01*
X101703516Y-103597000D01*
X101906565Y-103637389D01*
X101906565Y-103637389D01*
G37*
G36*
X130481565Y-102113389D02*
X130672834Y-102192615D01*
X130844976Y-102307637D01*
X130991363Y-102454024D01*
X131106385Y-102626166D01*
X131185611Y-102817435D01*
X131226000Y-103020484D01*
X131226000Y-103227516D01*
X131185611Y-103430565D01*
X131106385Y-103621834D01*
X130991363Y-103793976D01*
X130844976Y-103940363D01*
X130672834Y-104055385D01*
X130481565Y-104134611D01*
X130278516Y-104175000D01*
X130071484Y-104175000D01*
X129868435Y-104134611D01*
X129677166Y-104055385D01*
X129505024Y-103940363D01*
X129358637Y-103793976D01*
X129243615Y-103621834D01*
X129164389Y-103430565D01*
X129124000Y-103227516D01*
X129124000Y-103020484D01*
X129164389Y-102817435D01*
X129243615Y-102626166D01*
X129358637Y-102454024D01*
X129505024Y-102307637D01*
X129677166Y-102192615D01*
X129868435Y-102113389D01*
X130071484Y-102073000D01*
X130278516Y-102073000D01*
X130481565Y-102113389D01*
X130481565Y-102113389D01*
G37*
G36*
X135561565Y-102113389D02*
X135752834Y-102192615D01*
X135924976Y-102307637D01*
X136071363Y-102454024D01*
X136186385Y-102626166D01*
X136265611Y-102817435D01*
X136306000Y-103020484D01*
X136306000Y-103227516D01*
X136265611Y-103430565D01*
X136186385Y-103621834D01*
X136071363Y-103793976D01*
X135924976Y-103940363D01*
X135752834Y-104055385D01*
X135561565Y-104134611D01*
X135358516Y-104175000D01*
X135151484Y-104175000D01*
X134948435Y-104134611D01*
X134757166Y-104055385D01*
X134585024Y-103940363D01*
X134438637Y-103793976D01*
X134323615Y-103621834D01*
X134244389Y-103430565D01*
X134204000Y-103227516D01*
X134204000Y-103020484D01*
X134244389Y-102817435D01*
X134323615Y-102626166D01*
X134438637Y-102454024D01*
X134585024Y-102307637D01*
X134757166Y-102192615D01*
X134948435Y-102113389D01*
X135151484Y-102073000D01*
X135358516Y-102073000D01*
X135561565Y-102113389D01*
X135561565Y-102113389D01*
G37*
G36*
X133021565Y-102113389D02*
X133212834Y-102192615D01*
X133384976Y-102307637D01*
X133531363Y-102454024D01*
X133646385Y-102626166D01*
X133725611Y-102817435D01*
X133766000Y-103020484D01*
X133766000Y-103227516D01*
X133725611Y-103430565D01*
X133646385Y-103621834D01*
X133531363Y-103793976D01*
X133384976Y-103940363D01*
X133212834Y-104055385D01*
X133021565Y-104134611D01*
X132818516Y-104175000D01*
X132611484Y-104175000D01*
X132408435Y-104134611D01*
X132217166Y-104055385D01*
X132045024Y-103940363D01*
X131898637Y-103793976D01*
X131783615Y-103621834D01*
X131704389Y-103430565D01*
X131664000Y-103227516D01*
X131664000Y-103020484D01*
X131704389Y-102817435D01*
X131783615Y-102626166D01*
X131898637Y-102454024D01*
X132045024Y-102307637D01*
X132217166Y-102192615D01*
X132408435Y-102113389D01*
X132611484Y-102073000D01*
X132818516Y-102073000D01*
X133021565Y-102113389D01*
X133021565Y-102113389D01*
G37*
G36*
X138101565Y-102113389D02*
X138292834Y-102192615D01*
X138464976Y-102307637D01*
X138611363Y-102454024D01*
X138726385Y-102626166D01*
X138805611Y-102817435D01*
X138846000Y-103020484D01*
X138846000Y-103227516D01*
X138805611Y-103430565D01*
X138726385Y-103621834D01*
X138611363Y-103793976D01*
X138464976Y-103940363D01*
X138292834Y-104055385D01*
X138101565Y-104134611D01*
X137898516Y-104175000D01*
X137691484Y-104175000D01*
X137488435Y-104134611D01*
X137297166Y-104055385D01*
X137125024Y-103940363D01*
X136978637Y-103793976D01*
X136863615Y-103621834D01*
X136784389Y-103430565D01*
X136744000Y-103227516D01*
X136744000Y-103020484D01*
X136784389Y-102817435D01*
X136863615Y-102626166D01*
X136978637Y-102454024D01*
X137125024Y-102307637D01*
X137297166Y-102192615D01*
X137488435Y-102113389D01*
X137691484Y-102073000D01*
X137898516Y-102073000D01*
X138101565Y-102113389D01*
X138101565Y-102113389D01*
G37*
G36*
X169516527Y-98183736D02*
X169616410Y-98203604D01*
X169898674Y-98320521D01*
X170152705Y-98490259D01*
X170368741Y-98706295D01*
X170538479Y-98960326D01*
X170655396Y-99242590D01*
X170655396Y-99242591D01*
X170715000Y-99542238D01*
X170715000Y-99847762D01*
X170675264Y-100047527D01*
X170655396Y-100147410D01*
X170538479Y-100429674D01*
X170368741Y-100683705D01*
X170152705Y-100899741D01*
X169898674Y-101069479D01*
X169616410Y-101186396D01*
X169516527Y-101206264D01*
X169316762Y-101246000D01*
X169011238Y-101246000D01*
X168811473Y-101206264D01*
X168711590Y-101186396D01*
X168429326Y-101069479D01*
X168175295Y-100899741D01*
X167959259Y-100683705D01*
X167789521Y-100429674D01*
X167672604Y-100147410D01*
X167652736Y-100047527D01*
X167613000Y-99847762D01*
X167613000Y-99542238D01*
X167672604Y-99242591D01*
X167672604Y-99242590D01*
X167789521Y-98960326D01*
X167959259Y-98706295D01*
X168175295Y-98490259D01*
X168429326Y-98320521D01*
X168711590Y-98203604D01*
X168811473Y-98183736D01*
X169011238Y-98144000D01*
X169316762Y-98144000D01*
X169516527Y-98183736D01*
X169516527Y-98183736D01*
G37*
G36*
X99366565Y-98557389D02*
X99557834Y-98636615D01*
X99729976Y-98751637D01*
X99876363Y-98898024D01*
X99991385Y-99070166D01*
X100070611Y-99261435D01*
X100111000Y-99464484D01*
X100111000Y-99671516D01*
X100070611Y-99874565D01*
X99991385Y-100065834D01*
X99876363Y-100237976D01*
X99729976Y-100384363D01*
X99557834Y-100499385D01*
X99366565Y-100578611D01*
X99163516Y-100619000D01*
X98956484Y-100619000D01*
X98753435Y-100578611D01*
X98562166Y-100499385D01*
X98390024Y-100384363D01*
X98243637Y-100237976D01*
X98128615Y-100065834D01*
X98049389Y-99874565D01*
X98009000Y-99671516D01*
X98009000Y-99464484D01*
X98049389Y-99261435D01*
X98128615Y-99070166D01*
X98243637Y-98898024D01*
X98390024Y-98751637D01*
X98562166Y-98636615D01*
X98753435Y-98557389D01*
X98956484Y-98517000D01*
X99163516Y-98517000D01*
X99366565Y-98557389D01*
X99366565Y-98557389D01*
G37*
G36*
X117146565Y-98557389D02*
X117337834Y-98636615D01*
X117509976Y-98751637D01*
X117656363Y-98898024D01*
X117771385Y-99070166D01*
X117850611Y-99261435D01*
X117891000Y-99464484D01*
X117891000Y-99671516D01*
X117850611Y-99874565D01*
X117771385Y-100065834D01*
X117656363Y-100237976D01*
X117509976Y-100384363D01*
X117337834Y-100499385D01*
X117146565Y-100578611D01*
X116943516Y-100619000D01*
X116736484Y-100619000D01*
X116533435Y-100578611D01*
X116342166Y-100499385D01*
X116170024Y-100384363D01*
X116023637Y-100237976D01*
X115908615Y-100065834D01*
X115829389Y-99874565D01*
X115789000Y-99671516D01*
X115789000Y-99464484D01*
X115829389Y-99261435D01*
X115908615Y-99070166D01*
X116023637Y-98898024D01*
X116170024Y-98751637D01*
X116342166Y-98636615D01*
X116533435Y-98557389D01*
X116736484Y-98517000D01*
X116943516Y-98517000D01*
X117146565Y-98557389D01*
X117146565Y-98557389D01*
G37*
G36*
X104446565Y-98557389D02*
X104637834Y-98636615D01*
X104809976Y-98751637D01*
X104956363Y-98898024D01*
X105071385Y-99070166D01*
X105150611Y-99261435D01*
X105191000Y-99464484D01*
X105191000Y-99671516D01*
X105150611Y-99874565D01*
X105071385Y-100065834D01*
X104956363Y-100237976D01*
X104809976Y-100384363D01*
X104637834Y-100499385D01*
X104446565Y-100578611D01*
X104243516Y-100619000D01*
X104036484Y-100619000D01*
X103833435Y-100578611D01*
X103642166Y-100499385D01*
X103470024Y-100384363D01*
X103323637Y-100237976D01*
X103208615Y-100065834D01*
X103129389Y-99874565D01*
X103089000Y-99671516D01*
X103089000Y-99464484D01*
X103129389Y-99261435D01*
X103208615Y-99070166D01*
X103323637Y-98898024D01*
X103470024Y-98751637D01*
X103642166Y-98636615D01*
X103833435Y-98557389D01*
X104036484Y-98517000D01*
X104243516Y-98517000D01*
X104446565Y-98557389D01*
X104446565Y-98557389D01*
G37*
G36*
X106986565Y-98557389D02*
X107177834Y-98636615D01*
X107349976Y-98751637D01*
X107496363Y-98898024D01*
X107611385Y-99070166D01*
X107690611Y-99261435D01*
X107731000Y-99464484D01*
X107731000Y-99671516D01*
X107690611Y-99874565D01*
X107611385Y-100065834D01*
X107496363Y-100237976D01*
X107349976Y-100384363D01*
X107177834Y-100499385D01*
X106986565Y-100578611D01*
X106783516Y-100619000D01*
X106576484Y-100619000D01*
X106373435Y-100578611D01*
X106182166Y-100499385D01*
X106010024Y-100384363D01*
X105863637Y-100237976D01*
X105748615Y-100065834D01*
X105669389Y-99874565D01*
X105629000Y-99671516D01*
X105629000Y-99464484D01*
X105669389Y-99261435D01*
X105748615Y-99070166D01*
X105863637Y-98898024D01*
X106010024Y-98751637D01*
X106182166Y-98636615D01*
X106373435Y-98557389D01*
X106576484Y-98517000D01*
X106783516Y-98517000D01*
X106986565Y-98557389D01*
X106986565Y-98557389D01*
G37*
G36*
X109526565Y-98557389D02*
X109717834Y-98636615D01*
X109889976Y-98751637D01*
X110036363Y-98898024D01*
X110151385Y-99070166D01*
X110230611Y-99261435D01*
X110271000Y-99464484D01*
X110271000Y-99671516D01*
X110230611Y-99874565D01*
X110151385Y-100065834D01*
X110036363Y-100237976D01*
X109889976Y-100384363D01*
X109717834Y-100499385D01*
X109526565Y-100578611D01*
X109323516Y-100619000D01*
X109116484Y-100619000D01*
X108913435Y-100578611D01*
X108722166Y-100499385D01*
X108550024Y-100384363D01*
X108403637Y-100237976D01*
X108288615Y-100065834D01*
X108209389Y-99874565D01*
X108169000Y-99671516D01*
X108169000Y-99464484D01*
X108209389Y-99261435D01*
X108288615Y-99070166D01*
X108403637Y-98898024D01*
X108550024Y-98751637D01*
X108722166Y-98636615D01*
X108913435Y-98557389D01*
X109116484Y-98517000D01*
X109323516Y-98517000D01*
X109526565Y-98557389D01*
X109526565Y-98557389D01*
G37*
G36*
X112066565Y-98557389D02*
X112257834Y-98636615D01*
X112429976Y-98751637D01*
X112576363Y-98898024D01*
X112691385Y-99070166D01*
X112770611Y-99261435D01*
X112811000Y-99464484D01*
X112811000Y-99671516D01*
X112770611Y-99874565D01*
X112691385Y-100065834D01*
X112576363Y-100237976D01*
X112429976Y-100384363D01*
X112257834Y-100499385D01*
X112066565Y-100578611D01*
X111863516Y-100619000D01*
X111656484Y-100619000D01*
X111453435Y-100578611D01*
X111262166Y-100499385D01*
X111090024Y-100384363D01*
X110943637Y-100237976D01*
X110828615Y-100065834D01*
X110749389Y-99874565D01*
X110709000Y-99671516D01*
X110709000Y-99464484D01*
X110749389Y-99261435D01*
X110828615Y-99070166D01*
X110943637Y-98898024D01*
X111090024Y-98751637D01*
X111262166Y-98636615D01*
X111453435Y-98557389D01*
X111656484Y-98517000D01*
X111863516Y-98517000D01*
X112066565Y-98557389D01*
X112066565Y-98557389D01*
G37*
G36*
X114606565Y-98557389D02*
X114797834Y-98636615D01*
X114969976Y-98751637D01*
X115116363Y-98898024D01*
X115231385Y-99070166D01*
X115310611Y-99261435D01*
X115351000Y-99464484D01*
X115351000Y-99671516D01*
X115310611Y-99874565D01*
X115231385Y-100065834D01*
X115116363Y-100237976D01*
X114969976Y-100384363D01*
X114797834Y-100499385D01*
X114606565Y-100578611D01*
X114403516Y-100619000D01*
X114196484Y-100619000D01*
X113993435Y-100578611D01*
X113802166Y-100499385D01*
X113630024Y-100384363D01*
X113483637Y-100237976D01*
X113368615Y-100065834D01*
X113289389Y-99874565D01*
X113249000Y-99671516D01*
X113249000Y-99464484D01*
X113289389Y-99261435D01*
X113368615Y-99070166D01*
X113483637Y-98898024D01*
X113630024Y-98751637D01*
X113802166Y-98636615D01*
X113993435Y-98557389D01*
X114196484Y-98517000D01*
X114403516Y-98517000D01*
X114606565Y-98557389D01*
X114606565Y-98557389D01*
G37*
G36*
X96826565Y-98557389D02*
X97017834Y-98636615D01*
X97189976Y-98751637D01*
X97336363Y-98898024D01*
X97451385Y-99070166D01*
X97530611Y-99261435D01*
X97571000Y-99464484D01*
X97571000Y-99671516D01*
X97530611Y-99874565D01*
X97451385Y-100065834D01*
X97336363Y-100237976D01*
X97189976Y-100384363D01*
X97017834Y-100499385D01*
X96826565Y-100578611D01*
X96623516Y-100619000D01*
X96416484Y-100619000D01*
X96213435Y-100578611D01*
X96022166Y-100499385D01*
X95850024Y-100384363D01*
X95703637Y-100237976D01*
X95588615Y-100065834D01*
X95509389Y-99874565D01*
X95469000Y-99671516D01*
X95469000Y-99464484D01*
X95509389Y-99261435D01*
X95588615Y-99070166D01*
X95703637Y-98898024D01*
X95850024Y-98751637D01*
X96022166Y-98636615D01*
X96213435Y-98557389D01*
X96416484Y-98517000D01*
X96623516Y-98517000D01*
X96826565Y-98557389D01*
X96826565Y-98557389D01*
G37*
G36*
X101906565Y-98557389D02*
X102097834Y-98636615D01*
X102269976Y-98751637D01*
X102416363Y-98898024D01*
X102531385Y-99070166D01*
X102610611Y-99261435D01*
X102651000Y-99464484D01*
X102651000Y-99671516D01*
X102610611Y-99874565D01*
X102531385Y-100065834D01*
X102416363Y-100237976D01*
X102269976Y-100384363D01*
X102097834Y-100499385D01*
X101906565Y-100578611D01*
X101703516Y-100619000D01*
X101496484Y-100619000D01*
X101293435Y-100578611D01*
X101102166Y-100499385D01*
X100930024Y-100384363D01*
X100783637Y-100237976D01*
X100668615Y-100065834D01*
X100589389Y-99874565D01*
X100549000Y-99671516D01*
X100549000Y-99464484D01*
X100589389Y-99261435D01*
X100668615Y-99070166D01*
X100783637Y-98898024D01*
X100930024Y-98751637D01*
X101102166Y-98636615D01*
X101293435Y-98557389D01*
X101496484Y-98517000D01*
X101703516Y-98517000D01*
X101906565Y-98557389D01*
X101906565Y-98557389D01*
G37*
G36*
X99157142Y-93783242D02*
X99305102Y-93844530D01*
X99438258Y-93933502D01*
X99551498Y-94046742D01*
X99640470Y-94179898D01*
X99701758Y-94327858D01*
X99733000Y-94484925D01*
X99733000Y-94645075D01*
X99701758Y-94802142D01*
X99640470Y-94950102D01*
X99551498Y-95083258D01*
X99438258Y-95196498D01*
X99305102Y-95285470D01*
X99157142Y-95346758D01*
X99000075Y-95378000D01*
X98839925Y-95378000D01*
X98682858Y-95346758D01*
X98534898Y-95285470D01*
X98401742Y-95196498D01*
X98288502Y-95083258D01*
X98199530Y-94950102D01*
X98138242Y-94802142D01*
X98107000Y-94645075D01*
X98107000Y-94484925D01*
X98138242Y-94327858D01*
X98199530Y-94179898D01*
X98288502Y-94046742D01*
X98401742Y-93933502D01*
X98534898Y-93844530D01*
X98682858Y-93783242D01*
X98839925Y-93752000D01*
X99000075Y-93752000D01*
X99157142Y-93783242D01*
X99157142Y-93783242D01*
G37*
G36*
X114557142Y-93783242D02*
X114705102Y-93844530D01*
X114838258Y-93933502D01*
X114951498Y-94046742D01*
X115040470Y-94179898D01*
X115101758Y-94327858D01*
X115133000Y-94484925D01*
X115133000Y-94645075D01*
X115101758Y-94802142D01*
X115040470Y-94950102D01*
X114951498Y-95083258D01*
X114838258Y-95196498D01*
X114705102Y-95285470D01*
X114557142Y-95346758D01*
X114400075Y-95378000D01*
X114239925Y-95378000D01*
X114082858Y-95346758D01*
X113934898Y-95285470D01*
X113801742Y-95196498D01*
X113688502Y-95083258D01*
X113599530Y-94950102D01*
X113538242Y-94802142D01*
X113507000Y-94645075D01*
X113507000Y-94484925D01*
X113538242Y-94327858D01*
X113599530Y-94179898D01*
X113688502Y-94046742D01*
X113801742Y-93933502D01*
X113934898Y-93844530D01*
X114082858Y-93783242D01*
X114239925Y-93752000D01*
X114400075Y-93752000D01*
X114557142Y-93783242D01*
X114557142Y-93783242D01*
G37*
G36*
X122335228Y-92145703D02*
X122490100Y-92209853D01*
X122629481Y-92302985D01*
X122748015Y-92421519D01*
X122841147Y-92560900D01*
X122905297Y-92715772D01*
X122938000Y-92880184D01*
X122938000Y-93047816D01*
X122905297Y-93212228D01*
X122841147Y-93367100D01*
X122748015Y-93506481D01*
X122629481Y-93625015D01*
X122490100Y-93718147D01*
X122335228Y-93782297D01*
X122170816Y-93815000D01*
X122003184Y-93815000D01*
X121838772Y-93782297D01*
X121683900Y-93718147D01*
X121544519Y-93625015D01*
X121425985Y-93506481D01*
X121332853Y-93367100D01*
X121268703Y-93212228D01*
X121236000Y-93047816D01*
X121236000Y-92880184D01*
X121268703Y-92715772D01*
X121332853Y-92560900D01*
X121425985Y-92421519D01*
X121544519Y-92302985D01*
X121683900Y-92209853D01*
X121838772Y-92145703D01*
X122003184Y-92113000D01*
X122170816Y-92113000D01*
X122335228Y-92145703D01*
X122335228Y-92145703D01*
G37*
G36*
X125438000Y-93815000D02*
X123736000Y-93815000D01*
X123736000Y-92113000D01*
X125438000Y-92113000D01*
X125438000Y-93815000D01*
X125438000Y-93815000D01*
G37*
G36*
X169516527Y-89928736D02*
X169616410Y-89948604D01*
X169898674Y-90065521D01*
X170152705Y-90235259D01*
X170368741Y-90451295D01*
X170538479Y-90705326D01*
X170655396Y-90987590D01*
X170715000Y-91287240D01*
X170715000Y-91592760D01*
X170655396Y-91892410D01*
X170538479Y-92174674D01*
X170368741Y-92428705D01*
X170152705Y-92644741D01*
X169898674Y-92814479D01*
X169616410Y-92931396D01*
X169516527Y-92951264D01*
X169316762Y-92991000D01*
X169011238Y-92991000D01*
X168811473Y-92951264D01*
X168711590Y-92931396D01*
X168429326Y-92814479D01*
X168175295Y-92644741D01*
X167959259Y-92428705D01*
X167789521Y-92174674D01*
X167672604Y-91892410D01*
X167613000Y-91592760D01*
X167613000Y-91287240D01*
X167672604Y-90987590D01*
X167789521Y-90705326D01*
X167959259Y-90451295D01*
X168175295Y-90235259D01*
X168429326Y-90065521D01*
X168711590Y-89948604D01*
X168811473Y-89928736D01*
X169011238Y-89889000D01*
X169316762Y-89889000D01*
X169516527Y-89928736D01*
X169516527Y-89928736D01*
G37*
G36*
X169516527Y-82308736D02*
X169616410Y-82328604D01*
X169898674Y-82445521D01*
X170152705Y-82615259D01*
X170368741Y-82831295D01*
X170538479Y-83085326D01*
X170655396Y-83367590D01*
X170715000Y-83667240D01*
X170715000Y-83972760D01*
X170655396Y-84272410D01*
X170538479Y-84554674D01*
X170368741Y-84808705D01*
X170152705Y-85024741D01*
X169898674Y-85194479D01*
X169616410Y-85311396D01*
X169516527Y-85331264D01*
X169316762Y-85371000D01*
X169011238Y-85371000D01*
X168811473Y-85331264D01*
X168711590Y-85311396D01*
X168429326Y-85194479D01*
X168175295Y-85024741D01*
X167959259Y-84808705D01*
X167789521Y-84554674D01*
X167672604Y-84272410D01*
X167613000Y-83972760D01*
X167613000Y-83667240D01*
X167672604Y-83367590D01*
X167789521Y-83085326D01*
X167959259Y-82831295D01*
X168175295Y-82615259D01*
X168429326Y-82445521D01*
X168711590Y-82328604D01*
X168811473Y-82308736D01*
X169011238Y-82269000D01*
X169316762Y-82269000D01*
X169516527Y-82308736D01*
X169516527Y-82308736D01*
G37*
G36*
X122771000Y-84671000D02*
X121069000Y-84671000D01*
X121069000Y-82969000D01*
X122771000Y-82969000D01*
X122771000Y-84671000D01*
X122771000Y-84671000D01*
G37*
G36*
X124668228Y-83001703D02*
X124823100Y-83065853D01*
X124962481Y-83158985D01*
X125081015Y-83277519D01*
X125174147Y-83416900D01*
X125238297Y-83571772D01*
X125271000Y-83736184D01*
X125271000Y-83903816D01*
X125238297Y-84068228D01*
X125174147Y-84223100D01*
X125081015Y-84362481D01*
X124962481Y-84481015D01*
X124823100Y-84574147D01*
X124668228Y-84638297D01*
X124503816Y-84671000D01*
X124336184Y-84671000D01*
X124171772Y-84638297D01*
X124016900Y-84574147D01*
X123877519Y-84481015D01*
X123758985Y-84362481D01*
X123665853Y-84223100D01*
X123601703Y-84068228D01*
X123569000Y-83903816D01*
X123569000Y-83736184D01*
X123601703Y-83571772D01*
X123665853Y-83416900D01*
X123758985Y-83277519D01*
X123877519Y-83158985D01*
X124016900Y-83065853D01*
X124171772Y-83001703D01*
X124336184Y-82969000D01*
X124503816Y-82969000D01*
X124668228Y-83001703D01*
X124668228Y-83001703D01*
G37*
G36*
X169516527Y-74053736D02*
X169616410Y-74073604D01*
X169898674Y-74190521D01*
X170152705Y-74360259D01*
X170368741Y-74576295D01*
X170538479Y-74830326D01*
X170655396Y-75112590D01*
X170715000Y-75412240D01*
X170715000Y-75717760D01*
X170655396Y-76017410D01*
X170538479Y-76299674D01*
X170368741Y-76553705D01*
X170152705Y-76769741D01*
X169898674Y-76939479D01*
X169616410Y-77056396D01*
X169516527Y-77076264D01*
X169316762Y-77116000D01*
X169011238Y-77116000D01*
X168811473Y-77076264D01*
X168711590Y-77056396D01*
X168429326Y-76939479D01*
X168175295Y-76769741D01*
X167959259Y-76553705D01*
X167789521Y-76299674D01*
X167672604Y-76017410D01*
X167613000Y-75717760D01*
X167613000Y-75412240D01*
X167672604Y-75112590D01*
X167789521Y-74830326D01*
X167959259Y-74576295D01*
X168175295Y-74360259D01*
X168429326Y-74190521D01*
X168711590Y-74073604D01*
X168811473Y-74053736D01*
X169011238Y-74014000D01*
X169316762Y-74014000D01*
X169516527Y-74053736D01*
X169516527Y-74053736D01*
G37*
G36*
X150526000Y-75596000D02*
X147924000Y-75596000D01*
X147924000Y-72994000D01*
X150526000Y-72994000D01*
X150526000Y-75596000D01*
X150526000Y-75596000D01*
G37*
G36*
X132746000Y-75596000D02*
X130144000Y-75596000D01*
X130144000Y-72994000D01*
X132746000Y-72994000D01*
X132746000Y-75596000D01*
X132746000Y-75596000D01*
G37*
G36*
X125556689Y-70998706D02*
X125700040Y-71012825D01*
X125945280Y-71087218D01*
X125945282Y-71087219D01*
X126171296Y-71208026D01*
X126369397Y-71370603D01*
X126531974Y-71568704D01*
X126531975Y-71568706D01*
X126652782Y-71794720D01*
X126727175Y-72039960D01*
X126752294Y-72295000D01*
X126727175Y-72550040D01*
X126652782Y-72795280D01*
X126652781Y-72795282D01*
X126531974Y-73021296D01*
X126369397Y-73219397D01*
X126171296Y-73381974D01*
X126171294Y-73381975D01*
X125945280Y-73502782D01*
X125700040Y-73577175D01*
X125556689Y-73591294D01*
X125508906Y-73596000D01*
X125381094Y-73596000D01*
X125333311Y-73591294D01*
X125189960Y-73577175D01*
X124944720Y-73502782D01*
X124718706Y-73381975D01*
X124718704Y-73381974D01*
X124520603Y-73219397D01*
X124358026Y-73021296D01*
X124237219Y-72795282D01*
X124237218Y-72795280D01*
X124162825Y-72550040D01*
X124137706Y-72295000D01*
X124162825Y-72039960D01*
X124237218Y-71794720D01*
X124358025Y-71568706D01*
X124358026Y-71568704D01*
X124520603Y-71370603D01*
X124718704Y-71208026D01*
X124944718Y-71087219D01*
X124944720Y-71087218D01*
X125189960Y-71012825D01*
X125333311Y-70998706D01*
X125381094Y-70994000D01*
X125508906Y-70994000D01*
X125556689Y-70998706D01*
X125556689Y-70998706D01*
G37*
G36*
X155336689Y-70998706D02*
X155480040Y-71012825D01*
X155725280Y-71087218D01*
X155725282Y-71087219D01*
X155951296Y-71208026D01*
X156149397Y-71370603D01*
X156311974Y-71568704D01*
X156311975Y-71568706D01*
X156432782Y-71794720D01*
X156507175Y-72039960D01*
X156532294Y-72295000D01*
X156507175Y-72550040D01*
X156432782Y-72795280D01*
X156432781Y-72795282D01*
X156311974Y-73021296D01*
X156149397Y-73219397D01*
X155951296Y-73381974D01*
X155951294Y-73381975D01*
X155725280Y-73502782D01*
X155480040Y-73577175D01*
X155336689Y-73591294D01*
X155288906Y-73596000D01*
X155161094Y-73596000D01*
X155113311Y-73591294D01*
X154969960Y-73577175D01*
X154724720Y-73502782D01*
X154498706Y-73381975D01*
X154498704Y-73381974D01*
X154300603Y-73219397D01*
X154138026Y-73021296D01*
X154017219Y-72795282D01*
X154017218Y-72795280D01*
X153942825Y-72550040D01*
X153917706Y-72295000D01*
X153942825Y-72039960D01*
X154017218Y-71794720D01*
X154138025Y-71568706D01*
X154138026Y-71568704D01*
X154300603Y-71370603D01*
X154498704Y-71208026D01*
X154724718Y-71087219D01*
X154724720Y-71087218D01*
X154969960Y-71012825D01*
X155113311Y-70998706D01*
X155161094Y-70994000D01*
X155288906Y-70994000D01*
X155336689Y-70998706D01*
X155336689Y-70998706D01*
G37*
G36*
X143336689Y-70998706D02*
X143480040Y-71012825D01*
X143725280Y-71087218D01*
X143725282Y-71087219D01*
X143951296Y-71208026D01*
X144149397Y-71370603D01*
X144311974Y-71568704D01*
X144311975Y-71568706D01*
X144432782Y-71794720D01*
X144507175Y-72039960D01*
X144532294Y-72295000D01*
X144507175Y-72550040D01*
X144432782Y-72795280D01*
X144432781Y-72795282D01*
X144311974Y-73021296D01*
X144149397Y-73219397D01*
X143951296Y-73381974D01*
X143951294Y-73381975D01*
X143725280Y-73502782D01*
X143480040Y-73577175D01*
X143336689Y-73591294D01*
X143288906Y-73596000D01*
X143161094Y-73596000D01*
X143113311Y-73591294D01*
X142969960Y-73577175D01*
X142724720Y-73502782D01*
X142498706Y-73381975D01*
X142498704Y-73381974D01*
X142300603Y-73219397D01*
X142138026Y-73021296D01*
X142017219Y-72795282D01*
X142017218Y-72795280D01*
X141942825Y-72550040D01*
X141917706Y-72295000D01*
X141942825Y-72039960D01*
X142017218Y-71794720D01*
X142138025Y-71568706D01*
X142138026Y-71568704D01*
X142300603Y-71370603D01*
X142498704Y-71208026D01*
X142724718Y-71087219D01*
X142724720Y-71087218D01*
X142969960Y-71012825D01*
X143113311Y-70998706D01*
X143161094Y-70994000D01*
X143288906Y-70994000D01*
X143336689Y-70998706D01*
X143336689Y-70998706D01*
G37*
G36*
X137556689Y-70998706D02*
X137700040Y-71012825D01*
X137945280Y-71087218D01*
X137945282Y-71087219D01*
X138171296Y-71208026D01*
X138369397Y-71370603D01*
X138531974Y-71568704D01*
X138531975Y-71568706D01*
X138652782Y-71794720D01*
X138727175Y-72039960D01*
X138752294Y-72295000D01*
X138727175Y-72550040D01*
X138652782Y-72795280D01*
X138652781Y-72795282D01*
X138531974Y-73021296D01*
X138369397Y-73219397D01*
X138171296Y-73381974D01*
X138171294Y-73381975D01*
X137945280Y-73502782D01*
X137700040Y-73577175D01*
X137556689Y-73591294D01*
X137508906Y-73596000D01*
X137381094Y-73596000D01*
X137333311Y-73591294D01*
X137189960Y-73577175D01*
X136944720Y-73502782D01*
X136718706Y-73381975D01*
X136718704Y-73381974D01*
X136520603Y-73219397D01*
X136358026Y-73021296D01*
X136237219Y-72795282D01*
X136237218Y-72795280D01*
X136162825Y-72550040D01*
X136137706Y-72295000D01*
X136162825Y-72039960D01*
X136237218Y-71794720D01*
X136358025Y-71568706D01*
X136358026Y-71568704D01*
X136520603Y-71370603D01*
X136718704Y-71208026D01*
X136944718Y-71087219D01*
X136944720Y-71087218D01*
X137189960Y-71012825D01*
X137333311Y-70998706D01*
X137381094Y-70994000D01*
X137508906Y-70994000D01*
X137556689Y-70998706D01*
X137556689Y-70998706D01*
G37*
G36*
X169516527Y-66433736D02*
X169616410Y-66453604D01*
X169898674Y-66570521D01*
X170152705Y-66740259D01*
X170368741Y-66956295D01*
X170538479Y-67210326D01*
X170655396Y-67492590D01*
X170715000Y-67792240D01*
X170715000Y-68097760D01*
X170655396Y-68397410D01*
X170538479Y-68679674D01*
X170368741Y-68933705D01*
X170152705Y-69149741D01*
X169898674Y-69319479D01*
X169616410Y-69436396D01*
X169516527Y-69456264D01*
X169316762Y-69496000D01*
X169011238Y-69496000D01*
X168811473Y-69456264D01*
X168711590Y-69436396D01*
X168429326Y-69319479D01*
X168175295Y-69149741D01*
X167959259Y-68933705D01*
X167789521Y-68679674D01*
X167672604Y-68397410D01*
X167613000Y-68097760D01*
X167613000Y-67792240D01*
X167672604Y-67492590D01*
X167789521Y-67210326D01*
X167959259Y-66956295D01*
X168175295Y-66740259D01*
X168429326Y-66570521D01*
X168711590Y-66453604D01*
X168811473Y-66433736D01*
X169011238Y-66394000D01*
X169316762Y-66394000D01*
X169516527Y-66433736D01*
X169516527Y-66433736D01*
G37*
G36*
X109357142Y-64383242D02*
X109505102Y-64444530D01*
X109638258Y-64533502D01*
X109751498Y-64646742D01*
X109840470Y-64779898D01*
X109901758Y-64927858D01*
X109933000Y-65084925D01*
X109933000Y-65245075D01*
X109901758Y-65402142D01*
X109840470Y-65550102D01*
X109751498Y-65683258D01*
X109638258Y-65796498D01*
X109505102Y-65885470D01*
X109357142Y-65946758D01*
X109200075Y-65978000D01*
X109039925Y-65978000D01*
X108882858Y-65946758D01*
X108734898Y-65885470D01*
X108601742Y-65796498D01*
X108488502Y-65683258D01*
X108399530Y-65550102D01*
X108338242Y-65402142D01*
X108307000Y-65245075D01*
X108307000Y-65084925D01*
X108338242Y-64927858D01*
X108399530Y-64779898D01*
X108488502Y-64646742D01*
X108601742Y-64533502D01*
X108734898Y-64444530D01*
X108882858Y-64383242D01*
X109039925Y-64352000D01*
X109200075Y-64352000D01*
X109357142Y-64383242D01*
X109357142Y-64383242D01*
G37*
G36*
X104357142Y-64383242D02*
X104505102Y-64444530D01*
X104638258Y-64533502D01*
X104751498Y-64646742D01*
X104840470Y-64779898D01*
X104901758Y-64927858D01*
X104933000Y-65084925D01*
X104933000Y-65245075D01*
X104901758Y-65402142D01*
X104840470Y-65550102D01*
X104751498Y-65683258D01*
X104638258Y-65796498D01*
X104505102Y-65885470D01*
X104357142Y-65946758D01*
X104200075Y-65978000D01*
X104039925Y-65978000D01*
X103882858Y-65946758D01*
X103734898Y-65885470D01*
X103601742Y-65796498D01*
X103488502Y-65683258D01*
X103399530Y-65550102D01*
X103338242Y-65402142D01*
X103307000Y-65245075D01*
X103307000Y-65084925D01*
X103338242Y-64927858D01*
X103399530Y-64779898D01*
X103488502Y-64646742D01*
X103601742Y-64533502D01*
X103734898Y-64444530D01*
X103882858Y-64383242D01*
X104039925Y-64352000D01*
X104200075Y-64352000D01*
X104357142Y-64383242D01*
X104357142Y-64383242D01*
G37*
G36*
X125556689Y-58798706D02*
X125700040Y-58812825D01*
X125945280Y-58887218D01*
X125945282Y-58887219D01*
X126171296Y-59008026D01*
X126369397Y-59170603D01*
X126531974Y-59368704D01*
X126531975Y-59368706D01*
X126652782Y-59594720D01*
X126727175Y-59839960D01*
X126752294Y-60095000D01*
X126727175Y-60350040D01*
X126652782Y-60595280D01*
X126652781Y-60595282D01*
X126531974Y-60821296D01*
X126369397Y-61019397D01*
X126171296Y-61181974D01*
X126171294Y-61181975D01*
X125945280Y-61302782D01*
X125700040Y-61377175D01*
X125556689Y-61391294D01*
X125508906Y-61396000D01*
X125381094Y-61396000D01*
X125333311Y-61391294D01*
X125189960Y-61377175D01*
X124944720Y-61302782D01*
X124718706Y-61181975D01*
X124718704Y-61181974D01*
X124520603Y-61019397D01*
X124358026Y-60821296D01*
X124237219Y-60595282D01*
X124237218Y-60595280D01*
X124162825Y-60350040D01*
X124137706Y-60095000D01*
X124162825Y-59839960D01*
X124237218Y-59594720D01*
X124358025Y-59368706D01*
X124358026Y-59368704D01*
X124520603Y-59170603D01*
X124718704Y-59008026D01*
X124944718Y-58887219D01*
X124944720Y-58887218D01*
X125189960Y-58812825D01*
X125333311Y-58798706D01*
X125381094Y-58794000D01*
X125508906Y-58794000D01*
X125556689Y-58798706D01*
X125556689Y-58798706D01*
G37*
G36*
X143336689Y-58798706D02*
X143480040Y-58812825D01*
X143725280Y-58887218D01*
X143725282Y-58887219D01*
X143951296Y-59008026D01*
X144149397Y-59170603D01*
X144311974Y-59368704D01*
X144311975Y-59368706D01*
X144432782Y-59594720D01*
X144507175Y-59839960D01*
X144532294Y-60095000D01*
X144507175Y-60350040D01*
X144432782Y-60595280D01*
X144432781Y-60595282D01*
X144311974Y-60821296D01*
X144149397Y-61019397D01*
X143951296Y-61181974D01*
X143951294Y-61181975D01*
X143725280Y-61302782D01*
X143480040Y-61377175D01*
X143336689Y-61391294D01*
X143288906Y-61396000D01*
X143161094Y-61396000D01*
X143113311Y-61391294D01*
X142969960Y-61377175D01*
X142724720Y-61302782D01*
X142498706Y-61181975D01*
X142498704Y-61181974D01*
X142300603Y-61019397D01*
X142138026Y-60821296D01*
X142017219Y-60595282D01*
X142017218Y-60595280D01*
X141942825Y-60350040D01*
X141917706Y-60095000D01*
X141942825Y-59839960D01*
X142017218Y-59594720D01*
X142138025Y-59368706D01*
X142138026Y-59368704D01*
X142300603Y-59170603D01*
X142498704Y-59008026D01*
X142724718Y-58887219D01*
X142724720Y-58887218D01*
X142969960Y-58812825D01*
X143113311Y-58798706D01*
X143161094Y-58794000D01*
X143288906Y-58794000D01*
X143336689Y-58798706D01*
X143336689Y-58798706D01*
G37*
G36*
X137556689Y-58798706D02*
X137700040Y-58812825D01*
X137945280Y-58887218D01*
X137945282Y-58887219D01*
X138171296Y-59008026D01*
X138369397Y-59170603D01*
X138531974Y-59368704D01*
X138531975Y-59368706D01*
X138652782Y-59594720D01*
X138727175Y-59839960D01*
X138752294Y-60095000D01*
X138727175Y-60350040D01*
X138652782Y-60595280D01*
X138652781Y-60595282D01*
X138531974Y-60821296D01*
X138369397Y-61019397D01*
X138171296Y-61181974D01*
X138171294Y-61181975D01*
X137945280Y-61302782D01*
X137700040Y-61377175D01*
X137556689Y-61391294D01*
X137508906Y-61396000D01*
X137381094Y-61396000D01*
X137333311Y-61391294D01*
X137189960Y-61377175D01*
X136944720Y-61302782D01*
X136718706Y-61181975D01*
X136718704Y-61181974D01*
X136520603Y-61019397D01*
X136358026Y-60821296D01*
X136237219Y-60595282D01*
X136237218Y-60595280D01*
X136162825Y-60350040D01*
X136137706Y-60095000D01*
X136162825Y-59839960D01*
X136237218Y-59594720D01*
X136358025Y-59368706D01*
X136358026Y-59368704D01*
X136520603Y-59170603D01*
X136718704Y-59008026D01*
X136944718Y-58887219D01*
X136944720Y-58887218D01*
X137189960Y-58812825D01*
X137333311Y-58798706D01*
X137381094Y-58794000D01*
X137508906Y-58794000D01*
X137556689Y-58798706D01*
X137556689Y-58798706D01*
G37*
G36*
X155336689Y-58798706D02*
X155480040Y-58812825D01*
X155725280Y-58887218D01*
X155725282Y-58887219D01*
X155951296Y-59008026D01*
X156149397Y-59170603D01*
X156311974Y-59368704D01*
X156311975Y-59368706D01*
X156432782Y-59594720D01*
X156507175Y-59839960D01*
X156532294Y-60095000D01*
X156507175Y-60350040D01*
X156432782Y-60595280D01*
X156432781Y-60595282D01*
X156311974Y-60821296D01*
X156149397Y-61019397D01*
X155951296Y-61181974D01*
X155951294Y-61181975D01*
X155725280Y-61302782D01*
X155480040Y-61377175D01*
X155336689Y-61391294D01*
X155288906Y-61396000D01*
X155161094Y-61396000D01*
X155113311Y-61391294D01*
X154969960Y-61377175D01*
X154724720Y-61302782D01*
X154498706Y-61181975D01*
X154498704Y-61181974D01*
X154300603Y-61019397D01*
X154138026Y-60821296D01*
X154017219Y-60595282D01*
X154017218Y-60595280D01*
X153942825Y-60350040D01*
X153917706Y-60095000D01*
X153942825Y-59839960D01*
X154017218Y-59594720D01*
X154138025Y-59368706D01*
X154138026Y-59368704D01*
X154300603Y-59170603D01*
X154498704Y-59008026D01*
X154724718Y-58887219D01*
X154724720Y-58887218D01*
X154969960Y-58812825D01*
X155113311Y-58798706D01*
X155161094Y-58794000D01*
X155288906Y-58794000D01*
X155336689Y-58798706D01*
X155336689Y-58798706D01*
G37*
G36*
X169516527Y-58178736D02*
X169616410Y-58198604D01*
X169898674Y-58315521D01*
X170152705Y-58485259D01*
X170368741Y-58701295D01*
X170538479Y-58955326D01*
X170655396Y-59237590D01*
X170675264Y-59337473D01*
X170704277Y-59483329D01*
X170715000Y-59537240D01*
X170715000Y-59842760D01*
X170655396Y-60142410D01*
X170538479Y-60424674D01*
X170368741Y-60678705D01*
X170152705Y-60894741D01*
X169898674Y-61064479D01*
X169616410Y-61181396D01*
X169516527Y-61201264D01*
X169316762Y-61241000D01*
X169011238Y-61241000D01*
X168811473Y-61201264D01*
X168711590Y-61181396D01*
X168429326Y-61064479D01*
X168175295Y-60894741D01*
X167959259Y-60678705D01*
X167789521Y-60424674D01*
X167672604Y-60142410D01*
X167613000Y-59842760D01*
X167613000Y-59537240D01*
X167623724Y-59483329D01*
X167652736Y-59337473D01*
X167672604Y-59237590D01*
X167789521Y-58955326D01*
X167959259Y-58701295D01*
X168175295Y-58485259D01*
X168429326Y-58315521D01*
X168711590Y-58198604D01*
X168811473Y-58178736D01*
X169011238Y-58139000D01*
X169316762Y-58139000D01*
X169516527Y-58178736D01*
X169516527Y-58178736D01*
G37*
G36*
X104737611Y-57723714D02*
X104960730Y-57816133D01*
X105161530Y-57950304D01*
X105332296Y-58121070D01*
X105466467Y-58321870D01*
X105558886Y-58544989D01*
X105606000Y-58781848D01*
X105606000Y-59023352D01*
X105558886Y-59260211D01*
X105466467Y-59483330D01*
X105332296Y-59684130D01*
X105161530Y-59854896D01*
X104960730Y-59989067D01*
X104737611Y-60081486D01*
X104500752Y-60128600D01*
X104259248Y-60128600D01*
X104022389Y-60081486D01*
X103799270Y-59989067D01*
X103598470Y-59854896D01*
X103427704Y-59684130D01*
X103293533Y-59483330D01*
X103201114Y-59260211D01*
X103154000Y-59023352D01*
X103154000Y-58781848D01*
X103201114Y-58544989D01*
X103293533Y-58321870D01*
X103427704Y-58121070D01*
X103598470Y-57950304D01*
X103799270Y-57816133D01*
X104022389Y-57723714D01*
X104259248Y-57676600D01*
X104500752Y-57676600D01*
X104737611Y-57723714D01*
X104737611Y-57723714D01*
G37*
G36*
X99737611Y-57723714D02*
X99960730Y-57816133D01*
X100161530Y-57950304D01*
X100332296Y-58121070D01*
X100466467Y-58321870D01*
X100558886Y-58544989D01*
X100606000Y-58781848D01*
X100606000Y-59023352D01*
X100558886Y-59260211D01*
X100466467Y-59483330D01*
X100332296Y-59684130D01*
X100161530Y-59854896D01*
X99960730Y-59989067D01*
X99737611Y-60081486D01*
X99500752Y-60128600D01*
X99259248Y-60128600D01*
X99022389Y-60081486D01*
X98799270Y-59989067D01*
X98598470Y-59854896D01*
X98427704Y-59684130D01*
X98293533Y-59483330D01*
X98201114Y-59260211D01*
X98154000Y-59023352D01*
X98154000Y-58781848D01*
X98201114Y-58544989D01*
X98293533Y-58321870D01*
X98427704Y-58121070D01*
X98598470Y-57950304D01*
X98799270Y-57816133D01*
X99022389Y-57723714D01*
X99259248Y-57676600D01*
X99500752Y-57676600D01*
X99737611Y-57723714D01*
X99737611Y-57723714D01*
G37*
G36*
X114737611Y-57723714D02*
X114960730Y-57816133D01*
X115161530Y-57950304D01*
X115332296Y-58121070D01*
X115466467Y-58321870D01*
X115558886Y-58544989D01*
X115606000Y-58781848D01*
X115606000Y-59023352D01*
X115558886Y-59260211D01*
X115466467Y-59483330D01*
X115332296Y-59684130D01*
X115161530Y-59854896D01*
X114960730Y-59989067D01*
X114737611Y-60081486D01*
X114500752Y-60128600D01*
X114259248Y-60128600D01*
X114022389Y-60081486D01*
X113799270Y-59989067D01*
X113598470Y-59854896D01*
X113427704Y-59684130D01*
X113293533Y-59483330D01*
X113201114Y-59260211D01*
X113154000Y-59023352D01*
X113154000Y-58781848D01*
X113201114Y-58544989D01*
X113293533Y-58321870D01*
X113427704Y-58121070D01*
X113598470Y-57950304D01*
X113799270Y-57816133D01*
X114022389Y-57723714D01*
X114259248Y-57676600D01*
X114500752Y-57676600D01*
X114737611Y-57723714D01*
X114737611Y-57723714D01*
G37*
G36*
X119737611Y-57723714D02*
X119960730Y-57816133D01*
X120161530Y-57950304D01*
X120332296Y-58121070D01*
X120466467Y-58321870D01*
X120558886Y-58544989D01*
X120606000Y-58781848D01*
X120606000Y-59023352D01*
X120558886Y-59260211D01*
X120466467Y-59483330D01*
X120332296Y-59684130D01*
X120161530Y-59854896D01*
X119960730Y-59989067D01*
X119737611Y-60081486D01*
X119500752Y-60128600D01*
X119259248Y-60128600D01*
X119022389Y-60081486D01*
X118799270Y-59989067D01*
X118598470Y-59854896D01*
X118427704Y-59684130D01*
X118293533Y-59483330D01*
X118201114Y-59260211D01*
X118154000Y-59023352D01*
X118154000Y-58781848D01*
X118201114Y-58544989D01*
X118293533Y-58321870D01*
X118427704Y-58121070D01*
X118598470Y-57950304D01*
X118799270Y-57816133D01*
X119022389Y-57723714D01*
X119259248Y-57676600D01*
X119500752Y-57676600D01*
X119737611Y-57723714D01*
X119737611Y-57723714D01*
G37*
G36*
X169516527Y-50558736D02*
X169616410Y-50578604D01*
X169898674Y-50695521D01*
X170152705Y-50865259D01*
X170368741Y-51081295D01*
X170538479Y-51335326D01*
X170621050Y-51534672D01*
X170655396Y-51617591D01*
X170715000Y-51917238D01*
X170715000Y-52222762D01*
X170689492Y-52351000D01*
X170655396Y-52522410D01*
X170538479Y-52804674D01*
X170368741Y-53058705D01*
X170152705Y-53274741D01*
X169898674Y-53444479D01*
X169616410Y-53561396D01*
X169516527Y-53581264D01*
X169316762Y-53621000D01*
X169011238Y-53621000D01*
X168811473Y-53581264D01*
X168711590Y-53561396D01*
X168429326Y-53444479D01*
X168175295Y-53274741D01*
X167959259Y-53058705D01*
X167789521Y-52804674D01*
X167672604Y-52522410D01*
X167638508Y-52351000D01*
X167613000Y-52222762D01*
X167613000Y-51917238D01*
X167672604Y-51617591D01*
X167706950Y-51534672D01*
X167789521Y-51335326D01*
X167959259Y-51081295D01*
X168175295Y-50865259D01*
X168429326Y-50695521D01*
X168711590Y-50578604D01*
X168811473Y-50558736D01*
X169011238Y-50519000D01*
X169316762Y-50519000D01*
X169516527Y-50558736D01*
X169516527Y-50558736D01*
G37*
G36*
X131162527Y-49288736D02*
X131262410Y-49308604D01*
X131544674Y-49425521D01*
X131798705Y-49595259D01*
X132014741Y-49811295D01*
X132184479Y-50065326D01*
X132301396Y-50347590D01*
X132301396Y-50347591D01*
X132347348Y-50578604D01*
X132361000Y-50647240D01*
X132361000Y-50952760D01*
X132301396Y-51252410D01*
X132184479Y-51534674D01*
X132014741Y-51788705D01*
X131798705Y-52004741D01*
X131544674Y-52174479D01*
X131262410Y-52291396D01*
X131162527Y-52311264D01*
X130962762Y-52351000D01*
X130657238Y-52351000D01*
X130457473Y-52311264D01*
X130357590Y-52291396D01*
X130075326Y-52174479D01*
X129821295Y-52004741D01*
X129605259Y-51788705D01*
X129435521Y-51534674D01*
X129318604Y-51252410D01*
X129259000Y-50952760D01*
X129259000Y-50647240D01*
X129272653Y-50578604D01*
X129318604Y-50347591D01*
X129318604Y-50347590D01*
X129435521Y-50065326D01*
X129605259Y-49811295D01*
X129821295Y-49595259D01*
X130075326Y-49425521D01*
X130357590Y-49308604D01*
X130457473Y-49288736D01*
X130657238Y-49249000D01*
X130962762Y-49249000D01*
X131162527Y-49288736D01*
X131162527Y-49288736D01*
G37*
G36*
X162912527Y-49288736D02*
X163012410Y-49308604D01*
X163294674Y-49425521D01*
X163548705Y-49595259D01*
X163764741Y-49811295D01*
X163934479Y-50065326D01*
X164051396Y-50347590D01*
X164051396Y-50347591D01*
X164097348Y-50578604D01*
X164111000Y-50647240D01*
X164111000Y-50952760D01*
X164051396Y-51252410D01*
X163934479Y-51534674D01*
X163764741Y-51788705D01*
X163548705Y-52004741D01*
X163294674Y-52174479D01*
X163012410Y-52291396D01*
X162912527Y-52311264D01*
X162712762Y-52351000D01*
X162407238Y-52351000D01*
X162207473Y-52311264D01*
X162107590Y-52291396D01*
X161825326Y-52174479D01*
X161571295Y-52004741D01*
X161355259Y-51788705D01*
X161185521Y-51534674D01*
X161068604Y-51252410D01*
X161009000Y-50952760D01*
X161009000Y-50647240D01*
X161022653Y-50578604D01*
X161068604Y-50347591D01*
X161068604Y-50347590D01*
X161185521Y-50065326D01*
X161355259Y-49811295D01*
X161571295Y-49595259D01*
X161825326Y-49425521D01*
X162107590Y-49308604D01*
X162207473Y-49288736D01*
X162407238Y-49249000D01*
X162712762Y-49249000D01*
X162912527Y-49288736D01*
X162912527Y-49288736D01*
G37*
G36*
X155292527Y-49288736D02*
X155392410Y-49308604D01*
X155674674Y-49425521D01*
X155928705Y-49595259D01*
X156144741Y-49811295D01*
X156314479Y-50065326D01*
X156431396Y-50347590D01*
X156431396Y-50347591D01*
X156477348Y-50578604D01*
X156491000Y-50647240D01*
X156491000Y-50952760D01*
X156431396Y-51252410D01*
X156314479Y-51534674D01*
X156144741Y-51788705D01*
X155928705Y-52004741D01*
X155674674Y-52174479D01*
X155392410Y-52291396D01*
X155292527Y-52311264D01*
X155092762Y-52351000D01*
X154787238Y-52351000D01*
X154587473Y-52311264D01*
X154487590Y-52291396D01*
X154205326Y-52174479D01*
X153951295Y-52004741D01*
X153735259Y-51788705D01*
X153565521Y-51534674D01*
X153448604Y-51252410D01*
X153389000Y-50952760D01*
X153389000Y-50647240D01*
X153402653Y-50578604D01*
X153448604Y-50347591D01*
X153448604Y-50347590D01*
X153565521Y-50065326D01*
X153735259Y-49811295D01*
X153951295Y-49595259D01*
X154205326Y-49425521D01*
X154487590Y-49308604D01*
X154587473Y-49288736D01*
X154787238Y-49249000D01*
X155092762Y-49249000D01*
X155292527Y-49288736D01*
X155292527Y-49288736D01*
G37*
G36*
X107667527Y-49288736D02*
X107767410Y-49308604D01*
X108049674Y-49425521D01*
X108303705Y-49595259D01*
X108519741Y-49811295D01*
X108689479Y-50065326D01*
X108806396Y-50347590D01*
X108806396Y-50347591D01*
X108852348Y-50578604D01*
X108866000Y-50647240D01*
X108866000Y-50952760D01*
X108806396Y-51252410D01*
X108689479Y-51534674D01*
X108519741Y-51788705D01*
X108303705Y-52004741D01*
X108049674Y-52174479D01*
X107767410Y-52291396D01*
X107667527Y-52311264D01*
X107467762Y-52351000D01*
X107162238Y-52351000D01*
X106962473Y-52311264D01*
X106862590Y-52291396D01*
X106580326Y-52174479D01*
X106326295Y-52004741D01*
X106110259Y-51788705D01*
X105940521Y-51534674D01*
X105823604Y-51252410D01*
X105764000Y-50952760D01*
X105764000Y-50647240D01*
X105777653Y-50578604D01*
X105823604Y-50347591D01*
X105823604Y-50347590D01*
X105940521Y-50065326D01*
X106110259Y-49811295D01*
X106326295Y-49595259D01*
X106580326Y-49425521D01*
X106862590Y-49308604D01*
X106962473Y-49288736D01*
X107162238Y-49249000D01*
X107467762Y-49249000D01*
X107667527Y-49288736D01*
X107667527Y-49288736D01*
G37*
G36*
X115287527Y-49288736D02*
X115387410Y-49308604D01*
X115669674Y-49425521D01*
X115923705Y-49595259D01*
X116139741Y-49811295D01*
X116309479Y-50065326D01*
X116426396Y-50347590D01*
X116426396Y-50347591D01*
X116472348Y-50578604D01*
X116486000Y-50647240D01*
X116486000Y-50952760D01*
X116426396Y-51252410D01*
X116309479Y-51534674D01*
X116139741Y-51788705D01*
X115923705Y-52004741D01*
X115669674Y-52174479D01*
X115387410Y-52291396D01*
X115287527Y-52311264D01*
X115087762Y-52351000D01*
X114782238Y-52351000D01*
X114582473Y-52311264D01*
X114482590Y-52291396D01*
X114200326Y-52174479D01*
X113946295Y-52004741D01*
X113730259Y-51788705D01*
X113560521Y-51534674D01*
X113443604Y-51252410D01*
X113384000Y-50952760D01*
X113384000Y-50647240D01*
X113397653Y-50578604D01*
X113443604Y-50347591D01*
X113443604Y-50347590D01*
X113560521Y-50065326D01*
X113730259Y-49811295D01*
X113946295Y-49595259D01*
X114200326Y-49425521D01*
X114482590Y-49308604D01*
X114582473Y-49288736D01*
X114782238Y-49249000D01*
X115087762Y-49249000D01*
X115287527Y-49288736D01*
X115287527Y-49288736D01*
G37*
G36*
X123542527Y-49288736D02*
X123642410Y-49308604D01*
X123924674Y-49425521D01*
X124178705Y-49595259D01*
X124394741Y-49811295D01*
X124564479Y-50065326D01*
X124681396Y-50347590D01*
X124681396Y-50347591D01*
X124727348Y-50578604D01*
X124741000Y-50647240D01*
X124741000Y-50952760D01*
X124681396Y-51252410D01*
X124564479Y-51534674D01*
X124394741Y-51788705D01*
X124178705Y-52004741D01*
X123924674Y-52174479D01*
X123642410Y-52291396D01*
X123542527Y-52311264D01*
X123342762Y-52351000D01*
X123037238Y-52351000D01*
X122837473Y-52311264D01*
X122737590Y-52291396D01*
X122455326Y-52174479D01*
X122201295Y-52004741D01*
X121985259Y-51788705D01*
X121815521Y-51534674D01*
X121698604Y-51252410D01*
X121639000Y-50952760D01*
X121639000Y-50647240D01*
X121652653Y-50578604D01*
X121698604Y-50347591D01*
X121698604Y-50347590D01*
X121815521Y-50065326D01*
X121985259Y-49811295D01*
X122201295Y-49595259D01*
X122455326Y-49425521D01*
X122737590Y-49308604D01*
X122837473Y-49288736D01*
X123037238Y-49249000D01*
X123342762Y-49249000D01*
X123542527Y-49288736D01*
X123542527Y-49288736D01*
G37*
G36*
X147037527Y-49288736D02*
X147137410Y-49308604D01*
X147419674Y-49425521D01*
X147673705Y-49595259D01*
X147889741Y-49811295D01*
X148059479Y-50065326D01*
X148176396Y-50347590D01*
X148176396Y-50347591D01*
X148222348Y-50578604D01*
X148236000Y-50647240D01*
X148236000Y-50952760D01*
X148176396Y-51252410D01*
X148059479Y-51534674D01*
X147889741Y-51788705D01*
X147673705Y-52004741D01*
X147419674Y-52174479D01*
X147137410Y-52291396D01*
X147037527Y-52311264D01*
X146837762Y-52351000D01*
X146532238Y-52351000D01*
X146332473Y-52311264D01*
X146232590Y-52291396D01*
X145950326Y-52174479D01*
X145696295Y-52004741D01*
X145480259Y-51788705D01*
X145310521Y-51534674D01*
X145193604Y-51252410D01*
X145134000Y-50952760D01*
X145134000Y-50647240D01*
X145147653Y-50578604D01*
X145193604Y-50347591D01*
X145193604Y-50347590D01*
X145310521Y-50065326D01*
X145480259Y-49811295D01*
X145696295Y-49595259D01*
X145950326Y-49425521D01*
X146232590Y-49308604D01*
X146332473Y-49288736D01*
X146532238Y-49249000D01*
X146837762Y-49249000D01*
X147037527Y-49288736D01*
X147037527Y-49288736D01*
G37*
G36*
X139417527Y-49288736D02*
X139517410Y-49308604D01*
X139799674Y-49425521D01*
X140053705Y-49595259D01*
X140269741Y-49811295D01*
X140439479Y-50065326D01*
X140556396Y-50347590D01*
X140556396Y-50347591D01*
X140602348Y-50578604D01*
X140616000Y-50647240D01*
X140616000Y-50952760D01*
X140556396Y-51252410D01*
X140439479Y-51534674D01*
X140269741Y-51788705D01*
X140053705Y-52004741D01*
X139799674Y-52174479D01*
X139517410Y-52291396D01*
X139417527Y-52311264D01*
X139217762Y-52351000D01*
X138912238Y-52351000D01*
X138712473Y-52311264D01*
X138612590Y-52291396D01*
X138330326Y-52174479D01*
X138076295Y-52004741D01*
X137860259Y-51788705D01*
X137690521Y-51534674D01*
X137573604Y-51252410D01*
X137514000Y-50952760D01*
X137514000Y-50647240D01*
X137527653Y-50578604D01*
X137573604Y-50347591D01*
X137573604Y-50347590D01*
X137690521Y-50065326D01*
X137860259Y-49811295D01*
X138076295Y-49595259D01*
X138330326Y-49425521D01*
X138612590Y-49308604D01*
X138712473Y-49288736D01*
X138912238Y-49249000D01*
X139217762Y-49249000D01*
X139417527Y-49288736D01*
X139417527Y-49288736D01*
G37*
G36*
X100375256Y-43391298D02*
X100481579Y-43412447D01*
X100782042Y-43536903D01*
X101048852Y-43715180D01*
X101052454Y-43717587D01*
X101282413Y-43947546D01*
X101463098Y-44217960D01*
X101587553Y-44518422D01*
X101651000Y-44837389D01*
X101651000Y-45162611D01*
X101587553Y-45481578D01*
X101463098Y-45782040D01*
X101282413Y-46052454D01*
X101052454Y-46282413D01*
X101052451Y-46282415D01*
X100782042Y-46463097D01*
X100481579Y-46587553D01*
X100375256Y-46608702D01*
X100162611Y-46651000D01*
X99837389Y-46651000D01*
X99624744Y-46608702D01*
X99518421Y-46587553D01*
X99217958Y-46463097D01*
X98947549Y-46282415D01*
X98947546Y-46282413D01*
X98717587Y-46052454D01*
X98536902Y-45782040D01*
X98412447Y-45481578D01*
X98349000Y-45162611D01*
X98349000Y-44837389D01*
X98412447Y-44518422D01*
X98536902Y-44217960D01*
X98717587Y-43947546D01*
X98947546Y-43717587D01*
X98951148Y-43715180D01*
X99217958Y-43536903D01*
X99518421Y-43412447D01*
X99624744Y-43391298D01*
X99837389Y-43349000D01*
X100162611Y-43349000D01*
X100375256Y-43391298D01*
X100375256Y-43391298D01*
G37*
G36*
X175635256Y-43391298D02*
X175741579Y-43412447D01*
X176042042Y-43536903D01*
X176308852Y-43715180D01*
X176312454Y-43717587D01*
X176542413Y-43947546D01*
X176723098Y-44217960D01*
X176847553Y-44518422D01*
X176911000Y-44837389D01*
X176911000Y-45162611D01*
X176847553Y-45481578D01*
X176723098Y-45782040D01*
X176542413Y-46052454D01*
X176312454Y-46282413D01*
X176312451Y-46282415D01*
X176042042Y-46463097D01*
X175741579Y-46587553D01*
X175635256Y-46608702D01*
X175422611Y-46651000D01*
X175097389Y-46651000D01*
X174884744Y-46608702D01*
X174778421Y-46587553D01*
X174477958Y-46463097D01*
X174207549Y-46282415D01*
X174207546Y-46282413D01*
X173977587Y-46052454D01*
X173796902Y-45782040D01*
X173672447Y-45481578D01*
X173609000Y-45162611D01*
X173609000Y-44837389D01*
X173672447Y-44518422D01*
X173796902Y-44217960D01*
X173977587Y-43947546D01*
X174207546Y-43717587D01*
X174211148Y-43715180D01*
X174477958Y-43536903D01*
X174778421Y-43412447D01*
X174884744Y-43391298D01*
X175097389Y-43349000D01*
X175422611Y-43349000D01*
X175635256Y-43391298D01*
X175635256Y-43391298D01*
G37*
M02*
