M48
;DRILL file {KiCad 5.0.0-fee4fd1~66~ubuntu16.04.1} date Fri Jul 26 21:20:00 2019
;FORMAT={-:-/ absolute / inch / decimal}
FMAT,2
INCH,TZ
T1C0.0300
T2C0.0315
T3C0.0394
T4C0.0400
T5C0.0433
T6C0.0512
T7C0.0531
T8C0.0591
T9C0.1260
%
G90
G05
M72
T1
X3.8945Y-3.723
X4.0992Y-2.5656
X4.2961Y-2.5656
X4.5008Y-3.723
T2
X4.8066Y-3.66
X4.905Y-3.66
X4.8Y-3.3
X4.8984Y-3.3
T3
X6.175Y-4.6691
X6.175Y-5.24
X6.2734Y-5.24
X6.3719Y-4.6691
X6.3719Y-5.24
T4
X4.06Y-4.
X4.122Y-4.36
X4.2Y-4.36
X4.34Y-4.74
X4.36Y-4.34
X4.407Y-5.205
X4.42Y-4.74
X4.472Y-5.018
X4.5Y-4.36
X4.6Y-4.96
X4.62Y-4.64
X4.6206Y-4.562
X4.64Y-4.36
X4.64Y-4.438
X4.72Y-4.96
X4.94Y-3.98
X4.958Y-5.204
X5.Y-4.84
X5.28Y-4.24
X5.56Y-4.12
X5.58Y-3.26
X5.68Y-3.66
X5.96Y-4.86
X6.014Y-3.7609
X6.08Y-3.76
X6.12Y-3.46
X6.158Y-3.76
X6.16Y-3.68
X6.161Y-5.128
X6.26Y-3.76
X6.5Y-3.72
X6.5Y-4.26
X6.56Y-2.5
X6.58Y-3.14
X6.64Y-4.08
T5
X5.125Y-4.06
X5.225Y-4.06
X5.325Y-4.06
X5.425Y-4.06
X3.8Y-3.92
X3.9Y-3.92
X4.Y-3.92
X4.1Y-3.92
X4.2Y-3.92
X4.3Y-3.92
X4.4Y-3.92
X4.5Y-3.92
X4.6Y-3.92
X4.Y-4.12
X4.1Y-4.12
X4.2Y-4.12
T6
X6.66Y-3.925
X6.66Y-4.225
X4.9388Y-2.3659
X4.9388Y-2.8463
X5.175Y-2.925
X5.4112Y-2.3659
X5.4112Y-2.8463
X5.6388Y-2.3659
X5.6388Y-2.8463
X5.875Y-2.925
X6.1112Y-2.3659
X6.1112Y-2.8463
X6.66Y-3.3
X6.66Y-3.6
X6.66Y-2.05
X6.66Y-2.35
X4.85Y-2.
X5.15Y-2.
X6.1Y-2.
X6.4Y-2.
X4.225Y-2.
X4.525Y-2.
X6.66Y-4.55
X6.66Y-4.85
X6.66Y-2.675
X6.66Y-2.975
X5.475Y-2.
X5.775Y-2.
T7
X3.9126Y-2.319
X4.1094Y-2.319
X4.5031Y-2.319
X4.7Y-2.319
T9
X3.937Y-5.1181
X6.9Y-1.7717
X3.937Y-1.7717
X6.91Y-5.13
X4.658Y-5.221
X5.896Y-5.222
T8
X6.053Y-4.9703G85X6.053Y-4.9191
G05
X6.4939Y-4.9703G85X6.4939Y-4.9191
G05
T0
M30
