G04 #@! TF.GenerationSoftware,KiCad,Pcbnew,5.0.0-fee4fd1~66~ubuntu16.04.1*
G04 #@! TF.CreationDate,2019-07-26T21:19:50+02:00*
G04 #@! TF.ProjectId,master_module,6D61737465725F6D6F64756C652E6B69,rev?*
G04 #@! TF.SameCoordinates,Original*
G04 #@! TF.FileFunction,Copper,L1,Top,Signal*
G04 #@! TF.FilePolarity,Positive*
%FSLAX46Y46*%
G04 Gerber Fmt 4.6, Leading zero omitted, Abs format (unit mm)*
G04 Created by KiCad (PCBNEW 5.0.0-fee4fd1~66~ubuntu16.04.1) date Fri Jul 26 21:19:50 2019*
%MOMM*%
%LPD*%
G01*
G04 APERTURE LIST*
G04 #@! TA.AperFunction,ComponentPad*
%ADD10C,3.000000*%
G04 #@! TD*
G04 #@! TA.AperFunction,ComponentPad*
%ADD11R,2.500000X2.500000*%
G04 #@! TD*
G04 #@! TA.AperFunction,ComponentPad*
%ADD12O,2.500000X2.500000*%
G04 #@! TD*
G04 #@! TA.AperFunction,ComponentPad*
%ADD13C,2.000000*%
G04 #@! TD*
G04 #@! TA.AperFunction,SMDPad,CuDef*
%ADD14R,0.450000X1.050000*%
G04 #@! TD*
G04 #@! TA.AperFunction,SMDPad,CuDef*
%ADD15R,0.895000X1.470000*%
G04 #@! TD*
G04 #@! TA.AperFunction,SMDPad,CuDef*
%ADD16R,2.200000X1.200000*%
G04 #@! TD*
G04 #@! TA.AperFunction,SMDPad,CuDef*
%ADD17R,6.400000X5.800000*%
G04 #@! TD*
G04 #@! TA.AperFunction,SMDPad,CuDef*
%ADD18R,1.000000X2.500000*%
G04 #@! TD*
G04 #@! TA.AperFunction,SMDPad,CuDef*
%ADD19R,1.800000X1.000000*%
G04 #@! TD*
G04 #@! TA.AperFunction,SMDPad,CuDef*
%ADD20R,1.500000X1.250000*%
G04 #@! TD*
G04 #@! TA.AperFunction,ComponentPad*
%ADD21C,1.600000*%
G04 #@! TD*
G04 #@! TA.AperFunction,ComponentPad*
%ADD22R,1.600000X1.600000*%
G04 #@! TD*
G04 #@! TA.AperFunction,Conductor*
%ADD23C,0.100000*%
G04 #@! TD*
G04 #@! TA.AperFunction,SMDPad,CuDef*
%ADD24C,1.425000*%
G04 #@! TD*
G04 #@! TA.AperFunction,ComponentPad*
%ADD25C,2.350000*%
G04 #@! TD*
G04 #@! TA.AperFunction,SMDPad,CuDef*
%ADD26R,1.500000X1.300000*%
G04 #@! TD*
G04 #@! TA.AperFunction,SMDPad,CuDef*
%ADD27R,1.300000X1.500000*%
G04 #@! TD*
G04 #@! TA.AperFunction,ComponentPad*
%ADD28R,2.000000X3.200000*%
G04 #@! TD*
G04 #@! TA.AperFunction,ComponentPad*
%ADD29R,2.000000X2.000000*%
G04 #@! TD*
G04 #@! TA.AperFunction,ComponentPad*
%ADD30C,1.524000*%
G04 #@! TD*
G04 #@! TA.AperFunction,SMDPad,CuDef*
%ADD31R,1.000000X2.000000*%
G04 #@! TD*
G04 #@! TA.AperFunction,ViaPad*
%ADD32C,1.524000*%
G04 #@! TD*
G04 #@! TA.AperFunction,Conductor*
%ADD33C,0.609600*%
G04 #@! TD*
G04 #@! TA.AperFunction,Conductor*
%ADD34C,0.406400*%
G04 #@! TD*
G04 #@! TA.AperFunction,Conductor*
%ADD35C,0.304800*%
G04 #@! TD*
G04 #@! TA.AperFunction,Conductor*
%ADD36C,3.000000*%
G04 #@! TD*
G04 #@! TA.AperFunction,Conductor*
%ADD37C,1.000000*%
G04 #@! TD*
G04 #@! TA.AperFunction,Conductor*
%ADD38C,0.254000*%
G04 #@! TD*
G04 APERTURE END LIST*
D10*
G04 #@! TO.P,J10,1*
G04 #@! TO.N,/230V_B*
X123190000Y-50800000D03*
G04 #@! TO.P,J10,2*
G04 #@! TO.N,/230V_E*
X130810000Y-50800000D03*
G04 #@! TD*
D11*
G04 #@! TO.P,K1,1*
G04 #@! TO.N,/230V_E*
X131445000Y-74295000D03*
D12*
G04 #@! TO.P,K1,2*
G04 #@! TO.N,+12V*
X137445000Y-72295000D03*
G04 #@! TO.P,K1,3*
G04 #@! TO.N,Net-(K1-Pad3)*
X137445000Y-60095000D03*
G04 #@! TO.P,K1,4*
G04 #@! TO.N,/230V_C*
X125445000Y-60095000D03*
G04 #@! TO.P,K1,5*
G04 #@! TO.N,RE1*
X125445000Y-72295000D03*
G04 #@! TD*
D13*
G04 #@! TO.P,J1,1*
G04 #@! TO.N,SDA*
X137795000Y-103124000D03*
G04 #@! TO.P,J1,2*
G04 #@! TO.N,SCL*
X135255000Y-103124000D03*
G04 #@! TO.P,J1,3*
G04 #@! TO.N,GND*
X132715000Y-103124000D03*
G04 #@! TO.P,J1,4*
G04 #@! TO.N,+3V3*
X130175000Y-103124000D03*
G04 #@! TD*
D10*
G04 #@! TO.P,J12,1*
G04 #@! TO.N,+12V*
X154940000Y-50800000D03*
G04 #@! TO.P,J12,2*
G04 #@! TO.N,GND*
X162560000Y-50800000D03*
G04 #@! TD*
G04 #@! TO.P,J3,2*
G04 #@! TO.N,/RE3*
X169164000Y-59690000D03*
G04 #@! TO.P,J3,1*
G04 #@! TO.N,+12V*
X169164000Y-52070000D03*
G04 #@! TD*
G04 #@! TO.P,J4,1*
G04 #@! TO.N,+12V*
X169164000Y-67945000D03*
G04 #@! TO.P,J4,2*
G04 #@! TO.N,/RE4*
X169164000Y-75565000D03*
G04 #@! TD*
G04 #@! TO.P,J5,2*
G04 #@! TO.N,/RE5*
X169164000Y-91440000D03*
G04 #@! TO.P,J5,1*
G04 #@! TO.N,+12V*
X169164000Y-83820000D03*
G04 #@! TD*
G04 #@! TO.P,J6,1*
G04 #@! TO.N,+12V*
X169164000Y-115570000D03*
G04 #@! TO.P,J6,2*
G04 #@! TO.N,/RE7*
X169164000Y-123190000D03*
G04 #@! TD*
G04 #@! TO.P,J7,2*
G04 #@! TO.N,/RE6*
X169164000Y-107315000D03*
G04 #@! TO.P,J7,1*
G04 #@! TO.N,+12V*
X169164000Y-99695000D03*
G04 #@! TD*
G04 #@! TO.P,J9,2*
G04 #@! TO.N,/230V_A*
X114935000Y-50800000D03*
G04 #@! TO.P,J9,1*
G04 #@! TO.N,/230V_C*
X107315000Y-50800000D03*
G04 #@! TD*
G04 #@! TO.P,J11,2*
G04 #@! TO.N,/230V_F*
X146685000Y-50800000D03*
G04 #@! TO.P,J11,1*
G04 #@! TO.N,/230V_B*
X139065000Y-50800000D03*
G04 #@! TD*
D12*
G04 #@! TO.P,K2,5*
G04 #@! TO.N,RE2*
X143225000Y-72295000D03*
G04 #@! TO.P,K2,4*
G04 #@! TO.N,/230V_C*
X143225000Y-60095000D03*
G04 #@! TO.P,K2,3*
G04 #@! TO.N,Net-(K2-Pad3)*
X155225000Y-60095000D03*
G04 #@! TO.P,K2,2*
G04 #@! TO.N,+12V*
X155225000Y-72295000D03*
D11*
G04 #@! TO.P,K2,1*
G04 #@! TO.N,/230V_F*
X149225000Y-74295000D03*
G04 #@! TD*
D14*
G04 #@! TO.P,U2,1*
G04 #@! TO.N,+3V3*
X153173000Y-90659000D03*
G04 #@! TO.P,U2,2*
G04 #@! TO.N,/MOSI*
X153823000Y-90659000D03*
G04 #@! TO.P,U2,3*
G04 #@! TO.N,/SCLK*
X154473000Y-90659000D03*
G04 #@! TO.P,U2,4*
G04 #@! TO.N,LATCH*
X155123000Y-90659000D03*
G04 #@! TO.P,U2,5*
G04 #@! TO.N,GND*
X155773000Y-90659000D03*
G04 #@! TO.P,U2,6*
G04 #@! TO.N,DOUT*
X156423000Y-90659000D03*
G04 #@! TO.P,U2,7*
G04 #@! TO.N,Net-(D1-Pad2)*
X157073000Y-90659000D03*
G04 #@! TO.P,U2,8*
G04 #@! TO.N,ENABLE*
X157723000Y-90659000D03*
G04 #@! TO.P,U2,9*
G04 #@! TO.N,Net-(U2-Pad9)*
X157723000Y-85109000D03*
G04 #@! TO.P,U2,10*
G04 #@! TO.N,/RE7*
X157073000Y-85109000D03*
G04 #@! TO.P,U2,11*
G04 #@! TO.N,/RE6*
X156423000Y-85109000D03*
G04 #@! TO.P,U2,12*
G04 #@! TO.N,/RE5*
X155773000Y-85109000D03*
G04 #@! TO.P,U2,13*
G04 #@! TO.N,/RE4*
X155123000Y-85109000D03*
G04 #@! TO.P,U2,14*
G04 #@! TO.N,/RE3*
X154473000Y-85109000D03*
G04 #@! TO.P,U2,15*
G04 #@! TO.N,RE2*
X153823000Y-85109000D03*
G04 #@! TO.P,U2,16*
G04 #@! TO.N,RE1*
X153173000Y-85109000D03*
D15*
G04 #@! TO.P,U2,17*
G04 #@! TO.N,GND*
X156790500Y-87149000D03*
X155895500Y-87149000D03*
X155000500Y-87149000D03*
X154105500Y-87149000D03*
X156790500Y-88619000D03*
X155895500Y-88619000D03*
X155000500Y-88619000D03*
X154105500Y-88619000D03*
G04 #@! TD*
D16*
G04 #@! TO.P,U4,1*
G04 #@! TO.N,+12V*
X130039000Y-89922000D03*
G04 #@! TO.P,U4,3*
G04 #@! TO.N,+3V3*
X130039000Y-94482000D03*
D17*
G04 #@! TO.P,U4,2*
G04 #@! TO.N,GND*
X136339000Y-92202000D03*
G04 #@! TD*
D18*
G04 #@! TO.P,U1,1*
G04 #@! TO.N,Net-(R2-Pad2)*
X104450000Y-123170000D03*
G04 #@! TO.P,U1,2*
G04 #@! TO.N,Net-(U1-Pad2)*
X106450000Y-123170000D03*
G04 #@! TO.P,U1,3*
G04 #@! TO.N,Net-(R1-Pad2)*
X108450000Y-123170000D03*
G04 #@! TO.P,U1,4*
G04 #@! TO.N,C*
X110450000Y-123170000D03*
G04 #@! TO.P,U1,5*
G04 #@! TO.N,ENABLE*
X112450000Y-123170000D03*
G04 #@! TO.P,U1,6*
G04 #@! TO.N,IRQ*
X114450000Y-123170000D03*
G04 #@! TO.P,U1,7*
G04 #@! TO.N,CE*
X116450000Y-123170000D03*
G04 #@! TO.P,U1,8*
G04 #@! TO.N,+3V3*
X118450000Y-123170000D03*
D19*
G04 #@! TO.P,U1,9*
G04 #@! TO.N,Net-(U1-Pad9)*
X119950000Y-120570000D03*
G04 #@! TO.P,U1,10*
G04 #@! TO.N,/MISO*
X119950000Y-118570000D03*
G04 #@! TO.P,U1,11*
G04 #@! TO.N,B*
X119950000Y-116570000D03*
G04 #@! TO.P,U1,12*
G04 #@! TO.N,A*
X119950000Y-114570000D03*
G04 #@! TO.P,U1,13*
G04 #@! TO.N,/MOSI*
X119950000Y-112570000D03*
G04 #@! TO.P,U1,14*
G04 #@! TO.N,/SCLK*
X119950000Y-110570000D03*
D18*
G04 #@! TO.P,U1,15*
G04 #@! TO.N,GND*
X118450000Y-107970000D03*
G04 #@! TO.P,U1,16*
G04 #@! TO.N,SDA*
X116450000Y-107970000D03*
G04 #@! TO.P,U1,17*
G04 #@! TO.N,SCL*
X114450000Y-107970000D03*
G04 #@! TO.P,U1,18*
G04 #@! TO.N,GPIO0*
X112450000Y-107970000D03*
G04 #@! TO.P,U1,19*
G04 #@! TO.N,LATCH*
X110450000Y-107970000D03*
G04 #@! TO.P,U1,20*
G04 #@! TO.N,CSN*
X108450000Y-107970000D03*
G04 #@! TO.P,U1,21*
G04 #@! TO.N,RX*
X106450000Y-107970000D03*
G04 #@! TO.P,U1,22*
G04 #@! TO.N,TX*
X104450000Y-107970000D03*
G04 #@! TD*
D13*
G04 #@! TO.P,JP1,1*
G04 #@! TO.N,+3V3*
X106680000Y-104648000D03*
G04 #@! TO.P,JP1,2*
G04 #@! TO.N,Net-(JP1-Pad2)*
X104140000Y-104648000D03*
G04 #@! TO.P,JP1,3*
G04 #@! TO.N,GND*
X101600000Y-104648000D03*
G04 #@! TD*
G04 #@! TO.P,J2,1*
G04 #@! TO.N,GPIO0*
X96520000Y-99568000D03*
G04 #@! TO.P,J2,2*
G04 #@! TO.N,RX*
X99060000Y-99568000D03*
G04 #@! TO.P,J2,3*
G04 #@! TO.N,TX*
X101600000Y-99568000D03*
G04 #@! TO.P,J2,4*
G04 #@! TO.N,ENABLE*
X104140000Y-99568000D03*
G04 #@! TO.P,J2,5*
G04 #@! TO.N,LATCH*
X106680000Y-99568000D03*
G04 #@! TO.P,J2,6*
G04 #@! TO.N,DOUT*
X109220000Y-99568000D03*
G04 #@! TO.P,J2,7*
G04 #@! TO.N,/MISO*
X111760000Y-99568000D03*
G04 #@! TO.P,J2,8*
G04 #@! TO.N,/MOSI*
X114300000Y-99568000D03*
G04 #@! TO.P,J2,9*
G04 #@! TO.N,/SCLK*
X116840000Y-99568000D03*
G04 #@! TD*
D20*
G04 #@! TO.P,C4,2*
G04 #@! TO.N,GND*
X134239000Y-87122000D03*
G04 #@! TO.P,C4,1*
G04 #@! TO.N,+12V*
X131739000Y-87122000D03*
G04 #@! TD*
G04 #@! TO.P,C1,1*
G04 #@! TO.N,+3V3*
X131739000Y-97282000D03*
G04 #@! TO.P,C1,2*
G04 #@! TO.N,GND*
X134239000Y-97282000D03*
G04 #@! TD*
D21*
G04 #@! TO.P,C3,2*
G04 #@! TO.N,GND*
X122087000Y-92964000D03*
D22*
G04 #@! TO.P,C3,1*
G04 #@! TO.N,+3V3*
X124587000Y-92964000D03*
G04 #@! TD*
G04 #@! TO.P,C2,1*
G04 #@! TO.N,+12V*
X121920000Y-83820000D03*
D21*
G04 #@! TO.P,C2,2*
G04 #@! TO.N,GND*
X124420000Y-83820000D03*
G04 #@! TD*
D23*
G04 #@! TO.N,Net-(D3-Pad1)*
G04 #@! TO.C,D3*
G36*
X162829504Y-69484204D02*
X162853773Y-69487804D01*
X162877571Y-69493765D01*
X162900671Y-69502030D01*
X162922849Y-69512520D01*
X162943893Y-69525133D01*
X162963598Y-69539747D01*
X162981777Y-69556223D01*
X162998253Y-69574402D01*
X163012867Y-69594107D01*
X163025480Y-69615151D01*
X163035970Y-69637329D01*
X163044235Y-69660429D01*
X163050196Y-69684227D01*
X163053796Y-69708496D01*
X163055000Y-69733000D01*
X163055000Y-70983000D01*
X163053796Y-71007504D01*
X163050196Y-71031773D01*
X163044235Y-71055571D01*
X163035970Y-71078671D01*
X163025480Y-71100849D01*
X163012867Y-71121893D01*
X162998253Y-71141598D01*
X162981777Y-71159777D01*
X162963598Y-71176253D01*
X162943893Y-71190867D01*
X162922849Y-71203480D01*
X162900671Y-71213970D01*
X162877571Y-71222235D01*
X162853773Y-71228196D01*
X162829504Y-71231796D01*
X162805000Y-71233000D01*
X161880000Y-71233000D01*
X161855496Y-71231796D01*
X161831227Y-71228196D01*
X161807429Y-71222235D01*
X161784329Y-71213970D01*
X161762151Y-71203480D01*
X161741107Y-71190867D01*
X161721402Y-71176253D01*
X161703223Y-71159777D01*
X161686747Y-71141598D01*
X161672133Y-71121893D01*
X161659520Y-71100849D01*
X161649030Y-71078671D01*
X161640765Y-71055571D01*
X161634804Y-71031773D01*
X161631204Y-71007504D01*
X161630000Y-70983000D01*
X161630000Y-69733000D01*
X161631204Y-69708496D01*
X161634804Y-69684227D01*
X161640765Y-69660429D01*
X161649030Y-69637329D01*
X161659520Y-69615151D01*
X161672133Y-69594107D01*
X161686747Y-69574402D01*
X161703223Y-69556223D01*
X161721402Y-69539747D01*
X161741107Y-69525133D01*
X161762151Y-69512520D01*
X161784329Y-69502030D01*
X161807429Y-69493765D01*
X161831227Y-69487804D01*
X161855496Y-69484204D01*
X161880000Y-69483000D01*
X162805000Y-69483000D01*
X162829504Y-69484204D01*
X162829504Y-69484204D01*
G37*
D24*
G04 #@! TD*
G04 #@! TO.P,D3,1*
G04 #@! TO.N,Net-(D3-Pad1)*
X162342500Y-70358000D03*
D23*
G04 #@! TO.N,+12V*
G04 #@! TO.C,D3*
G36*
X165804504Y-69484204D02*
X165828773Y-69487804D01*
X165852571Y-69493765D01*
X165875671Y-69502030D01*
X165897849Y-69512520D01*
X165918893Y-69525133D01*
X165938598Y-69539747D01*
X165956777Y-69556223D01*
X165973253Y-69574402D01*
X165987867Y-69594107D01*
X166000480Y-69615151D01*
X166010970Y-69637329D01*
X166019235Y-69660429D01*
X166025196Y-69684227D01*
X166028796Y-69708496D01*
X166030000Y-69733000D01*
X166030000Y-70983000D01*
X166028796Y-71007504D01*
X166025196Y-71031773D01*
X166019235Y-71055571D01*
X166010970Y-71078671D01*
X166000480Y-71100849D01*
X165987867Y-71121893D01*
X165973253Y-71141598D01*
X165956777Y-71159777D01*
X165938598Y-71176253D01*
X165918893Y-71190867D01*
X165897849Y-71203480D01*
X165875671Y-71213970D01*
X165852571Y-71222235D01*
X165828773Y-71228196D01*
X165804504Y-71231796D01*
X165780000Y-71233000D01*
X164855000Y-71233000D01*
X164830496Y-71231796D01*
X164806227Y-71228196D01*
X164782429Y-71222235D01*
X164759329Y-71213970D01*
X164737151Y-71203480D01*
X164716107Y-71190867D01*
X164696402Y-71176253D01*
X164678223Y-71159777D01*
X164661747Y-71141598D01*
X164647133Y-71121893D01*
X164634520Y-71100849D01*
X164624030Y-71078671D01*
X164615765Y-71055571D01*
X164609804Y-71031773D01*
X164606204Y-71007504D01*
X164605000Y-70983000D01*
X164605000Y-69733000D01*
X164606204Y-69708496D01*
X164609804Y-69684227D01*
X164615765Y-69660429D01*
X164624030Y-69637329D01*
X164634520Y-69615151D01*
X164647133Y-69594107D01*
X164661747Y-69574402D01*
X164678223Y-69556223D01*
X164696402Y-69539747D01*
X164716107Y-69525133D01*
X164737151Y-69512520D01*
X164759329Y-69502030D01*
X164782429Y-69493765D01*
X164806227Y-69487804D01*
X164830496Y-69484204D01*
X164855000Y-69483000D01*
X165780000Y-69483000D01*
X165804504Y-69484204D01*
X165804504Y-69484204D01*
G37*
D24*
G04 #@! TD*
G04 #@! TO.P,D3,2*
G04 #@! TO.N,+12V*
X165317500Y-70358000D03*
D23*
G04 #@! TO.N,Net-(D1-Pad2)*
G04 #@! TO.C,D1*
G36*
X158129504Y-100888704D02*
X158153773Y-100892304D01*
X158177571Y-100898265D01*
X158200671Y-100906530D01*
X158222849Y-100917020D01*
X158243893Y-100929633D01*
X158263598Y-100944247D01*
X158281777Y-100960723D01*
X158298253Y-100978902D01*
X158312867Y-100998607D01*
X158325480Y-101019651D01*
X158335970Y-101041829D01*
X158344235Y-101064929D01*
X158350196Y-101088727D01*
X158353796Y-101112996D01*
X158355000Y-101137500D01*
X158355000Y-102062500D01*
X158353796Y-102087004D01*
X158350196Y-102111273D01*
X158344235Y-102135071D01*
X158335970Y-102158171D01*
X158325480Y-102180349D01*
X158312867Y-102201393D01*
X158298253Y-102221098D01*
X158281777Y-102239277D01*
X158263598Y-102255753D01*
X158243893Y-102270367D01*
X158222849Y-102282980D01*
X158200671Y-102293470D01*
X158177571Y-102301735D01*
X158153773Y-102307696D01*
X158129504Y-102311296D01*
X158105000Y-102312500D01*
X156855000Y-102312500D01*
X156830496Y-102311296D01*
X156806227Y-102307696D01*
X156782429Y-102301735D01*
X156759329Y-102293470D01*
X156737151Y-102282980D01*
X156716107Y-102270367D01*
X156696402Y-102255753D01*
X156678223Y-102239277D01*
X156661747Y-102221098D01*
X156647133Y-102201393D01*
X156634520Y-102180349D01*
X156624030Y-102158171D01*
X156615765Y-102135071D01*
X156609804Y-102111273D01*
X156606204Y-102087004D01*
X156605000Y-102062500D01*
X156605000Y-101137500D01*
X156606204Y-101112996D01*
X156609804Y-101088727D01*
X156615765Y-101064929D01*
X156624030Y-101041829D01*
X156634520Y-101019651D01*
X156647133Y-100998607D01*
X156661747Y-100978902D01*
X156678223Y-100960723D01*
X156696402Y-100944247D01*
X156716107Y-100929633D01*
X156737151Y-100917020D01*
X156759329Y-100906530D01*
X156782429Y-100898265D01*
X156806227Y-100892304D01*
X156830496Y-100888704D01*
X156855000Y-100887500D01*
X158105000Y-100887500D01*
X158129504Y-100888704D01*
X158129504Y-100888704D01*
G37*
D24*
G04 #@! TD*
G04 #@! TO.P,D1,2*
G04 #@! TO.N,Net-(D1-Pad2)*
X157480000Y-101600000D03*
D23*
G04 #@! TO.N,Net-(D1-Pad1)*
G04 #@! TO.C,D1*
G36*
X158129504Y-103863704D02*
X158153773Y-103867304D01*
X158177571Y-103873265D01*
X158200671Y-103881530D01*
X158222849Y-103892020D01*
X158243893Y-103904633D01*
X158263598Y-103919247D01*
X158281777Y-103935723D01*
X158298253Y-103953902D01*
X158312867Y-103973607D01*
X158325480Y-103994651D01*
X158335970Y-104016829D01*
X158344235Y-104039929D01*
X158350196Y-104063727D01*
X158353796Y-104087996D01*
X158355000Y-104112500D01*
X158355000Y-105037500D01*
X158353796Y-105062004D01*
X158350196Y-105086273D01*
X158344235Y-105110071D01*
X158335970Y-105133171D01*
X158325480Y-105155349D01*
X158312867Y-105176393D01*
X158298253Y-105196098D01*
X158281777Y-105214277D01*
X158263598Y-105230753D01*
X158243893Y-105245367D01*
X158222849Y-105257980D01*
X158200671Y-105268470D01*
X158177571Y-105276735D01*
X158153773Y-105282696D01*
X158129504Y-105286296D01*
X158105000Y-105287500D01*
X156855000Y-105287500D01*
X156830496Y-105286296D01*
X156806227Y-105282696D01*
X156782429Y-105276735D01*
X156759329Y-105268470D01*
X156737151Y-105257980D01*
X156716107Y-105245367D01*
X156696402Y-105230753D01*
X156678223Y-105214277D01*
X156661747Y-105196098D01*
X156647133Y-105176393D01*
X156634520Y-105155349D01*
X156624030Y-105133171D01*
X156615765Y-105110071D01*
X156609804Y-105086273D01*
X156606204Y-105062004D01*
X156605000Y-105037500D01*
X156605000Y-104112500D01*
X156606204Y-104087996D01*
X156609804Y-104063727D01*
X156615765Y-104039929D01*
X156624030Y-104016829D01*
X156634520Y-103994651D01*
X156647133Y-103973607D01*
X156661747Y-103953902D01*
X156678223Y-103935723D01*
X156696402Y-103919247D01*
X156716107Y-103904633D01*
X156737151Y-103892020D01*
X156759329Y-103881530D01*
X156782429Y-103873265D01*
X156806227Y-103867304D01*
X156830496Y-103863704D01*
X156855000Y-103862500D01*
X158105000Y-103862500D01*
X158129504Y-103863704D01*
X158129504Y-103863704D01*
G37*
D24*
G04 #@! TD*
G04 #@! TO.P,D1,1*
G04 #@! TO.N,Net-(D1-Pad1)*
X157480000Y-104575000D03*
D23*
G04 #@! TO.N,Net-(D9-Pad1)*
G04 #@! TO.C,D9*
G36*
X151399504Y-80406204D02*
X151423773Y-80409804D01*
X151447571Y-80415765D01*
X151470671Y-80424030D01*
X151492849Y-80434520D01*
X151513893Y-80447133D01*
X151533598Y-80461747D01*
X151551777Y-80478223D01*
X151568253Y-80496402D01*
X151582867Y-80516107D01*
X151595480Y-80537151D01*
X151605970Y-80559329D01*
X151614235Y-80582429D01*
X151620196Y-80606227D01*
X151623796Y-80630496D01*
X151625000Y-80655000D01*
X151625000Y-81905000D01*
X151623796Y-81929504D01*
X151620196Y-81953773D01*
X151614235Y-81977571D01*
X151605970Y-82000671D01*
X151595480Y-82022849D01*
X151582867Y-82043893D01*
X151568253Y-82063598D01*
X151551777Y-82081777D01*
X151533598Y-82098253D01*
X151513893Y-82112867D01*
X151492849Y-82125480D01*
X151470671Y-82135970D01*
X151447571Y-82144235D01*
X151423773Y-82150196D01*
X151399504Y-82153796D01*
X151375000Y-82155000D01*
X150450000Y-82155000D01*
X150425496Y-82153796D01*
X150401227Y-82150196D01*
X150377429Y-82144235D01*
X150354329Y-82135970D01*
X150332151Y-82125480D01*
X150311107Y-82112867D01*
X150291402Y-82098253D01*
X150273223Y-82081777D01*
X150256747Y-82063598D01*
X150242133Y-82043893D01*
X150229520Y-82022849D01*
X150219030Y-82000671D01*
X150210765Y-81977571D01*
X150204804Y-81953773D01*
X150201204Y-81929504D01*
X150200000Y-81905000D01*
X150200000Y-80655000D01*
X150201204Y-80630496D01*
X150204804Y-80606227D01*
X150210765Y-80582429D01*
X150219030Y-80559329D01*
X150229520Y-80537151D01*
X150242133Y-80516107D01*
X150256747Y-80496402D01*
X150273223Y-80478223D01*
X150291402Y-80461747D01*
X150311107Y-80447133D01*
X150332151Y-80434520D01*
X150354329Y-80424030D01*
X150377429Y-80415765D01*
X150401227Y-80409804D01*
X150425496Y-80406204D01*
X150450000Y-80405000D01*
X151375000Y-80405000D01*
X151399504Y-80406204D01*
X151399504Y-80406204D01*
G37*
D24*
G04 #@! TD*
G04 #@! TO.P,D9,1*
G04 #@! TO.N,Net-(D9-Pad1)*
X150912500Y-81280000D03*
D23*
G04 #@! TO.N,+12V*
G04 #@! TO.C,D9*
G36*
X154374504Y-80406204D02*
X154398773Y-80409804D01*
X154422571Y-80415765D01*
X154445671Y-80424030D01*
X154467849Y-80434520D01*
X154488893Y-80447133D01*
X154508598Y-80461747D01*
X154526777Y-80478223D01*
X154543253Y-80496402D01*
X154557867Y-80516107D01*
X154570480Y-80537151D01*
X154580970Y-80559329D01*
X154589235Y-80582429D01*
X154595196Y-80606227D01*
X154598796Y-80630496D01*
X154600000Y-80655000D01*
X154600000Y-81905000D01*
X154598796Y-81929504D01*
X154595196Y-81953773D01*
X154589235Y-81977571D01*
X154580970Y-82000671D01*
X154570480Y-82022849D01*
X154557867Y-82043893D01*
X154543253Y-82063598D01*
X154526777Y-82081777D01*
X154508598Y-82098253D01*
X154488893Y-82112867D01*
X154467849Y-82125480D01*
X154445671Y-82135970D01*
X154422571Y-82144235D01*
X154398773Y-82150196D01*
X154374504Y-82153796D01*
X154350000Y-82155000D01*
X153425000Y-82155000D01*
X153400496Y-82153796D01*
X153376227Y-82150196D01*
X153352429Y-82144235D01*
X153329329Y-82135970D01*
X153307151Y-82125480D01*
X153286107Y-82112867D01*
X153266402Y-82098253D01*
X153248223Y-82081777D01*
X153231747Y-82063598D01*
X153217133Y-82043893D01*
X153204520Y-82022849D01*
X153194030Y-82000671D01*
X153185765Y-81977571D01*
X153179804Y-81953773D01*
X153176204Y-81929504D01*
X153175000Y-81905000D01*
X153175000Y-80655000D01*
X153176204Y-80630496D01*
X153179804Y-80606227D01*
X153185765Y-80582429D01*
X153194030Y-80559329D01*
X153204520Y-80537151D01*
X153217133Y-80516107D01*
X153231747Y-80496402D01*
X153248223Y-80478223D01*
X153266402Y-80461747D01*
X153286107Y-80447133D01*
X153307151Y-80434520D01*
X153329329Y-80424030D01*
X153352429Y-80415765D01*
X153376227Y-80409804D01*
X153400496Y-80406204D01*
X153425000Y-80405000D01*
X154350000Y-80405000D01*
X154374504Y-80406204D01*
X154374504Y-80406204D01*
G37*
D24*
G04 #@! TD*
G04 #@! TO.P,D9,2*
G04 #@! TO.N,+12V*
X153887500Y-81280000D03*
D23*
G04 #@! TO.N,+12V*
G04 #@! TO.C,D2*
G36*
X165587004Y-55641204D02*
X165611273Y-55644804D01*
X165635071Y-55650765D01*
X165658171Y-55659030D01*
X165680349Y-55669520D01*
X165701393Y-55682133D01*
X165721098Y-55696747D01*
X165739277Y-55713223D01*
X165755753Y-55731402D01*
X165770367Y-55751107D01*
X165782980Y-55772151D01*
X165793470Y-55794329D01*
X165801735Y-55817429D01*
X165807696Y-55841227D01*
X165811296Y-55865496D01*
X165812500Y-55890000D01*
X165812500Y-57140000D01*
X165811296Y-57164504D01*
X165807696Y-57188773D01*
X165801735Y-57212571D01*
X165793470Y-57235671D01*
X165782980Y-57257849D01*
X165770367Y-57278893D01*
X165755753Y-57298598D01*
X165739277Y-57316777D01*
X165721098Y-57333253D01*
X165701393Y-57347867D01*
X165680349Y-57360480D01*
X165658171Y-57370970D01*
X165635071Y-57379235D01*
X165611273Y-57385196D01*
X165587004Y-57388796D01*
X165562500Y-57390000D01*
X164637500Y-57390000D01*
X164612996Y-57388796D01*
X164588727Y-57385196D01*
X164564929Y-57379235D01*
X164541829Y-57370970D01*
X164519651Y-57360480D01*
X164498607Y-57347867D01*
X164478902Y-57333253D01*
X164460723Y-57316777D01*
X164444247Y-57298598D01*
X164429633Y-57278893D01*
X164417020Y-57257849D01*
X164406530Y-57235671D01*
X164398265Y-57212571D01*
X164392304Y-57188773D01*
X164388704Y-57164504D01*
X164387500Y-57140000D01*
X164387500Y-55890000D01*
X164388704Y-55865496D01*
X164392304Y-55841227D01*
X164398265Y-55817429D01*
X164406530Y-55794329D01*
X164417020Y-55772151D01*
X164429633Y-55751107D01*
X164444247Y-55731402D01*
X164460723Y-55713223D01*
X164478902Y-55696747D01*
X164498607Y-55682133D01*
X164519651Y-55669520D01*
X164541829Y-55659030D01*
X164564929Y-55650765D01*
X164588727Y-55644804D01*
X164612996Y-55641204D01*
X164637500Y-55640000D01*
X165562500Y-55640000D01*
X165587004Y-55641204D01*
X165587004Y-55641204D01*
G37*
D24*
G04 #@! TD*
G04 #@! TO.P,D2,2*
G04 #@! TO.N,+12V*
X165100000Y-56515000D03*
D23*
G04 #@! TO.N,Net-(D2-Pad1)*
G04 #@! TO.C,D2*
G36*
X162612004Y-55641204D02*
X162636273Y-55644804D01*
X162660071Y-55650765D01*
X162683171Y-55659030D01*
X162705349Y-55669520D01*
X162726393Y-55682133D01*
X162746098Y-55696747D01*
X162764277Y-55713223D01*
X162780753Y-55731402D01*
X162795367Y-55751107D01*
X162807980Y-55772151D01*
X162818470Y-55794329D01*
X162826735Y-55817429D01*
X162832696Y-55841227D01*
X162836296Y-55865496D01*
X162837500Y-55890000D01*
X162837500Y-57140000D01*
X162836296Y-57164504D01*
X162832696Y-57188773D01*
X162826735Y-57212571D01*
X162818470Y-57235671D01*
X162807980Y-57257849D01*
X162795367Y-57278893D01*
X162780753Y-57298598D01*
X162764277Y-57316777D01*
X162746098Y-57333253D01*
X162726393Y-57347867D01*
X162705349Y-57360480D01*
X162683171Y-57370970D01*
X162660071Y-57379235D01*
X162636273Y-57385196D01*
X162612004Y-57388796D01*
X162587500Y-57390000D01*
X161662500Y-57390000D01*
X161637996Y-57388796D01*
X161613727Y-57385196D01*
X161589929Y-57379235D01*
X161566829Y-57370970D01*
X161544651Y-57360480D01*
X161523607Y-57347867D01*
X161503902Y-57333253D01*
X161485723Y-57316777D01*
X161469247Y-57298598D01*
X161454633Y-57278893D01*
X161442020Y-57257849D01*
X161431530Y-57235671D01*
X161423265Y-57212571D01*
X161417304Y-57188773D01*
X161413704Y-57164504D01*
X161412500Y-57140000D01*
X161412500Y-55890000D01*
X161413704Y-55865496D01*
X161417304Y-55841227D01*
X161423265Y-55817429D01*
X161431530Y-55794329D01*
X161442020Y-55772151D01*
X161454633Y-55751107D01*
X161469247Y-55731402D01*
X161485723Y-55713223D01*
X161503902Y-55696747D01*
X161523607Y-55682133D01*
X161544651Y-55669520D01*
X161566829Y-55659030D01*
X161589929Y-55650765D01*
X161613727Y-55644804D01*
X161637996Y-55641204D01*
X161662500Y-55640000D01*
X162587500Y-55640000D01*
X162612004Y-55641204D01*
X162612004Y-55641204D01*
G37*
D24*
G04 #@! TD*
G04 #@! TO.P,D2,1*
G04 #@! TO.N,Net-(D2-Pad1)*
X162125000Y-56515000D03*
D23*
G04 #@! TO.N,Net-(D8-Pad1)*
G04 #@! TO.C,D8*
G36*
X136159504Y-80406204D02*
X136183773Y-80409804D01*
X136207571Y-80415765D01*
X136230671Y-80424030D01*
X136252849Y-80434520D01*
X136273893Y-80447133D01*
X136293598Y-80461747D01*
X136311777Y-80478223D01*
X136328253Y-80496402D01*
X136342867Y-80516107D01*
X136355480Y-80537151D01*
X136365970Y-80559329D01*
X136374235Y-80582429D01*
X136380196Y-80606227D01*
X136383796Y-80630496D01*
X136385000Y-80655000D01*
X136385000Y-81905000D01*
X136383796Y-81929504D01*
X136380196Y-81953773D01*
X136374235Y-81977571D01*
X136365970Y-82000671D01*
X136355480Y-82022849D01*
X136342867Y-82043893D01*
X136328253Y-82063598D01*
X136311777Y-82081777D01*
X136293598Y-82098253D01*
X136273893Y-82112867D01*
X136252849Y-82125480D01*
X136230671Y-82135970D01*
X136207571Y-82144235D01*
X136183773Y-82150196D01*
X136159504Y-82153796D01*
X136135000Y-82155000D01*
X135210000Y-82155000D01*
X135185496Y-82153796D01*
X135161227Y-82150196D01*
X135137429Y-82144235D01*
X135114329Y-82135970D01*
X135092151Y-82125480D01*
X135071107Y-82112867D01*
X135051402Y-82098253D01*
X135033223Y-82081777D01*
X135016747Y-82063598D01*
X135002133Y-82043893D01*
X134989520Y-82022849D01*
X134979030Y-82000671D01*
X134970765Y-81977571D01*
X134964804Y-81953773D01*
X134961204Y-81929504D01*
X134960000Y-81905000D01*
X134960000Y-80655000D01*
X134961204Y-80630496D01*
X134964804Y-80606227D01*
X134970765Y-80582429D01*
X134979030Y-80559329D01*
X134989520Y-80537151D01*
X135002133Y-80516107D01*
X135016747Y-80496402D01*
X135033223Y-80478223D01*
X135051402Y-80461747D01*
X135071107Y-80447133D01*
X135092151Y-80434520D01*
X135114329Y-80424030D01*
X135137429Y-80415765D01*
X135161227Y-80409804D01*
X135185496Y-80406204D01*
X135210000Y-80405000D01*
X136135000Y-80405000D01*
X136159504Y-80406204D01*
X136159504Y-80406204D01*
G37*
D24*
G04 #@! TD*
G04 #@! TO.P,D8,1*
G04 #@! TO.N,Net-(D8-Pad1)*
X135672500Y-81280000D03*
D23*
G04 #@! TO.N,+12V*
G04 #@! TO.C,D8*
G36*
X139134504Y-80406204D02*
X139158773Y-80409804D01*
X139182571Y-80415765D01*
X139205671Y-80424030D01*
X139227849Y-80434520D01*
X139248893Y-80447133D01*
X139268598Y-80461747D01*
X139286777Y-80478223D01*
X139303253Y-80496402D01*
X139317867Y-80516107D01*
X139330480Y-80537151D01*
X139340970Y-80559329D01*
X139349235Y-80582429D01*
X139355196Y-80606227D01*
X139358796Y-80630496D01*
X139360000Y-80655000D01*
X139360000Y-81905000D01*
X139358796Y-81929504D01*
X139355196Y-81953773D01*
X139349235Y-81977571D01*
X139340970Y-82000671D01*
X139330480Y-82022849D01*
X139317867Y-82043893D01*
X139303253Y-82063598D01*
X139286777Y-82081777D01*
X139268598Y-82098253D01*
X139248893Y-82112867D01*
X139227849Y-82125480D01*
X139205671Y-82135970D01*
X139182571Y-82144235D01*
X139158773Y-82150196D01*
X139134504Y-82153796D01*
X139110000Y-82155000D01*
X138185000Y-82155000D01*
X138160496Y-82153796D01*
X138136227Y-82150196D01*
X138112429Y-82144235D01*
X138089329Y-82135970D01*
X138067151Y-82125480D01*
X138046107Y-82112867D01*
X138026402Y-82098253D01*
X138008223Y-82081777D01*
X137991747Y-82063598D01*
X137977133Y-82043893D01*
X137964520Y-82022849D01*
X137954030Y-82000671D01*
X137945765Y-81977571D01*
X137939804Y-81953773D01*
X137936204Y-81929504D01*
X137935000Y-81905000D01*
X137935000Y-80655000D01*
X137936204Y-80630496D01*
X137939804Y-80606227D01*
X137945765Y-80582429D01*
X137954030Y-80559329D01*
X137964520Y-80537151D01*
X137977133Y-80516107D01*
X137991747Y-80496402D01*
X138008223Y-80478223D01*
X138026402Y-80461747D01*
X138046107Y-80447133D01*
X138067151Y-80434520D01*
X138089329Y-80424030D01*
X138112429Y-80415765D01*
X138136227Y-80409804D01*
X138160496Y-80406204D01*
X138185000Y-80405000D01*
X139110000Y-80405000D01*
X139134504Y-80406204D01*
X139134504Y-80406204D01*
G37*
D24*
G04 #@! TD*
G04 #@! TO.P,D8,2*
G04 #@! TO.N,+12V*
X138647500Y-81280000D03*
D23*
G04 #@! TO.N,Net-(D6-Pad1)*
G04 #@! TO.C,D6*
G36*
X162612004Y-101361204D02*
X162636273Y-101364804D01*
X162660071Y-101370765D01*
X162683171Y-101379030D01*
X162705349Y-101389520D01*
X162726393Y-101402133D01*
X162746098Y-101416747D01*
X162764277Y-101433223D01*
X162780753Y-101451402D01*
X162795367Y-101471107D01*
X162807980Y-101492151D01*
X162818470Y-101514329D01*
X162826735Y-101537429D01*
X162832696Y-101561227D01*
X162836296Y-101585496D01*
X162837500Y-101610000D01*
X162837500Y-102860000D01*
X162836296Y-102884504D01*
X162832696Y-102908773D01*
X162826735Y-102932571D01*
X162818470Y-102955671D01*
X162807980Y-102977849D01*
X162795367Y-102998893D01*
X162780753Y-103018598D01*
X162764277Y-103036777D01*
X162746098Y-103053253D01*
X162726393Y-103067867D01*
X162705349Y-103080480D01*
X162683171Y-103090970D01*
X162660071Y-103099235D01*
X162636273Y-103105196D01*
X162612004Y-103108796D01*
X162587500Y-103110000D01*
X161662500Y-103110000D01*
X161637996Y-103108796D01*
X161613727Y-103105196D01*
X161589929Y-103099235D01*
X161566829Y-103090970D01*
X161544651Y-103080480D01*
X161523607Y-103067867D01*
X161503902Y-103053253D01*
X161485723Y-103036777D01*
X161469247Y-103018598D01*
X161454633Y-102998893D01*
X161442020Y-102977849D01*
X161431530Y-102955671D01*
X161423265Y-102932571D01*
X161417304Y-102908773D01*
X161413704Y-102884504D01*
X161412500Y-102860000D01*
X161412500Y-101610000D01*
X161413704Y-101585496D01*
X161417304Y-101561227D01*
X161423265Y-101537429D01*
X161431530Y-101514329D01*
X161442020Y-101492151D01*
X161454633Y-101471107D01*
X161469247Y-101451402D01*
X161485723Y-101433223D01*
X161503902Y-101416747D01*
X161523607Y-101402133D01*
X161544651Y-101389520D01*
X161566829Y-101379030D01*
X161589929Y-101370765D01*
X161613727Y-101364804D01*
X161637996Y-101361204D01*
X161662500Y-101360000D01*
X162587500Y-101360000D01*
X162612004Y-101361204D01*
X162612004Y-101361204D01*
G37*
D24*
G04 #@! TD*
G04 #@! TO.P,D6,1*
G04 #@! TO.N,Net-(D6-Pad1)*
X162125000Y-102235000D03*
D23*
G04 #@! TO.N,+12V*
G04 #@! TO.C,D6*
G36*
X165587004Y-101361204D02*
X165611273Y-101364804D01*
X165635071Y-101370765D01*
X165658171Y-101379030D01*
X165680349Y-101389520D01*
X165701393Y-101402133D01*
X165721098Y-101416747D01*
X165739277Y-101433223D01*
X165755753Y-101451402D01*
X165770367Y-101471107D01*
X165782980Y-101492151D01*
X165793470Y-101514329D01*
X165801735Y-101537429D01*
X165807696Y-101561227D01*
X165811296Y-101585496D01*
X165812500Y-101610000D01*
X165812500Y-102860000D01*
X165811296Y-102884504D01*
X165807696Y-102908773D01*
X165801735Y-102932571D01*
X165793470Y-102955671D01*
X165782980Y-102977849D01*
X165770367Y-102998893D01*
X165755753Y-103018598D01*
X165739277Y-103036777D01*
X165721098Y-103053253D01*
X165701393Y-103067867D01*
X165680349Y-103080480D01*
X165658171Y-103090970D01*
X165635071Y-103099235D01*
X165611273Y-103105196D01*
X165587004Y-103108796D01*
X165562500Y-103110000D01*
X164637500Y-103110000D01*
X164612996Y-103108796D01*
X164588727Y-103105196D01*
X164564929Y-103099235D01*
X164541829Y-103090970D01*
X164519651Y-103080480D01*
X164498607Y-103067867D01*
X164478902Y-103053253D01*
X164460723Y-103036777D01*
X164444247Y-103018598D01*
X164429633Y-102998893D01*
X164417020Y-102977849D01*
X164406530Y-102955671D01*
X164398265Y-102932571D01*
X164392304Y-102908773D01*
X164388704Y-102884504D01*
X164387500Y-102860000D01*
X164387500Y-101610000D01*
X164388704Y-101585496D01*
X164392304Y-101561227D01*
X164398265Y-101537429D01*
X164406530Y-101514329D01*
X164417020Y-101492151D01*
X164429633Y-101471107D01*
X164444247Y-101451402D01*
X164460723Y-101433223D01*
X164478902Y-101416747D01*
X164498607Y-101402133D01*
X164519651Y-101389520D01*
X164541829Y-101379030D01*
X164564929Y-101370765D01*
X164588727Y-101364804D01*
X164612996Y-101361204D01*
X164637500Y-101360000D01*
X165562500Y-101360000D01*
X165587004Y-101361204D01*
X165587004Y-101361204D01*
G37*
D24*
G04 #@! TD*
G04 #@! TO.P,D6,2*
G04 #@! TO.N,+12V*
X165100000Y-102235000D03*
D23*
G04 #@! TO.N,+12V*
G04 #@! TO.C,D5*
G36*
X165804504Y-111521204D02*
X165828773Y-111524804D01*
X165852571Y-111530765D01*
X165875671Y-111539030D01*
X165897849Y-111549520D01*
X165918893Y-111562133D01*
X165938598Y-111576747D01*
X165956777Y-111593223D01*
X165973253Y-111611402D01*
X165987867Y-111631107D01*
X166000480Y-111652151D01*
X166010970Y-111674329D01*
X166019235Y-111697429D01*
X166025196Y-111721227D01*
X166028796Y-111745496D01*
X166030000Y-111770000D01*
X166030000Y-113020000D01*
X166028796Y-113044504D01*
X166025196Y-113068773D01*
X166019235Y-113092571D01*
X166010970Y-113115671D01*
X166000480Y-113137849D01*
X165987867Y-113158893D01*
X165973253Y-113178598D01*
X165956777Y-113196777D01*
X165938598Y-113213253D01*
X165918893Y-113227867D01*
X165897849Y-113240480D01*
X165875671Y-113250970D01*
X165852571Y-113259235D01*
X165828773Y-113265196D01*
X165804504Y-113268796D01*
X165780000Y-113270000D01*
X164855000Y-113270000D01*
X164830496Y-113268796D01*
X164806227Y-113265196D01*
X164782429Y-113259235D01*
X164759329Y-113250970D01*
X164737151Y-113240480D01*
X164716107Y-113227867D01*
X164696402Y-113213253D01*
X164678223Y-113196777D01*
X164661747Y-113178598D01*
X164647133Y-113158893D01*
X164634520Y-113137849D01*
X164624030Y-113115671D01*
X164615765Y-113092571D01*
X164609804Y-113068773D01*
X164606204Y-113044504D01*
X164605000Y-113020000D01*
X164605000Y-111770000D01*
X164606204Y-111745496D01*
X164609804Y-111721227D01*
X164615765Y-111697429D01*
X164624030Y-111674329D01*
X164634520Y-111652151D01*
X164647133Y-111631107D01*
X164661747Y-111611402D01*
X164678223Y-111593223D01*
X164696402Y-111576747D01*
X164716107Y-111562133D01*
X164737151Y-111549520D01*
X164759329Y-111539030D01*
X164782429Y-111530765D01*
X164806227Y-111524804D01*
X164830496Y-111521204D01*
X164855000Y-111520000D01*
X165780000Y-111520000D01*
X165804504Y-111521204D01*
X165804504Y-111521204D01*
G37*
D24*
G04 #@! TD*
G04 #@! TO.P,D5,2*
G04 #@! TO.N,+12V*
X165317500Y-112395000D03*
D23*
G04 #@! TO.N,Net-(D5-Pad1)*
G04 #@! TO.C,D5*
G36*
X162829504Y-111521204D02*
X162853773Y-111524804D01*
X162877571Y-111530765D01*
X162900671Y-111539030D01*
X162922849Y-111549520D01*
X162943893Y-111562133D01*
X162963598Y-111576747D01*
X162981777Y-111593223D01*
X162998253Y-111611402D01*
X163012867Y-111631107D01*
X163025480Y-111652151D01*
X163035970Y-111674329D01*
X163044235Y-111697429D01*
X163050196Y-111721227D01*
X163053796Y-111745496D01*
X163055000Y-111770000D01*
X163055000Y-113020000D01*
X163053796Y-113044504D01*
X163050196Y-113068773D01*
X163044235Y-113092571D01*
X163035970Y-113115671D01*
X163025480Y-113137849D01*
X163012867Y-113158893D01*
X162998253Y-113178598D01*
X162981777Y-113196777D01*
X162963598Y-113213253D01*
X162943893Y-113227867D01*
X162922849Y-113240480D01*
X162900671Y-113250970D01*
X162877571Y-113259235D01*
X162853773Y-113265196D01*
X162829504Y-113268796D01*
X162805000Y-113270000D01*
X161880000Y-113270000D01*
X161855496Y-113268796D01*
X161831227Y-113265196D01*
X161807429Y-113259235D01*
X161784329Y-113250970D01*
X161762151Y-113240480D01*
X161741107Y-113227867D01*
X161721402Y-113213253D01*
X161703223Y-113196777D01*
X161686747Y-113178598D01*
X161672133Y-113158893D01*
X161659520Y-113137849D01*
X161649030Y-113115671D01*
X161640765Y-113092571D01*
X161634804Y-113068773D01*
X161631204Y-113044504D01*
X161630000Y-113020000D01*
X161630000Y-111770000D01*
X161631204Y-111745496D01*
X161634804Y-111721227D01*
X161640765Y-111697429D01*
X161649030Y-111674329D01*
X161659520Y-111652151D01*
X161672133Y-111631107D01*
X161686747Y-111611402D01*
X161703223Y-111593223D01*
X161721402Y-111576747D01*
X161741107Y-111562133D01*
X161762151Y-111549520D01*
X161784329Y-111539030D01*
X161807429Y-111530765D01*
X161831227Y-111524804D01*
X161855496Y-111521204D01*
X161880000Y-111520000D01*
X162805000Y-111520000D01*
X162829504Y-111521204D01*
X162829504Y-111521204D01*
G37*
D24*
G04 #@! TD*
G04 #@! TO.P,D5,1*
G04 #@! TO.N,Net-(D5-Pad1)*
X162342500Y-112395000D03*
D23*
G04 #@! TO.N,Net-(D4-Pad1)*
G04 #@! TO.C,D4*
G36*
X162612004Y-85486204D02*
X162636273Y-85489804D01*
X162660071Y-85495765D01*
X162683171Y-85504030D01*
X162705349Y-85514520D01*
X162726393Y-85527133D01*
X162746098Y-85541747D01*
X162764277Y-85558223D01*
X162780753Y-85576402D01*
X162795367Y-85596107D01*
X162807980Y-85617151D01*
X162818470Y-85639329D01*
X162826735Y-85662429D01*
X162832696Y-85686227D01*
X162836296Y-85710496D01*
X162837500Y-85735000D01*
X162837500Y-86985000D01*
X162836296Y-87009504D01*
X162832696Y-87033773D01*
X162826735Y-87057571D01*
X162818470Y-87080671D01*
X162807980Y-87102849D01*
X162795367Y-87123893D01*
X162780753Y-87143598D01*
X162764277Y-87161777D01*
X162746098Y-87178253D01*
X162726393Y-87192867D01*
X162705349Y-87205480D01*
X162683171Y-87215970D01*
X162660071Y-87224235D01*
X162636273Y-87230196D01*
X162612004Y-87233796D01*
X162587500Y-87235000D01*
X161662500Y-87235000D01*
X161637996Y-87233796D01*
X161613727Y-87230196D01*
X161589929Y-87224235D01*
X161566829Y-87215970D01*
X161544651Y-87205480D01*
X161523607Y-87192867D01*
X161503902Y-87178253D01*
X161485723Y-87161777D01*
X161469247Y-87143598D01*
X161454633Y-87123893D01*
X161442020Y-87102849D01*
X161431530Y-87080671D01*
X161423265Y-87057571D01*
X161417304Y-87033773D01*
X161413704Y-87009504D01*
X161412500Y-86985000D01*
X161412500Y-85735000D01*
X161413704Y-85710496D01*
X161417304Y-85686227D01*
X161423265Y-85662429D01*
X161431530Y-85639329D01*
X161442020Y-85617151D01*
X161454633Y-85596107D01*
X161469247Y-85576402D01*
X161485723Y-85558223D01*
X161503902Y-85541747D01*
X161523607Y-85527133D01*
X161544651Y-85514520D01*
X161566829Y-85504030D01*
X161589929Y-85495765D01*
X161613727Y-85489804D01*
X161637996Y-85486204D01*
X161662500Y-85485000D01*
X162587500Y-85485000D01*
X162612004Y-85486204D01*
X162612004Y-85486204D01*
G37*
D24*
G04 #@! TD*
G04 #@! TO.P,D4,1*
G04 #@! TO.N,Net-(D4-Pad1)*
X162125000Y-86360000D03*
D23*
G04 #@! TO.N,+12V*
G04 #@! TO.C,D4*
G36*
X165587004Y-85486204D02*
X165611273Y-85489804D01*
X165635071Y-85495765D01*
X165658171Y-85504030D01*
X165680349Y-85514520D01*
X165701393Y-85527133D01*
X165721098Y-85541747D01*
X165739277Y-85558223D01*
X165755753Y-85576402D01*
X165770367Y-85596107D01*
X165782980Y-85617151D01*
X165793470Y-85639329D01*
X165801735Y-85662429D01*
X165807696Y-85686227D01*
X165811296Y-85710496D01*
X165812500Y-85735000D01*
X165812500Y-86985000D01*
X165811296Y-87009504D01*
X165807696Y-87033773D01*
X165801735Y-87057571D01*
X165793470Y-87080671D01*
X165782980Y-87102849D01*
X165770367Y-87123893D01*
X165755753Y-87143598D01*
X165739277Y-87161777D01*
X165721098Y-87178253D01*
X165701393Y-87192867D01*
X165680349Y-87205480D01*
X165658171Y-87215970D01*
X165635071Y-87224235D01*
X165611273Y-87230196D01*
X165587004Y-87233796D01*
X165562500Y-87235000D01*
X164637500Y-87235000D01*
X164612996Y-87233796D01*
X164588727Y-87230196D01*
X164564929Y-87224235D01*
X164541829Y-87215970D01*
X164519651Y-87205480D01*
X164498607Y-87192867D01*
X164478902Y-87178253D01*
X164460723Y-87161777D01*
X164444247Y-87143598D01*
X164429633Y-87123893D01*
X164417020Y-87102849D01*
X164406530Y-87080671D01*
X164398265Y-87057571D01*
X164392304Y-87033773D01*
X164388704Y-87009504D01*
X164387500Y-86985000D01*
X164387500Y-85735000D01*
X164388704Y-85710496D01*
X164392304Y-85686227D01*
X164398265Y-85662429D01*
X164406530Y-85639329D01*
X164417020Y-85617151D01*
X164429633Y-85596107D01*
X164444247Y-85576402D01*
X164460723Y-85558223D01*
X164478902Y-85541747D01*
X164498607Y-85527133D01*
X164519651Y-85514520D01*
X164541829Y-85504030D01*
X164564929Y-85495765D01*
X164588727Y-85489804D01*
X164612996Y-85486204D01*
X164637500Y-85485000D01*
X165562500Y-85485000D01*
X165587004Y-85486204D01*
X165587004Y-85486204D01*
G37*
D24*
G04 #@! TD*
G04 #@! TO.P,D4,2*
G04 #@! TO.N,+12V*
X165100000Y-86360000D03*
D25*
G04 #@! TO.P,F1,2*
G04 #@! TO.N,/230V_A*
X104380000Y-58902600D03*
X99380000Y-58902600D03*
G04 #@! TO.P,F1,1*
G04 #@! TO.N,/230V_B*
X114380000Y-58902600D03*
X119380000Y-58902600D03*
G04 #@! TD*
D26*
G04 #@! TO.P,R14,1*
G04 #@! TO.N,Net-(D8-Pad1)*
X132875000Y-81280000D03*
G04 #@! TO.P,R14,2*
G04 #@! TO.N,RE1*
X130175000Y-81280000D03*
G04 #@! TD*
G04 #@! TO.P,R15,2*
G04 #@! TO.N,RE2*
X145335000Y-81280000D03*
G04 #@! TO.P,R15,1*
G04 #@! TO.N,Net-(D9-Pad1)*
X148035000Y-81280000D03*
G04 #@! TD*
G04 #@! TO.P,R12,2*
G04 #@! TO.N,/RE6*
X165100000Y-104775000D03*
G04 #@! TO.P,R12,1*
G04 #@! TO.N,Net-(D6-Pad1)*
X162400000Y-104775000D03*
G04 #@! TD*
G04 #@! TO.P,R11,1*
G04 #@! TO.N,Net-(D5-Pad1)*
X162480000Y-115570000D03*
G04 #@! TO.P,R11,2*
G04 #@! TO.N,/RE7*
X165180000Y-115570000D03*
G04 #@! TD*
G04 #@! TO.P,R10,2*
G04 #@! TO.N,/RE5*
X165100000Y-89154000D03*
G04 #@! TO.P,R10,1*
G04 #@! TO.N,Net-(D4-Pad1)*
X162400000Y-89154000D03*
G04 #@! TD*
D27*
G04 #@! TO.P,R1,1*
G04 #@! TO.N,+3V3*
X108204000Y-130255000D03*
G04 #@! TO.P,R1,2*
G04 #@! TO.N,Net-(R1-Pad2)*
X108204000Y-127555000D03*
G04 #@! TD*
G04 #@! TO.P,R2,2*
G04 #@! TO.N,Net-(R2-Pad2)*
X105664000Y-127475000D03*
G04 #@! TO.P,R2,1*
G04 #@! TO.N,+3V3*
X105664000Y-130175000D03*
G04 #@! TD*
D26*
G04 #@! TO.P,R3,1*
G04 #@! TO.N,+3V3*
X146144000Y-123444000D03*
G04 #@! TO.P,R3,2*
G04 #@! TO.N,A*
X148844000Y-123444000D03*
G04 #@! TD*
G04 #@! TO.P,R5,2*
G04 #@! TO.N,C*
X148844000Y-119380000D03*
G04 #@! TO.P,R5,1*
G04 #@! TO.N,+3V3*
X146144000Y-119380000D03*
G04 #@! TD*
G04 #@! TO.P,R6,1*
G04 #@! TO.N,Net-(JP1-Pad2)*
X109728000Y-105156000D03*
G04 #@! TO.P,R6,2*
G04 #@! TO.N,GPIO0*
X112428000Y-105156000D03*
G04 #@! TD*
D27*
G04 #@! TO.P,R7,2*
G04 #@! TO.N,+3V3*
X157480000Y-109888000D03*
G04 #@! TO.P,R7,1*
G04 #@! TO.N,Net-(D1-Pad1)*
X157480000Y-107188000D03*
G04 #@! TD*
D26*
G04 #@! TO.P,R8,1*
G04 #@! TO.N,Net-(D2-Pad1)*
X162400000Y-59055000D03*
G04 #@! TO.P,R8,2*
G04 #@! TO.N,/RE3*
X165100000Y-59055000D03*
G04 #@! TD*
G04 #@! TO.P,R9,2*
G04 #@! TO.N,/RE4*
X165100000Y-73025000D03*
G04 #@! TO.P,R9,1*
G04 #@! TO.N,Net-(D3-Pad1)*
X162400000Y-73025000D03*
G04 #@! TD*
G04 #@! TO.P,R4,1*
G04 #@! TO.N,+3V3*
X146144000Y-121412000D03*
G04 #@! TO.P,R4,2*
G04 #@! TO.N,B*
X148844000Y-121412000D03*
G04 #@! TD*
D13*
G04 #@! TO.P,SW1,S1*
G04 #@! TO.N,C*
X161845000Y-118596000D03*
G04 #@! TO.P,SW1,S2*
G04 #@! TO.N,GND*
X156845000Y-118596000D03*
D28*
G04 #@! TO.P,SW1,MP*
G04 #@! TO.N,N/C*
X164945000Y-125596000D03*
X153745000Y-125596000D03*
D13*
G04 #@! TO.P,SW1,B*
G04 #@! TO.N,B*
X161845000Y-133096000D03*
G04 #@! TO.P,SW1,C*
G04 #@! TO.N,GND*
X159345000Y-133096000D03*
D29*
G04 #@! TO.P,SW1,A*
G04 #@! TO.N,A*
X156845000Y-133096000D03*
G04 #@! TD*
D30*
G04 #@! TO.P,T1,1*
G04 #@! TO.N,/230V_C*
X109120000Y-65165000D03*
G04 #@! TO.P,T1,2*
G04 #@! TO.N,/230V_B*
X104120000Y-65165000D03*
G04 #@! TO.P,T1,3*
G04 #@! TO.N,GND*
X114320000Y-94565000D03*
G04 #@! TO.P,T1,4*
G04 #@! TO.N,+12V*
X98920000Y-94565000D03*
G04 #@! TD*
D31*
G04 #@! TO.P,U3,2*
G04 #@! TO.N,+3V3*
X138385000Y-115760000D03*
G04 #@! TO.P,U3,1*
G04 #@! TO.N,GND*
X137115000Y-115760000D03*
G04 #@! TO.P,U3,3*
G04 #@! TO.N,CE*
X135845000Y-115760000D03*
G04 #@! TO.P,U3,4*
G04 #@! TO.N,CSN*
X134575000Y-115760000D03*
G04 #@! TO.P,U3,5*
G04 #@! TO.N,/SCLK*
X133305000Y-115760000D03*
G04 #@! TO.P,U3,6*
G04 #@! TO.N,/MOSI*
X132035000Y-115760000D03*
G04 #@! TO.P,U3,7*
G04 #@! TO.N,/MISO*
X130765000Y-115760000D03*
G04 #@! TO.P,U3,8*
G04 #@! TO.N,IRQ*
X129495000Y-115760000D03*
G04 #@! TD*
D32*
G04 #@! TO.N,+3V3*
X103124000Y-101600000D03*
G04 #@! TO.N,GND*
X155448000Y-87884000D03*
X134112000Y-107696000D03*
X127000000Y-122936000D03*
X165100000Y-108204000D03*
X168656000Y-103632000D03*
X165100000Y-94488000D03*
X167132000Y-79756000D03*
X166624000Y-63500000D03*
X141732000Y-82804000D03*
X144272000Y-92964000D03*
X125476000Y-101092000D03*
X141224000Y-104648000D03*
X156489400Y-130251200D03*
X113588800Y-127457200D03*
X125933200Y-132181600D03*
X111937800Y-132207000D03*
G04 #@! TO.N,CE*
X116840000Y-125984000D03*
X119888000Y-125984000D03*
G04 #@! TO.N,/SCLK*
X117856000Y-110744000D03*
X154432000Y-95504000D03*
G04 #@! TO.N,/MOSI*
X152755750Y-95527322D03*
X117856000Y-112725178D03*
G04 #@! TO.N,/MISO*
X114300000Y-110744000D03*
G04 #@! TO.N,C*
X110236000Y-120396000D03*
G04 #@! TO.N,B*
X117348000Y-117856000D03*
G04 #@! TO.N,A*
X151384000Y-123444000D03*
X117364107Y-115874810D03*
G04 #@! TO.N,RX*
X106680000Y-110744000D03*
G04 #@! TO.N,TX*
X104698810Y-110744000D03*
G04 #@! TO.N,ENABLE*
X159004000Y-95504000D03*
X112268000Y-120396000D03*
G04 #@! TO.N,LATCH*
X110744000Y-110236000D03*
X156413190Y-95504000D03*
G04 #@! TO.N,DOUT*
X156464000Y-93472000D03*
G04 #@! TD*
D33*
G04 #@! TO.N,+3V3*
X124695400Y-94482000D02*
X128329400Y-94482000D01*
X128329400Y-94482000D02*
X130039000Y-94482000D01*
X124587000Y-94373600D02*
X124695400Y-94482000D01*
X130039000Y-95582000D02*
X131739000Y-97282000D01*
X130039000Y-94482000D02*
X130039000Y-95582000D01*
X131739000Y-101560000D02*
X130175000Y-103124000D01*
X105744000Y-130255000D02*
X105664000Y-130175000D01*
X108204000Y-130255000D02*
X105744000Y-130255000D01*
X146144000Y-123444000D02*
X146144000Y-121412000D01*
X146144000Y-121412000D02*
X146144000Y-119380000D01*
X142424000Y-115760000D02*
X138385000Y-115760000D01*
X146144000Y-119380000D02*
X146044000Y-119380000D01*
X146044000Y-119380000D02*
X142424000Y-115760000D01*
X136903658Y-100076000D02*
X131739000Y-100076000D01*
X139252201Y-102424543D02*
X136903658Y-100076000D01*
X138385000Y-114707038D02*
X139252201Y-113839837D01*
X138385000Y-115760000D02*
X138385000Y-114707038D01*
X131739000Y-97282000D02*
X131739000Y-100076000D01*
X131739000Y-100076000D02*
X131739000Y-101560000D01*
X156220400Y-109888000D02*
X157480000Y-109888000D01*
X154376400Y-109888000D02*
X156220400Y-109888000D01*
X146144000Y-118120400D02*
X154376400Y-109888000D01*
X146144000Y-119380000D02*
X146144000Y-118120400D01*
X124587000Y-94373600D02*
X124587000Y-92964000D01*
X117360600Y-101600000D02*
X124587000Y-94373600D01*
X103124000Y-101600000D02*
X117360600Y-101600000D01*
D34*
X141516000Y-102616000D02*
X139252201Y-102616000D01*
X153173000Y-90959000D02*
X141516000Y-102616000D01*
X153173000Y-90659000D02*
X153173000Y-90959000D01*
D33*
X139252201Y-113839837D02*
X139252201Y-102616000D01*
X139252201Y-102616000D02*
X139252201Y-102424543D01*
X108204000Y-130355000D02*
X108204000Y-130255000D01*
X108278000Y-130429000D02*
X108204000Y-130355000D01*
D34*
X109848400Y-129667000D02*
X118364000Y-129667000D01*
X109260400Y-130255000D02*
X109848400Y-129667000D01*
X108204000Y-130255000D02*
X109260400Y-130255000D01*
X118450000Y-129581000D02*
X118364000Y-129667000D01*
X118450000Y-123170000D02*
X118450000Y-129581000D01*
D33*
X124307600Y-129667000D02*
X118364000Y-129667000D01*
X138385000Y-115760000D02*
X138385000Y-118917000D01*
X138385000Y-118917000D02*
X136804400Y-120497600D01*
X136804400Y-120497600D02*
X133477000Y-120497600D01*
X133477000Y-120497600D02*
X124307600Y-129667000D01*
D34*
G04 #@! TO.N,GND*
X155773000Y-88209000D02*
X155448000Y-87884000D01*
X155773000Y-90659000D02*
X155773000Y-88209000D01*
D35*
G04 #@! TO.N,CE*
X116450000Y-123170000D02*
X116450000Y-125086000D01*
X116450000Y-125086000D02*
X116450000Y-125594000D01*
X116450000Y-125594000D02*
X116840000Y-125984000D01*
X135845000Y-117064800D02*
X135845000Y-115760000D01*
X128524000Y-116840000D02*
X129032000Y-117348000D01*
X128524000Y-113792000D02*
X128524000Y-116840000D01*
X120649999Y-125222001D02*
X120649999Y-122682001D01*
X135561800Y-117348000D02*
X135845000Y-117064800D01*
X127508000Y-112776000D02*
X128524000Y-113792000D01*
X119888000Y-125984000D02*
X120649999Y-125222001D01*
X120649999Y-122682001D02*
X122428000Y-120904000D01*
X122428000Y-120904000D02*
X122428000Y-113792000D01*
X129032000Y-117348000D02*
X135561800Y-117348000D01*
X122428000Y-113792000D02*
X123444000Y-112776000D01*
X123444000Y-112776000D02*
X127508000Y-112776000D01*
G04 #@! TO.N,CSN*
X134575000Y-115760000D02*
X134575000Y-111715000D01*
X134575000Y-111715000D02*
X132384801Y-109524801D01*
X109723935Y-111302801D02*
X108450000Y-110028866D01*
X108450000Y-109524800D02*
X108450000Y-107970000D01*
X113034065Y-109524801D02*
X111256065Y-111302801D01*
X132384801Y-109524801D02*
X113034065Y-109524801D01*
X108450000Y-110028866D02*
X108450000Y-109524800D01*
X111256065Y-111302801D02*
X109723935Y-111302801D01*
G04 #@! TO.N,/SCLK*
X133305000Y-111461000D02*
X133305000Y-115760000D01*
X119950000Y-110570000D02*
X120124000Y-110744000D01*
X132588000Y-110744000D02*
X133305000Y-111461000D01*
X120124000Y-110744000D02*
X132588000Y-110744000D01*
X119950000Y-110570000D02*
X118030000Y-110570000D01*
X118030000Y-110570000D02*
X117856000Y-110744000D01*
X154431988Y-94426358D02*
X154431988Y-91529812D01*
X154432000Y-94426370D02*
X154431988Y-94426358D01*
X154473000Y-91488800D02*
X154473000Y-90659000D01*
X154432000Y-95504000D02*
X154432000Y-94426370D01*
X154431988Y-91529812D02*
X154473000Y-91488800D01*
G04 #@! TO.N,/MOSI*
X120350000Y-112570000D02*
X121668000Y-111252000D01*
X119950000Y-112570000D02*
X120350000Y-112570000D01*
X121668000Y-111252000D02*
X131572000Y-111252000D01*
X132035000Y-111715000D02*
X132035000Y-115760000D01*
X131572000Y-111252000D02*
X132035000Y-111715000D01*
X153823000Y-94460072D02*
X153517749Y-94765323D01*
X153823000Y-90659000D02*
X153823000Y-94460072D01*
X153517749Y-94765323D02*
X152755750Y-95527322D01*
X118011178Y-112570000D02*
X117856000Y-112725178D01*
X119950000Y-112570000D02*
X118011178Y-112570000D01*
G04 #@! TO.N,/MISO*
X120350000Y-118570000D02*
X121412000Y-117508000D01*
X119950000Y-118570000D02*
X120350000Y-118570000D01*
X121412000Y-117508000D02*
X121412000Y-112776000D01*
X121412000Y-112776000D02*
X122428000Y-111760000D01*
X130048000Y-111760000D02*
X130765000Y-112477000D01*
X130765000Y-112477000D02*
X130765000Y-115760000D01*
X122428000Y-111760000D02*
X130048000Y-111760000D01*
X114300000Y-111821630D02*
X114300000Y-110744000D01*
X114300000Y-116386868D02*
X114300000Y-111821630D01*
X118745200Y-119374800D02*
X117287932Y-119374800D01*
X119550000Y-118570000D02*
X118745200Y-119374800D01*
X117287932Y-119374800D02*
X114300000Y-116386868D01*
X119950000Y-118570000D02*
X119550000Y-118570000D01*
G04 #@! TO.N,IRQ*
X115495199Y-121374801D02*
X121093841Y-121374801D01*
X114450000Y-123170000D02*
X114450000Y-122420000D01*
X114450000Y-122420000D02*
X115495199Y-121374801D01*
X121093841Y-121374801D02*
X121920000Y-120548642D01*
X121920000Y-113284000D02*
X122936000Y-112268000D01*
X121920000Y-120548642D02*
X121920000Y-113284000D01*
X129495000Y-113239000D02*
X129495000Y-115760000D01*
X122936000Y-112268000D02*
X128524000Y-112268000D01*
X128524000Y-112268000D02*
X129495000Y-113239000D01*
D33*
G04 #@! TO.N,+12V*
X98920000Y-94565000D02*
X103563000Y-89922000D01*
X121920000Y-83820000D02*
X121920000Y-89922000D01*
X103563000Y-89922000D02*
X121920000Y-89922000D01*
X121920000Y-89922000D02*
X130039000Y-89922000D01*
X130039000Y-88822000D02*
X131739000Y-87122000D01*
X130039000Y-89922000D02*
X130039000Y-88822000D01*
X166624000Y-86360000D02*
X169164000Y-83820000D01*
X165100000Y-86360000D02*
X166624000Y-86360000D01*
X138647500Y-73497500D02*
X137445000Y-72295000D01*
X138647500Y-81280000D02*
X138647500Y-73497500D01*
X154658847Y-80508653D02*
X154695347Y-80508653D01*
X153887500Y-81280000D02*
X154658847Y-80508653D01*
X155225000Y-79979000D02*
X155225000Y-72295000D01*
X154695347Y-80508653D02*
X155225000Y-79979000D01*
X160884999Y-52299999D02*
X164328653Y-55743653D01*
X164328653Y-55743653D02*
X165100000Y-56515000D01*
X156439999Y-52299999D02*
X160884999Y-52299999D01*
X154940000Y-50800000D02*
X156439999Y-52299999D01*
X169164000Y-52451000D02*
X169164000Y-52070000D01*
X165100000Y-56515000D02*
X169164000Y-52451000D01*
X166751000Y-70358000D02*
X169164000Y-67945000D01*
X165317500Y-70358000D02*
X166751000Y-70358000D01*
X170663999Y-53569999D02*
X169164000Y-52070000D01*
X171121201Y-54027201D02*
X170663999Y-53569999D01*
X171121201Y-65987799D02*
X171121201Y-54027201D01*
X169164000Y-67945000D02*
X171121201Y-65987799D01*
X170663999Y-82320001D02*
X169164000Y-83820000D01*
X171121201Y-81862799D02*
X170663999Y-82320001D01*
X171121201Y-69902201D02*
X171121201Y-81862799D01*
X169164000Y-67945000D02*
X171121201Y-69902201D01*
X171121201Y-97737799D02*
X170663999Y-98195001D01*
X170663999Y-98195001D02*
X169164000Y-99695000D01*
X171121201Y-85777201D02*
X171121201Y-97737799D01*
X169164000Y-83820000D02*
X171121201Y-85777201D01*
X170663999Y-101194999D02*
X169164000Y-99695000D01*
X171121201Y-101652201D02*
X170663999Y-101194999D01*
X171121201Y-113612799D02*
X171121201Y-101652201D01*
X169164000Y-115570000D02*
X171121201Y-113612799D01*
X166624000Y-102235000D02*
X169164000Y-99695000D01*
X165100000Y-102235000D02*
X166624000Y-102235000D01*
X165989000Y-112395000D02*
X169164000Y-115570000D01*
X165317500Y-112395000D02*
X165989000Y-112395000D01*
X134746000Y-69596000D02*
X137445000Y-72295000D01*
X124460000Y-69596000D02*
X134746000Y-69596000D01*
X122428000Y-76576400D02*
X122428000Y-71628000D01*
X131739000Y-87122000D02*
X131739000Y-85887400D01*
X122428000Y-71628000D02*
X124460000Y-69596000D01*
X131739000Y-85887400D02*
X122428000Y-76576400D01*
X152526000Y-69596000D02*
X155225000Y-72295000D01*
X137445000Y-72295000D02*
X140144000Y-69596000D01*
X140144000Y-69596000D02*
X152526000Y-69596000D01*
D35*
G04 #@! TO.N,C*
X160540199Y-119900801D02*
X160845001Y-119595999D01*
X150419601Y-119900801D02*
X160540199Y-119900801D01*
X149898800Y-119380000D02*
X150419601Y-119900801D01*
X160845001Y-119595999D02*
X161845000Y-118596000D01*
X148844000Y-119380000D02*
X149898800Y-119380000D01*
X110450000Y-123170000D02*
X110450000Y-120610000D01*
X110450000Y-120610000D02*
X110236000Y-120396000D01*
G04 #@! TO.N,B*
X161845000Y-130547358D02*
X161845000Y-131681787D01*
X152709642Y-121412000D02*
X161845000Y-130547358D01*
X148844000Y-121412000D02*
X152709642Y-121412000D01*
X161845000Y-131681787D02*
X161845000Y-133096000D01*
X119950000Y-116570000D02*
X118634000Y-116570000D01*
X118634000Y-116570000D02*
X117348000Y-117856000D01*
G04 #@! TO.N,A*
X151384000Y-123444000D02*
X148844000Y-123444000D01*
X118126106Y-115112811D02*
X117364107Y-115874810D01*
X118668917Y-114570000D02*
X118126106Y-115112811D01*
X119950000Y-114570000D02*
X118668917Y-114570000D01*
X156845000Y-133070600D02*
X156845000Y-133096000D01*
X148844000Y-125069600D02*
X156845000Y-133070600D01*
X148844000Y-123444000D02*
X148844000Y-125069600D01*
D33*
G04 #@! TO.N,RE1*
X125445000Y-74062766D02*
X125445000Y-72295000D01*
X125445000Y-76650000D02*
X125445000Y-74062766D01*
X130075000Y-81280000D02*
X125445000Y-76650000D01*
X130175000Y-81280000D02*
X130075000Y-81280000D01*
X134104000Y-85109000D02*
X153140799Y-85109000D01*
X130275000Y-81280000D02*
X134104000Y-85109000D01*
X130175000Y-81280000D02*
X130275000Y-81280000D01*
G04 #@! TO.N,RE2*
X145335000Y-81280000D02*
X145235000Y-81280000D01*
X143225000Y-79270000D02*
X143225000Y-72295000D01*
X145235000Y-81280000D02*
X143225000Y-79270000D01*
X145335000Y-82539600D02*
X146107400Y-83312000D01*
X145335000Y-81280000D02*
X145335000Y-82539600D01*
X146107400Y-83312000D02*
X152908000Y-83312000D01*
D34*
X152957400Y-83312000D02*
X152908000Y-83312000D01*
X153823000Y-84177600D02*
X152957400Y-83312000D01*
X153823000Y-85109000D02*
X153823000Y-84177600D01*
D35*
G04 #@! TO.N,Net-(D3-Pad1)*
X162400000Y-70415500D02*
X162342500Y-70358000D01*
X162400000Y-73025000D02*
X162400000Y-70415500D01*
G04 #@! TO.N,Net-(D2-Pad1)*
X162125000Y-58780000D02*
X162400000Y-59055000D01*
X162125000Y-56515000D02*
X162125000Y-58780000D01*
G04 #@! TO.N,Net-(D1-Pad1)*
X157480000Y-107188000D02*
X157480000Y-104575000D01*
G04 #@! TO.N,Net-(JP1-Pad2)*
X108673200Y-105156000D02*
X109728000Y-105156000D01*
X107876399Y-105952801D02*
X108673200Y-105156000D01*
X105444801Y-105952801D02*
X107876399Y-105952801D01*
X104140000Y-104648000D02*
X105444801Y-105952801D01*
G04 #@! TO.N,GPIO0*
X112450000Y-105178000D02*
X112428000Y-105156000D01*
X112450000Y-107970000D02*
X112450000Y-105178000D01*
X109838801Y-102666801D02*
X112328000Y-105156000D01*
X112328000Y-105156000D02*
X112428000Y-105156000D01*
X99618801Y-102666801D02*
X109838801Y-102666801D01*
X96520000Y-99568000D02*
X99618801Y-102666801D01*
G04 #@! TO.N,Net-(R2-Pad2)*
X104450000Y-124724800D02*
X104450000Y-123170000D01*
X104450000Y-125206200D02*
X104450000Y-124724800D01*
X105664000Y-126420200D02*
X104450000Y-125206200D01*
X105664000Y-127475000D02*
X105664000Y-126420200D01*
G04 #@! TO.N,Net-(R1-Pad2)*
X108204000Y-127555000D02*
X108204000Y-125476000D01*
X108450000Y-125230000D02*
X108450000Y-123170000D01*
X108204000Y-125476000D02*
X108450000Y-125230000D01*
G04 #@! TO.N,Net-(D4-Pad1)*
X162400000Y-86635000D02*
X162125000Y-86360000D01*
X162400000Y-89154000D02*
X162400000Y-86635000D01*
G04 #@! TO.N,Net-(D5-Pad1)*
X162480000Y-112532500D02*
X162342500Y-112395000D01*
X162480000Y-115570000D02*
X162480000Y-112532500D01*
G04 #@! TO.N,Net-(D6-Pad1)*
X162400000Y-102510000D02*
X162125000Y-102235000D01*
X162400000Y-104775000D02*
X162400000Y-102510000D01*
G04 #@! TO.N,Net-(D9-Pad1)*
X148035000Y-81280000D02*
X150912500Y-81280000D01*
G04 #@! TO.N,Net-(D8-Pad1)*
X132875000Y-81280000D02*
X135672500Y-81280000D01*
G04 #@! TO.N,Net-(D1-Pad2)*
X157480000Y-100787500D02*
X157480000Y-101600000D01*
X157530801Y-100736699D02*
X157480000Y-100787500D01*
X157073000Y-90659000D02*
X157073000Y-92502134D01*
X157530801Y-92959935D02*
X157530801Y-100736699D01*
X157073000Y-92502134D02*
X157530801Y-92959935D01*
G04 #@! TO.N,RX*
X106450000Y-107970000D02*
X106450000Y-110514000D01*
X106450000Y-110514000D02*
X106680000Y-110744000D01*
G04 #@! TO.N,TX*
X104450000Y-110495190D02*
X104698810Y-110744000D01*
X104450000Y-107970000D02*
X104450000Y-110495190D01*
G04 #@! TO.N,ENABLE*
X112268000Y-122988000D02*
X112450000Y-123170000D01*
X112268000Y-120396000D02*
X112268000Y-122988000D01*
X157723000Y-90659000D02*
X157723000Y-91488800D01*
X157723000Y-91488800D02*
X159004000Y-92769800D01*
X159004000Y-94426370D02*
X159004000Y-95504000D01*
X159004000Y-92769800D02*
X159004000Y-94426370D01*
G04 #@! TO.N,LATCH*
X110744000Y-108264000D02*
X110450000Y-107970000D01*
X110744000Y-110236000D02*
X110744000Y-108264000D01*
X155651191Y-94742001D02*
X156413190Y-95504000D01*
X155123000Y-90659000D02*
X155123000Y-94213810D01*
X155123000Y-94213810D02*
X155651191Y-94742001D01*
G04 #@! TO.N,DOUT*
X156464000Y-90700000D02*
X156423000Y-90659000D01*
X156464000Y-93472000D02*
X156464000Y-90700000D01*
G04 #@! TO.N,SDA*
X136795001Y-104123999D02*
X137795000Y-103124000D01*
X118564789Y-105105211D02*
X135813789Y-105105211D01*
X116450000Y-107220000D02*
X118564789Y-105105211D01*
X116450000Y-107970000D02*
X116450000Y-107220000D01*
X135813789Y-105105211D02*
X136795001Y-104123999D01*
G04 #@! TO.N,SCL*
X134255001Y-104123999D02*
X135255000Y-103124000D01*
X133950199Y-104428801D02*
X134255001Y-104123999D01*
X117241199Y-104428801D02*
X133950199Y-104428801D01*
X114450000Y-107970000D02*
X114450000Y-107220000D01*
X114450000Y-107220000D02*
X117241199Y-104428801D01*
D36*
G04 #@! TO.N,/230V_B*
X114380000Y-60564300D02*
X114380000Y-58902600D01*
X114380000Y-66212762D02*
X114380000Y-60564300D01*
X111165761Y-69427001D02*
X114380000Y-66212762D01*
X107304371Y-69427001D02*
X111165761Y-69427001D01*
X104120000Y-66242630D02*
X107304371Y-69427001D01*
X104120000Y-65165000D02*
X104120000Y-66242630D01*
X114380000Y-58902600D02*
X119380000Y-58902600D01*
X119380000Y-54610000D02*
X123190000Y-50800000D01*
X119380000Y-58902600D02*
X119380000Y-54610000D01*
X128190001Y-45799999D02*
X134064999Y-45799999D01*
X137565001Y-49300001D02*
X139065000Y-50800000D01*
X134064999Y-45799999D02*
X137565001Y-49300001D01*
X123190000Y-50800000D02*
X128190001Y-45799999D01*
D37*
G04 #@! TO.N,/230V_A*
X114060000Y-51675000D02*
X114935000Y-50800000D01*
D36*
X106832400Y-58902600D02*
X114935000Y-50800000D01*
X104380000Y-58902600D02*
X106832400Y-58902600D01*
X99380000Y-58902600D02*
X104380000Y-58902600D01*
D37*
G04 #@! TO.N,/230V_C*
X109220000Y-65065000D02*
X109120000Y-65165000D01*
X125445000Y-60095000D02*
X125445000Y-60421000D01*
D36*
X143225000Y-61862766D02*
X143225000Y-60095000D01*
X140242765Y-64845001D02*
X143225000Y-61862766D01*
X128427235Y-64845001D02*
X140242765Y-64845001D01*
X125445000Y-61862766D02*
X128427235Y-64845001D01*
X125445000Y-60095000D02*
X125445000Y-61862766D01*
D33*
G04 #@! TO.N,/RE7*
X165280000Y-115570000D02*
X165180000Y-115570000D01*
X169164000Y-119454000D02*
X165280000Y-115570000D01*
X169164000Y-123190000D02*
X169164000Y-119454000D01*
X165080000Y-115570000D02*
X163576000Y-114066000D01*
X165180000Y-115570000D02*
X165080000Y-115570000D01*
X163576000Y-114066000D02*
X163576000Y-109728000D01*
X160955290Y-107107290D02*
X160955290Y-92375290D01*
X163576000Y-109728000D02*
X160955290Y-107107290D01*
X160955290Y-92375290D02*
X159512000Y-90932000D01*
X159512000Y-90932000D02*
X159512000Y-84836000D01*
D34*
X157073000Y-85109000D02*
X157073000Y-84340112D01*
X157073000Y-84340112D02*
X157389870Y-84023242D01*
X158699242Y-84023242D02*
X159512000Y-84836000D01*
X157389870Y-84023242D02*
X158699242Y-84023242D01*
D33*
G04 #@! TO.N,/RE6*
X166624000Y-104775000D02*
X169164000Y-107315000D01*
X165100000Y-104775000D02*
X166624000Y-104775000D01*
X160528000Y-90424000D02*
X160528000Y-84774356D01*
X163294710Y-93190710D02*
X160528000Y-90424000D01*
X165100000Y-104775000D02*
X165000000Y-104775000D01*
X163294710Y-103069710D02*
X163294710Y-93190710D01*
X165000000Y-104775000D02*
X163294710Y-103069710D01*
D34*
X160528000Y-84774356D02*
X159218075Y-83464431D01*
X156423000Y-84199834D02*
X156423000Y-85109000D01*
X159218075Y-83464431D02*
X157158403Y-83464431D01*
X157158403Y-83464431D02*
X156423000Y-84199834D01*
D33*
G04 #@! TO.N,/RE5*
X166878000Y-89154000D02*
X169164000Y-91440000D01*
X165100000Y-89154000D02*
X166878000Y-89154000D01*
X163294710Y-87448710D02*
X163294710Y-85442062D01*
X163294710Y-85442062D02*
X161164648Y-83312000D01*
X165100000Y-89154000D02*
X165000000Y-89154000D01*
X165000000Y-89154000D02*
X163294710Y-87448710D01*
D34*
X155773000Y-84059556D02*
X156926936Y-82905620D01*
X156926936Y-82905620D02*
X160758268Y-82905620D01*
X155773000Y-85109000D02*
X155773000Y-84059556D01*
X160758268Y-82905620D02*
X161164648Y-83312000D01*
D33*
G04 #@! TO.N,/RE4*
X166624000Y-73025000D02*
X169164000Y-75565000D01*
X165100000Y-73025000D02*
X166624000Y-73025000D01*
X165100000Y-73025000D02*
X165100000Y-81280000D01*
X165100000Y-81280000D02*
X164084000Y-82296000D01*
D34*
X156695467Y-82346811D02*
X164033189Y-82346811D01*
X155123000Y-85109000D02*
X155123000Y-83919278D01*
X164033189Y-82346811D02*
X164084000Y-82296000D01*
X155123000Y-83919278D02*
X156695467Y-82346811D01*
D33*
G04 #@! TO.N,/RE3*
X168529000Y-59055000D02*
X169164000Y-59690000D01*
X165100000Y-59055000D02*
X168529000Y-59055000D01*
X163892799Y-60162201D02*
X163892799Y-79947201D01*
X165100000Y-59055000D02*
X165000000Y-59055000D01*
X165000000Y-59055000D02*
X163892799Y-60162201D01*
X163892799Y-79947201D02*
X162560000Y-81280000D01*
D34*
X162052000Y-81788000D02*
X162560000Y-81280000D01*
X156464000Y-81788000D02*
X162052000Y-81788000D01*
X154473000Y-85109000D02*
X154473000Y-83779000D01*
X154473000Y-83779000D02*
X156464000Y-81788000D01*
G04 #@! TD*
D38*
G04 #@! TO.N,GND*
G36*
X161057600Y-130873510D02*
X161057601Y-131604232D01*
X161057600Y-131604236D01*
X161057600Y-131652441D01*
X160918847Y-131709914D01*
X160503486Y-132125275D01*
X160497532Y-132123073D01*
X159524605Y-133096000D01*
X160497532Y-134068927D01*
X160503486Y-134066725D01*
X160726761Y-134290000D01*
X160302595Y-134290000D01*
X160317927Y-134248532D01*
X159345000Y-133275605D01*
X159330858Y-133289748D01*
X159151253Y-133110143D01*
X159165395Y-133096000D01*
X159151253Y-133081858D01*
X159330858Y-132902253D01*
X159345000Y-132916395D01*
X160317927Y-131943468D01*
X160219264Y-131676613D01*
X159609539Y-131450092D01*
X158959540Y-131474144D01*
X158470736Y-131676613D01*
X158420062Y-131813671D01*
X158302809Y-131638191D01*
X158092765Y-131497843D01*
X157845000Y-131448560D01*
X156336512Y-131448560D01*
X152728012Y-127840061D01*
X152745000Y-127843440D01*
X154745000Y-127843440D01*
X154992765Y-127794157D01*
X155202809Y-127653809D01*
X155343157Y-127443765D01*
X155392440Y-127196000D01*
X155392440Y-125208349D01*
X161057600Y-130873510D01*
X161057600Y-130873510D01*
G37*
X161057600Y-130873510D02*
X161057601Y-131604232D01*
X161057600Y-131604236D01*
X161057600Y-131652441D01*
X160918847Y-131709914D01*
X160503486Y-132125275D01*
X160497532Y-132123073D01*
X159524605Y-133096000D01*
X160497532Y-134068927D01*
X160503486Y-134066725D01*
X160726761Y-134290000D01*
X160302595Y-134290000D01*
X160317927Y-134248532D01*
X159345000Y-133275605D01*
X159330858Y-133289748D01*
X159151253Y-133110143D01*
X159165395Y-133096000D01*
X159151253Y-133081858D01*
X159330858Y-132902253D01*
X159345000Y-132916395D01*
X160317927Y-131943468D01*
X160219264Y-131676613D01*
X159609539Y-131450092D01*
X158959540Y-131474144D01*
X158470736Y-131676613D01*
X158420062Y-131813671D01*
X158302809Y-131638191D01*
X158092765Y-131497843D01*
X157845000Y-131448560D01*
X156336512Y-131448560D01*
X152728012Y-127840061D01*
X152745000Y-127843440D01*
X154745000Y-127843440D01*
X154992765Y-127794157D01*
X155202809Y-127653809D01*
X155343157Y-127443765D01*
X155392440Y-127196000D01*
X155392440Y-125208349D01*
X161057600Y-130873510D01*
G36*
X144746560Y-119411637D02*
X144746560Y-120030000D01*
X144795843Y-120277765D01*
X144874846Y-120396000D01*
X144795843Y-120514235D01*
X144746560Y-120762000D01*
X144746560Y-122062000D01*
X144795843Y-122309765D01*
X144874846Y-122428000D01*
X144795843Y-122546235D01*
X144746560Y-122794000D01*
X144746560Y-124094000D01*
X144795843Y-124341765D01*
X144936191Y-124551809D01*
X145146235Y-124692157D01*
X145394000Y-124741440D01*
X146894000Y-124741440D01*
X147141765Y-124692157D01*
X147351809Y-124551809D01*
X147492157Y-124341765D01*
X147494000Y-124332500D01*
X147495843Y-124341765D01*
X147636191Y-124551809D01*
X147846235Y-124692157D01*
X148056601Y-124734001D01*
X148056601Y-124992044D01*
X148041174Y-125069600D01*
X148068346Y-125206200D01*
X148102286Y-125376828D01*
X148276317Y-125637284D01*
X148342063Y-125681214D01*
X155197560Y-132536712D01*
X155197560Y-134096000D01*
X155236149Y-134290000D01*
X151267967Y-134290000D01*
X151653141Y-133904826D01*
X151993400Y-133083369D01*
X151993400Y-132194231D01*
X151653141Y-131372774D01*
X151024426Y-130744059D01*
X150202969Y-130403800D01*
X149313831Y-130403800D01*
X148492374Y-130744059D01*
X147863659Y-131372774D01*
X147523400Y-132194231D01*
X147523400Y-133083369D01*
X147863659Y-133904826D01*
X148248833Y-134290000D01*
X119797367Y-134290000D01*
X120207941Y-133879426D01*
X120548200Y-133057969D01*
X120548200Y-132168831D01*
X120207941Y-131347374D01*
X119579226Y-130718659D01*
X119309175Y-130606800D01*
X124215046Y-130606800D01*
X124307600Y-130625210D01*
X124400154Y-130606800D01*
X124400159Y-130606800D01*
X124674291Y-130552272D01*
X124985157Y-130344557D01*
X125037588Y-130266089D01*
X133866278Y-121437400D01*
X136711846Y-121437400D01*
X136804400Y-121455810D01*
X136896954Y-121437400D01*
X136896959Y-121437400D01*
X137171091Y-121382872D01*
X137481957Y-121175157D01*
X137534388Y-121096690D01*
X138984092Y-119646986D01*
X139062557Y-119594557D01*
X139114986Y-119516092D01*
X139114988Y-119516090D01*
X139270271Y-119283693D01*
X139270271Y-119283692D01*
X139270272Y-119283691D01*
X139324800Y-119009559D01*
X139324800Y-119009554D01*
X139343210Y-118917000D01*
X139324800Y-118824446D01*
X139324800Y-117229842D01*
X139342809Y-117217809D01*
X139483157Y-117007765D01*
X139532440Y-116760000D01*
X139532440Y-116699800D01*
X142034723Y-116699800D01*
X144746560Y-119411637D01*
X144746560Y-119411637D01*
G37*
X144746560Y-119411637D02*
X144746560Y-120030000D01*
X144795843Y-120277765D01*
X144874846Y-120396000D01*
X144795843Y-120514235D01*
X144746560Y-120762000D01*
X144746560Y-122062000D01*
X144795843Y-122309765D01*
X144874846Y-122428000D01*
X144795843Y-122546235D01*
X144746560Y-122794000D01*
X144746560Y-124094000D01*
X144795843Y-124341765D01*
X144936191Y-124551809D01*
X145146235Y-124692157D01*
X145394000Y-124741440D01*
X146894000Y-124741440D01*
X147141765Y-124692157D01*
X147351809Y-124551809D01*
X147492157Y-124341765D01*
X147494000Y-124332500D01*
X147495843Y-124341765D01*
X147636191Y-124551809D01*
X147846235Y-124692157D01*
X148056601Y-124734001D01*
X148056601Y-124992044D01*
X148041174Y-125069600D01*
X148068346Y-125206200D01*
X148102286Y-125376828D01*
X148276317Y-125637284D01*
X148342063Y-125681214D01*
X155197560Y-132536712D01*
X155197560Y-134096000D01*
X155236149Y-134290000D01*
X151267967Y-134290000D01*
X151653141Y-133904826D01*
X151993400Y-133083369D01*
X151993400Y-132194231D01*
X151653141Y-131372774D01*
X151024426Y-130744059D01*
X150202969Y-130403800D01*
X149313831Y-130403800D01*
X148492374Y-130744059D01*
X147863659Y-131372774D01*
X147523400Y-132194231D01*
X147523400Y-133083369D01*
X147863659Y-133904826D01*
X148248833Y-134290000D01*
X119797367Y-134290000D01*
X120207941Y-133879426D01*
X120548200Y-133057969D01*
X120548200Y-132168831D01*
X120207941Y-131347374D01*
X119579226Y-130718659D01*
X119309175Y-130606800D01*
X124215046Y-130606800D01*
X124307600Y-130625210D01*
X124400154Y-130606800D01*
X124400159Y-130606800D01*
X124674291Y-130552272D01*
X124985157Y-130344557D01*
X125037588Y-130266089D01*
X133866278Y-121437400D01*
X136711846Y-121437400D01*
X136804400Y-121455810D01*
X136896954Y-121437400D01*
X136896959Y-121437400D01*
X137171091Y-121382872D01*
X137481957Y-121175157D01*
X137534388Y-121096690D01*
X138984092Y-119646986D01*
X139062557Y-119594557D01*
X139114986Y-119516092D01*
X139114988Y-119516090D01*
X139270271Y-119283693D01*
X139270271Y-119283692D01*
X139270272Y-119283691D01*
X139324800Y-119009559D01*
X139324800Y-119009554D01*
X139343210Y-118917000D01*
X139324800Y-118824446D01*
X139324800Y-117229842D01*
X139342809Y-117217809D01*
X139483157Y-117007765D01*
X139532440Y-116760000D01*
X139532440Y-116699800D01*
X142034723Y-116699800D01*
X144746560Y-119411637D01*
G36*
X96194778Y-101203000D02*
X96845222Y-101203000D01*
X96983975Y-101145527D01*
X99007187Y-103168739D01*
X99051117Y-103234485D01*
X99311573Y-103408516D01*
X99541249Y-103454201D01*
X99618800Y-103469627D01*
X99696351Y-103454201D01*
X100642330Y-103454201D01*
X100627073Y-103495468D01*
X101600000Y-104468395D01*
X102572927Y-103495468D01*
X102557670Y-103454201D01*
X103021560Y-103454201D01*
X102787689Y-103688072D01*
X102752532Y-103675073D01*
X101779605Y-104648000D01*
X102752532Y-105620927D01*
X102787689Y-105607928D01*
X103213847Y-106034086D01*
X103596414Y-106192551D01*
X103492191Y-106262191D01*
X103351843Y-106472235D01*
X103302560Y-106720000D01*
X103302560Y-109220000D01*
X103351843Y-109467765D01*
X103492191Y-109677809D01*
X103662601Y-109791674D01*
X103662601Y-109804552D01*
X103514490Y-109952663D01*
X103301810Y-110466119D01*
X103301810Y-111021881D01*
X103514490Y-111535337D01*
X103907473Y-111928320D01*
X104420929Y-112141000D01*
X104976691Y-112141000D01*
X105490147Y-111928320D01*
X105689405Y-111729062D01*
X105888663Y-111928320D01*
X106402119Y-112141000D01*
X106957881Y-112141000D01*
X107471337Y-111928320D01*
X107864320Y-111535337D01*
X108077000Y-111021881D01*
X108077000Y-110769417D01*
X109112321Y-111804739D01*
X109156251Y-111870485D01*
X109416707Y-112044516D01*
X109646383Y-112090201D01*
X109723934Y-112105627D01*
X109801485Y-112090201D01*
X111178514Y-112090201D01*
X111256065Y-112105627D01*
X111333616Y-112090201D01*
X111333617Y-112090201D01*
X111563293Y-112044516D01*
X111823749Y-111870485D01*
X111867681Y-111804736D01*
X112903000Y-110769418D01*
X112903000Y-111021881D01*
X113115680Y-111535337D01*
X113508663Y-111928320D01*
X113512601Y-111929951D01*
X113512600Y-116309317D01*
X113497174Y-116386868D01*
X113512600Y-116464419D01*
X113558285Y-116694095D01*
X113732316Y-116954552D01*
X113798065Y-116998484D01*
X116676318Y-119876738D01*
X116720248Y-119942484D01*
X116980704Y-120116515D01*
X117210380Y-120162200D01*
X117210381Y-120162200D01*
X117287932Y-120177626D01*
X117365483Y-120162200D01*
X118402560Y-120162200D01*
X118402560Y-120587401D01*
X115572750Y-120587401D01*
X115495199Y-120571975D01*
X115417648Y-120587401D01*
X115417647Y-120587401D01*
X115187971Y-120633086D01*
X114927515Y-120807117D01*
X114883585Y-120872863D01*
X114483888Y-121272560D01*
X113950000Y-121272560D01*
X113702235Y-121321843D01*
X113492191Y-121462191D01*
X113450000Y-121525334D01*
X113407809Y-121462191D01*
X113269729Y-121369928D01*
X113452320Y-121187337D01*
X113665000Y-120673881D01*
X113665000Y-120118119D01*
X113452320Y-119604663D01*
X113059337Y-119211680D01*
X112545881Y-118999000D01*
X111990119Y-118999000D01*
X111476663Y-119211680D01*
X111252000Y-119436343D01*
X111027337Y-119211680D01*
X110513881Y-118999000D01*
X109958119Y-118999000D01*
X109444663Y-119211680D01*
X109051680Y-119604663D01*
X108839000Y-120118119D01*
X108839000Y-120673881D01*
X109051680Y-121187337D01*
X109183311Y-121318968D01*
X108950000Y-121272560D01*
X107950000Y-121272560D01*
X107702235Y-121321843D01*
X107492191Y-121462191D01*
X107450000Y-121525334D01*
X107407809Y-121462191D01*
X107197765Y-121321843D01*
X106950000Y-121272560D01*
X105950000Y-121272560D01*
X105702235Y-121321843D01*
X105492191Y-121462191D01*
X105450000Y-121525334D01*
X105407809Y-121462191D01*
X105197765Y-121321843D01*
X104950000Y-121272560D01*
X103950000Y-121272560D01*
X103702235Y-121321843D01*
X103492191Y-121462191D01*
X103351843Y-121672235D01*
X103302560Y-121920000D01*
X103302560Y-124420000D01*
X103351843Y-124667765D01*
X103492191Y-124877809D01*
X103662600Y-124991674D01*
X103662600Y-125128649D01*
X103647174Y-125206200D01*
X103662600Y-125283751D01*
X103708285Y-125513427D01*
X103882316Y-125773884D01*
X103948065Y-125817816D01*
X104492604Y-126362355D01*
X104415843Y-126477235D01*
X104366560Y-126725000D01*
X104366560Y-128225000D01*
X104415843Y-128472765D01*
X104556191Y-128682809D01*
X104766235Y-128823157D01*
X104775500Y-128825000D01*
X104766235Y-128826843D01*
X104556191Y-128967191D01*
X104415843Y-129177235D01*
X104366560Y-129425000D01*
X104366560Y-130925000D01*
X104415843Y-131172765D01*
X104556191Y-131382809D01*
X104766235Y-131523157D01*
X105014000Y-131572440D01*
X106314000Y-131572440D01*
X106561765Y-131523157D01*
X106771809Y-131382809D01*
X106897434Y-131194800D01*
X106944313Y-131194800D01*
X106955843Y-131252765D01*
X107096191Y-131462809D01*
X107306235Y-131603157D01*
X107554000Y-131652440D01*
X108854000Y-131652440D01*
X109101765Y-131603157D01*
X109311809Y-131462809D01*
X109452157Y-131252765D01*
X109489702Y-131064010D01*
X109587449Y-131044567D01*
X109864708Y-130859308D01*
X109911471Y-130789322D01*
X110195594Y-130505200D01*
X117562509Y-130505200D01*
X117047174Y-130718659D01*
X116418459Y-131347374D01*
X116078200Y-132168831D01*
X116078200Y-133057969D01*
X116418459Y-133879426D01*
X116829033Y-134290000D01*
X95710000Y-134290000D01*
X95710000Y-129555431D01*
X97765000Y-129555431D01*
X97765000Y-130444569D01*
X98105259Y-131266026D01*
X98733974Y-131894741D01*
X99555431Y-132235000D01*
X100444569Y-132235000D01*
X101266026Y-131894741D01*
X101894741Y-131266026D01*
X102235000Y-130444569D01*
X102235000Y-129555431D01*
X101894741Y-128733974D01*
X101266026Y-128105259D01*
X100444569Y-127765000D01*
X99555431Y-127765000D01*
X98733974Y-128105259D01*
X98105259Y-128733974D01*
X97765000Y-129555431D01*
X95710000Y-129555431D01*
X95710000Y-105800532D01*
X100627073Y-105800532D01*
X100725736Y-106067387D01*
X101335461Y-106293908D01*
X101985460Y-106269856D01*
X102474264Y-106067387D01*
X102572927Y-105800532D01*
X101600000Y-104827605D01*
X100627073Y-105800532D01*
X95710000Y-105800532D01*
X95710000Y-104383461D01*
X99954092Y-104383461D01*
X99978144Y-105033460D01*
X100180613Y-105522264D01*
X100447468Y-105620927D01*
X101420395Y-104648000D01*
X100447468Y-103675073D01*
X100180613Y-103773736D01*
X99954092Y-104383461D01*
X95710000Y-104383461D01*
X95710000Y-101002198D01*
X96194778Y-101203000D01*
X96194778Y-101203000D01*
G37*
X96194778Y-101203000D02*
X96845222Y-101203000D01*
X96983975Y-101145527D01*
X99007187Y-103168739D01*
X99051117Y-103234485D01*
X99311573Y-103408516D01*
X99541249Y-103454201D01*
X99618800Y-103469627D01*
X99696351Y-103454201D01*
X100642330Y-103454201D01*
X100627073Y-103495468D01*
X101600000Y-104468395D01*
X102572927Y-103495468D01*
X102557670Y-103454201D01*
X103021560Y-103454201D01*
X102787689Y-103688072D01*
X102752532Y-103675073D01*
X101779605Y-104648000D01*
X102752532Y-105620927D01*
X102787689Y-105607928D01*
X103213847Y-106034086D01*
X103596414Y-106192551D01*
X103492191Y-106262191D01*
X103351843Y-106472235D01*
X103302560Y-106720000D01*
X103302560Y-109220000D01*
X103351843Y-109467765D01*
X103492191Y-109677809D01*
X103662601Y-109791674D01*
X103662601Y-109804552D01*
X103514490Y-109952663D01*
X103301810Y-110466119D01*
X103301810Y-111021881D01*
X103514490Y-111535337D01*
X103907473Y-111928320D01*
X104420929Y-112141000D01*
X104976691Y-112141000D01*
X105490147Y-111928320D01*
X105689405Y-111729062D01*
X105888663Y-111928320D01*
X106402119Y-112141000D01*
X106957881Y-112141000D01*
X107471337Y-111928320D01*
X107864320Y-111535337D01*
X108077000Y-111021881D01*
X108077000Y-110769417D01*
X109112321Y-111804739D01*
X109156251Y-111870485D01*
X109416707Y-112044516D01*
X109646383Y-112090201D01*
X109723934Y-112105627D01*
X109801485Y-112090201D01*
X111178514Y-112090201D01*
X111256065Y-112105627D01*
X111333616Y-112090201D01*
X111333617Y-112090201D01*
X111563293Y-112044516D01*
X111823749Y-111870485D01*
X111867681Y-111804736D01*
X112903000Y-110769418D01*
X112903000Y-111021881D01*
X113115680Y-111535337D01*
X113508663Y-111928320D01*
X113512601Y-111929951D01*
X113512600Y-116309317D01*
X113497174Y-116386868D01*
X113512600Y-116464419D01*
X113558285Y-116694095D01*
X113732316Y-116954552D01*
X113798065Y-116998484D01*
X116676318Y-119876738D01*
X116720248Y-119942484D01*
X116980704Y-120116515D01*
X117210380Y-120162200D01*
X117210381Y-120162200D01*
X117287932Y-120177626D01*
X117365483Y-120162200D01*
X118402560Y-120162200D01*
X118402560Y-120587401D01*
X115572750Y-120587401D01*
X115495199Y-120571975D01*
X115417648Y-120587401D01*
X115417647Y-120587401D01*
X115187971Y-120633086D01*
X114927515Y-120807117D01*
X114883585Y-120872863D01*
X114483888Y-121272560D01*
X113950000Y-121272560D01*
X113702235Y-121321843D01*
X113492191Y-121462191D01*
X113450000Y-121525334D01*
X113407809Y-121462191D01*
X113269729Y-121369928D01*
X113452320Y-121187337D01*
X113665000Y-120673881D01*
X113665000Y-120118119D01*
X113452320Y-119604663D01*
X113059337Y-119211680D01*
X112545881Y-118999000D01*
X111990119Y-118999000D01*
X111476663Y-119211680D01*
X111252000Y-119436343D01*
X111027337Y-119211680D01*
X110513881Y-118999000D01*
X109958119Y-118999000D01*
X109444663Y-119211680D01*
X109051680Y-119604663D01*
X108839000Y-120118119D01*
X108839000Y-120673881D01*
X109051680Y-121187337D01*
X109183311Y-121318968D01*
X108950000Y-121272560D01*
X107950000Y-121272560D01*
X107702235Y-121321843D01*
X107492191Y-121462191D01*
X107450000Y-121525334D01*
X107407809Y-121462191D01*
X107197765Y-121321843D01*
X106950000Y-121272560D01*
X105950000Y-121272560D01*
X105702235Y-121321843D01*
X105492191Y-121462191D01*
X105450000Y-121525334D01*
X105407809Y-121462191D01*
X105197765Y-121321843D01*
X104950000Y-121272560D01*
X103950000Y-121272560D01*
X103702235Y-121321843D01*
X103492191Y-121462191D01*
X103351843Y-121672235D01*
X103302560Y-121920000D01*
X103302560Y-124420000D01*
X103351843Y-124667765D01*
X103492191Y-124877809D01*
X103662600Y-124991674D01*
X103662600Y-125128649D01*
X103647174Y-125206200D01*
X103662600Y-125283751D01*
X103708285Y-125513427D01*
X103882316Y-125773884D01*
X103948065Y-125817816D01*
X104492604Y-126362355D01*
X104415843Y-126477235D01*
X104366560Y-126725000D01*
X104366560Y-128225000D01*
X104415843Y-128472765D01*
X104556191Y-128682809D01*
X104766235Y-128823157D01*
X104775500Y-128825000D01*
X104766235Y-128826843D01*
X104556191Y-128967191D01*
X104415843Y-129177235D01*
X104366560Y-129425000D01*
X104366560Y-130925000D01*
X104415843Y-131172765D01*
X104556191Y-131382809D01*
X104766235Y-131523157D01*
X105014000Y-131572440D01*
X106314000Y-131572440D01*
X106561765Y-131523157D01*
X106771809Y-131382809D01*
X106897434Y-131194800D01*
X106944313Y-131194800D01*
X106955843Y-131252765D01*
X107096191Y-131462809D01*
X107306235Y-131603157D01*
X107554000Y-131652440D01*
X108854000Y-131652440D01*
X109101765Y-131603157D01*
X109311809Y-131462809D01*
X109452157Y-131252765D01*
X109489702Y-131064010D01*
X109587449Y-131044567D01*
X109864708Y-130859308D01*
X109911471Y-130789322D01*
X110195594Y-130505200D01*
X117562509Y-130505200D01*
X117047174Y-130718659D01*
X116418459Y-131347374D01*
X116078200Y-132168831D01*
X116078200Y-133057969D01*
X116418459Y-133879426D01*
X116829033Y-134290000D01*
X95710000Y-134290000D01*
X95710000Y-129555431D01*
X97765000Y-129555431D01*
X97765000Y-130444569D01*
X98105259Y-131266026D01*
X98733974Y-131894741D01*
X99555431Y-132235000D01*
X100444569Y-132235000D01*
X101266026Y-131894741D01*
X101894741Y-131266026D01*
X102235000Y-130444569D01*
X102235000Y-129555431D01*
X101894741Y-128733974D01*
X101266026Y-128105259D01*
X100444569Y-127765000D01*
X99555431Y-127765000D01*
X98733974Y-128105259D01*
X98105259Y-128733974D01*
X97765000Y-129555431D01*
X95710000Y-129555431D01*
X95710000Y-105800532D01*
X100627073Y-105800532D01*
X100725736Y-106067387D01*
X101335461Y-106293908D01*
X101985460Y-106269856D01*
X102474264Y-106067387D01*
X102572927Y-105800532D01*
X101600000Y-104827605D01*
X100627073Y-105800532D01*
X95710000Y-105800532D01*
X95710000Y-104383461D01*
X99954092Y-104383461D01*
X99978144Y-105033460D01*
X100180613Y-105522264D01*
X100447468Y-105620927D01*
X101420395Y-104648000D01*
X100447468Y-103675073D01*
X100180613Y-103773736D01*
X99954092Y-104383461D01*
X95710000Y-104383461D01*
X95710000Y-101002198D01*
X96194778Y-101203000D01*
G36*
X179290001Y-134290000D02*
X162963239Y-134290000D01*
X163231086Y-134022153D01*
X163480000Y-133421222D01*
X163480000Y-132770778D01*
X163231086Y-132169847D01*
X162771153Y-131709914D01*
X162632400Y-131652441D01*
X162632400Y-130624908D01*
X162647826Y-130547357D01*
X162624283Y-130429000D01*
X162586715Y-130240130D01*
X162412684Y-129979674D01*
X162346938Y-129935744D01*
X162268625Y-129857431D01*
X173279000Y-129857431D01*
X173279000Y-130746569D01*
X173619259Y-131568026D01*
X174247974Y-132196741D01*
X175069431Y-132537000D01*
X175958569Y-132537000D01*
X176780026Y-132196741D01*
X177408741Y-131568026D01*
X177749000Y-130746569D01*
X177749000Y-129857431D01*
X177408741Y-129035974D01*
X176780026Y-128407259D01*
X175958569Y-128067000D01*
X175069431Y-128067000D01*
X174247974Y-128407259D01*
X173619259Y-129035974D01*
X173279000Y-129857431D01*
X162268625Y-129857431D01*
X156407194Y-123996000D01*
X163297560Y-123996000D01*
X163297560Y-127196000D01*
X163346843Y-127443765D01*
X163487191Y-127653809D01*
X163697235Y-127794157D01*
X163945000Y-127843440D01*
X165945000Y-127843440D01*
X166192765Y-127794157D01*
X166402809Y-127653809D01*
X166543157Y-127443765D01*
X166592440Y-127196000D01*
X166592440Y-123996000D01*
X166543157Y-123748235D01*
X166402809Y-123538191D01*
X166192765Y-123397843D01*
X165945000Y-123348560D01*
X163945000Y-123348560D01*
X163697235Y-123397843D01*
X163487191Y-123538191D01*
X163346843Y-123748235D01*
X163297560Y-123996000D01*
X156407194Y-123996000D01*
X153321258Y-120910065D01*
X153277326Y-120844316D01*
X153043683Y-120688201D01*
X160462648Y-120688201D01*
X160540199Y-120703627D01*
X160617750Y-120688201D01*
X160617751Y-120688201D01*
X160847427Y-120642516D01*
X161107883Y-120468485D01*
X161151815Y-120402736D01*
X161381025Y-120173526D01*
X161519778Y-120231000D01*
X162170222Y-120231000D01*
X162771153Y-119982086D01*
X163231086Y-119522153D01*
X163480000Y-118921222D01*
X163480000Y-118270778D01*
X163231086Y-117669847D01*
X162771153Y-117209914D01*
X162170222Y-116961000D01*
X161519778Y-116961000D01*
X160918847Y-117209914D01*
X160458914Y-117669847D01*
X160210000Y-118270778D01*
X160210000Y-118921222D01*
X160267474Y-119059975D01*
X160214048Y-119113401D01*
X158396966Y-119113401D01*
X158490908Y-118860539D01*
X158466856Y-118210540D01*
X158264387Y-117721736D01*
X157997532Y-117623073D01*
X157024605Y-118596000D01*
X157038748Y-118610143D01*
X156859143Y-118789748D01*
X156845000Y-118775605D01*
X156830858Y-118789748D01*
X156651253Y-118610143D01*
X156665395Y-118596000D01*
X155692468Y-117623073D01*
X155425613Y-117721736D01*
X155199092Y-118331461D01*
X155223144Y-118981460D01*
X155277796Y-119113401D01*
X150745753Y-119113401D01*
X150510416Y-118878065D01*
X150466484Y-118812316D01*
X150225829Y-118651515D01*
X150192157Y-118482235D01*
X150051809Y-118272191D01*
X149841765Y-118131843D01*
X149594000Y-118082560D01*
X148094000Y-118082560D01*
X147846235Y-118131843D01*
X147636191Y-118272191D01*
X147495843Y-118482235D01*
X147494000Y-118491500D01*
X147492157Y-118482235D01*
X147351809Y-118272191D01*
X147333512Y-118259965D01*
X148150009Y-117443468D01*
X155872073Y-117443468D01*
X156845000Y-118416395D01*
X157817927Y-117443468D01*
X157719264Y-117176613D01*
X157109539Y-116950092D01*
X156459540Y-116974144D01*
X155970736Y-117176613D01*
X155872073Y-117443468D01*
X148150009Y-117443468D01*
X154765678Y-110827800D01*
X156220313Y-110827800D01*
X156231843Y-110885765D01*
X156372191Y-111095809D01*
X156582235Y-111236157D01*
X156830000Y-111285440D01*
X158130000Y-111285440D01*
X158377765Y-111236157D01*
X158587809Y-111095809D01*
X158728157Y-110885765D01*
X158777440Y-110638000D01*
X158777440Y-109138000D01*
X158728157Y-108890235D01*
X158587809Y-108680191D01*
X158377765Y-108539843D01*
X158368500Y-108538000D01*
X158377765Y-108536157D01*
X158587809Y-108395809D01*
X158728157Y-108185765D01*
X158777440Y-107938000D01*
X158777440Y-106438000D01*
X158728157Y-106190235D01*
X158587809Y-105980191D01*
X158424865Y-105871314D01*
X158448435Y-105866626D01*
X158739586Y-105672086D01*
X158934126Y-105380935D01*
X159002440Y-105037500D01*
X159002440Y-104112500D01*
X158934126Y-103769065D01*
X158739586Y-103477914D01*
X158448435Y-103283374D01*
X158105000Y-103215060D01*
X156855000Y-103215060D01*
X156511565Y-103283374D01*
X156220414Y-103477914D01*
X156025874Y-103769065D01*
X155957560Y-104112500D01*
X155957560Y-105037500D01*
X156025874Y-105380935D01*
X156220414Y-105672086D01*
X156511565Y-105866626D01*
X156535135Y-105871314D01*
X156372191Y-105980191D01*
X156231843Y-106190235D01*
X156182560Y-106438000D01*
X156182560Y-107938000D01*
X156231843Y-108185765D01*
X156372191Y-108395809D01*
X156582235Y-108536157D01*
X156591500Y-108538000D01*
X156582235Y-108539843D01*
X156372191Y-108680191D01*
X156231843Y-108890235D01*
X156220313Y-108948200D01*
X154468954Y-108948200D01*
X154376400Y-108929790D01*
X154283846Y-108948200D01*
X154283841Y-108948200D01*
X154009709Y-109002728D01*
X153940323Y-109049091D01*
X153777310Y-109158012D01*
X153777308Y-109158014D01*
X153698843Y-109210443D01*
X153646414Y-109288908D01*
X145544909Y-117390414D01*
X145466444Y-117442843D01*
X145454218Y-117461141D01*
X143153988Y-115160911D01*
X143101557Y-115082443D01*
X142790691Y-114874728D01*
X142516559Y-114820200D01*
X142516554Y-114820200D01*
X142424000Y-114801790D01*
X142331446Y-114820200D01*
X139600916Y-114820200D01*
X139851293Y-114569822D01*
X139929758Y-114517394D01*
X139986355Y-114432692D01*
X140137472Y-114206530D01*
X140137472Y-114206529D01*
X140137473Y-114206528D01*
X140192001Y-113932396D01*
X140192001Y-113932392D01*
X140210411Y-113839838D01*
X140192001Y-113747284D01*
X140192001Y-103454200D01*
X141433451Y-103454200D01*
X141516000Y-103470620D01*
X141598549Y-103454200D01*
X141598554Y-103454200D01*
X141843049Y-103405567D01*
X142120308Y-103220308D01*
X142167072Y-103150321D01*
X153035600Y-92281794D01*
X153035601Y-94131138D01*
X153033631Y-94130322D01*
X152477869Y-94130322D01*
X151964413Y-94343002D01*
X151571430Y-94735985D01*
X151358750Y-95249441D01*
X151358750Y-95805203D01*
X151571430Y-96318659D01*
X151964413Y-96711642D01*
X152477869Y-96924322D01*
X153033631Y-96924322D01*
X153547087Y-96711642D01*
X153605536Y-96653193D01*
X153640663Y-96688320D01*
X154154119Y-96901000D01*
X154709881Y-96901000D01*
X155223337Y-96688320D01*
X155422595Y-96489062D01*
X155621853Y-96688320D01*
X156135309Y-96901000D01*
X156691071Y-96901000D01*
X156743402Y-96879324D01*
X156743402Y-100262258D01*
X156511565Y-100308374D01*
X156220414Y-100502914D01*
X156025874Y-100794065D01*
X155957560Y-101137500D01*
X155957560Y-102062500D01*
X156025874Y-102405935D01*
X156220414Y-102697086D01*
X156511565Y-102891626D01*
X156855000Y-102959940D01*
X158105000Y-102959940D01*
X158448435Y-102891626D01*
X158739586Y-102697086D01*
X158934126Y-102405935D01*
X159002440Y-102062500D01*
X159002440Y-101137500D01*
X158934126Y-100794065D01*
X158739586Y-100502914D01*
X158448435Y-100308374D01*
X158318201Y-100282469D01*
X158318201Y-96732035D01*
X158726119Y-96901000D01*
X159281881Y-96901000D01*
X159795337Y-96688320D01*
X160015491Y-96468166D01*
X160015490Y-107014736D01*
X159997080Y-107107290D01*
X160015490Y-107199844D01*
X160015490Y-107199848D01*
X160070018Y-107473980D01*
X160070019Y-107473981D01*
X160070019Y-107473982D01*
X160208806Y-107681691D01*
X160277733Y-107784847D01*
X160356201Y-107837278D01*
X162636201Y-110117279D01*
X162636201Y-110872560D01*
X161880000Y-110872560D01*
X161536565Y-110940874D01*
X161245414Y-111135414D01*
X161050874Y-111426565D01*
X160982560Y-111770000D01*
X160982560Y-113020000D01*
X161050874Y-113363435D01*
X161245414Y-113654586D01*
X161536565Y-113849126D01*
X161692601Y-113880164D01*
X161692600Y-114279999D01*
X161482235Y-114321843D01*
X161272191Y-114462191D01*
X161131843Y-114672235D01*
X161082560Y-114920000D01*
X161082560Y-116220000D01*
X161131843Y-116467765D01*
X161272191Y-116677809D01*
X161482235Y-116818157D01*
X161730000Y-116867440D01*
X163230000Y-116867440D01*
X163477765Y-116818157D01*
X163687809Y-116677809D01*
X163828157Y-116467765D01*
X163830000Y-116458500D01*
X163831843Y-116467765D01*
X163972191Y-116677809D01*
X164182235Y-116818157D01*
X164430000Y-116867440D01*
X165248363Y-116867440D01*
X168224201Y-119843279D01*
X168224201Y-121268370D01*
X167954620Y-121380034D01*
X167354034Y-121980620D01*
X167029000Y-122765322D01*
X167029000Y-123614678D01*
X167354034Y-124399380D01*
X167954620Y-124999966D01*
X168739322Y-125325000D01*
X169588678Y-125325000D01*
X170373380Y-124999966D01*
X170973966Y-124399380D01*
X171299000Y-123614678D01*
X171299000Y-122765322D01*
X170973966Y-121980620D01*
X170373380Y-121380034D01*
X170103800Y-121268370D01*
X170103800Y-119546549D01*
X170122209Y-119453999D01*
X170103800Y-119361449D01*
X170103800Y-119361441D01*
X170049272Y-119087309D01*
X170049271Y-119087307D01*
X169893987Y-118854909D01*
X169893986Y-118854908D01*
X169841557Y-118776443D01*
X169763092Y-118724014D01*
X168744078Y-117705000D01*
X169588678Y-117705000D01*
X170373380Y-117379966D01*
X170973966Y-116779380D01*
X171299000Y-115994678D01*
X171299000Y-115145322D01*
X171187336Y-114875741D01*
X171720291Y-114342786D01*
X171798758Y-114290356D01*
X171975587Y-114025714D01*
X172006472Y-113979492D01*
X172006472Y-113979491D01*
X172006473Y-113979490D01*
X172061001Y-113705358D01*
X172061001Y-113705354D01*
X172079411Y-113612800D01*
X172061001Y-113520246D01*
X172061001Y-101744754D01*
X172079411Y-101652200D01*
X172061001Y-101559646D01*
X172061001Y-101559642D01*
X172006473Y-101285510D01*
X171993815Y-101266565D01*
X171851188Y-101053111D01*
X171798758Y-100974644D01*
X171720290Y-100922213D01*
X171393989Y-100595912D01*
X171393987Y-100595909D01*
X171187336Y-100389258D01*
X171299000Y-100119678D01*
X171299000Y-99270322D01*
X171187336Y-99000742D01*
X171393987Y-98794091D01*
X171393989Y-98794088D01*
X171720290Y-98467787D01*
X171798758Y-98415356D01*
X172006473Y-98104490D01*
X172061001Y-97830358D01*
X172061001Y-97830354D01*
X172079411Y-97737800D01*
X172061001Y-97645246D01*
X172061001Y-85869754D01*
X172079411Y-85777200D01*
X172061001Y-85684646D01*
X172061001Y-85684642D01*
X172006473Y-85410510D01*
X171993815Y-85391565D01*
X171862294Y-85194732D01*
X171798758Y-85099644D01*
X171720291Y-85047214D01*
X171187336Y-84514259D01*
X171299000Y-84244678D01*
X171299000Y-83395322D01*
X171187336Y-83125742D01*
X171393987Y-82919091D01*
X171393989Y-82919088D01*
X171720290Y-82592787D01*
X171798758Y-82540356D01*
X171989729Y-82254549D01*
X172006472Y-82229492D01*
X172006472Y-82229491D01*
X172006473Y-82229490D01*
X172061001Y-81955358D01*
X172061001Y-81955354D01*
X172079411Y-81862800D01*
X172061001Y-81770246D01*
X172061001Y-69994754D01*
X172079411Y-69902200D01*
X172061001Y-69809646D01*
X172061001Y-69809642D01*
X172006473Y-69535510D01*
X171798758Y-69224644D01*
X171720291Y-69172214D01*
X171187336Y-68639259D01*
X171299000Y-68369678D01*
X171299000Y-67520322D01*
X171187336Y-67250741D01*
X171720291Y-66717786D01*
X171798758Y-66665356D01*
X172006473Y-66354490D01*
X172061001Y-66080358D01*
X172061001Y-66080354D01*
X172079411Y-65987800D01*
X172061001Y-65895246D01*
X172061001Y-54119754D01*
X172079411Y-54027200D01*
X172061001Y-53934646D01*
X172061001Y-53934642D01*
X172006473Y-53660510D01*
X171798758Y-53349644D01*
X171720290Y-53297213D01*
X171393989Y-52970912D01*
X171393987Y-52970909D01*
X171187336Y-52764258D01*
X171299000Y-52494678D01*
X171299000Y-51645322D01*
X170973966Y-50860620D01*
X170373380Y-50260034D01*
X169588678Y-49935000D01*
X168739322Y-49935000D01*
X167954620Y-50260034D01*
X167354034Y-50860620D01*
X167029000Y-51645322D01*
X167029000Y-52494678D01*
X167252256Y-53033666D01*
X165293363Y-54992560D01*
X164906637Y-54992560D01*
X162844039Y-52929962D01*
X163025387Y-52926497D01*
X163734582Y-52632739D01*
X163894365Y-52313970D01*
X162560000Y-50979605D01*
X162545858Y-50993748D01*
X162366253Y-50814143D01*
X162380395Y-50800000D01*
X162739605Y-50800000D01*
X164073970Y-52134365D01*
X164392739Y-51974582D01*
X164702723Y-51183813D01*
X164686497Y-50334613D01*
X164392739Y-49625418D01*
X164073970Y-49465635D01*
X162739605Y-50800000D01*
X162380395Y-50800000D01*
X161046030Y-49465635D01*
X160727261Y-49625418D01*
X160417277Y-50416187D01*
X160433503Y-51265387D01*
X160472775Y-51360199D01*
X157018865Y-51360199D01*
X157075000Y-51224678D01*
X157075000Y-50375322D01*
X156749966Y-49590620D01*
X156445376Y-49286030D01*
X161225635Y-49286030D01*
X162560000Y-50620395D01*
X163894365Y-49286030D01*
X163734582Y-48967261D01*
X162943813Y-48657277D01*
X162094613Y-48673503D01*
X161385418Y-48967261D01*
X161225635Y-49286030D01*
X156445376Y-49286030D01*
X156149380Y-48990034D01*
X155364678Y-48665000D01*
X154515322Y-48665000D01*
X153730620Y-48990034D01*
X153130034Y-49590620D01*
X152805000Y-50375322D01*
X152805000Y-51224678D01*
X153130034Y-52009380D01*
X153730620Y-52609966D01*
X154515322Y-52935000D01*
X155364678Y-52935000D01*
X155634258Y-52823336D01*
X155710013Y-52899091D01*
X155762442Y-52977556D01*
X155840907Y-53029985D01*
X155840909Y-53029987D01*
X156073306Y-53185270D01*
X156073307Y-53185270D01*
X156073308Y-53185271D01*
X156347440Y-53239799D01*
X156347445Y-53239799D01*
X156439999Y-53258209D01*
X156532553Y-53239799D01*
X160495722Y-53239799D01*
X162248483Y-54992560D01*
X161662500Y-54992560D01*
X161319065Y-55060874D01*
X161027914Y-55255414D01*
X160833374Y-55546565D01*
X160765060Y-55890000D01*
X160765060Y-57140000D01*
X160833374Y-57483435D01*
X161027914Y-57774586D01*
X161239214Y-57915771D01*
X161192191Y-57947191D01*
X161051843Y-58157235D01*
X161002560Y-58405000D01*
X161002560Y-59705000D01*
X161051843Y-59952765D01*
X161192191Y-60162809D01*
X161402235Y-60303157D01*
X161650000Y-60352440D01*
X162952999Y-60352440D01*
X162952999Y-68864999D01*
X162805000Y-68835560D01*
X161880000Y-68835560D01*
X161536565Y-68903874D01*
X161245414Y-69098414D01*
X161050874Y-69389565D01*
X160982560Y-69733000D01*
X160982560Y-70983000D01*
X161050874Y-71326435D01*
X161245414Y-71617586D01*
X161465058Y-71764347D01*
X161402235Y-71776843D01*
X161192191Y-71917191D01*
X161051843Y-72127235D01*
X161002560Y-72375000D01*
X161002560Y-73675000D01*
X161051843Y-73922765D01*
X161192191Y-74132809D01*
X161402235Y-74273157D01*
X161650000Y-74322440D01*
X162953000Y-74322440D01*
X162953000Y-79557922D01*
X161830012Y-80680911D01*
X161674729Y-80913308D01*
X161667470Y-80949800D01*
X156546548Y-80949800D01*
X156463999Y-80933380D01*
X156381450Y-80949800D01*
X156381446Y-80949800D01*
X156136951Y-80998433D01*
X156136949Y-80998434D01*
X156136950Y-80998434D01*
X155929677Y-81136929D01*
X155929676Y-81136930D01*
X155859692Y-81183692D01*
X155812930Y-81253676D01*
X155247440Y-81819166D01*
X155247440Y-81270043D01*
X155294436Y-81238641D01*
X155372904Y-81186210D01*
X155425335Y-81107742D01*
X155824090Y-80708987D01*
X155902557Y-80656557D01*
X156077506Y-80394729D01*
X156110271Y-80345693D01*
X156110271Y-80345692D01*
X156110272Y-80345691D01*
X156164800Y-80071559D01*
X156164800Y-80071551D01*
X156183209Y-79979001D01*
X156164800Y-79886451D01*
X156164800Y-79883000D01*
X159512000Y-79883000D01*
X159560601Y-79873333D01*
X159601803Y-79845803D01*
X159629333Y-79804601D01*
X159639000Y-79756000D01*
X159639000Y-55372000D01*
X159629333Y-55323399D01*
X159601803Y-55282197D01*
X159560601Y-55254667D01*
X159512000Y-55245000D01*
X152527000Y-55245000D01*
X152527000Y-44555431D01*
X173025000Y-44555431D01*
X173025000Y-45444569D01*
X173365259Y-46266026D01*
X173993974Y-46894741D01*
X174815431Y-47235000D01*
X175704569Y-47235000D01*
X176526026Y-46894741D01*
X177154741Y-46266026D01*
X177495000Y-45444569D01*
X177495000Y-44555431D01*
X177154741Y-43733974D01*
X176526026Y-43105259D01*
X175704569Y-42765000D01*
X174815431Y-42765000D01*
X173993974Y-43105259D01*
X173365259Y-43733974D01*
X173025000Y-44555431D01*
X152527000Y-44555431D01*
X152527000Y-40710000D01*
X179290000Y-40710000D01*
X179290001Y-134290000D01*
X179290001Y-134290000D01*
G37*
X179290001Y-134290000D02*
X162963239Y-134290000D01*
X163231086Y-134022153D01*
X163480000Y-133421222D01*
X163480000Y-132770778D01*
X163231086Y-132169847D01*
X162771153Y-131709914D01*
X162632400Y-131652441D01*
X162632400Y-130624908D01*
X162647826Y-130547357D01*
X162624283Y-130429000D01*
X162586715Y-130240130D01*
X162412684Y-129979674D01*
X162346938Y-129935744D01*
X162268625Y-129857431D01*
X173279000Y-129857431D01*
X173279000Y-130746569D01*
X173619259Y-131568026D01*
X174247974Y-132196741D01*
X175069431Y-132537000D01*
X175958569Y-132537000D01*
X176780026Y-132196741D01*
X177408741Y-131568026D01*
X177749000Y-130746569D01*
X177749000Y-129857431D01*
X177408741Y-129035974D01*
X176780026Y-128407259D01*
X175958569Y-128067000D01*
X175069431Y-128067000D01*
X174247974Y-128407259D01*
X173619259Y-129035974D01*
X173279000Y-129857431D01*
X162268625Y-129857431D01*
X156407194Y-123996000D01*
X163297560Y-123996000D01*
X163297560Y-127196000D01*
X163346843Y-127443765D01*
X163487191Y-127653809D01*
X163697235Y-127794157D01*
X163945000Y-127843440D01*
X165945000Y-127843440D01*
X166192765Y-127794157D01*
X166402809Y-127653809D01*
X166543157Y-127443765D01*
X166592440Y-127196000D01*
X166592440Y-123996000D01*
X166543157Y-123748235D01*
X166402809Y-123538191D01*
X166192765Y-123397843D01*
X165945000Y-123348560D01*
X163945000Y-123348560D01*
X163697235Y-123397843D01*
X163487191Y-123538191D01*
X163346843Y-123748235D01*
X163297560Y-123996000D01*
X156407194Y-123996000D01*
X153321258Y-120910065D01*
X153277326Y-120844316D01*
X153043683Y-120688201D01*
X160462648Y-120688201D01*
X160540199Y-120703627D01*
X160617750Y-120688201D01*
X160617751Y-120688201D01*
X160847427Y-120642516D01*
X161107883Y-120468485D01*
X161151815Y-120402736D01*
X161381025Y-120173526D01*
X161519778Y-120231000D01*
X162170222Y-120231000D01*
X162771153Y-119982086D01*
X163231086Y-119522153D01*
X163480000Y-118921222D01*
X163480000Y-118270778D01*
X163231086Y-117669847D01*
X162771153Y-117209914D01*
X162170222Y-116961000D01*
X161519778Y-116961000D01*
X160918847Y-117209914D01*
X160458914Y-117669847D01*
X160210000Y-118270778D01*
X160210000Y-118921222D01*
X160267474Y-119059975D01*
X160214048Y-119113401D01*
X158396966Y-119113401D01*
X158490908Y-118860539D01*
X158466856Y-118210540D01*
X158264387Y-117721736D01*
X157997532Y-117623073D01*
X157024605Y-118596000D01*
X157038748Y-118610143D01*
X156859143Y-118789748D01*
X156845000Y-118775605D01*
X156830858Y-118789748D01*
X156651253Y-118610143D01*
X156665395Y-118596000D01*
X155692468Y-117623073D01*
X155425613Y-117721736D01*
X155199092Y-118331461D01*
X155223144Y-118981460D01*
X155277796Y-119113401D01*
X150745753Y-119113401D01*
X150510416Y-118878065D01*
X150466484Y-118812316D01*
X150225829Y-118651515D01*
X150192157Y-118482235D01*
X150051809Y-118272191D01*
X149841765Y-118131843D01*
X149594000Y-118082560D01*
X148094000Y-118082560D01*
X147846235Y-118131843D01*
X147636191Y-118272191D01*
X147495843Y-118482235D01*
X147494000Y-118491500D01*
X147492157Y-118482235D01*
X147351809Y-118272191D01*
X147333512Y-118259965D01*
X148150009Y-117443468D01*
X155872073Y-117443468D01*
X156845000Y-118416395D01*
X157817927Y-117443468D01*
X157719264Y-117176613D01*
X157109539Y-116950092D01*
X156459540Y-116974144D01*
X155970736Y-117176613D01*
X155872073Y-117443468D01*
X148150009Y-117443468D01*
X154765678Y-110827800D01*
X156220313Y-110827800D01*
X156231843Y-110885765D01*
X156372191Y-111095809D01*
X156582235Y-111236157D01*
X156830000Y-111285440D01*
X158130000Y-111285440D01*
X158377765Y-111236157D01*
X158587809Y-111095809D01*
X158728157Y-110885765D01*
X158777440Y-110638000D01*
X158777440Y-109138000D01*
X158728157Y-108890235D01*
X158587809Y-108680191D01*
X158377765Y-108539843D01*
X158368500Y-108538000D01*
X158377765Y-108536157D01*
X158587809Y-108395809D01*
X158728157Y-108185765D01*
X158777440Y-107938000D01*
X158777440Y-106438000D01*
X158728157Y-106190235D01*
X158587809Y-105980191D01*
X158424865Y-105871314D01*
X158448435Y-105866626D01*
X158739586Y-105672086D01*
X158934126Y-105380935D01*
X159002440Y-105037500D01*
X159002440Y-104112500D01*
X158934126Y-103769065D01*
X158739586Y-103477914D01*
X158448435Y-103283374D01*
X158105000Y-103215060D01*
X156855000Y-103215060D01*
X156511565Y-103283374D01*
X156220414Y-103477914D01*
X156025874Y-103769065D01*
X155957560Y-104112500D01*
X155957560Y-105037500D01*
X156025874Y-105380935D01*
X156220414Y-105672086D01*
X156511565Y-105866626D01*
X156535135Y-105871314D01*
X156372191Y-105980191D01*
X156231843Y-106190235D01*
X156182560Y-106438000D01*
X156182560Y-107938000D01*
X156231843Y-108185765D01*
X156372191Y-108395809D01*
X156582235Y-108536157D01*
X156591500Y-108538000D01*
X156582235Y-108539843D01*
X156372191Y-108680191D01*
X156231843Y-108890235D01*
X156220313Y-108948200D01*
X154468954Y-108948200D01*
X154376400Y-108929790D01*
X154283846Y-108948200D01*
X154283841Y-108948200D01*
X154009709Y-109002728D01*
X153940323Y-109049091D01*
X153777310Y-109158012D01*
X153777308Y-109158014D01*
X153698843Y-109210443D01*
X153646414Y-109288908D01*
X145544909Y-117390414D01*
X145466444Y-117442843D01*
X145454218Y-117461141D01*
X143153988Y-115160911D01*
X143101557Y-115082443D01*
X142790691Y-114874728D01*
X142516559Y-114820200D01*
X142516554Y-114820200D01*
X142424000Y-114801790D01*
X142331446Y-114820200D01*
X139600916Y-114820200D01*
X139851293Y-114569822D01*
X139929758Y-114517394D01*
X139986355Y-114432692D01*
X140137472Y-114206530D01*
X140137472Y-114206529D01*
X140137473Y-114206528D01*
X140192001Y-113932396D01*
X140192001Y-113932392D01*
X140210411Y-113839838D01*
X140192001Y-113747284D01*
X140192001Y-103454200D01*
X141433451Y-103454200D01*
X141516000Y-103470620D01*
X141598549Y-103454200D01*
X141598554Y-103454200D01*
X141843049Y-103405567D01*
X142120308Y-103220308D01*
X142167072Y-103150321D01*
X153035600Y-92281794D01*
X153035601Y-94131138D01*
X153033631Y-94130322D01*
X152477869Y-94130322D01*
X151964413Y-94343002D01*
X151571430Y-94735985D01*
X151358750Y-95249441D01*
X151358750Y-95805203D01*
X151571430Y-96318659D01*
X151964413Y-96711642D01*
X152477869Y-96924322D01*
X153033631Y-96924322D01*
X153547087Y-96711642D01*
X153605536Y-96653193D01*
X153640663Y-96688320D01*
X154154119Y-96901000D01*
X154709881Y-96901000D01*
X155223337Y-96688320D01*
X155422595Y-96489062D01*
X155621853Y-96688320D01*
X156135309Y-96901000D01*
X156691071Y-96901000D01*
X156743402Y-96879324D01*
X156743402Y-100262258D01*
X156511565Y-100308374D01*
X156220414Y-100502914D01*
X156025874Y-100794065D01*
X155957560Y-101137500D01*
X155957560Y-102062500D01*
X156025874Y-102405935D01*
X156220414Y-102697086D01*
X156511565Y-102891626D01*
X156855000Y-102959940D01*
X158105000Y-102959940D01*
X158448435Y-102891626D01*
X158739586Y-102697086D01*
X158934126Y-102405935D01*
X159002440Y-102062500D01*
X159002440Y-101137500D01*
X158934126Y-100794065D01*
X158739586Y-100502914D01*
X158448435Y-100308374D01*
X158318201Y-100282469D01*
X158318201Y-96732035D01*
X158726119Y-96901000D01*
X159281881Y-96901000D01*
X159795337Y-96688320D01*
X160015491Y-96468166D01*
X160015490Y-107014736D01*
X159997080Y-107107290D01*
X160015490Y-107199844D01*
X160015490Y-107199848D01*
X160070018Y-107473980D01*
X160070019Y-107473981D01*
X160070019Y-107473982D01*
X160208806Y-107681691D01*
X160277733Y-107784847D01*
X160356201Y-107837278D01*
X162636201Y-110117279D01*
X162636201Y-110872560D01*
X161880000Y-110872560D01*
X161536565Y-110940874D01*
X161245414Y-111135414D01*
X161050874Y-111426565D01*
X160982560Y-111770000D01*
X160982560Y-113020000D01*
X161050874Y-113363435D01*
X161245414Y-113654586D01*
X161536565Y-113849126D01*
X161692601Y-113880164D01*
X161692600Y-114279999D01*
X161482235Y-114321843D01*
X161272191Y-114462191D01*
X161131843Y-114672235D01*
X161082560Y-114920000D01*
X161082560Y-116220000D01*
X161131843Y-116467765D01*
X161272191Y-116677809D01*
X161482235Y-116818157D01*
X161730000Y-116867440D01*
X163230000Y-116867440D01*
X163477765Y-116818157D01*
X163687809Y-116677809D01*
X163828157Y-116467765D01*
X163830000Y-116458500D01*
X163831843Y-116467765D01*
X163972191Y-116677809D01*
X164182235Y-116818157D01*
X164430000Y-116867440D01*
X165248363Y-116867440D01*
X168224201Y-119843279D01*
X168224201Y-121268370D01*
X167954620Y-121380034D01*
X167354034Y-121980620D01*
X167029000Y-122765322D01*
X167029000Y-123614678D01*
X167354034Y-124399380D01*
X167954620Y-124999966D01*
X168739322Y-125325000D01*
X169588678Y-125325000D01*
X170373380Y-124999966D01*
X170973966Y-124399380D01*
X171299000Y-123614678D01*
X171299000Y-122765322D01*
X170973966Y-121980620D01*
X170373380Y-121380034D01*
X170103800Y-121268370D01*
X170103800Y-119546549D01*
X170122209Y-119453999D01*
X170103800Y-119361449D01*
X170103800Y-119361441D01*
X170049272Y-119087309D01*
X170049271Y-119087307D01*
X169893987Y-118854909D01*
X169893986Y-118854908D01*
X169841557Y-118776443D01*
X169763092Y-118724014D01*
X168744078Y-117705000D01*
X169588678Y-117705000D01*
X170373380Y-117379966D01*
X170973966Y-116779380D01*
X171299000Y-115994678D01*
X171299000Y-115145322D01*
X171187336Y-114875741D01*
X171720291Y-114342786D01*
X171798758Y-114290356D01*
X171975587Y-114025714D01*
X172006472Y-113979492D01*
X172006472Y-113979491D01*
X172006473Y-113979490D01*
X172061001Y-113705358D01*
X172061001Y-113705354D01*
X172079411Y-113612800D01*
X172061001Y-113520246D01*
X172061001Y-101744754D01*
X172079411Y-101652200D01*
X172061001Y-101559646D01*
X172061001Y-101559642D01*
X172006473Y-101285510D01*
X171993815Y-101266565D01*
X171851188Y-101053111D01*
X171798758Y-100974644D01*
X171720290Y-100922213D01*
X171393989Y-100595912D01*
X171393987Y-100595909D01*
X171187336Y-100389258D01*
X171299000Y-100119678D01*
X171299000Y-99270322D01*
X171187336Y-99000742D01*
X171393987Y-98794091D01*
X171393989Y-98794088D01*
X171720290Y-98467787D01*
X171798758Y-98415356D01*
X172006473Y-98104490D01*
X172061001Y-97830358D01*
X172061001Y-97830354D01*
X172079411Y-97737800D01*
X172061001Y-97645246D01*
X172061001Y-85869754D01*
X172079411Y-85777200D01*
X172061001Y-85684646D01*
X172061001Y-85684642D01*
X172006473Y-85410510D01*
X171993815Y-85391565D01*
X171862294Y-85194732D01*
X171798758Y-85099644D01*
X171720291Y-85047214D01*
X171187336Y-84514259D01*
X171299000Y-84244678D01*
X171299000Y-83395322D01*
X171187336Y-83125742D01*
X171393987Y-82919091D01*
X171393989Y-82919088D01*
X171720290Y-82592787D01*
X171798758Y-82540356D01*
X171989729Y-82254549D01*
X172006472Y-82229492D01*
X172006472Y-82229491D01*
X172006473Y-82229490D01*
X172061001Y-81955358D01*
X172061001Y-81955354D01*
X172079411Y-81862800D01*
X172061001Y-81770246D01*
X172061001Y-69994754D01*
X172079411Y-69902200D01*
X172061001Y-69809646D01*
X172061001Y-69809642D01*
X172006473Y-69535510D01*
X171798758Y-69224644D01*
X171720291Y-69172214D01*
X171187336Y-68639259D01*
X171299000Y-68369678D01*
X171299000Y-67520322D01*
X171187336Y-67250741D01*
X171720291Y-66717786D01*
X171798758Y-66665356D01*
X172006473Y-66354490D01*
X172061001Y-66080358D01*
X172061001Y-66080354D01*
X172079411Y-65987800D01*
X172061001Y-65895246D01*
X172061001Y-54119754D01*
X172079411Y-54027200D01*
X172061001Y-53934646D01*
X172061001Y-53934642D01*
X172006473Y-53660510D01*
X171798758Y-53349644D01*
X171720290Y-53297213D01*
X171393989Y-52970912D01*
X171393987Y-52970909D01*
X171187336Y-52764258D01*
X171299000Y-52494678D01*
X171299000Y-51645322D01*
X170973966Y-50860620D01*
X170373380Y-50260034D01*
X169588678Y-49935000D01*
X168739322Y-49935000D01*
X167954620Y-50260034D01*
X167354034Y-50860620D01*
X167029000Y-51645322D01*
X167029000Y-52494678D01*
X167252256Y-53033666D01*
X165293363Y-54992560D01*
X164906637Y-54992560D01*
X162844039Y-52929962D01*
X163025387Y-52926497D01*
X163734582Y-52632739D01*
X163894365Y-52313970D01*
X162560000Y-50979605D01*
X162545858Y-50993748D01*
X162366253Y-50814143D01*
X162380395Y-50800000D01*
X162739605Y-50800000D01*
X164073970Y-52134365D01*
X164392739Y-51974582D01*
X164702723Y-51183813D01*
X164686497Y-50334613D01*
X164392739Y-49625418D01*
X164073970Y-49465635D01*
X162739605Y-50800000D01*
X162380395Y-50800000D01*
X161046030Y-49465635D01*
X160727261Y-49625418D01*
X160417277Y-50416187D01*
X160433503Y-51265387D01*
X160472775Y-51360199D01*
X157018865Y-51360199D01*
X157075000Y-51224678D01*
X157075000Y-50375322D01*
X156749966Y-49590620D01*
X156445376Y-49286030D01*
X161225635Y-49286030D01*
X162560000Y-50620395D01*
X163894365Y-49286030D01*
X163734582Y-48967261D01*
X162943813Y-48657277D01*
X162094613Y-48673503D01*
X161385418Y-48967261D01*
X161225635Y-49286030D01*
X156445376Y-49286030D01*
X156149380Y-48990034D01*
X155364678Y-48665000D01*
X154515322Y-48665000D01*
X153730620Y-48990034D01*
X153130034Y-49590620D01*
X152805000Y-50375322D01*
X152805000Y-51224678D01*
X153130034Y-52009380D01*
X153730620Y-52609966D01*
X154515322Y-52935000D01*
X155364678Y-52935000D01*
X155634258Y-52823336D01*
X155710013Y-52899091D01*
X155762442Y-52977556D01*
X155840907Y-53029985D01*
X155840909Y-53029987D01*
X156073306Y-53185270D01*
X156073307Y-53185270D01*
X156073308Y-53185271D01*
X156347440Y-53239799D01*
X156347445Y-53239799D01*
X156439999Y-53258209D01*
X156532553Y-53239799D01*
X160495722Y-53239799D01*
X162248483Y-54992560D01*
X161662500Y-54992560D01*
X161319065Y-55060874D01*
X161027914Y-55255414D01*
X160833374Y-55546565D01*
X160765060Y-55890000D01*
X160765060Y-57140000D01*
X160833374Y-57483435D01*
X161027914Y-57774586D01*
X161239214Y-57915771D01*
X161192191Y-57947191D01*
X161051843Y-58157235D01*
X161002560Y-58405000D01*
X161002560Y-59705000D01*
X161051843Y-59952765D01*
X161192191Y-60162809D01*
X161402235Y-60303157D01*
X161650000Y-60352440D01*
X162952999Y-60352440D01*
X162952999Y-68864999D01*
X162805000Y-68835560D01*
X161880000Y-68835560D01*
X161536565Y-68903874D01*
X161245414Y-69098414D01*
X161050874Y-69389565D01*
X160982560Y-69733000D01*
X160982560Y-70983000D01*
X161050874Y-71326435D01*
X161245414Y-71617586D01*
X161465058Y-71764347D01*
X161402235Y-71776843D01*
X161192191Y-71917191D01*
X161051843Y-72127235D01*
X161002560Y-72375000D01*
X161002560Y-73675000D01*
X161051843Y-73922765D01*
X161192191Y-74132809D01*
X161402235Y-74273157D01*
X161650000Y-74322440D01*
X162953000Y-74322440D01*
X162953000Y-79557922D01*
X161830012Y-80680911D01*
X161674729Y-80913308D01*
X161667470Y-80949800D01*
X156546548Y-80949800D01*
X156463999Y-80933380D01*
X156381450Y-80949800D01*
X156381446Y-80949800D01*
X156136951Y-80998433D01*
X156136949Y-80998434D01*
X156136950Y-80998434D01*
X155929677Y-81136929D01*
X155929676Y-81136930D01*
X155859692Y-81183692D01*
X155812930Y-81253676D01*
X155247440Y-81819166D01*
X155247440Y-81270043D01*
X155294436Y-81238641D01*
X155372904Y-81186210D01*
X155425335Y-81107742D01*
X155824090Y-80708987D01*
X155902557Y-80656557D01*
X156077506Y-80394729D01*
X156110271Y-80345693D01*
X156110271Y-80345692D01*
X156110272Y-80345691D01*
X156164800Y-80071559D01*
X156164800Y-80071551D01*
X156183209Y-79979001D01*
X156164800Y-79886451D01*
X156164800Y-79883000D01*
X159512000Y-79883000D01*
X159560601Y-79873333D01*
X159601803Y-79845803D01*
X159629333Y-79804601D01*
X159639000Y-79756000D01*
X159639000Y-55372000D01*
X159629333Y-55323399D01*
X159601803Y-55282197D01*
X159560601Y-55254667D01*
X159512000Y-55245000D01*
X152527000Y-55245000D01*
X152527000Y-44555431D01*
X173025000Y-44555431D01*
X173025000Y-45444569D01*
X173365259Y-46266026D01*
X173993974Y-46894741D01*
X174815431Y-47235000D01*
X175704569Y-47235000D01*
X176526026Y-46894741D01*
X177154741Y-46266026D01*
X177495000Y-45444569D01*
X177495000Y-44555431D01*
X177154741Y-43733974D01*
X176526026Y-43105259D01*
X175704569Y-42765000D01*
X174815431Y-42765000D01*
X173993974Y-43105259D01*
X173365259Y-43733974D01*
X173025000Y-44555431D01*
X152527000Y-44555431D01*
X152527000Y-40710000D01*
X179290000Y-40710000D01*
X179290001Y-134290000D01*
G36*
X115492191Y-124877809D02*
X115662601Y-124991674D01*
X115662601Y-125008444D01*
X115662600Y-125008449D01*
X115662600Y-125185743D01*
X115655680Y-125192663D01*
X115443000Y-125706119D01*
X115443000Y-126261881D01*
X115655680Y-126775337D01*
X116048663Y-127168320D01*
X116562119Y-127381000D01*
X117117881Y-127381000D01*
X117611801Y-127176412D01*
X117611801Y-128828800D01*
X109930950Y-128828800D01*
X109848400Y-128812380D01*
X109765849Y-128828800D01*
X109765846Y-128828800D01*
X109576307Y-128866502D01*
X109521350Y-128877433D01*
X109314077Y-129015929D01*
X109314076Y-129015930D01*
X109289550Y-129032318D01*
X109101765Y-128906843D01*
X109092500Y-128905000D01*
X109101765Y-128903157D01*
X109311809Y-128762809D01*
X109452157Y-128552765D01*
X109501440Y-128305000D01*
X109501440Y-126805000D01*
X109452157Y-126557235D01*
X109311809Y-126347191D01*
X109101765Y-126206843D01*
X108991400Y-126184890D01*
X108991400Y-125815246D01*
X109017684Y-125797684D01*
X109191715Y-125537228D01*
X109237400Y-125307552D01*
X109237400Y-125307551D01*
X109252826Y-125230000D01*
X109237400Y-125152447D01*
X109237400Y-124991674D01*
X109407809Y-124877809D01*
X109450000Y-124814666D01*
X109492191Y-124877809D01*
X109702235Y-125018157D01*
X109950000Y-125067440D01*
X110950000Y-125067440D01*
X111197765Y-125018157D01*
X111407809Y-124877809D01*
X111450000Y-124814666D01*
X111492191Y-124877809D01*
X111702235Y-125018157D01*
X111950000Y-125067440D01*
X112950000Y-125067440D01*
X113197765Y-125018157D01*
X113407809Y-124877809D01*
X113450000Y-124814666D01*
X113492191Y-124877809D01*
X113702235Y-125018157D01*
X113950000Y-125067440D01*
X114950000Y-125067440D01*
X115197765Y-125018157D01*
X115407809Y-124877809D01*
X115450000Y-124814666D01*
X115492191Y-124877809D01*
X115492191Y-124877809D01*
G37*
X115492191Y-124877809D02*
X115662601Y-124991674D01*
X115662601Y-125008444D01*
X115662600Y-125008449D01*
X115662600Y-125185743D01*
X115655680Y-125192663D01*
X115443000Y-125706119D01*
X115443000Y-126261881D01*
X115655680Y-126775337D01*
X116048663Y-127168320D01*
X116562119Y-127381000D01*
X117117881Y-127381000D01*
X117611801Y-127176412D01*
X117611801Y-128828800D01*
X109930950Y-128828800D01*
X109848400Y-128812380D01*
X109765849Y-128828800D01*
X109765846Y-128828800D01*
X109576307Y-128866502D01*
X109521350Y-128877433D01*
X109314077Y-129015929D01*
X109314076Y-129015930D01*
X109289550Y-129032318D01*
X109101765Y-128906843D01*
X109092500Y-128905000D01*
X109101765Y-128903157D01*
X109311809Y-128762809D01*
X109452157Y-128552765D01*
X109501440Y-128305000D01*
X109501440Y-126805000D01*
X109452157Y-126557235D01*
X109311809Y-126347191D01*
X109101765Y-126206843D01*
X108991400Y-126184890D01*
X108991400Y-125815246D01*
X109017684Y-125797684D01*
X109191715Y-125537228D01*
X109237400Y-125307552D01*
X109237400Y-125307551D01*
X109252826Y-125230000D01*
X109237400Y-125152447D01*
X109237400Y-124991674D01*
X109407809Y-124877809D01*
X109450000Y-124814666D01*
X109492191Y-124877809D01*
X109702235Y-125018157D01*
X109950000Y-125067440D01*
X110950000Y-125067440D01*
X111197765Y-125018157D01*
X111407809Y-124877809D01*
X111450000Y-124814666D01*
X111492191Y-124877809D01*
X111702235Y-125018157D01*
X111950000Y-125067440D01*
X112950000Y-125067440D01*
X113197765Y-125018157D01*
X113407809Y-124877809D01*
X113450000Y-124814666D01*
X113492191Y-124877809D01*
X113702235Y-125018157D01*
X113950000Y-125067440D01*
X114950000Y-125067440D01*
X115197765Y-125018157D01*
X115407809Y-124877809D01*
X115450000Y-124814666D01*
X115492191Y-124877809D01*
G36*
X138312401Y-113450559D02*
X137785908Y-113977053D01*
X137707444Y-114029481D01*
X137655015Y-114107946D01*
X137655012Y-114107949D01*
X137643619Y-114125000D01*
X137400750Y-114125000D01*
X137242000Y-114283750D01*
X137242000Y-114737678D01*
X137237560Y-114760000D01*
X137237560Y-116760000D01*
X137242000Y-116782322D01*
X137242000Y-117236250D01*
X137400750Y-117395000D01*
X137445201Y-117395000D01*
X137445201Y-118527721D01*
X136415123Y-119557800D01*
X133569554Y-119557800D01*
X133477000Y-119539390D01*
X133384446Y-119557800D01*
X133384441Y-119557800D01*
X133110309Y-119612328D01*
X133110308Y-119612329D01*
X133110307Y-119612329D01*
X132877910Y-119767612D01*
X132877908Y-119767614D01*
X132799443Y-119820043D01*
X132747014Y-119898508D01*
X123918323Y-128727200D01*
X119288200Y-128727200D01*
X119288200Y-127247657D01*
X119610119Y-127381000D01*
X120165881Y-127381000D01*
X120679337Y-127168320D01*
X121072320Y-126775337D01*
X121285000Y-126261881D01*
X121285000Y-125706119D01*
X121280607Y-125695513D01*
X121391714Y-125529229D01*
X121437399Y-125299553D01*
X121437399Y-125299552D01*
X121452825Y-125222002D01*
X121437399Y-125144451D01*
X121437399Y-123008152D01*
X122929938Y-121515614D01*
X122995684Y-121471684D01*
X123169715Y-121211228D01*
X123215400Y-120981552D01*
X123215400Y-120981551D01*
X123230826Y-120904001D01*
X123215400Y-120826450D01*
X123215400Y-114118151D01*
X123770152Y-113563400D01*
X127181849Y-113563400D01*
X127736600Y-114118152D01*
X127736601Y-116762444D01*
X127721174Y-116840000D01*
X127767310Y-117071939D01*
X127782286Y-117147228D01*
X127956317Y-117407684D01*
X128022063Y-117451614D01*
X128420386Y-117849937D01*
X128464316Y-117915684D01*
X128593970Y-118002316D01*
X128724770Y-118089714D01*
X128724771Y-118089714D01*
X128724772Y-118089715D01*
X128954448Y-118135400D01*
X129031999Y-118150826D01*
X129109550Y-118135400D01*
X135484249Y-118135400D01*
X135561800Y-118150826D01*
X135639351Y-118135400D01*
X135639352Y-118135400D01*
X135869028Y-118089715D01*
X136129484Y-117915684D01*
X136173416Y-117849935D01*
X136346935Y-117676416D01*
X136412684Y-117632484D01*
X136571366Y-117395000D01*
X136829250Y-117395000D01*
X136988000Y-117236250D01*
X136988000Y-116782322D01*
X136992440Y-116760000D01*
X136992440Y-114760000D01*
X136988000Y-114737678D01*
X136988000Y-114283750D01*
X136829250Y-114125000D01*
X136488691Y-114125000D01*
X136462364Y-114135905D01*
X136345000Y-114112560D01*
X135362400Y-114112560D01*
X135362400Y-111792550D01*
X135377826Y-111714999D01*
X135356946Y-111610029D01*
X135316715Y-111407772D01*
X135142684Y-111147316D01*
X135076938Y-111103386D01*
X132996417Y-109022866D01*
X132952485Y-108957117D01*
X132692029Y-108783086D01*
X132462353Y-108737401D01*
X132462352Y-108737401D01*
X132384801Y-108721975D01*
X132307250Y-108737401D01*
X119585000Y-108737401D01*
X119585000Y-108255750D01*
X119426250Y-108097000D01*
X118577000Y-108097000D01*
X118577000Y-108117000D01*
X118323000Y-108117000D01*
X118323000Y-108097000D01*
X118303000Y-108097000D01*
X118303000Y-107843000D01*
X118323000Y-107843000D01*
X118323000Y-107823000D01*
X118577000Y-107823000D01*
X118577000Y-107843000D01*
X119426250Y-107843000D01*
X119585000Y-107684250D01*
X119585000Y-106593691D01*
X119488327Y-106360302D01*
X119309699Y-106181673D01*
X119076310Y-106085000D01*
X118735750Y-106085000D01*
X118577002Y-106243748D01*
X118577002Y-106206550D01*
X118890941Y-105892611D01*
X135736238Y-105892611D01*
X135813789Y-105908037D01*
X135891340Y-105892611D01*
X135891341Y-105892611D01*
X136121017Y-105846926D01*
X136381473Y-105672895D01*
X136425405Y-105607146D01*
X137331025Y-104701527D01*
X137469778Y-104759000D01*
X138120222Y-104759000D01*
X138312402Y-104679396D01*
X138312401Y-113450559D01*
X138312401Y-113450559D01*
G37*
X138312401Y-113450559D02*
X137785908Y-113977053D01*
X137707444Y-114029481D01*
X137655015Y-114107946D01*
X137655012Y-114107949D01*
X137643619Y-114125000D01*
X137400750Y-114125000D01*
X137242000Y-114283750D01*
X137242000Y-114737678D01*
X137237560Y-114760000D01*
X137237560Y-116760000D01*
X137242000Y-116782322D01*
X137242000Y-117236250D01*
X137400750Y-117395000D01*
X137445201Y-117395000D01*
X137445201Y-118527721D01*
X136415123Y-119557800D01*
X133569554Y-119557800D01*
X133477000Y-119539390D01*
X133384446Y-119557800D01*
X133384441Y-119557800D01*
X133110309Y-119612328D01*
X133110308Y-119612329D01*
X133110307Y-119612329D01*
X132877910Y-119767612D01*
X132877908Y-119767614D01*
X132799443Y-119820043D01*
X132747014Y-119898508D01*
X123918323Y-128727200D01*
X119288200Y-128727200D01*
X119288200Y-127247657D01*
X119610119Y-127381000D01*
X120165881Y-127381000D01*
X120679337Y-127168320D01*
X121072320Y-126775337D01*
X121285000Y-126261881D01*
X121285000Y-125706119D01*
X121280607Y-125695513D01*
X121391714Y-125529229D01*
X121437399Y-125299553D01*
X121437399Y-125299552D01*
X121452825Y-125222002D01*
X121437399Y-125144451D01*
X121437399Y-123008152D01*
X122929938Y-121515614D01*
X122995684Y-121471684D01*
X123169715Y-121211228D01*
X123215400Y-120981552D01*
X123215400Y-120981551D01*
X123230826Y-120904001D01*
X123215400Y-120826450D01*
X123215400Y-114118151D01*
X123770152Y-113563400D01*
X127181849Y-113563400D01*
X127736600Y-114118152D01*
X127736601Y-116762444D01*
X127721174Y-116840000D01*
X127767310Y-117071939D01*
X127782286Y-117147228D01*
X127956317Y-117407684D01*
X128022063Y-117451614D01*
X128420386Y-117849937D01*
X128464316Y-117915684D01*
X128593970Y-118002316D01*
X128724770Y-118089714D01*
X128724771Y-118089714D01*
X128724772Y-118089715D01*
X128954448Y-118135400D01*
X129031999Y-118150826D01*
X129109550Y-118135400D01*
X135484249Y-118135400D01*
X135561800Y-118150826D01*
X135639351Y-118135400D01*
X135639352Y-118135400D01*
X135869028Y-118089715D01*
X136129484Y-117915684D01*
X136173416Y-117849935D01*
X136346935Y-117676416D01*
X136412684Y-117632484D01*
X136571366Y-117395000D01*
X136829250Y-117395000D01*
X136988000Y-117236250D01*
X136988000Y-116782322D01*
X136992440Y-116760000D01*
X136992440Y-114760000D01*
X136988000Y-114737678D01*
X136988000Y-114283750D01*
X136829250Y-114125000D01*
X136488691Y-114125000D01*
X136462364Y-114135905D01*
X136345000Y-114112560D01*
X135362400Y-114112560D01*
X135362400Y-111792550D01*
X135377826Y-111714999D01*
X135356946Y-111610029D01*
X135316715Y-111407772D01*
X135142684Y-111147316D01*
X135076938Y-111103386D01*
X132996417Y-109022866D01*
X132952485Y-108957117D01*
X132692029Y-108783086D01*
X132462353Y-108737401D01*
X132462352Y-108737401D01*
X132384801Y-108721975D01*
X132307250Y-108737401D01*
X119585000Y-108737401D01*
X119585000Y-108255750D01*
X119426250Y-108097000D01*
X118577000Y-108097000D01*
X118577000Y-108117000D01*
X118323000Y-108117000D01*
X118323000Y-108097000D01*
X118303000Y-108097000D01*
X118303000Y-107843000D01*
X118323000Y-107843000D01*
X118323000Y-107823000D01*
X118577000Y-107823000D01*
X118577000Y-107843000D01*
X119426250Y-107843000D01*
X119585000Y-107684250D01*
X119585000Y-106593691D01*
X119488327Y-106360302D01*
X119309699Y-106181673D01*
X119076310Y-106085000D01*
X118735750Y-106085000D01*
X118577002Y-106243748D01*
X118577002Y-106206550D01*
X118890941Y-105892611D01*
X135736238Y-105892611D01*
X135813789Y-105908037D01*
X135891340Y-105892611D01*
X135891341Y-105892611D01*
X136121017Y-105846926D01*
X136381473Y-105672895D01*
X136425405Y-105607146D01*
X137331025Y-104701527D01*
X137469778Y-104759000D01*
X138120222Y-104759000D01*
X138312402Y-104679396D01*
X138312401Y-113450559D01*
G36*
X163751843Y-105672765D02*
X163892191Y-105882809D01*
X164102235Y-106023157D01*
X164350000Y-106072440D01*
X165850000Y-106072440D01*
X166097765Y-106023157D01*
X166307809Y-105882809D01*
X166345830Y-105825907D01*
X167140664Y-106620741D01*
X167029000Y-106890322D01*
X167029000Y-107739678D01*
X167354034Y-108524380D01*
X167954620Y-109124966D01*
X168739322Y-109450000D01*
X169588678Y-109450000D01*
X170181401Y-109204486D01*
X170181401Y-113223522D01*
X169858259Y-113546664D01*
X169588678Y-113435000D01*
X168739322Y-113435000D01*
X168469741Y-113546664D01*
X166718988Y-111795911D01*
X166667167Y-111718357D01*
X166609126Y-111426565D01*
X166414586Y-111135414D01*
X166123435Y-110940874D01*
X165780000Y-110872560D01*
X164855000Y-110872560D01*
X164515800Y-110940032D01*
X164515800Y-109820554D01*
X164534210Y-109728000D01*
X164515800Y-109635446D01*
X164515800Y-109635441D01*
X164461272Y-109361309D01*
X164366852Y-109220000D01*
X164305988Y-109128910D01*
X164305986Y-109128908D01*
X164253557Y-109050443D01*
X164175092Y-108998014D01*
X161895090Y-106718013D01*
X161895090Y-106072440D01*
X163150000Y-106072440D01*
X163397765Y-106023157D01*
X163607809Y-105882809D01*
X163748157Y-105672765D01*
X163750000Y-105663500D01*
X163751843Y-105672765D01*
X163751843Y-105672765D01*
G37*
X163751843Y-105672765D02*
X163892191Y-105882809D01*
X164102235Y-106023157D01*
X164350000Y-106072440D01*
X165850000Y-106072440D01*
X166097765Y-106023157D01*
X166307809Y-105882809D01*
X166345830Y-105825907D01*
X167140664Y-106620741D01*
X167029000Y-106890322D01*
X167029000Y-107739678D01*
X167354034Y-108524380D01*
X167954620Y-109124966D01*
X168739322Y-109450000D01*
X169588678Y-109450000D01*
X170181401Y-109204486D01*
X170181401Y-113223522D01*
X169858259Y-113546664D01*
X169588678Y-113435000D01*
X168739322Y-113435000D01*
X168469741Y-113546664D01*
X166718988Y-111795911D01*
X166667167Y-111718357D01*
X166609126Y-111426565D01*
X166414586Y-111135414D01*
X166123435Y-110940874D01*
X165780000Y-110872560D01*
X164855000Y-110872560D01*
X164515800Y-110940032D01*
X164515800Y-109820554D01*
X164534210Y-109728000D01*
X164515800Y-109635446D01*
X164515800Y-109635441D01*
X164461272Y-109361309D01*
X164366852Y-109220000D01*
X164305988Y-109128910D01*
X164305986Y-109128908D01*
X164253557Y-109050443D01*
X164175092Y-108998014D01*
X161895090Y-106718013D01*
X161895090Y-106072440D01*
X163150000Y-106072440D01*
X163397765Y-106023157D01*
X163607809Y-105882809D01*
X163748157Y-105672765D01*
X163750000Y-105663500D01*
X163751843Y-105672765D01*
G36*
X128481191Y-95539809D02*
X128691235Y-95680157D01*
X128939000Y-95729440D01*
X129110117Y-95729440D01*
X129153729Y-95948692D01*
X129309012Y-96181089D01*
X129309015Y-96181092D01*
X129361444Y-96259557D01*
X129439908Y-96311986D01*
X130341560Y-97213638D01*
X130341560Y-97907000D01*
X130390843Y-98154765D01*
X130531191Y-98364809D01*
X130741235Y-98505157D01*
X130799200Y-98516687D01*
X130799201Y-99983436D01*
X130780789Y-100076000D01*
X130799200Y-100168559D01*
X130799201Y-101170721D01*
X130480922Y-101489000D01*
X129849778Y-101489000D01*
X129248847Y-101737914D01*
X128788914Y-102197847D01*
X128540000Y-102798778D01*
X128540000Y-103449222D01*
X128619603Y-103641401D01*
X117318749Y-103641401D01*
X117241198Y-103625975D01*
X117163647Y-103641401D01*
X116933971Y-103687086D01*
X116933970Y-103687087D01*
X116933969Y-103687087D01*
X116881947Y-103721847D01*
X116673515Y-103861117D01*
X116629585Y-103926863D01*
X114483889Y-106072560D01*
X113950000Y-106072560D01*
X113735027Y-106115320D01*
X113776157Y-106053765D01*
X113825440Y-105806000D01*
X113825440Y-104506000D01*
X113776157Y-104258235D01*
X113635809Y-104048191D01*
X113425765Y-103907843D01*
X113178000Y-103858560D01*
X112144112Y-103858560D01*
X110825351Y-102539800D01*
X117268046Y-102539800D01*
X117360600Y-102558210D01*
X117453154Y-102539800D01*
X117453159Y-102539800D01*
X117727291Y-102485272D01*
X118038157Y-102277557D01*
X118090588Y-102199089D01*
X124867878Y-95421800D01*
X128402339Y-95421800D01*
X128481191Y-95539809D01*
X128481191Y-95539809D01*
G37*
X128481191Y-95539809D02*
X128691235Y-95680157D01*
X128939000Y-95729440D01*
X129110117Y-95729440D01*
X129153729Y-95948692D01*
X129309012Y-96181089D01*
X129309015Y-96181092D01*
X129361444Y-96259557D01*
X129439908Y-96311986D01*
X130341560Y-97213638D01*
X130341560Y-97907000D01*
X130390843Y-98154765D01*
X130531191Y-98364809D01*
X130741235Y-98505157D01*
X130799200Y-98516687D01*
X130799201Y-99983436D01*
X130780789Y-100076000D01*
X130799200Y-100168559D01*
X130799201Y-101170721D01*
X130480922Y-101489000D01*
X129849778Y-101489000D01*
X129248847Y-101737914D01*
X128788914Y-102197847D01*
X128540000Y-102798778D01*
X128540000Y-103449222D01*
X128619603Y-103641401D01*
X117318749Y-103641401D01*
X117241198Y-103625975D01*
X117163647Y-103641401D01*
X116933971Y-103687086D01*
X116933970Y-103687087D01*
X116933969Y-103687087D01*
X116881947Y-103721847D01*
X116673515Y-103861117D01*
X116629585Y-103926863D01*
X114483889Y-106072560D01*
X113950000Y-106072560D01*
X113735027Y-106115320D01*
X113776157Y-106053765D01*
X113825440Y-105806000D01*
X113825440Y-104506000D01*
X113776157Y-104258235D01*
X113635809Y-104048191D01*
X113425765Y-103907843D01*
X113178000Y-103858560D01*
X112144112Y-103858560D01*
X110825351Y-102539800D01*
X117268046Y-102539800D01*
X117360600Y-102558210D01*
X117453154Y-102539800D01*
X117453159Y-102539800D01*
X117727291Y-102485272D01*
X118038157Y-102277557D01*
X118090588Y-102199089D01*
X124867878Y-95421800D01*
X128402339Y-95421800D01*
X128481191Y-95539809D01*
G36*
X170064909Y-101924987D02*
X170064912Y-101924989D01*
X170181402Y-102041479D01*
X170181402Y-105425514D01*
X169588678Y-105180000D01*
X168739322Y-105180000D01*
X168469741Y-105291664D01*
X167353988Y-104175911D01*
X167301557Y-104097443D01*
X167197511Y-104027921D01*
X167046267Y-103926863D01*
X166990691Y-103889728D01*
X166716559Y-103835200D01*
X166716554Y-103835200D01*
X166624000Y-103816790D01*
X166531446Y-103835200D01*
X166420070Y-103835200D01*
X166307809Y-103667191D01*
X166123287Y-103543897D01*
X166197086Y-103494586D01*
X166391626Y-103203435D01*
X166397322Y-103174800D01*
X166531446Y-103174800D01*
X166624000Y-103193210D01*
X166716554Y-103174800D01*
X166716559Y-103174800D01*
X166990691Y-103120272D01*
X167301557Y-102912557D01*
X167353988Y-102834089D01*
X168469741Y-101718336D01*
X168739322Y-101830000D01*
X169588678Y-101830000D01*
X169858258Y-101718336D01*
X170064909Y-101924987D01*
X170064909Y-101924987D01*
G37*
X170064909Y-101924987D02*
X170064912Y-101924989D01*
X170181402Y-102041479D01*
X170181402Y-105425514D01*
X169588678Y-105180000D01*
X168739322Y-105180000D01*
X168469741Y-105291664D01*
X167353988Y-104175911D01*
X167301557Y-104097443D01*
X167197511Y-104027921D01*
X167046267Y-103926863D01*
X166990691Y-103889728D01*
X166716559Y-103835200D01*
X166716554Y-103835200D01*
X166624000Y-103816790D01*
X166531446Y-103835200D01*
X166420070Y-103835200D01*
X166307809Y-103667191D01*
X166123287Y-103543897D01*
X166197086Y-103494586D01*
X166391626Y-103203435D01*
X166397322Y-103174800D01*
X166531446Y-103174800D01*
X166624000Y-103193210D01*
X166716554Y-103174800D01*
X166716559Y-103174800D01*
X166990691Y-103120272D01*
X167301557Y-102912557D01*
X167353988Y-102834089D01*
X168469741Y-101718336D01*
X168739322Y-101830000D01*
X169588678Y-101830000D01*
X169858258Y-101718336D01*
X170064909Y-101924987D01*
G36*
X137128813Y-101630232D02*
X136868847Y-101737914D01*
X136525000Y-102081761D01*
X136181153Y-101737914D01*
X135580222Y-101489000D01*
X134929778Y-101489000D01*
X134328847Y-101737914D01*
X133902689Y-102164072D01*
X133867532Y-102151073D01*
X132894605Y-103124000D01*
X132908748Y-103138143D01*
X132729143Y-103317748D01*
X132715000Y-103303605D01*
X132700858Y-103317748D01*
X132521253Y-103138143D01*
X132535395Y-103124000D01*
X132521253Y-103109858D01*
X132700858Y-102930253D01*
X132715000Y-102944395D01*
X133687927Y-101971468D01*
X133589264Y-101704613D01*
X132979539Y-101478092D01*
X132683099Y-101489061D01*
X132678800Y-101467447D01*
X132678800Y-101015800D01*
X136514381Y-101015800D01*
X137128813Y-101630232D01*
X137128813Y-101630232D01*
G37*
X137128813Y-101630232D02*
X136868847Y-101737914D01*
X136525000Y-102081761D01*
X136181153Y-101737914D01*
X135580222Y-101489000D01*
X134929778Y-101489000D01*
X134328847Y-101737914D01*
X133902689Y-102164072D01*
X133867532Y-102151073D01*
X132894605Y-103124000D01*
X132908748Y-103138143D01*
X132729143Y-103317748D01*
X132715000Y-103303605D01*
X132700858Y-103317748D01*
X132521253Y-103138143D01*
X132535395Y-103124000D01*
X132521253Y-103109858D01*
X132700858Y-102930253D01*
X132715000Y-102944395D01*
X133687927Y-101971468D01*
X133589264Y-101704613D01*
X132979539Y-101478092D01*
X132683099Y-101489061D01*
X132678800Y-101467447D01*
X132678800Y-101015800D01*
X136514381Y-101015800D01*
X137128813Y-101630232D01*
G36*
X130549488Y-86026966D02*
X130531191Y-86039191D01*
X130390843Y-86249235D01*
X130341560Y-86497000D01*
X130341560Y-87190362D01*
X129439908Y-88092014D01*
X129361444Y-88144443D01*
X129309015Y-88222908D01*
X129309012Y-88222911D01*
X129153729Y-88455308D01*
X129110117Y-88674560D01*
X128939000Y-88674560D01*
X128691235Y-88723843D01*
X128481191Y-88864191D01*
X128402339Y-88982200D01*
X122859800Y-88982200D01*
X122859800Y-85239632D01*
X122967765Y-85218157D01*
X123177809Y-85077809D01*
X123318157Y-84867765D01*
X123326117Y-84827745D01*
X123591861Y-84827745D01*
X123665995Y-85073864D01*
X124203223Y-85266965D01*
X124773454Y-85239778D01*
X125174005Y-85073864D01*
X125248139Y-84827745D01*
X124420000Y-83999605D01*
X123591861Y-84827745D01*
X123326117Y-84827745D01*
X123364693Y-84633813D01*
X123412255Y-84648139D01*
X124240395Y-83820000D01*
X124599605Y-83820000D01*
X125427745Y-84648139D01*
X125673864Y-84574005D01*
X125866965Y-84036777D01*
X125839778Y-83466546D01*
X125673864Y-83065995D01*
X125427745Y-82991861D01*
X124599605Y-83820000D01*
X124240395Y-83820000D01*
X123412255Y-82991861D01*
X123364693Y-83006187D01*
X123326118Y-82812255D01*
X123591861Y-82812255D01*
X124420000Y-83640395D01*
X125248139Y-82812255D01*
X125174005Y-82566136D01*
X124636777Y-82373035D01*
X124066546Y-82400222D01*
X123665995Y-82566136D01*
X123591861Y-82812255D01*
X123326118Y-82812255D01*
X123318157Y-82772235D01*
X123177809Y-82562191D01*
X122967765Y-82421843D01*
X122720000Y-82372560D01*
X121120000Y-82372560D01*
X120872235Y-82421843D01*
X120662191Y-82562191D01*
X120521843Y-82772235D01*
X120472560Y-83020000D01*
X120472560Y-84620000D01*
X120521843Y-84867765D01*
X120662191Y-85077809D01*
X120872235Y-85218157D01*
X120980200Y-85239632D01*
X120980201Y-88982200D01*
X103655554Y-88982200D01*
X103563000Y-88963790D01*
X103470446Y-88982200D01*
X103470441Y-88982200D01*
X103196309Y-89036728D01*
X103196307Y-89036729D01*
X103196308Y-89036729D01*
X102963910Y-89192012D01*
X102963908Y-89192014D01*
X102885443Y-89244443D01*
X102833014Y-89322908D01*
X98987923Y-93168000D01*
X98642119Y-93168000D01*
X98128663Y-93380680D01*
X97735680Y-93773663D01*
X97523000Y-94287119D01*
X97523000Y-94842881D01*
X97735680Y-95356337D01*
X98128663Y-95749320D01*
X98642119Y-95962000D01*
X99197881Y-95962000D01*
X99711337Y-95749320D01*
X99915444Y-95545213D01*
X113519392Y-95545213D01*
X113588857Y-95787397D01*
X114112302Y-95974144D01*
X114667368Y-95946362D01*
X115051143Y-95787397D01*
X115120608Y-95545213D01*
X114320000Y-94744605D01*
X113519392Y-95545213D01*
X99915444Y-95545213D01*
X100104320Y-95356337D01*
X100317000Y-94842881D01*
X100317000Y-94497077D01*
X100456775Y-94357302D01*
X112910856Y-94357302D01*
X112938638Y-94912368D01*
X113097603Y-95296143D01*
X113339787Y-95365608D01*
X114140395Y-94565000D01*
X114499605Y-94565000D01*
X115300213Y-95365608D01*
X115542397Y-95296143D01*
X115729144Y-94772698D01*
X115701362Y-94217632D01*
X115599513Y-93971745D01*
X121258861Y-93971745D01*
X121332995Y-94217864D01*
X121870223Y-94410965D01*
X122440454Y-94383778D01*
X122841005Y-94217864D01*
X122915139Y-93971745D01*
X122087000Y-93143605D01*
X121258861Y-93971745D01*
X115599513Y-93971745D01*
X115542397Y-93833857D01*
X115300213Y-93764392D01*
X114499605Y-94565000D01*
X114140395Y-94565000D01*
X113339787Y-93764392D01*
X113097603Y-93833857D01*
X112910856Y-94357302D01*
X100456775Y-94357302D01*
X101229290Y-93584787D01*
X113519392Y-93584787D01*
X114320000Y-94385395D01*
X115120608Y-93584787D01*
X115051143Y-93342603D01*
X114527698Y-93155856D01*
X113972632Y-93183638D01*
X113588857Y-93342603D01*
X113519392Y-93584787D01*
X101229290Y-93584787D01*
X102066854Y-92747223D01*
X120640035Y-92747223D01*
X120667222Y-93317454D01*
X120833136Y-93718005D01*
X121079255Y-93792139D01*
X121907395Y-92964000D01*
X121079255Y-92135861D01*
X120833136Y-92209995D01*
X120640035Y-92747223D01*
X102066854Y-92747223D01*
X102857822Y-91956255D01*
X121258861Y-91956255D01*
X122087000Y-92784395D01*
X122915139Y-91956255D01*
X122841005Y-91710136D01*
X122303777Y-91517035D01*
X121733546Y-91544222D01*
X121332995Y-91710136D01*
X121258861Y-91956255D01*
X102857822Y-91956255D01*
X103952278Y-90861800D01*
X121827441Y-90861800D01*
X121920000Y-90880211D01*
X122012559Y-90861800D01*
X128402339Y-90861800D01*
X128481191Y-90979809D01*
X128691235Y-91120157D01*
X128939000Y-91169440D01*
X131139000Y-91169440D01*
X131386765Y-91120157D01*
X131596809Y-90979809D01*
X131737157Y-90769765D01*
X131786440Y-90522000D01*
X131786440Y-89322000D01*
X131757338Y-89175690D01*
X132504000Y-89175690D01*
X132504000Y-91916250D01*
X132662750Y-92075000D01*
X136212000Y-92075000D01*
X136212000Y-88825750D01*
X136466000Y-88825750D01*
X136466000Y-92075000D01*
X140015250Y-92075000D01*
X140174000Y-91916250D01*
X140174000Y-89175690D01*
X140077327Y-88942301D01*
X139898698Y-88763673D01*
X139665309Y-88667000D01*
X136624750Y-88667000D01*
X136466000Y-88825750D01*
X136212000Y-88825750D01*
X136053250Y-88667000D01*
X133012691Y-88667000D01*
X132779302Y-88763673D01*
X132600673Y-88942301D01*
X132504000Y-89175690D01*
X131757338Y-89175690D01*
X131737157Y-89074235D01*
X131596809Y-88864191D01*
X131434403Y-88755674D01*
X131795638Y-88394440D01*
X132489000Y-88394440D01*
X132736765Y-88345157D01*
X132946809Y-88204809D01*
X132987654Y-88143680D01*
X133129302Y-88285327D01*
X133362691Y-88382000D01*
X133953250Y-88382000D01*
X134112000Y-88223250D01*
X134112000Y-87249000D01*
X134366000Y-87249000D01*
X134366000Y-88223250D01*
X134524750Y-88382000D01*
X135115309Y-88382000D01*
X135348698Y-88285327D01*
X135527327Y-88106699D01*
X135624000Y-87873310D01*
X135624000Y-87434750D01*
X153023000Y-87434750D01*
X153023000Y-88333250D01*
X153181750Y-88492000D01*
X153466506Y-88492000D01*
X153531690Y-88519000D01*
X153819750Y-88519000D01*
X153846750Y-88492000D01*
X153978500Y-88492000D01*
X153978500Y-88393750D01*
X154076750Y-88492000D01*
X154361506Y-88492000D01*
X154366190Y-88493940D01*
X154391250Y-88519000D01*
X154714750Y-88519000D01*
X154739810Y-88493940D01*
X154744494Y-88492000D01*
X155256506Y-88492000D01*
X155261190Y-88493940D01*
X155286250Y-88519000D01*
X155609750Y-88519000D01*
X155634810Y-88493940D01*
X155639494Y-88492000D01*
X156151506Y-88492000D01*
X156156190Y-88493940D01*
X156181250Y-88519000D01*
X156504750Y-88519000D01*
X156529810Y-88493940D01*
X156534494Y-88492000D01*
X156819250Y-88492000D01*
X156917500Y-88393750D01*
X156917500Y-88492000D01*
X157049250Y-88492000D01*
X157076250Y-88519000D01*
X157364310Y-88519000D01*
X157429494Y-88492000D01*
X157714250Y-88492000D01*
X157873000Y-88333250D01*
X157873000Y-87434750D01*
X157714250Y-87276000D01*
X157429494Y-87276000D01*
X157364310Y-87249000D01*
X157076250Y-87249000D01*
X157049250Y-87276000D01*
X156917500Y-87276000D01*
X156917500Y-87374250D01*
X156819250Y-87276000D01*
X156534494Y-87276000D01*
X156529810Y-87274060D01*
X156504750Y-87249000D01*
X156181250Y-87249000D01*
X156156190Y-87274060D01*
X156151506Y-87276000D01*
X155639494Y-87276000D01*
X155634810Y-87274060D01*
X155609750Y-87249000D01*
X155286250Y-87249000D01*
X155261190Y-87274060D01*
X155256506Y-87276000D01*
X154744494Y-87276000D01*
X154739810Y-87274060D01*
X154714750Y-87249000D01*
X154391250Y-87249000D01*
X154366190Y-87274060D01*
X154361506Y-87276000D01*
X154076750Y-87276000D01*
X153978500Y-87374250D01*
X153978500Y-87276000D01*
X153846750Y-87276000D01*
X153819750Y-87249000D01*
X153531690Y-87249000D01*
X153466506Y-87276000D01*
X153181750Y-87276000D01*
X153023000Y-87434750D01*
X135624000Y-87434750D01*
X135624000Y-87407750D01*
X135465250Y-87249000D01*
X134366000Y-87249000D01*
X134112000Y-87249000D01*
X134092000Y-87249000D01*
X134092000Y-86995000D01*
X134112000Y-86995000D01*
X134112000Y-86975000D01*
X134366000Y-86975000D01*
X134366000Y-86995000D01*
X135465250Y-86995000D01*
X135624000Y-86836250D01*
X135624000Y-86370690D01*
X135527327Y-86137301D01*
X135438826Y-86048800D01*
X152461453Y-86048800D01*
X152490191Y-86091809D01*
X152700235Y-86232157D01*
X152948000Y-86281440D01*
X153025589Y-86281440D01*
X153023000Y-86287691D01*
X153023000Y-86863250D01*
X153181750Y-87022000D01*
X153978500Y-87022000D01*
X153978500Y-87002000D01*
X154056750Y-87002000D01*
X154076750Y-87022000D01*
X156819250Y-87022000D01*
X156839250Y-87002000D01*
X156917500Y-87002000D01*
X156917500Y-87022000D01*
X157714250Y-87022000D01*
X157873000Y-86863250D01*
X157873000Y-86287691D01*
X157870411Y-86281440D01*
X157948000Y-86281440D01*
X158195765Y-86232157D01*
X158405809Y-86091809D01*
X158546157Y-85881765D01*
X158572201Y-85750832D01*
X158572200Y-90017164D01*
X158546157Y-89886235D01*
X158405809Y-89676191D01*
X158195765Y-89535843D01*
X157948000Y-89486560D01*
X157870411Y-89486560D01*
X157873000Y-89480309D01*
X157873000Y-88904750D01*
X157714250Y-88746000D01*
X156917500Y-88746000D01*
X156917500Y-88766000D01*
X156839250Y-88766000D01*
X156819250Y-88746000D01*
X154076750Y-88746000D01*
X154056750Y-88766000D01*
X153978500Y-88766000D01*
X153978500Y-88746000D01*
X153181750Y-88746000D01*
X153023000Y-88904750D01*
X153023000Y-89480309D01*
X153025589Y-89486560D01*
X152948000Y-89486560D01*
X152700235Y-89535843D01*
X152490191Y-89676191D01*
X152349843Y-89886235D01*
X152300560Y-90134000D01*
X152300560Y-90646046D01*
X141168807Y-101777800D01*
X139950347Y-101777800D01*
X139929758Y-101746986D01*
X139851293Y-101694557D01*
X137633646Y-99476911D01*
X137581215Y-99398443D01*
X137270349Y-99190728D01*
X136996217Y-99136200D01*
X136996212Y-99136200D01*
X136903658Y-99117790D01*
X136811104Y-99136200D01*
X132678800Y-99136200D01*
X132678800Y-98516687D01*
X132736765Y-98505157D01*
X132946809Y-98364809D01*
X132987654Y-98303680D01*
X133129302Y-98445327D01*
X133362691Y-98542000D01*
X133953250Y-98542000D01*
X134112000Y-98383250D01*
X134112000Y-97409000D01*
X134366000Y-97409000D01*
X134366000Y-98383250D01*
X134524750Y-98542000D01*
X135115309Y-98542000D01*
X135348698Y-98445327D01*
X135527327Y-98266699D01*
X135624000Y-98033310D01*
X135624000Y-97567750D01*
X135465250Y-97409000D01*
X134366000Y-97409000D01*
X134112000Y-97409000D01*
X134092000Y-97409000D01*
X134092000Y-97155000D01*
X134112000Y-97155000D01*
X134112000Y-96180750D01*
X134366000Y-96180750D01*
X134366000Y-97155000D01*
X135465250Y-97155000D01*
X135624000Y-96996250D01*
X135624000Y-96530690D01*
X135527327Y-96297301D01*
X135348698Y-96118673D01*
X135115309Y-96022000D01*
X134524750Y-96022000D01*
X134366000Y-96180750D01*
X134112000Y-96180750D01*
X133953250Y-96022000D01*
X133362691Y-96022000D01*
X133129302Y-96118673D01*
X132987654Y-96260320D01*
X132946809Y-96199191D01*
X132736765Y-96058843D01*
X132489000Y-96009560D01*
X131795638Y-96009560D01*
X131434403Y-95648326D01*
X131596809Y-95539809D01*
X131737157Y-95329765D01*
X131786440Y-95082000D01*
X131786440Y-93882000D01*
X131737157Y-93634235D01*
X131596809Y-93424191D01*
X131386765Y-93283843D01*
X131139000Y-93234560D01*
X128939000Y-93234560D01*
X128691235Y-93283843D01*
X128481191Y-93424191D01*
X128402339Y-93542200D01*
X126034440Y-93542200D01*
X126034440Y-92487750D01*
X132504000Y-92487750D01*
X132504000Y-95228310D01*
X132600673Y-95461699D01*
X132779302Y-95640327D01*
X133012691Y-95737000D01*
X136053250Y-95737000D01*
X136212000Y-95578250D01*
X136212000Y-92329000D01*
X136466000Y-92329000D01*
X136466000Y-95578250D01*
X136624750Y-95737000D01*
X139665309Y-95737000D01*
X139898698Y-95640327D01*
X140077327Y-95461699D01*
X140174000Y-95228310D01*
X140174000Y-92487750D01*
X140015250Y-92329000D01*
X136466000Y-92329000D01*
X136212000Y-92329000D01*
X132662750Y-92329000D01*
X132504000Y-92487750D01*
X126034440Y-92487750D01*
X126034440Y-92164000D01*
X125985157Y-91916235D01*
X125844809Y-91706191D01*
X125634765Y-91565843D01*
X125387000Y-91516560D01*
X123787000Y-91516560D01*
X123539235Y-91565843D01*
X123329191Y-91706191D01*
X123188843Y-91916235D01*
X123142307Y-92150187D01*
X123094745Y-92135861D01*
X122266605Y-92964000D01*
X123094745Y-93792139D01*
X123142307Y-93777813D01*
X123188843Y-94011765D01*
X123329191Y-94221809D01*
X123377460Y-94254062D01*
X118449736Y-99181786D01*
X118226086Y-98641847D01*
X117766153Y-98181914D01*
X117165222Y-97933000D01*
X116514778Y-97933000D01*
X115913847Y-98181914D01*
X115570000Y-98525761D01*
X115226153Y-98181914D01*
X114625222Y-97933000D01*
X113974778Y-97933000D01*
X113373847Y-98181914D01*
X113030000Y-98525761D01*
X112686153Y-98181914D01*
X112085222Y-97933000D01*
X111434778Y-97933000D01*
X110833847Y-98181914D01*
X110490000Y-98525761D01*
X110146153Y-98181914D01*
X109545222Y-97933000D01*
X108894778Y-97933000D01*
X108293847Y-98181914D01*
X107950000Y-98525761D01*
X107606153Y-98181914D01*
X107005222Y-97933000D01*
X106354778Y-97933000D01*
X105753847Y-98181914D01*
X105410000Y-98525761D01*
X105066153Y-98181914D01*
X104465222Y-97933000D01*
X103814778Y-97933000D01*
X103213847Y-98181914D01*
X102870000Y-98525761D01*
X102526153Y-98181914D01*
X101925222Y-97933000D01*
X101274778Y-97933000D01*
X100673847Y-98181914D01*
X100330000Y-98525761D01*
X99986153Y-98181914D01*
X99385222Y-97933000D01*
X98734778Y-97933000D01*
X98133847Y-98181914D01*
X97790000Y-98525761D01*
X97446153Y-98181914D01*
X96845222Y-97933000D01*
X96194778Y-97933000D01*
X95710000Y-98133802D01*
X95710000Y-79883000D01*
X124405523Y-79883000D01*
X130549488Y-86026966D01*
X130549488Y-86026966D01*
G37*
X130549488Y-86026966D02*
X130531191Y-86039191D01*
X130390843Y-86249235D01*
X130341560Y-86497000D01*
X130341560Y-87190362D01*
X129439908Y-88092014D01*
X129361444Y-88144443D01*
X129309015Y-88222908D01*
X129309012Y-88222911D01*
X129153729Y-88455308D01*
X129110117Y-88674560D01*
X128939000Y-88674560D01*
X128691235Y-88723843D01*
X128481191Y-88864191D01*
X128402339Y-88982200D01*
X122859800Y-88982200D01*
X122859800Y-85239632D01*
X122967765Y-85218157D01*
X123177809Y-85077809D01*
X123318157Y-84867765D01*
X123326117Y-84827745D01*
X123591861Y-84827745D01*
X123665995Y-85073864D01*
X124203223Y-85266965D01*
X124773454Y-85239778D01*
X125174005Y-85073864D01*
X125248139Y-84827745D01*
X124420000Y-83999605D01*
X123591861Y-84827745D01*
X123326117Y-84827745D01*
X123364693Y-84633813D01*
X123412255Y-84648139D01*
X124240395Y-83820000D01*
X124599605Y-83820000D01*
X125427745Y-84648139D01*
X125673864Y-84574005D01*
X125866965Y-84036777D01*
X125839778Y-83466546D01*
X125673864Y-83065995D01*
X125427745Y-82991861D01*
X124599605Y-83820000D01*
X124240395Y-83820000D01*
X123412255Y-82991861D01*
X123364693Y-83006187D01*
X123326118Y-82812255D01*
X123591861Y-82812255D01*
X124420000Y-83640395D01*
X125248139Y-82812255D01*
X125174005Y-82566136D01*
X124636777Y-82373035D01*
X124066546Y-82400222D01*
X123665995Y-82566136D01*
X123591861Y-82812255D01*
X123326118Y-82812255D01*
X123318157Y-82772235D01*
X123177809Y-82562191D01*
X122967765Y-82421843D01*
X122720000Y-82372560D01*
X121120000Y-82372560D01*
X120872235Y-82421843D01*
X120662191Y-82562191D01*
X120521843Y-82772235D01*
X120472560Y-83020000D01*
X120472560Y-84620000D01*
X120521843Y-84867765D01*
X120662191Y-85077809D01*
X120872235Y-85218157D01*
X120980200Y-85239632D01*
X120980201Y-88982200D01*
X103655554Y-88982200D01*
X103563000Y-88963790D01*
X103470446Y-88982200D01*
X103470441Y-88982200D01*
X103196309Y-89036728D01*
X103196307Y-89036729D01*
X103196308Y-89036729D01*
X102963910Y-89192012D01*
X102963908Y-89192014D01*
X102885443Y-89244443D01*
X102833014Y-89322908D01*
X98987923Y-93168000D01*
X98642119Y-93168000D01*
X98128663Y-93380680D01*
X97735680Y-93773663D01*
X97523000Y-94287119D01*
X97523000Y-94842881D01*
X97735680Y-95356337D01*
X98128663Y-95749320D01*
X98642119Y-95962000D01*
X99197881Y-95962000D01*
X99711337Y-95749320D01*
X99915444Y-95545213D01*
X113519392Y-95545213D01*
X113588857Y-95787397D01*
X114112302Y-95974144D01*
X114667368Y-95946362D01*
X115051143Y-95787397D01*
X115120608Y-95545213D01*
X114320000Y-94744605D01*
X113519392Y-95545213D01*
X99915444Y-95545213D01*
X100104320Y-95356337D01*
X100317000Y-94842881D01*
X100317000Y-94497077D01*
X100456775Y-94357302D01*
X112910856Y-94357302D01*
X112938638Y-94912368D01*
X113097603Y-95296143D01*
X113339787Y-95365608D01*
X114140395Y-94565000D01*
X114499605Y-94565000D01*
X115300213Y-95365608D01*
X115542397Y-95296143D01*
X115729144Y-94772698D01*
X115701362Y-94217632D01*
X115599513Y-93971745D01*
X121258861Y-93971745D01*
X121332995Y-94217864D01*
X121870223Y-94410965D01*
X122440454Y-94383778D01*
X122841005Y-94217864D01*
X122915139Y-93971745D01*
X122087000Y-93143605D01*
X121258861Y-93971745D01*
X115599513Y-93971745D01*
X115542397Y-93833857D01*
X115300213Y-93764392D01*
X114499605Y-94565000D01*
X114140395Y-94565000D01*
X113339787Y-93764392D01*
X113097603Y-93833857D01*
X112910856Y-94357302D01*
X100456775Y-94357302D01*
X101229290Y-93584787D01*
X113519392Y-93584787D01*
X114320000Y-94385395D01*
X115120608Y-93584787D01*
X115051143Y-93342603D01*
X114527698Y-93155856D01*
X113972632Y-93183638D01*
X113588857Y-93342603D01*
X113519392Y-93584787D01*
X101229290Y-93584787D01*
X102066854Y-92747223D01*
X120640035Y-92747223D01*
X120667222Y-93317454D01*
X120833136Y-93718005D01*
X121079255Y-93792139D01*
X121907395Y-92964000D01*
X121079255Y-92135861D01*
X120833136Y-92209995D01*
X120640035Y-92747223D01*
X102066854Y-92747223D01*
X102857822Y-91956255D01*
X121258861Y-91956255D01*
X122087000Y-92784395D01*
X122915139Y-91956255D01*
X122841005Y-91710136D01*
X122303777Y-91517035D01*
X121733546Y-91544222D01*
X121332995Y-91710136D01*
X121258861Y-91956255D01*
X102857822Y-91956255D01*
X103952278Y-90861800D01*
X121827441Y-90861800D01*
X121920000Y-90880211D01*
X122012559Y-90861800D01*
X128402339Y-90861800D01*
X128481191Y-90979809D01*
X128691235Y-91120157D01*
X128939000Y-91169440D01*
X131139000Y-91169440D01*
X131386765Y-91120157D01*
X131596809Y-90979809D01*
X131737157Y-90769765D01*
X131786440Y-90522000D01*
X131786440Y-89322000D01*
X131757338Y-89175690D01*
X132504000Y-89175690D01*
X132504000Y-91916250D01*
X132662750Y-92075000D01*
X136212000Y-92075000D01*
X136212000Y-88825750D01*
X136466000Y-88825750D01*
X136466000Y-92075000D01*
X140015250Y-92075000D01*
X140174000Y-91916250D01*
X140174000Y-89175690D01*
X140077327Y-88942301D01*
X139898698Y-88763673D01*
X139665309Y-88667000D01*
X136624750Y-88667000D01*
X136466000Y-88825750D01*
X136212000Y-88825750D01*
X136053250Y-88667000D01*
X133012691Y-88667000D01*
X132779302Y-88763673D01*
X132600673Y-88942301D01*
X132504000Y-89175690D01*
X131757338Y-89175690D01*
X131737157Y-89074235D01*
X131596809Y-88864191D01*
X131434403Y-88755674D01*
X131795638Y-88394440D01*
X132489000Y-88394440D01*
X132736765Y-88345157D01*
X132946809Y-88204809D01*
X132987654Y-88143680D01*
X133129302Y-88285327D01*
X133362691Y-88382000D01*
X133953250Y-88382000D01*
X134112000Y-88223250D01*
X134112000Y-87249000D01*
X134366000Y-87249000D01*
X134366000Y-88223250D01*
X134524750Y-88382000D01*
X135115309Y-88382000D01*
X135348698Y-88285327D01*
X135527327Y-88106699D01*
X135624000Y-87873310D01*
X135624000Y-87434750D01*
X153023000Y-87434750D01*
X153023000Y-88333250D01*
X153181750Y-88492000D01*
X153466506Y-88492000D01*
X153531690Y-88519000D01*
X153819750Y-88519000D01*
X153846750Y-88492000D01*
X153978500Y-88492000D01*
X153978500Y-88393750D01*
X154076750Y-88492000D01*
X154361506Y-88492000D01*
X154366190Y-88493940D01*
X154391250Y-88519000D01*
X154714750Y-88519000D01*
X154739810Y-88493940D01*
X154744494Y-88492000D01*
X155256506Y-88492000D01*
X155261190Y-88493940D01*
X155286250Y-88519000D01*
X155609750Y-88519000D01*
X155634810Y-88493940D01*
X155639494Y-88492000D01*
X156151506Y-88492000D01*
X156156190Y-88493940D01*
X156181250Y-88519000D01*
X156504750Y-88519000D01*
X156529810Y-88493940D01*
X156534494Y-88492000D01*
X156819250Y-88492000D01*
X156917500Y-88393750D01*
X156917500Y-88492000D01*
X157049250Y-88492000D01*
X157076250Y-88519000D01*
X157364310Y-88519000D01*
X157429494Y-88492000D01*
X157714250Y-88492000D01*
X157873000Y-88333250D01*
X157873000Y-87434750D01*
X157714250Y-87276000D01*
X157429494Y-87276000D01*
X157364310Y-87249000D01*
X157076250Y-87249000D01*
X157049250Y-87276000D01*
X156917500Y-87276000D01*
X156917500Y-87374250D01*
X156819250Y-87276000D01*
X156534494Y-87276000D01*
X156529810Y-87274060D01*
X156504750Y-87249000D01*
X156181250Y-87249000D01*
X156156190Y-87274060D01*
X156151506Y-87276000D01*
X155639494Y-87276000D01*
X155634810Y-87274060D01*
X155609750Y-87249000D01*
X155286250Y-87249000D01*
X155261190Y-87274060D01*
X155256506Y-87276000D01*
X154744494Y-87276000D01*
X154739810Y-87274060D01*
X154714750Y-87249000D01*
X154391250Y-87249000D01*
X154366190Y-87274060D01*
X154361506Y-87276000D01*
X154076750Y-87276000D01*
X153978500Y-87374250D01*
X153978500Y-87276000D01*
X153846750Y-87276000D01*
X153819750Y-87249000D01*
X153531690Y-87249000D01*
X153466506Y-87276000D01*
X153181750Y-87276000D01*
X153023000Y-87434750D01*
X135624000Y-87434750D01*
X135624000Y-87407750D01*
X135465250Y-87249000D01*
X134366000Y-87249000D01*
X134112000Y-87249000D01*
X134092000Y-87249000D01*
X134092000Y-86995000D01*
X134112000Y-86995000D01*
X134112000Y-86975000D01*
X134366000Y-86975000D01*
X134366000Y-86995000D01*
X135465250Y-86995000D01*
X135624000Y-86836250D01*
X135624000Y-86370690D01*
X135527327Y-86137301D01*
X135438826Y-86048800D01*
X152461453Y-86048800D01*
X152490191Y-86091809D01*
X152700235Y-86232157D01*
X152948000Y-86281440D01*
X153025589Y-86281440D01*
X153023000Y-86287691D01*
X153023000Y-86863250D01*
X153181750Y-87022000D01*
X153978500Y-87022000D01*
X153978500Y-87002000D01*
X154056750Y-87002000D01*
X154076750Y-87022000D01*
X156819250Y-87022000D01*
X156839250Y-87002000D01*
X156917500Y-87002000D01*
X156917500Y-87022000D01*
X157714250Y-87022000D01*
X157873000Y-86863250D01*
X157873000Y-86287691D01*
X157870411Y-86281440D01*
X157948000Y-86281440D01*
X158195765Y-86232157D01*
X158405809Y-86091809D01*
X158546157Y-85881765D01*
X158572201Y-85750832D01*
X158572200Y-90017164D01*
X158546157Y-89886235D01*
X158405809Y-89676191D01*
X158195765Y-89535843D01*
X157948000Y-89486560D01*
X157870411Y-89486560D01*
X157873000Y-89480309D01*
X157873000Y-88904750D01*
X157714250Y-88746000D01*
X156917500Y-88746000D01*
X156917500Y-88766000D01*
X156839250Y-88766000D01*
X156819250Y-88746000D01*
X154076750Y-88746000D01*
X154056750Y-88766000D01*
X153978500Y-88766000D01*
X153978500Y-88746000D01*
X153181750Y-88746000D01*
X153023000Y-88904750D01*
X153023000Y-89480309D01*
X153025589Y-89486560D01*
X152948000Y-89486560D01*
X152700235Y-89535843D01*
X152490191Y-89676191D01*
X152349843Y-89886235D01*
X152300560Y-90134000D01*
X152300560Y-90646046D01*
X141168807Y-101777800D01*
X139950347Y-101777800D01*
X139929758Y-101746986D01*
X139851293Y-101694557D01*
X137633646Y-99476911D01*
X137581215Y-99398443D01*
X137270349Y-99190728D01*
X136996217Y-99136200D01*
X136996212Y-99136200D01*
X136903658Y-99117790D01*
X136811104Y-99136200D01*
X132678800Y-99136200D01*
X132678800Y-98516687D01*
X132736765Y-98505157D01*
X132946809Y-98364809D01*
X132987654Y-98303680D01*
X133129302Y-98445327D01*
X133362691Y-98542000D01*
X133953250Y-98542000D01*
X134112000Y-98383250D01*
X134112000Y-97409000D01*
X134366000Y-97409000D01*
X134366000Y-98383250D01*
X134524750Y-98542000D01*
X135115309Y-98542000D01*
X135348698Y-98445327D01*
X135527327Y-98266699D01*
X135624000Y-98033310D01*
X135624000Y-97567750D01*
X135465250Y-97409000D01*
X134366000Y-97409000D01*
X134112000Y-97409000D01*
X134092000Y-97409000D01*
X134092000Y-97155000D01*
X134112000Y-97155000D01*
X134112000Y-96180750D01*
X134366000Y-96180750D01*
X134366000Y-97155000D01*
X135465250Y-97155000D01*
X135624000Y-96996250D01*
X135624000Y-96530690D01*
X135527327Y-96297301D01*
X135348698Y-96118673D01*
X135115309Y-96022000D01*
X134524750Y-96022000D01*
X134366000Y-96180750D01*
X134112000Y-96180750D01*
X133953250Y-96022000D01*
X133362691Y-96022000D01*
X133129302Y-96118673D01*
X132987654Y-96260320D01*
X132946809Y-96199191D01*
X132736765Y-96058843D01*
X132489000Y-96009560D01*
X131795638Y-96009560D01*
X131434403Y-95648326D01*
X131596809Y-95539809D01*
X131737157Y-95329765D01*
X131786440Y-95082000D01*
X131786440Y-93882000D01*
X131737157Y-93634235D01*
X131596809Y-93424191D01*
X131386765Y-93283843D01*
X131139000Y-93234560D01*
X128939000Y-93234560D01*
X128691235Y-93283843D01*
X128481191Y-93424191D01*
X128402339Y-93542200D01*
X126034440Y-93542200D01*
X126034440Y-92487750D01*
X132504000Y-92487750D01*
X132504000Y-95228310D01*
X132600673Y-95461699D01*
X132779302Y-95640327D01*
X133012691Y-95737000D01*
X136053250Y-95737000D01*
X136212000Y-95578250D01*
X136212000Y-92329000D01*
X136466000Y-92329000D01*
X136466000Y-95578250D01*
X136624750Y-95737000D01*
X139665309Y-95737000D01*
X139898698Y-95640327D01*
X140077327Y-95461699D01*
X140174000Y-95228310D01*
X140174000Y-92487750D01*
X140015250Y-92329000D01*
X136466000Y-92329000D01*
X136212000Y-92329000D01*
X132662750Y-92329000D01*
X132504000Y-92487750D01*
X126034440Y-92487750D01*
X126034440Y-92164000D01*
X125985157Y-91916235D01*
X125844809Y-91706191D01*
X125634765Y-91565843D01*
X125387000Y-91516560D01*
X123787000Y-91516560D01*
X123539235Y-91565843D01*
X123329191Y-91706191D01*
X123188843Y-91916235D01*
X123142307Y-92150187D01*
X123094745Y-92135861D01*
X122266605Y-92964000D01*
X123094745Y-93792139D01*
X123142307Y-93777813D01*
X123188843Y-94011765D01*
X123329191Y-94221809D01*
X123377460Y-94254062D01*
X118449736Y-99181786D01*
X118226086Y-98641847D01*
X117766153Y-98181914D01*
X117165222Y-97933000D01*
X116514778Y-97933000D01*
X115913847Y-98181914D01*
X115570000Y-98525761D01*
X115226153Y-98181914D01*
X114625222Y-97933000D01*
X113974778Y-97933000D01*
X113373847Y-98181914D01*
X113030000Y-98525761D01*
X112686153Y-98181914D01*
X112085222Y-97933000D01*
X111434778Y-97933000D01*
X110833847Y-98181914D01*
X110490000Y-98525761D01*
X110146153Y-98181914D01*
X109545222Y-97933000D01*
X108894778Y-97933000D01*
X108293847Y-98181914D01*
X107950000Y-98525761D01*
X107606153Y-98181914D01*
X107005222Y-97933000D01*
X106354778Y-97933000D01*
X105753847Y-98181914D01*
X105410000Y-98525761D01*
X105066153Y-98181914D01*
X104465222Y-97933000D01*
X103814778Y-97933000D01*
X103213847Y-98181914D01*
X102870000Y-98525761D01*
X102526153Y-98181914D01*
X101925222Y-97933000D01*
X101274778Y-97933000D01*
X100673847Y-98181914D01*
X100330000Y-98525761D01*
X99986153Y-98181914D01*
X99385222Y-97933000D01*
X98734778Y-97933000D01*
X98133847Y-98181914D01*
X97790000Y-98525761D01*
X97446153Y-98181914D01*
X96845222Y-97933000D01*
X96194778Y-97933000D01*
X95710000Y-98133802D01*
X95710000Y-79883000D01*
X124405523Y-79883000D01*
X130549488Y-86026966D01*
G36*
X163751843Y-90051765D02*
X163892191Y-90261809D01*
X164102235Y-90402157D01*
X164350000Y-90451440D01*
X165850000Y-90451440D01*
X166097765Y-90402157D01*
X166307809Y-90261809D01*
X166420070Y-90093800D01*
X166488723Y-90093800D01*
X167140664Y-90745741D01*
X167029000Y-91015322D01*
X167029000Y-91864678D01*
X167354034Y-92649380D01*
X167954620Y-93249966D01*
X168739322Y-93575000D01*
X169588678Y-93575000D01*
X170181402Y-93329486D01*
X170181402Y-97348521D01*
X170064912Y-97465011D01*
X170064909Y-97465013D01*
X169858258Y-97671664D01*
X169588678Y-97560000D01*
X168739322Y-97560000D01*
X167954620Y-97885034D01*
X167354034Y-98485620D01*
X167029000Y-99270322D01*
X167029000Y-100119678D01*
X167140664Y-100389259D01*
X166340249Y-101189674D01*
X166197086Y-100975414D01*
X165905935Y-100780874D01*
X165562500Y-100712560D01*
X164637500Y-100712560D01*
X164294065Y-100780874D01*
X164234510Y-100820667D01*
X164234510Y-93283264D01*
X164252920Y-93190710D01*
X164234510Y-93098156D01*
X164234510Y-93098151D01*
X164179982Y-92824019D01*
X164179981Y-92824017D01*
X164024698Y-92591620D01*
X164024696Y-92591618D01*
X163972267Y-92513153D01*
X163893802Y-92460724D01*
X161884517Y-90451440D01*
X163150000Y-90451440D01*
X163397765Y-90402157D01*
X163607809Y-90261809D01*
X163748157Y-90051765D01*
X163750000Y-90042500D01*
X163751843Y-90051765D01*
X163751843Y-90051765D01*
G37*
X163751843Y-90051765D02*
X163892191Y-90261809D01*
X164102235Y-90402157D01*
X164350000Y-90451440D01*
X165850000Y-90451440D01*
X166097765Y-90402157D01*
X166307809Y-90261809D01*
X166420070Y-90093800D01*
X166488723Y-90093800D01*
X167140664Y-90745741D01*
X167029000Y-91015322D01*
X167029000Y-91864678D01*
X167354034Y-92649380D01*
X167954620Y-93249966D01*
X168739322Y-93575000D01*
X169588678Y-93575000D01*
X170181402Y-93329486D01*
X170181402Y-97348521D01*
X170064912Y-97465011D01*
X170064909Y-97465013D01*
X169858258Y-97671664D01*
X169588678Y-97560000D01*
X168739322Y-97560000D01*
X167954620Y-97885034D01*
X167354034Y-98485620D01*
X167029000Y-99270322D01*
X167029000Y-100119678D01*
X167140664Y-100389259D01*
X166340249Y-101189674D01*
X166197086Y-100975414D01*
X165905935Y-100780874D01*
X165562500Y-100712560D01*
X164637500Y-100712560D01*
X164294065Y-100780874D01*
X164234510Y-100820667D01*
X164234510Y-93283264D01*
X164252920Y-93190710D01*
X164234510Y-93098156D01*
X164234510Y-93098151D01*
X164179982Y-92824019D01*
X164179981Y-92824017D01*
X164024698Y-92591620D01*
X164024696Y-92591618D01*
X163972267Y-92513153D01*
X163893802Y-92460724D01*
X161884517Y-90451440D01*
X163150000Y-90451440D01*
X163397765Y-90402157D01*
X163607809Y-90261809D01*
X163748157Y-90051765D01*
X163750000Y-90042500D01*
X163751843Y-90051765D01*
G36*
X167140664Y-74870741D02*
X167029000Y-75140322D01*
X167029000Y-75989678D01*
X167354034Y-76774380D01*
X167954620Y-77374966D01*
X168739322Y-77700000D01*
X169588678Y-77700000D01*
X170181402Y-77454486D01*
X170181402Y-81473521D01*
X170064912Y-81590011D01*
X170064909Y-81590013D01*
X169858258Y-81796664D01*
X169588678Y-81685000D01*
X168739322Y-81685000D01*
X167954620Y-82010034D01*
X167354034Y-82610620D01*
X167029000Y-83395322D01*
X167029000Y-84244678D01*
X167140664Y-84514259D01*
X166340249Y-85314674D01*
X166197086Y-85100414D01*
X165905935Y-84905874D01*
X165562500Y-84837560D01*
X164637500Y-84837560D01*
X164294065Y-84905874D01*
X164136897Y-85010890D01*
X164122538Y-84989400D01*
X164024698Y-84842972D01*
X164024696Y-84842970D01*
X163972267Y-84764505D01*
X163893802Y-84712076D01*
X162366736Y-83185011D01*
X163736110Y-83185011D01*
X164084000Y-83254210D01*
X164450692Y-83181271D01*
X164683089Y-83025988D01*
X165699092Y-82009986D01*
X165777557Y-81957557D01*
X165829986Y-81879092D01*
X165829988Y-81879090D01*
X165985271Y-81646693D01*
X165985271Y-81646692D01*
X165985272Y-81646691D01*
X166039800Y-81372559D01*
X166039800Y-81372554D01*
X166058210Y-81280000D01*
X166039800Y-81187446D01*
X166039800Y-74284687D01*
X166097765Y-74273157D01*
X166307809Y-74132809D01*
X166345830Y-74075907D01*
X167140664Y-74870741D01*
X167140664Y-74870741D01*
G37*
X167140664Y-74870741D02*
X167029000Y-75140322D01*
X167029000Y-75989678D01*
X167354034Y-76774380D01*
X167954620Y-77374966D01*
X168739322Y-77700000D01*
X169588678Y-77700000D01*
X170181402Y-77454486D01*
X170181402Y-81473521D01*
X170064912Y-81590011D01*
X170064909Y-81590013D01*
X169858258Y-81796664D01*
X169588678Y-81685000D01*
X168739322Y-81685000D01*
X167954620Y-82010034D01*
X167354034Y-82610620D01*
X167029000Y-83395322D01*
X167029000Y-84244678D01*
X167140664Y-84514259D01*
X166340249Y-85314674D01*
X166197086Y-85100414D01*
X165905935Y-84905874D01*
X165562500Y-84837560D01*
X164637500Y-84837560D01*
X164294065Y-84905874D01*
X164136897Y-85010890D01*
X164122538Y-84989400D01*
X164024698Y-84842972D01*
X164024696Y-84842970D01*
X163972267Y-84764505D01*
X163893802Y-84712076D01*
X162366736Y-83185011D01*
X163736110Y-83185011D01*
X164084000Y-83254210D01*
X164450692Y-83181271D01*
X164683089Y-83025988D01*
X165699092Y-82009986D01*
X165777557Y-81957557D01*
X165829986Y-81879092D01*
X165829988Y-81879090D01*
X165985271Y-81646693D01*
X165985271Y-81646692D01*
X165985272Y-81646691D01*
X166039800Y-81372559D01*
X166039800Y-81372554D01*
X166058210Y-81280000D01*
X166039800Y-81187446D01*
X166039800Y-74284687D01*
X166097765Y-74273157D01*
X166307809Y-74132809D01*
X166345830Y-74075907D01*
X167140664Y-74870741D01*
G36*
X137707700Y-79915319D02*
X137550414Y-80020414D01*
X137355874Y-80311565D01*
X137287560Y-80655000D01*
X137287560Y-81905000D01*
X137355874Y-82248435D01*
X137550414Y-82539586D01*
X137841565Y-82734126D01*
X138185000Y-82802440D01*
X139110000Y-82802440D01*
X139453435Y-82734126D01*
X139744586Y-82539586D01*
X139939126Y-82248435D01*
X140007440Y-81905000D01*
X140007440Y-80655000D01*
X139939126Y-80311565D01*
X139744586Y-80020414D01*
X139587300Y-79915319D01*
X139587300Y-79883000D01*
X142504307Y-79883000D01*
X142547443Y-79947557D01*
X142625910Y-79999988D01*
X143937560Y-81311638D01*
X143937560Y-81930000D01*
X143986843Y-82177765D01*
X144127191Y-82387809D01*
X144337235Y-82528157D01*
X144377474Y-82536161D01*
X144376790Y-82539600D01*
X144449729Y-82906292D01*
X144605012Y-83138689D01*
X144605015Y-83138692D01*
X144657444Y-83217157D01*
X144735908Y-83269585D01*
X145377414Y-83911092D01*
X145429843Y-83989557D01*
X145508308Y-84041986D01*
X145508310Y-84041988D01*
X145634329Y-84126191D01*
X145698696Y-84169200D01*
X134493278Y-84169200D01*
X132901518Y-82577440D01*
X133625000Y-82577440D01*
X133872765Y-82528157D01*
X134082809Y-82387809D01*
X134223157Y-82177765D01*
X134245110Y-82067400D01*
X134344864Y-82067400D01*
X134380874Y-82248435D01*
X134575414Y-82539586D01*
X134866565Y-82734126D01*
X135210000Y-82802440D01*
X136135000Y-82802440D01*
X136478435Y-82734126D01*
X136769586Y-82539586D01*
X136964126Y-82248435D01*
X137032440Y-81905000D01*
X137032440Y-80655000D01*
X136964126Y-80311565D01*
X136769586Y-80020414D01*
X136563930Y-79883000D01*
X137707700Y-79883000D01*
X137707700Y-79915319D01*
X137707700Y-79915319D01*
G37*
X137707700Y-79915319D02*
X137550414Y-80020414D01*
X137355874Y-80311565D01*
X137287560Y-80655000D01*
X137287560Y-81905000D01*
X137355874Y-82248435D01*
X137550414Y-82539586D01*
X137841565Y-82734126D01*
X138185000Y-82802440D01*
X139110000Y-82802440D01*
X139453435Y-82734126D01*
X139744586Y-82539586D01*
X139939126Y-82248435D01*
X140007440Y-81905000D01*
X140007440Y-80655000D01*
X139939126Y-80311565D01*
X139744586Y-80020414D01*
X139587300Y-79915319D01*
X139587300Y-79883000D01*
X142504307Y-79883000D01*
X142547443Y-79947557D01*
X142625910Y-79999988D01*
X143937560Y-81311638D01*
X143937560Y-81930000D01*
X143986843Y-82177765D01*
X144127191Y-82387809D01*
X144337235Y-82528157D01*
X144377474Y-82536161D01*
X144376790Y-82539600D01*
X144449729Y-82906292D01*
X144605012Y-83138689D01*
X144605015Y-83138692D01*
X144657444Y-83217157D01*
X144735908Y-83269585D01*
X145377414Y-83911092D01*
X145429843Y-83989557D01*
X145508308Y-84041986D01*
X145508310Y-84041988D01*
X145634329Y-84126191D01*
X145698696Y-84169200D01*
X134493278Y-84169200D01*
X132901518Y-82577440D01*
X133625000Y-82577440D01*
X133872765Y-82528157D01*
X134082809Y-82387809D01*
X134223157Y-82177765D01*
X134245110Y-82067400D01*
X134344864Y-82067400D01*
X134380874Y-82248435D01*
X134575414Y-82539586D01*
X134866565Y-82734126D01*
X135210000Y-82802440D01*
X136135000Y-82802440D01*
X136478435Y-82734126D01*
X136769586Y-82539586D01*
X136964126Y-82248435D01*
X137032440Y-81905000D01*
X137032440Y-80655000D01*
X136964126Y-80311565D01*
X136769586Y-80020414D01*
X136563930Y-79883000D01*
X137707700Y-79883000D01*
X137707700Y-79915319D01*
G36*
X167029000Y-60114678D02*
X167354034Y-60899380D01*
X167954620Y-61499966D01*
X168739322Y-61825000D01*
X169588678Y-61825000D01*
X170181401Y-61579486D01*
X170181401Y-65598522D01*
X169858259Y-65921664D01*
X169588678Y-65810000D01*
X168739322Y-65810000D01*
X167954620Y-66135034D01*
X167354034Y-66735620D01*
X167029000Y-67520322D01*
X167029000Y-68369678D01*
X167140664Y-68639259D01*
X166521500Y-69258423D01*
X166414586Y-69098414D01*
X166123435Y-68903874D01*
X165780000Y-68835560D01*
X164855000Y-68835560D01*
X164832599Y-68840016D01*
X164832599Y-60551478D01*
X165031637Y-60352440D01*
X165850000Y-60352440D01*
X166097765Y-60303157D01*
X166307809Y-60162809D01*
X166420070Y-59994800D01*
X167029000Y-59994800D01*
X167029000Y-60114678D01*
X167029000Y-60114678D01*
G37*
X167029000Y-60114678D02*
X167354034Y-60899380D01*
X167954620Y-61499966D01*
X168739322Y-61825000D01*
X169588678Y-61825000D01*
X170181401Y-61579486D01*
X170181401Y-65598522D01*
X169858259Y-65921664D01*
X169588678Y-65810000D01*
X168739322Y-65810000D01*
X167954620Y-66135034D01*
X167354034Y-66735620D01*
X167029000Y-67520322D01*
X167029000Y-68369678D01*
X167140664Y-68639259D01*
X166521500Y-69258423D01*
X166414586Y-69098414D01*
X166123435Y-68903874D01*
X165780000Y-68835560D01*
X164855000Y-68835560D01*
X164832599Y-68840016D01*
X164832599Y-60551478D01*
X165031637Y-60352440D01*
X165850000Y-60352440D01*
X166097765Y-60303157D01*
X166307809Y-60162809D01*
X166420070Y-59994800D01*
X167029000Y-59994800D01*
X167029000Y-60114678D01*
G04 #@! TD*
M02*
