G04 #@! TF.GenerationSoftware,KiCad,Pcbnew,5.0.0-fee4fd1~66~ubuntu16.04.1*
G04 #@! TF.CreationDate,2019-07-26T21:19:50+02:00*
G04 #@! TF.ProjectId,master_module,6D61737465725F6D6F64756C652E6B69,rev?*
G04 #@! TF.SameCoordinates,Original*
G04 #@! TF.FileFunction,Legend,Bot*
G04 #@! TF.FilePolarity,Positive*
%FSLAX46Y46*%
G04 Gerber Fmt 4.6, Leading zero omitted, Abs format (unit mm)*
G04 Created by KiCad (PCBNEW 5.0.0-fee4fd1~66~ubuntu16.04.1) date Fri Jul 26 21:19:50 2019*
%MOMM*%
%LPD*%
G01*
G04 APERTURE LIST*
%ADD10C,0.300000*%
G04 APERTURE END LIST*
D10*
X177362657Y-123436342D02*
X177362657Y-122293485D01*
X176791228Y-120436342D02*
X178291228Y-120436342D01*
X178291228Y-119864914D01*
X178219800Y-119722057D01*
X178148371Y-119650628D01*
X178005514Y-119579200D01*
X177791228Y-119579200D01*
X177648371Y-119650628D01*
X177576942Y-119722057D01*
X177505514Y-119864914D01*
X177505514Y-120436342D01*
X178291228Y-118293485D02*
X178291228Y-118579200D01*
X178219800Y-118722057D01*
X178148371Y-118793485D01*
X177934085Y-118936342D01*
X177648371Y-119007771D01*
X177076942Y-119007771D01*
X176934085Y-118936342D01*
X176862657Y-118864914D01*
X176791228Y-118722057D01*
X176791228Y-118436342D01*
X176862657Y-118293485D01*
X176934085Y-118222057D01*
X177076942Y-118150628D01*
X177434085Y-118150628D01*
X177576942Y-118222057D01*
X177648371Y-118293485D01*
X177719800Y-118436342D01*
X177719800Y-118722057D01*
X177648371Y-118864914D01*
X177576942Y-118936342D01*
X177434085Y-119007771D01*
X177362657Y-116364914D02*
X177362657Y-115222057D01*
X176791228Y-115793485D02*
X177934085Y-115793485D01*
X177591257Y-107231142D02*
X177591257Y-106088285D01*
X177019828Y-104231142D02*
X178519828Y-104231142D01*
X178519828Y-103659714D01*
X178448400Y-103516857D01*
X178376971Y-103445428D01*
X178234114Y-103374000D01*
X178019828Y-103374000D01*
X177876971Y-103445428D01*
X177805542Y-103516857D01*
X177734114Y-103659714D01*
X177734114Y-104231142D01*
X178519828Y-102016857D02*
X178519828Y-102731142D01*
X177805542Y-102802571D01*
X177876971Y-102731142D01*
X177948400Y-102588285D01*
X177948400Y-102231142D01*
X177876971Y-102088285D01*
X177805542Y-102016857D01*
X177662685Y-101945428D01*
X177305542Y-101945428D01*
X177162685Y-102016857D01*
X177091257Y-102088285D01*
X177019828Y-102231142D01*
X177019828Y-102588285D01*
X177091257Y-102731142D01*
X177162685Y-102802571D01*
X177591257Y-100159714D02*
X177591257Y-99016857D01*
X177019828Y-99588285D02*
X178162685Y-99588285D01*
X177413457Y-91508542D02*
X177413457Y-90365685D01*
X176842028Y-88508542D02*
X178342028Y-88508542D01*
X178342028Y-87937114D01*
X178270600Y-87794257D01*
X178199171Y-87722828D01*
X178056314Y-87651400D01*
X177842028Y-87651400D01*
X177699171Y-87722828D01*
X177627742Y-87794257D01*
X177556314Y-87937114D01*
X177556314Y-88508542D01*
X177842028Y-86365685D02*
X176842028Y-86365685D01*
X178413457Y-86722828D02*
X177342028Y-87079971D01*
X177342028Y-86151400D01*
X177413457Y-84437114D02*
X177413457Y-83294257D01*
X176842028Y-83865685D02*
X177984885Y-83865685D01*
X177565857Y-75277942D02*
X177565857Y-74135085D01*
X176994428Y-72277942D02*
X178494428Y-72277942D01*
X178494428Y-71706514D01*
X178423000Y-71563657D01*
X178351571Y-71492228D01*
X178208714Y-71420800D01*
X177994428Y-71420800D01*
X177851571Y-71492228D01*
X177780142Y-71563657D01*
X177708714Y-71706514D01*
X177708714Y-72277942D01*
X178494428Y-70920800D02*
X178494428Y-69992228D01*
X177923000Y-70492228D01*
X177923000Y-70277942D01*
X177851571Y-70135085D01*
X177780142Y-70063657D01*
X177637285Y-69992228D01*
X177280142Y-69992228D01*
X177137285Y-70063657D01*
X177065857Y-70135085D01*
X176994428Y-70277942D01*
X176994428Y-70706514D01*
X177065857Y-70849371D01*
X177137285Y-70920800D01*
X177565857Y-68206514D02*
X177565857Y-67063657D01*
X176994428Y-67635085D02*
X178137285Y-67635085D01*
X177489657Y-60190342D02*
X177489657Y-59047485D01*
X176918228Y-57190342D02*
X178418228Y-57190342D01*
X178418228Y-56618914D01*
X178346800Y-56476057D01*
X178275371Y-56404628D01*
X178132514Y-56333200D01*
X177918228Y-56333200D01*
X177775371Y-56404628D01*
X177703942Y-56476057D01*
X177632514Y-56618914D01*
X177632514Y-57190342D01*
X178275371Y-55761771D02*
X178346800Y-55690342D01*
X178418228Y-55547485D01*
X178418228Y-55190342D01*
X178346800Y-55047485D01*
X178275371Y-54976057D01*
X178132514Y-54904628D01*
X177989657Y-54904628D01*
X177775371Y-54976057D01*
X176918228Y-55833200D01*
X176918228Y-54904628D01*
X177489657Y-53118914D02*
X177489657Y-51976057D01*
X176918228Y-52547485D02*
X178061085Y-52547485D01*
X162653942Y-42093342D02*
X161511085Y-42093342D01*
X159653942Y-42664771D02*
X159653942Y-41164771D01*
X159082514Y-41164771D01*
X158939657Y-41236200D01*
X158868228Y-41307628D01*
X158796800Y-41450485D01*
X158796800Y-41664771D01*
X158868228Y-41807628D01*
X158939657Y-41879057D01*
X159082514Y-41950485D01*
X159653942Y-41950485D01*
X157368228Y-42664771D02*
X158225371Y-42664771D01*
X157796800Y-42664771D02*
X157796800Y-41164771D01*
X157939657Y-41379057D01*
X158082514Y-41521914D01*
X158225371Y-41593342D01*
X155582514Y-42093342D02*
X154439657Y-42093342D01*
X155011085Y-42664771D02*
X155011085Y-41521914D01*
X147001228Y-42283771D02*
X147501228Y-41569485D01*
X147858371Y-42283771D02*
X147858371Y-40783771D01*
X147286942Y-40783771D01*
X147144085Y-40855200D01*
X147072657Y-40926628D01*
X147001228Y-41069485D01*
X147001228Y-41283771D01*
X147072657Y-41426628D01*
X147144085Y-41498057D01*
X147286942Y-41569485D01*
X147858371Y-41569485D01*
X146358371Y-41498057D02*
X145858371Y-41498057D01*
X145644085Y-42283771D02*
X146358371Y-42283771D01*
X146358371Y-40783771D01*
X145644085Y-40783771D01*
X144286942Y-42283771D02*
X145001228Y-42283771D01*
X145001228Y-40783771D01*
X143858371Y-41855200D02*
X143144085Y-41855200D01*
X144001228Y-42283771D02*
X143501228Y-40783771D01*
X143001228Y-42283771D01*
X142501228Y-42283771D02*
X142501228Y-40783771D01*
X141858371Y-42212342D02*
X141644085Y-42283771D01*
X141286942Y-42283771D01*
X141144085Y-42212342D01*
X141072657Y-42140914D01*
X141001228Y-41998057D01*
X141001228Y-41855200D01*
X141072657Y-41712342D01*
X141144085Y-41640914D01*
X141286942Y-41569485D01*
X141572657Y-41498057D01*
X141715514Y-41426628D01*
X141786942Y-41355200D01*
X141858371Y-41212342D01*
X141858371Y-41069485D01*
X141786942Y-40926628D01*
X141715514Y-40855200D01*
X141572657Y-40783771D01*
X141215514Y-40783771D01*
X141001228Y-40855200D01*
X140715514Y-42426628D02*
X139572657Y-42426628D01*
X139286942Y-40926628D02*
X139215514Y-40855200D01*
X139072657Y-40783771D01*
X138715514Y-40783771D01*
X138572657Y-40855200D01*
X138501228Y-40926628D01*
X138429800Y-41069485D01*
X138429800Y-41212342D01*
X138501228Y-41426628D01*
X139358371Y-42283771D01*
X138429800Y-42283771D01*
X131202428Y-42232971D02*
X131702428Y-41518685D01*
X132059571Y-42232971D02*
X132059571Y-40732971D01*
X131488142Y-40732971D01*
X131345285Y-40804400D01*
X131273857Y-40875828D01*
X131202428Y-41018685D01*
X131202428Y-41232971D01*
X131273857Y-41375828D01*
X131345285Y-41447257D01*
X131488142Y-41518685D01*
X132059571Y-41518685D01*
X130559571Y-41447257D02*
X130059571Y-41447257D01*
X129845285Y-42232971D02*
X130559571Y-42232971D01*
X130559571Y-40732971D01*
X129845285Y-40732971D01*
X128488142Y-42232971D02*
X129202428Y-42232971D01*
X129202428Y-40732971D01*
X128059571Y-41804400D02*
X127345285Y-41804400D01*
X128202428Y-42232971D02*
X127702428Y-40732971D01*
X127202428Y-42232971D01*
X126702428Y-42232971D02*
X126702428Y-40732971D01*
X126059571Y-42161542D02*
X125845285Y-42232971D01*
X125488142Y-42232971D01*
X125345285Y-42161542D01*
X125273857Y-42090114D01*
X125202428Y-41947257D01*
X125202428Y-41804400D01*
X125273857Y-41661542D01*
X125345285Y-41590114D01*
X125488142Y-41518685D01*
X125773857Y-41447257D01*
X125916714Y-41375828D01*
X125988142Y-41304400D01*
X126059571Y-41161542D01*
X126059571Y-41018685D01*
X125988142Y-40875828D01*
X125916714Y-40804400D01*
X125773857Y-40732971D01*
X125416714Y-40732971D01*
X125202428Y-40804400D01*
X124916714Y-42375828D02*
X123773857Y-42375828D01*
X122631000Y-42232971D02*
X123488142Y-42232971D01*
X123059571Y-42232971D02*
X123059571Y-40732971D01*
X123202428Y-40947257D01*
X123345285Y-41090114D01*
X123488142Y-41161542D01*
X115059885Y-40850428D02*
X114988457Y-40779000D01*
X114845600Y-40707571D01*
X114488457Y-40707571D01*
X114345600Y-40779000D01*
X114274171Y-40850428D01*
X114202742Y-40993285D01*
X114202742Y-41136142D01*
X114274171Y-41350428D01*
X115131314Y-42207571D01*
X114202742Y-42207571D01*
X113702742Y-40707571D02*
X112774171Y-40707571D01*
X113274171Y-41279000D01*
X113059885Y-41279000D01*
X112917028Y-41350428D01*
X112845600Y-41421857D01*
X112774171Y-41564714D01*
X112774171Y-41921857D01*
X112845600Y-42064714D01*
X112917028Y-42136142D01*
X113059885Y-42207571D01*
X113488457Y-42207571D01*
X113631314Y-42136142D01*
X113702742Y-42064714D01*
X111845600Y-40707571D02*
X111702742Y-40707571D01*
X111559885Y-40779000D01*
X111488457Y-40850428D01*
X111417028Y-40993285D01*
X111345600Y-41279000D01*
X111345600Y-41636142D01*
X111417028Y-41921857D01*
X111488457Y-42064714D01*
X111559885Y-42136142D01*
X111702742Y-42207571D01*
X111845600Y-42207571D01*
X111988457Y-42136142D01*
X112059885Y-42064714D01*
X112131314Y-41921857D01*
X112202742Y-41636142D01*
X112202742Y-41279000D01*
X112131314Y-40993285D01*
X112059885Y-40850428D01*
X111988457Y-40779000D01*
X111845600Y-40707571D01*
X110917028Y-40707571D02*
X110417028Y-42207571D01*
X109917028Y-40707571D01*
X108274171Y-42207571D02*
X108274171Y-40707571D01*
X107559885Y-42207571D02*
X107559885Y-40707571D01*
X106702742Y-42207571D01*
X106702742Y-40707571D01*
M02*
